/* XPM */
static char * stickfcs_xpm[] = {
"17 17 27 1",
" 	c #797977",
".	c #717170",
"+	c #676766",
"@	c #606160",
"#	c #AFB0AF",
"$	c #575857",
"%	c #ABABAB",
"&	c #191818",
"*	c #29292A",
"=	c #3A393A",
"-	c #4A4B4B",
";	c #545453",
">	c #A9A9A9",
",	c #302F30",
"'	c #404040",
")	c #515151",
"!	c #626162",
"~	c #464747",
"{	c #575757",
"]	c #686867",
"^	c #797879",
"/	c #5D5D5D",
"(	c #6E6E6E",
"_	c #7E7F7F",
":	c #8F8F8F",
"<	c #646463",
"[	c #6B6C6B",
"                 ",
"                 ",
"                 ",
"                 ",
".................",
"+++++++++++++++++",
"@@@@@@######@@@@@",
"$$$$$$%&*=-%$$$$$",
";;;;;;>,')!>;;;;;",
";;;;;;>~{]^>;;;;;",
";;;;;;>/(_:>;;;;;",
"$$$$$$%%%%%%$$$$$",
"$$$$$$$$$$$$$$$$$",
"@@@@@@@@@@@@@@@@@",
"@@@@@@@@@@@@@@@@@",
"<<<<<<<<<<<<<<<<<",
"[[[[[[[[[[[[[[[[["};
