/* XPM */
static char * shadefcs_xpm[] = {
"15 15 3 1",
" 	c #AB8150",
".	c #C3AD92",
"+	c #AD8557",
"               ",
"               ",
"               ",
"               ",
"               ",
"       .       ",
"      ...      ",
"+++++.....+++++",
"...............",
"...............",
"...............",
"...............",
"...............",
"...............",
"..............."};
