/* XPM */
static char * menuiconpr_xpm[] = {
"19 19 214 2",
"  	c #FBFBFB",
". 	c #A0AC50",
"+ 	c #A0AC51",
"@ 	c #A0AD51",
"# 	c #A1AD52",
"$ 	c #A1AD53",
"% 	c #A2AD53",
"& 	c #A2AE54",
"* 	c #A2AD54",
"= 	c #A4B057",
"- 	c #A4AF58",
"; 	c #A4B058",
"> 	c #A5B059",
", 	c #A6B159",
"' 	c #A6B15A",
") 	c #A6B15B",
"! 	c #A7B15C",
"~ 	c #A6B15D",
"{ 	c #A7B25D",
"] 	c #A7B25E",
"^ 	c #A8B35E",
"/ 	c #A8B35F",
"( 	c #A9B360",
"_ 	c #A8B360",
": 	c #A9B461",
"< 	c #ABB563",
"[ 	c #ABB564",
"} 	c #ABB565",
"| 	c #ACB665",
"1 	c #ABB566",
"2 	c #ACB666",
"3 	c #ACB667",
"4 	c #ADB768",
"5 	c #ADB769",
"6 	c #AEB768",
"7 	c #AEB86A",
"8 	c #AEB96B",
"9 	c #AEB86B",
"0 	c #AFB96C",
"a 	c #B0B96D",
"b 	c #B1BB70",
"c 	c #B1BB71",
"d 	c #B2BB71",
"e 	c #B2BC72",
"f 	c #B3BC73",
"g 	c #12120B",
"h 	c #12130B",
"i 	c #12130C",
"j 	c #B5BD76",
"k 	c #B4BE77",
"l 	c #B5BE77",
"m 	c #B6BE78",
"n 	c #B5BE78",
"o 	c #B6BF78",
"p 	c #B6BF79",
"q 	c #B8C07C",
"r 	c #B8C17C",
"s 	c #B9C17D",
"t 	c #B8C17E",
"u 	c #B9C17E",
"v 	c #B9C27F",
"w 	c #BAC280",
"x 	c #BAC380",
"y 	c #BBC381",
"z 	c #BAC381",
"A 	c #BBC382",
"B 	c #BBC483",
"C 	c #BCC484",
"D 	c #BCC485",
"E 	c #BDC585",
"F 	c #BEC689",
"G 	c #BFC689",
"H 	c #BFC78A",
"I 	c #BFC78B",
"J 	c #C0C78B",
"K 	c #C1C78C",
"L 	c #13140E",
"M 	c #C2C98F",
"N 	c #C2CA8F",
"O 	c #C2CA90",
"P 	c #C3CA91",
"Q 	c #C3CA92",
"R 	c #C4CA92",
"S 	c #C5CC95",
"T 	c #C5CC96",
"U 	c #C6CC96",
"V 	c #C6CC97",
"W 	c #C7CD97",
"X 	c #C7CD98",
"Y 	c #C7CD99",
"Z 	c #C7CE9A",
"` 	c #C8CE9A",
" .	c #C8CF9B",
"..	c #C9CF9B",
"+.	c #C9CE9B",
"@.	c #C9CF9C",
"#.	c #CACF9D",
"$.	c #CAD09E",
"%.	c #CAD09D",
"&.	c #CCD1A1",
"*.	c #CDD1A2",
"=.	c #CCD2A2",
"-.	c #CDD2A3",
";.	c #CDD3A3",
">.	c #CDD3A4",
",.	c #CED2A5",
"'.	c #CED3A5",
").	c #CED3A6",
"!.	c #CED4A6",
"~.	c #CED4A7",
"{.	c #CFD4A7",
"].	c #CFD4A8",
"^.	c #D0D5A8",
"/.	c #D0D5A9",
"(.	c #D0D6AA",
"_.	c #D1D6AB",
":.	c #D3D7AE",
"<.	c #D2D7AF",
"[.	c #D4D8AF",
"}.	c #D4D8B0",
"|.	c #D4D9B0",
"1.	c #D4D8B1",
"2.	c #D4D9B1",
"3.	c #D4DAB2",
"4.	c #D5D9B2",
"5.	c #D6D9B3",
"6.	c #D6DAB3",
"7.	c #D5DAB4",
"8.	c #D6DBB5",
"9.	c #D7DBB5",
"0.	c #D7DBB6",
"a.	c #D8DBB6",
"b.	c #D7DCB7",
"c.	c #D9DDBA",
"d.	c #DADEBB",
"e.	c #DADDBC",
"f.	c #DADEBC",
"g.	c #DBDEBD",
"h.	c #DCDFBE",
"i.	c #DBDEBE",
"j.	c #DCDFBF",
"k.	c #DBE0BF",
"l.	c #DCDFC0",
"m.	c #DDE0C0",
"n.	c #DDE0C1",
"o.	c #DDE1C2",
"p.	c #DEE0C2",
"q.	c #DEE1C3",
"r.	c #E0E3C7",
"s.	c #E0E2C7",
"t.	c #E1E3C8",
"u.	c #E1E3C9",
"v.	c #E1E4C9",
"w.	c #E2E5CA",
"x.	c #E3E5CA",
"y.	c #E2E5CC",
"z.	c #E3E5CC",
"A.	c #E3E5CD",
"B.	c #E3E6CC",
"C.	c #E3E6CD",
"D.	c #E3E6CE",
"E.	c #E4E6CE",
"F.	c #E4E6CF",
"G.	c #E4E7D0",
"H.	c #E5E7CF",
"I.	c #E6E8D3",
"J.	c #E7E9D4",
"K.	c #E8E9D4",
"L.	c #E8EAD5",
"M.	c #E8E9D6",
"N.	c #E8EAD6",
"O.	c #E9EBD7",
"P.	c #EAEAD8",
"Q.	c #E9EAD8",
"R.	c #EAEBD9",
"S.	c #EBEBD9",
"T.	c #EAECDA",
"U.	c #EBECDB",
"V.	c #EBECDC",
"W.	c #EBEDDB",
"X.	c #ECEDDC",
"Y.	c #EDEEE0",
"Z.	c #EDEFE0",
"`.	c #EEEFE1",
" +	c #EFEFE1",
".+	c #EFEFE2",
"++	c #EFF0E2",
"@+	c #EFF0E3",
"#+	c #F0F0E3",
"$+	c #F0F0E4",
"%+	c #F0F0E5",
"&+	c #F1F1E6",
"*+	c #F0F2E6",
"=+	c #F1F2E6",
"-+	c #F2F1E8",
";+	c #F1F2E7",
">+	c #F2F3E8",
",+	c #F3F2E9",
"'+	c #F4F4EC",
")+	c #F5F5ED",
"!+	c #F5F4EE",
"~+	c #F5F5EE",
"{+	c #F6F6EF",
"]+	c #F5F6EF",
"^+	c #F7F6F0",
"/+	c #F6F6F0",
"(+	c #F7F6F1",
"_+	c #F7F6F2",
":+	c #F8F7F2",
"<+	c #F7F7F2",
"[+	c #F8F8F3",
"}+	c #F9F7F3",
"|+	c #F8F8F4",
"1+	c #F9F8F5",
"                                      ",
"                                      ",
"                                      ",
"                                      ",
"                                      ",
". . + . + . . . + + . + @ + # $ % & * ",
"= - ; ; > , ' ) ) ! ~ { { ] ^ / ( _ : ",
"< [ } | 1 2 2 3 4 5 6 5 7 7 8 9 0 0 a ",
"b c c d e f f g h h h i j k l m n o p ",
"q r s t u v w w x y z A B B B C D E E ",
"F G H I J J K L L L L L M M N O P Q R ",
"S T U V W X Y X Y Z `  ...+.@.#.$.%.$.",
"&.*.=.-.;.>.,.'.).!.~.{.].^./././.(._.",
":.<.:.[.}.|.1.2.3.4.5.6.7.8.9.9.0.a.b.",
"c.d.d.e.f.f.g.h.i.j.k.l.m.n.o.o.p.q.q.",
"r.s.r.t.u.u.v.w.x.y.z.A.B.C.D.E.F.G.H.",
"I.J.J.K.L.M.N.N.O.O.P.Q.R.S.T.U.V.W.X.",
"Y.Y.Z.`. +.+++@+#+$+$+%+&+*+=+-+;+>+,+",
"'+'+'+)+!+~+{+]+^+/+(+_+:+<+[+}+|+1+1+"};
