/* XPM */
static char * minpr_xpm[] = {
"19 19 211 2",
"  	c #FBFBFB",
". 	c #FAFAFA",
"+ 	c #F5F5F5",
"@ 	c #F0F0F0",
"# 	c #EFEFEF",
"$ 	c #F9F9F9",
"% 	c #EDEDED",
"& 	c #C8C8C8",
"* 	c #969696",
"= 	c #EEEEEE",
"- 	c #A2A2A2",
"; 	c #A8A8A7",
"> 	c #D8D9D5",
", 	c #F4F5F0",
"' 	c #F4F6F0",
") 	c #F4F5EF",
"! 	c #D8D9D4",
"~ 	c #F6F6F6",
"{ 	c #C9C9C9",
"] 	c #EBECE4",
"^ 	c #E1E5CB",
"/ 	c #DDE1C3",
"( 	c #DDE0C3",
"_ 	c #DCE1C3",
": 	c #E1E4CB",
"< 	c #EBECE3",
"[ 	c #A0AC50",
"} 	c #9BA64D",
"| 	c #818752",
"1 	c #D7D7D3",
"2 	c #E0E2CA",
"3 	c #D7DCB9",
"4 	c #D7DBB7",
"5 	c #D6DAB7",
"6 	c #D6DBB7",
"7 	c #D7DBB9",
"8 	c #DFE3C9",
"9 	c #D6D8D2",
"0 	c #828853",
"a 	c #9DA851",
"b 	c #A2AD54",
"c 	c #A4B057",
"d 	c #9EA955",
"e 	c #838956",
"f 	c #F1F2ED",
"g 	c #DBDEC2",
"h 	c #D6DAB6",
"i 	c #D5DAB6",
"j 	c #DBDEC1",
"k 	c #F1F0EB",
"l 	c #868C5B",
"m 	c #A2AD5D",
"n 	c #A9B461",
"o 	c #ABB563",
"p 	c #A5AE60",
"q 	c #878D5D",
"r 	c #F0F0EB",
"s 	c #D4D9B6",
"t 	c #D4D9B5",
"u 	c #D4D8B6",
"v 	c #D9DEC1",
"w 	c #F0F0EA",
"x 	c #898F61",
"y 	c #A8B268",
"z 	c #B0B96D",
"A 	c #B1BB70",
"B 	c #AAB46D",
"C 	c #8A9065",
"D 	c #EFEFEA",
"E 	c #D9DDC0",
"F 	c #D4D8B5",
"G 	c #898D6A",
"H 	c #D3D8B5",
"I 	c #D4D8B4",
"J 	c #D9DCC0",
"K 	c #EEEFE9",
"L 	c #8D9269",
"M 	c #AFB873",
"N 	c #B6BF79",
"O 	c #B8C07C",
"P 	c #B1BA77",
"Q 	c #8F946C",
"R 	c #D9DCBF",
"S 	c #D2D8B4",
"T 	c #D3D7B4",
"U 	c #D3D8B4",
"V 	c #888D69",
"W 	c #D2D7B4",
"X 	c #D8DCBF",
"Y 	c #EDEEE8",
"Z 	c #919571",
"` 	c #B6BE80",
" .	c #BDC585",
"..	c #BEC689",
"+.	c #B8BF84",
"@.	c #939674",
"#.	c #ECEEE7",
"$.	c #D7DBBF",
"%.	c #D2D6B4",
"&.	c #D2D6B3",
"*.	c #D7DBBE",
"=.	c #EBEDE6",
"-.	c #959678",
";.	c #BCC28C",
">.	c #C4CA92",
",.	c #C5CC95",
"'.	c #BEC490",
").	c #96967A",
"!.	c #EBECE6",
"~.	c #D7DABD",
"{.	c #D1D6B3",
"].	c #D1D5B3",
"^.	c #D1D6B2",
"/.	c #D1D5B2",
"(.	c #D6DABD",
"_.	c #EAEBE5",
":.	c #969680",
"<.	c #C2C897",
"[.	c #CAD09E",
"}.	c #CCD1A1",
"|.	c #C5C99C",
"1.	c #969682",
"2.	c #EAEBE4",
"3.	c #D6D9BC",
"4.	c #D1D5B1",
"5.	c #D0D5B2",
"6.	c #D0D5B1",
"7.	c #E9EBE4",
"8.	c #969686",
"9.	c #C8CEA4",
"0.	c #D1D6AB",
"a.	c #D3D7AE",
"b.	c #CBD0A9",
"c.	c #969688",
"d.	c #D1D2CD",
"e.	c #D8DCC2",
"f.	c #D0D5B3",
"g.	c #CFD5B1",
"h.	c #CFD4B1",
"i.	c #D7DBC1",
"j.	c #96968E",
"k.	c #D1D4B0",
"l.	c #D7DCB7",
"m.	c #D9DDBA",
"n.	c #D5D9B7",
"o.	c #BBBDA8",
"p.	c #A7A7A5",
"q.	c #E1E1DA",
"r.	c #D7DAC1",
"s.	c #D4D8BA",
"t.	c #D7DAC0",
"u.	c #DFE1D9",
"v.	c #BDBDAD",
"w.	c #DEE1C3",
"x.	c #E0E3C7",
"y.	c #DFE1C6",
"z.	c #D4D7BD",
"A.	c #A1A19E",
"B.	c #CFD0CB",
"C.	c #E6E7E1",
"D.	c #E5E7E0",
"E.	c #E6E7E0",
"F.	c #E5E6E1",
"G.	c #E5E7E1",
"H.	c #A7A7A6",
"I.	c #A1A19F",
"J.	c #D8DAC5",
"K.	c #E3E6CF",
"L.	c #E5E7CF",
"M.	c #E6E8D3",
"N.	c #E7E9D4",
"O.	c #E5E7D2",
"P.	c #DBDCC9",
"Q.	c #C1C2B9",
"R.	c #C2C2BB",
"S.	c #DDDECF",
"T.	c #E9EADA",
"U.	c #EBEDDB",
"V.	c #ECEDDC",
"W.	c #EDEEE0",
"X.	c #EDEFE0",
"Y.	c #E9E9DC",
"Z.	c #E5E5D8",
"`.	c #E4E5D7",
" +	c #E3E4D8",
".+	c #E4E4D8",
"++	c #E4E4D9",
"@+	c #E4E4DA",
"#+	c #E5E5DB",
"$+	c #E6E8DC",
"%+	c #EBECE1",
"&+	c #F1F0E7",
"*+	c #F1F2E7",
"=+	c #F2F3E8",
"-+	c #F3F2E9",
";+	c #F4F4EC",
">+	c #F5F5ED",
",+	c #F5F4EE",
"'+	c #F5F5EE",
")+	c #F6F6EF",
"!+	c #F5F6EF",
"~+	c #F7F6F0",
"{+	c #F6F6F0",
"]+	c #F7F6F1",
"^+	c #F7F6F2",
"/+	c #F8F7F2",
"(+	c #F7F7F2",
"_+	c #F8F8F3",
":+	c #F9F7F3",
"<+	c #F8F8F4",
"[+	c #F9F8F5",
"                                      ",
"      . + @ # # # # # # # @ + .       ",
"    $ % & * * * * * * * * * & % $     ",
"  . = - ; > , ' , ) ) ) ) ! ; - = .   ",
"  ~ { ; ] ^ / / ( _ / ( / : < ; { ~   ",
"[ } | 1 2 3 4 5 6 5 6 5 6 7 8 9 0 a b ",
"c d e f g h h i i i h i i i j k l m n ",
"o p q r j s s s s t s u t s v w x y z ",
"A B C D E F F G F H H G I F J K L M N ",
"O P Q K R S T U V T V W W W X Y Z `  .",
"..+.@.#.$.%.&.&.&.V &.&.&.&.*.=.-.;.>.",
",.'.).!.~.{.{.{.{.{.{.].^./.(._.:.<.[.",
"}.|.1.2.3./.4.5.4.4.4.6.6.6.3.7.8.9.0.",
"a.b.c.d.e.f.g.h.g.h.h.h.h.f.i.d.j.k.l.",
"m.n.o.p.q.r.s.s.s.s.s.s.s.t.u.p.v.R w.",
"x.y.z.A.p.B.C.D.C.E.F.G.E.B.H.I.J.K.L.",
"M.N.O.P.Q.* * * * * * * * * R.S.T.U.V.",
"W.W.X.W.Y.Z.`. +.+++++@+#+$+%+&+*+=+-+",
";+;+;+>+,+'+)+!+~+{+]+^+/+(+_+:+<+[+[+"};
