/* XPM */
static char * stuckfcs_xpm[] = {
"19 19 202 2",
"  	c #FBFBFB",
". 	c #FAFAFA",
"+ 	c #F5F5F5",
"@ 	c #F0F0F0",
"# 	c #EFEFEF",
"$ 	c #F9F9F9",
"% 	c #EDEDED",
"& 	c #C8C8C8",
"* 	c #969696",
"= 	c #EEEEEE",
"- 	c #A2A2A2",
"; 	c #A8A8A8",
"> 	c #DBDBDC",
", 	c #FAFAFB",
"' 	c #FAFBFB",
") 	c #DBDBDB",
"! 	c #F6F6F6",
"~ 	c #C9C9C9",
"{ 	c #F3F3F3",
"] 	c #F9FAFA",
"^ 	c #F9F8F9",
"/ 	c #F8F9F8",
"( 	c #F9F9F8",
"_ 	c #F3F3F2",
": 	c #A0AC50",
"< 	c #9BA64D",
"[ 	c #818752",
"} 	c #DAD9DA",
"| 	c #F8F7F8",
"1 	c #F8F8F8",
"2 	c #F8F8F7",
"3 	c #F8F7F7",
"4 	c #F7F8F7",
"5 	c #F7F7F7",
"6 	c #F7F8F8",
"7 	c #F7F7F8",
"8 	c #D9DAD9",
"9 	c #828853",
"0 	c #9DA851",
"a 	c #A2AD54",
"b 	c #A4B057",
"c 	c #9EA955",
"d 	c #838956",
"e 	c #F6F7F7",
"f 	c #F7F6F7",
"g 	c #F7F7F6",
"h 	c #F7F6F6",
"i 	c #F6F7F6",
"j 	c #7B7B7B",
"k 	c #F6F5F5",
"l 	c #868C5B",
"m 	c #A2AD5D",
"n 	c #A9B461",
"o 	c #ABB563",
"p 	c #A5AE60",
"q 	c #878D5D",
"r 	c #F5F5F4",
"s 	c #7A7A7B",
"t 	c #7A7B7A",
"u 	c #F4F5F5",
"v 	c #898F61",
"w 	c #A8B268",
"x 	c #B0B96D",
"y 	c #B1BB70",
"z 	c #AAB46D",
"A 	c #8A9065",
"B 	c #F4F4F4",
"C 	c #7A7A7A",
"D 	c #F4F4F3",
"E 	c #F4F3F4",
"F 	c #F3F4F3",
"G 	c #8D9269",
"H 	c #AFB873",
"I 	c #B6BF79",
"J 	c #B8C07C",
"K 	c #B1BA77",
"L 	c #8F946C",
"M 	c #F2F3F3",
"N 	c #7A7979",
"O 	c #F2F3F2",
"P 	c #7A797A",
"Q 	c #797979",
"R 	c #F2F2F2",
"S 	c #919571",
"T 	c #B6BE80",
"U 	c #BDC585",
"V 	c #BEC689",
"W 	c #B8BF84",
"X 	c #939674",
"Y 	c #F1F2F1",
"Z 	c #F1F1F2",
"` 	c #F2F1F2",
" .	c #F1F1F1",
"..	c #F1F0F0",
"+.	c #F0F1F0",
"@.	c #959678",
"#.	c #BCC28C",
"$.	c #C4CA92",
"%.	c #C5CC95",
"&.	c #BEC490",
"*.	c #96967A",
"=.	c #787878",
"-.	c #EFF0F0",
";.	c #F0EFF0",
">.	c #F0F0EF",
",.	c #F0EFEF",
"'.	c #EFEFF0",
").	c #969680",
"!.	c #C2C897",
"~.	c #CAD09E",
"{.	c #CCD1A1",
"].	c #C5C99C",
"^.	c #969682",
"/.	c #EFEFEE",
"(.	c #EFEEEF",
"_.	c #787777",
":.	c #777778",
"<.	c #787877",
"[.	c #EEEFEE",
"}.	c #EFEEEE",
"|.	c #969686",
"1.	c #C8CEA4",
"2.	c #D1D6AB",
"3.	c #D3D7AE",
"4.	c #CBD0A9",
"5.	c #969688",
"6.	c #D4D4D4",
"7.	c #EDEEED",
"8.	c #EDEEEE",
"9.	c #EDEDEE",
"0.	c #ECEDED",
"a.	c #96968E",
"b.	c #D1D4B0",
"c.	c #D7DCB7",
"d.	c #D9DDBA",
"e.	c #D5D9B7",
"f.	c #BBBDA8",
"g.	c #A7A7A6",
"h.	c #E8E7E8",
"i.	c #ECECEC",
"j.	c #ECEBEB",
"k.	c #E6E7E7",
"l.	c #BDBDAD",
"m.	c #D9DCBF",
"n.	c #DEE1C3",
"o.	c #E0E3C7",
"p.	c #DFE1C6",
"q.	c #D4D7BD",
"r.	c #A1A19E",
"s.	c #D2D2D2",
"t.	c #EBEBEB",
"u.	c #EAEBEA",
"v.	c #EBEBEA",
"w.	c #EAEAEB",
"x.	c #EAEBEB",
"y.	c #A7A7A7",
"z.	c #A1A19F",
"A.	c #D8DAC5",
"B.	c #E3E6CF",
"C.	c #E5E7CF",
"D.	c #E6E8D3",
"E.	c #E7E9D4",
"F.	c #E5E7D2",
"G.	c #DBDCC9",
"H.	c #C1C2B9",
"I.	c #C2C2BB",
"J.	c #DDDECF",
"K.	c #E9EADA",
"L.	c #EBEDDB",
"M.	c #ECEDDC",
"N.	c #EDEEE0",
"O.	c #EDEFE0",
"P.	c #E9E9DC",
"Q.	c #E5E5D8",
"R.	c #E4E5D7",
"S.	c #E3E4D8",
"T.	c #E4E4D8",
"U.	c #E4E4D9",
"V.	c #E4E4DA",
"W.	c #E5E5DB",
"X.	c #E6E8DC",
"Y.	c #EBECE1",
"Z.	c #F1F0E7",
"`.	c #F1F2E7",
" +	c #F2F3E8",
".+	c #F3F2E9",
"++	c #F4F4EC",
"@+	c #F5F5ED",
"#+	c #F5F4EE",
"$+	c #F5F5EE",
"%+	c #F6F6EF",
"&+	c #F5F6EF",
"*+	c #F7F6F0",
"=+	c #F6F6F0",
"-+	c #F7F6F1",
";+	c #F7F6F2",
">+	c #F8F7F2",
",+	c #F7F7F2",
"'+	c #F8F8F3",
")+	c #F9F7F3",
"!+	c #F8F8F4",
"~+	c #F9F8F5",
"                                      ",
"      . + @ # # # # # # # @ + .       ",
"    $ % & * * * * * * * * * & % $     ",
"  . = - ; > , ' , . . . . ) ; - = .   ",
"  ! ~ ; { ] $ $ ^ / ( ^ $ $ _ ; ~ !   ",
": < [ } | 1 2 3 4 5 6 3 2 7 4 8 9 0 a ",
"b c d e f g h i i ! h j j ! ! k l m n ",
"o p q + k + + + + r j s t u u r v w x ",
"y z A B B B C D B C C C D B E F G H I ",
"J K L { { M N C O P Q R R R R R S T U ",
"V W X Y Z ` Q Q Q Y  . ... . .+.@.#.$.",
"%.&.*.@ @ @ =.=.=.=.-.;.>.,.'.# ).!.~.",
"{.].^./.(.# _.:.<._.<.= = [.}.[.|.1.2.",
"3.4.5.6.7.% 8.9.7.9.9.% % % 0.6.a.b.c.",
"d.e.f.g.h.i.i.i.i.i.i.i.i.j.k.g.l.m.n.",
"o.p.q.r.g.s.t.u.t.v.w.x.v.s.y.z.A.B.C.",
"D.E.F.G.H.* * * * * * * * * I.J.K.L.M.",
"N.N.O.N.P.Q.R.S.T.U.U.V.W.X.Y.Z.`. +.+",
"++++++@+#+$+%+&+*+=+-+;+>+,+'+)+!+~+~+"};
