/* XPM */
static char * stickpr_xpm[] = {
"25 25 98 2",
"  	c #6C6FA5",
". 	c #6B6EA4",
"+ 	c #66699F",
"@ 	c #62669A",
"# 	c #5D6096",
"$ 	c #5F6298",
"% 	c #5C5F94",
"& 	c #8F91B7",
"* 	c #A0A2C2",
"= 	c #565A90",
"- 	c #56598F",
"; 	c #54578C",
"> 	c #9B9DBD",
", 	c #9092B4",
"' 	c #8F91B3",
") 	c #8F91B2",
"! 	c #8E90B2",
"~ 	c #8D8FB2",
"{ 	c #8D8FB1",
"] 	c #8D8EB1",
"^ 	c #8C8EB0",
"/ 	c #8B8DAF",
"( 	c #4E5288",
"_ 	c #51548A",
": 	c #4F5387",
"< 	c #989ABA",
"[ 	c #8B8CAF",
"} 	c #8B8CAE",
"| 	c #8A8CAE",
"1 	c #8A8BAE",
"2 	c #898BAD",
"3 	c #888BAD",
"4 	c #888AAC",
"5 	c #4A4D83",
"6 	c #505389",
"7 	c #4E5286",
"8 	c #9799B9",
"9 	c #8C8EAF",
"0 	c #888BAC",
"a 	c #8789AB",
"b 	c #494D82",
"c 	c #4F5288",
"d 	c #4E5186",
"e 	c #898AAC",
"f 	c #8889AC",
"g 	c #8689AA",
"h 	c #8688AA",
"i 	c #484C81",
"j 	c #8A8CAF",
"k 	c #8A8CAD",
"l 	c #898BAC",
"m 	c #8688AB",
"n 	c #8A8BAD",
"o 	c #8788AB",
"p 	c #888AAD",
"q 	c #8789AC",
"r 	c #8788AA",
"s 	c #53568C",
"t 	c #515589",
"u 	c #999BBB",
"v 	c #8B8DB0",
"w 	c #888AAB",
"x 	c #4C4F85",
"y 	c #8B8EB0",
"z 	c #55588E",
"A 	c #53568B",
"B 	c #9A9CBC",
"C 	c #8C8DB0",
"D 	c #8B8DAE",
"E 	c #4D5187",
"F 	c #8D8EB0",
"G 	c #898CAD",
"H 	c #585B91",
"I 	c #56598E",
"J 	c #9C9EBE",
"K 	c #8E8FB1",
"L 	c #505489",
"M 	c #5B5E94",
"N 	c #585C90",
"O 	c #9EA0C0",
"P 	c #8E90B1",
"Q 	c #5E6197",
"R 	c #5B5E93",
"S 	c #A0A1C1",
"T 	c #9194B5",
"U 	c #9193B5",
"V 	c #9192B5",
"W 	c #9192B4",
"X 	c #8F92B3",
"Y 	c #8F91B4",
"Z 	c #9092B3",
"` 	c #5A5E92",
" .	c #8E90B6",
"..	c #9FA1C1",
"+.	c #5C5F95",
"@.	c #595D91",
"#.	c #54578D",
"$.	c #484B81",
"                                                  ",
". . . . . . . . . . . . . . . . . . . . . . . . . ",
"+ + @ @ @ @ @ @ @ @ @ @ @ @ @ @ @ @ @ @ @ @ # + + ",
"$ $ % & * * * * * * * * * * * * * * * * * & = $ $ ",
"- - ; > , , ' ' ' ) ! ! ! ~ { { ] ^ ^ ^ / > ( - - ",
"_ _ : < ^ ^ ^ ^ ^ / [ } | | 1 2 2 2 3 4 4 < 5 _ _ ",
"6 6 7 8 9 / / / [ | | 1 2 2 2 0 4 4 4 a a 8 b 6 6 ",
"c c d 8 / | | | | 2 2 2 e 4 4 f a a a g h 8 i c c ",
"c c d 8 j | | k 2 2 l e 4 4 f a a a m h h 8 i c c ",
"6 6 7 8 / } | | n 2 2 2 4 4 4 4 a a o o h 8 b 6 6 ",
"_ _ : < / / } | | | 2 2 2 p 4 4 4 q a a r < 5 _ _ ",
"s s t u ^ ^ v / / / | | | 1 2 2 4 4 4 4 w u x s s ",
"s s t u ^ y / / / } | | 1 n 2 2 4 4 4 f a u x s s ",
"z z A B { { ^ ^ C C / D | | | | 2 2 2 2 4 B E z z ",
"- - ; > { { ] F ^ 9 / / / [ | | | G 2 2 2 > ( - - ",
"H H I J ! ! K { { { ^ ^ ^ C / / / } | | | J L H H ",
"M M N O , ' ' ' ' ! ! P K { { { ^ ^ ^ ^ ^ O s M M ",
"Q Q R S T U V W , , X ' ' ' ' ! ! ! ! ! ! S - Q Q ",
"Q Q R S U U W , , Y ' ' ' ) ! ! ! ! ! ! ! S - Q Q ",
"Q Q R S W W , , Z ' ' ' ! ! ! ! ! ! ! ! ! S - Q Q ",
"# # `  ................................... .z # # ",
"+.+.@.#.#.#.#.#.#.#.#.#.#.#.#.#.#.#.#.#.#.#.#.+.+.",
"M M M M M M M M M M M M M M M M M M M M M M M M M ",
"6 6 6 6 6 6 6 6 6 6 6 6 6 6 6 6 6 6 6 6 6 6 6 6 6 ",
"$.$.$.$.$.$.$.$.$.$.$.$.$.$.$.$.$.$.$.$.$.$.$.$.$."};
