/* XPM */
static char * stickufcs_xpm[] = {
"25 25 50 1",
" 	c #6C6FA5",
".	c #6B6EA4",
"+	c #66699F",
"@	c #62669A",
"#	c #5D6096",
"$	c #5F6298",
"%	c #5C5F94",
"&	c #8F91B7",
"*	c #A0A2C2",
"=	c #565A90",
"-	c #56598F",
";	c #54578C",
">	c #9B9DBD",
",	c #4E5288",
"'	c #51548A",
")	c #4F5387",
"!	c #989ABA",
"~	c #4A4D83",
"{	c #505389",
"]	c #4E5286",
"^	c #9799B9",
"/	c #494D82",
"(	c #4F5288",
"_	c #4E5186",
":	c #484C81",
"<	c #53568C",
"[	c #515589",
"}	c #999BBB",
"|	c #4C4F85",
"1	c #55588E",
"2	c #53568B",
"3	c #9A9CBC",
"4	c #4D5187",
"5	c #585B91",
"6	c #56598E",
"7	c #9C9EBE",
"8	c #505489",
"9	c #5B5E94",
"0	c #585C90",
"a	c #9EA0C0",
"b	c #5E6197",
"c	c #5B5E93",
"d	c #A0A1C1",
"e	c #5A5E92",
"f	c #8E90B6",
"g	c #9FA1C1",
"h	c #5C5F95",
"i	c #595D91",
"j	c #54578D",
"k	c #484B81",
"                         ",
".........................",
"++@@@@@@@@@@@@@@@@@@@@#++",
"$$%&*****************&=$$",
"--;>----------------->,--",
"'')!'''''''''''''''''!~''",
"{{]^{{{{{{{{{{{{{{{{{^/{{",
"((_^(((((((((((((((((^:((",
"((_^(((((((((((((((((^:((",
"{{]^{{{{{{{{{{{{{{{{{^/{{",
"'')!'''''''''''''''''!~''",
"<<[}<<<<<<<<<<<<<<<<<}|<<",
"<<[}<<<<<<<<<<<<<<<<<}|<<",
"1123111111111111111113411",
"--;>----------------->,--",
"5567555555555555555557855",
"990a99999999999999999a<99",
"bbcdbbbbbbbbbbbbbbbbbd-bb",
"bbcdbbbbbbbbbbbbbbbbbd-bb",
"bbcdbbbbbbbbbbbbbbbbbd-bb",
"##efgggggggggggggggggf1##",
"hhijjjjjjjjjjjjjjjjjjjjhh",
"9999999999999999999999999",
"{{{{{{{{{{{{{{{{{{{{{{{{{",
"kkkkkkkkkkkkkkkkkkkkkkkkk"};
