/* XPM */
static char * menuiconfcs_xpm[] = {
"21 21 125 2",
"  	c #DBDAD5",
". 	c #E2E1DD",
"+ 	c #E2E0DD",
"@ 	c #E2E0DC",
"# 	c #E1E0DC",
"$ 	c #E1E0DD",
"% 	c #E1DFDC",
"& 	c #E4E3E0",
"* 	c #E4E3DF",
"= 	c #E3E3DF",
"- 	c #E3E2DE",
"; 	c #E3E1DF",
"> 	c #E2E1DE",
", 	c #E3E1DE",
"' 	c #E3E2DF",
") 	c #E6E5E2",
"! 	c #E5E4E1",
"~ 	c #E4E4E0",
"{ 	c #E4E2E0",
"] 	c #E4E2DF",
"^ 	c #E5E4E0",
"/ 	c #E8E7E5",
"( 	c #E9E7E5",
"_ 	c #E8E7E4",
": 	c #E8E6E4",
"< 	c #E0DFDB",
"[ 	c #DFDFDB",
"} 	c #E0DEDB",
"| 	c #E0E0DC",
"1 	c #E5E3E0",
"2 	c #E7E5E2",
"3 	c #E7E6E4",
"4 	c #E7E6E3",
"5 	c #EBEAE7",
"6 	c #EBE9E7",
"7 	c #EAEAE7",
"8 	c #E8E8E5",
"9 	c #ACA89D",
"0 	c #E9E8E5",
"a 	c #E9E8E6",
"b 	c #EAE8E5",
"c 	c #EDECEA",
"d 	c #EDECE9",
"e 	c #ECEBE9",
"f 	c #E8E7E3",
"g 	c #E7E6E2",
"h 	c #E9E9E6",
"i 	c #ECEBE8",
"j 	c #EBEAE8",
"k 	c #EEEEEC",
"l 	c #EFEEEC",
"m 	c #EFEDEC",
"n 	c #EDEDEA",
"o 	c #E5E2E0",
"p 	c #E3E1DD",
"q 	c #E3E2DD",
"r 	c #EAE9E7",
"s 	c #EEEDEA",
"t 	c #F1F0EE",
"u 	c #F1F0EF",
"v 	c #EFEFEE",
"w 	c #E5E5E1",
"x 	c #E3E3E0",
"y 	c #EFEFED",
"z 	c #F0EEED",
"A 	c #F3F2F1",
"B 	c #F3F3F1",
"C 	c #F2F1F0",
"D 	c #F1F1F0",
"E 	c #F1F1EF",
"F 	c #F5F4F3",
"G 	c #F5F5F3",
"H 	c #F4F4F3",
"I 	c #F2F2F1",
"J 	c #EFEEEB",
"K 	c #EEEDEB",
"L 	c #F4F4F2",
"M 	c #F4F3F2",
"N 	c #F3F4F2",
"O 	c #F7F7F6",
"P 	c #F7F6F6",
"Q 	c #F7F7F5",
"R 	c #F6F6F5",
"S 	c #F2F3F0",
"T 	c #EBEBE8",
"U 	c #EAE8E6",
"V 	c #EAE9E6",
"W 	c #EBEAE6",
"X 	c #EEECEB",
"Y 	c #F2F2EF",
"Z 	c #F6F6F4",
"` 	c #F5F6F4",
" .	c #F6F5F4",
"..	c #FAF9F9",
"+.	c #F9F9F8",
"@.	c #F8F7F7",
"#.	c #F0F0ED",
"$.	c #ECEAE8",
"%.	c #ECECE9",
"&.	c #F0EFED",
"*.	c #F8F8F7",
"=.	c #F8F7F6",
"-.	c #FBFBFA",
";.	c #FCFBFB",
">.	c #F9F8F9",
",.	c #F5F3F4",
"'.	c #F5F3F2",
").	c #FAFAF9",
"!.	c #FDFDFD",
"~.	c #FDFEFD",
"{.	c #FDFEFC",
"].	c #F7F5F4",
"^.	c #FCFCFC",
"/.	c #FFFFFF",
"(.	c #FEFEFD",
"_.	c #FBFBFB",
":.	c #F4F5F4",
"<.	c #F3F4F1",
"[.	c #F3F3F2",
"}.	c #F4F3F1",
"|.	c #F4F5F3",
"1.	c #F7F7F7",
"2.	c #FAFAFA",
"3.	c #FEFEFE",
"4.	c #FCFCFB",
"                                          ",
". . + . . + + @ # + $ # # # @ $ # # # # % ",
"& * * & = = - ; > - - > > > , ' - - - , - ",
") ) ) ) ! ~ { ] ] ] * ] ] ' { * & ^ ^ ! ^ ",
"/ ( _ : ! - # < < < [ [ } [ | . 1 2 3 4 4 ",
"5 6 7 8 ! 9 9 9 9 9 9 9 9 9 9 9 ~ : 0 a b ",
"c d e 7 f 9 9 9 9 9 9 9 9 9 9 9 g h i j j ",
"k l m n 6 2 o - - , p p q q ' 2 r d n s s ",
"t t u v e 8 w 1 ^ & ~ ~ * x ^ _ i l y z y ",
"A B A u d 9 9 9 9 9 9 9 9 9 9 9 e y C D E ",
"F G H I J 9 9 9 9 9 9 9 9 9 9 9 K C L M N ",
"O P Q R S K T U h h h V h a W X Y G Z `  .",
"..+.+.@.H #.d $.j T T j $.5 %.&.L O *.@.=.",
"-.;.-.>.,.9 9 9 9 9 9 9 9 9 9 9 '.*.).)...",
"!.~.{.-.P 9 9 9 9 9 9 9 9 9 9 9 ].).^.^.^.",
"/././.(._.*.:.L L N <.M [.}.|.1.2.(.3.3.3.",
"/./././.3.!.^.4.4.4.4.4.4.4.^.!.3././././.",
"/./././././.3.3.3.3.3.3.3.3.3././././././.",
"/././././././././././././././././././././.",
"/././././././././././././././././././././.",
"                                          "};
