/* XPM */
static char * menuiconufcs_xpm[] = {
"21 21 133 2",
"  	c #DBDAD5",
". 	c #E2E1DD",
"+ 	c #E2E0DD",
"@ 	c #E2E0DC",
"# 	c #E1E0DC",
"$ 	c #E1E0DD",
"% 	c #E1DFDC",
"& 	c #E4E3E0",
"* 	c #E4E3DF",
"= 	c #E3E3DF",
"- 	c #E4E2E0",
"; 	c #E3E2DF",
"> 	c #E4E2DF",
", 	c #E3E2DE",
"' 	c #E3E1DE",
") 	c #E6E5E2",
"! 	c #E5E5E1",
"~ 	c #E6E4E1",
"{ 	c #E5E3E1",
"] 	c #E5E3E0",
"^ 	c #E5E4E1",
"/ 	c #E5E4E0",
"( 	c #E8E7E5",
"_ 	c #E9E7E5",
": 	c #E8E7E4",
"< 	c #E7E6E3",
"[ 	c #E6E6E2",
"} 	c #E6E5E1",
"| 	c #E7E5E2",
"1 	c #E8E6E3",
"2 	c #E7E6E4",
"3 	c #EBEAE7",
"4 	c #EBE9E7",
"5 	c #EAEAE7",
"6 	c #E9E9E6",
"7 	c #D8D6D0",
"8 	c #D8D6D1",
"9 	c #D7D6D1",
"0 	c #D8D5D0",
"a 	c #E9E8E5",
"b 	c #E9E8E6",
"c 	c #EAE8E5",
"d 	c #EDECEA",
"e 	c #EDECE9",
"f 	c #ECEBE9",
"g 	c #EBEBE8",
"h 	c #D9D7D2",
"i 	c #D9D8D2",
"j 	c #D8D7D2",
"k 	c #EAE9E6",
"l 	c #ECEBE8",
"m 	c #EBEAE8",
"n 	c #EEEEEC",
"o 	c #EFEEEC",
"p 	c #EFEDEC",
"q 	c #EEEEEB",
"r 	c #EEECEA",
"s 	c #ECEAE8",
"t 	c #EAEAE8",
"u 	c #EBE9E8",
"v 	c #EEEDEA",
"w 	c #EDEDEA",
"x 	c #F1F0EE",
"y 	c #F1F0EF",
"z 	c #F0F0EF",
"A 	c #EFEEED",
"B 	c #ECEBEA",
"C 	c #ECECEA",
"D 	c #EBEBEA",
"E 	c #F0EFED",
"F 	c #EFEFED",
"G 	c #F0EEED",
"H 	c #F3F2F1",
"I 	c #F3F3F1",
"J 	c #F2F1F0",
"K 	c #DDDCD8",
"L 	c #DEDCD7",
"M 	c #DDDCD7",
"N 	c #DDDBD7",
"O 	c #F0EFEE",
"P 	c #F0F0EE",
"Q 	c #F1F1F0",
"R 	c #F1F1EF",
"S 	c #F5F4F3",
"T 	c #F5F5F3",
"U 	c #F4F4F3",
"V 	c #F3F3F2",
"W 	c #F3F2F0",
"X 	c #DFDDD9",
"Y 	c #DFDED9",
"Z 	c #F4F4F2",
"` 	c #F4F3F2",
" .	c #F3F4F2",
"..	c #F7F7F6",
"+.	c #F7F6F6",
"@.	c #F7F7F5",
"#.	c #F5F6F4",
"$.	c #F2F3F0",
"%.	c #F2F2F0",
"&.	c #F3F3F0",
"*.	c #F4F2F2",
"=.	c #F6F6F4",
"-.	c #F6F5F4",
";.	c #FAF9F9",
">.	c #F9F9F8",
",.	c #F9F8F8",
"'.	c #F7F7F7",
").	c #F6F4F3",
"!.	c #F4F5F2",
"~.	c #F5F4F2",
"{.	c #F8F8F7",
"].	c #F8F7F7",
"^.	c #F8F7F6",
"/.	c #FBFBFA",
"(.	c #FCFBFB",
"_.	c #FAF9FA",
":.	c #F9F8F9",
"<.	c #F9F8F7",
"[.	c #FAFAF9",
"}.	c #FDFDFD",
"|.	c #FDFEFD",
"1.	c #FDFEFC",
"2.	c #FCFCFC",
"3.	c #FBFBFB",
"4.	c #FBFAF9",
"5.	c #FFFFFF",
"6.	c #FEFEFE",
"7.	c #FBFCFB",
"8.	c #FCFCFB",
"9.	c #FBFCFA",
"0.	c #FCFBFA",
"a.	c #FCFCFD",
"b.	c #FFFFFE",
"                                          ",
". . + . . + + @ # + $ # # # @ $ # # # # % ",
"& * * & = = * - ; * * ; ; ; > ; , , , ' , ",
") ) ) ) ) ! ~ { ] { ^ { ] & ~ / ^ / / ^ / ",
"( _ : _ < [ } ~ ^ ~ ^ ^ { ^ ! } | 1 2 < < ",
"3 4 5 6 ( 7 7 8 8 8 9 8 0 0 0 7 : _ a b c ",
"d e f g 3 h i h h h h h h h j h k 5 l m m ",
"n o p q r l s t m u 4 4 3 5 5 l d v w v v ",
"x x y z A q w d d B C C f D e v o E F G F ",
"H I H J x K L K K L M N N M N N O P J Q R ",
"S T U V W X Y X X X X X X X X X J H Z `  .",
"..+.@...#.`  .W $.%.%.W %.%.&.*.T =.=.#.-.",
";.>.>.,.'.=.).S U !.!.Z ~.Z S -...{.{.].^.",
"/.(./._.:., , , , , , , , , , , <.>.[.[.;.",
"}.|.1.2.3./ / / / ] / ] / ] & ] 4./.2.2.2.",
"5.5.5.5.6.}.7.8.(.7.9.(.3.0.7.a.}.b.6.6.6.",
"5.5.5.5.5.6.6.6.6.6.6.6.6.6.6.6.5.5.5.5.5.",
"5.5.5.5.5.5.5.5.5.5.5.5.5.5.5.5.5.5.5.5.5.",
"5.5.5.5.5.5.5.5.5.5.5.5.5.5.5.5.5.5.5.5.5.",
"5.5.5.5.5.5.5.5.5.5.5.5.5.5.5.5.5.5.5.5.5.",
"                                          "};
