/* XPM */
static char * tbarbuttonpr_xpm[] = {
"21 21 9 1",
" 	c #000000",
".	c #3A6363",
"+	c #081010",
"@	c #101818",
"#	c #102121",
"$	c #213131",
"%	c #213939",
"&	c #293942",
"*	c #294242",
"                     ",
"                    .",
" +++++++++++++++++++.",
" +++++++++++++++++++.",
" @@@@@@@@@@@@@@@@@@@.",
" @@@@@@@@@@@@@@@@@@@.",
" @@@@@@@@@@@@@@@@@@@.",
" ###################.",
" ###################.",
" ###################.",
" $$$$$$$$$$$$$$$$$$$.",
" $$$$$$$$$$$$$$$$$$$.",
" %%%%%%%%%%%%%%%%%%%.",
" &&&&&&&&&&&&&&&&&&&.",
" *******************.",
" *******************.",
" *******************.",
" *******************.",
" *******************.",
" *******************.",
" ...................."};
