/* XPM */
static char * stickufcs_xpm[] = {
"21 21 53 1",
" 	c #FFFFFF",
".	c #E3E3E3",
"+	c #E2E2E2",
"@	c #E4E4E4",
"#	c #E5E5E5",
"$	c #E6E6E6",
"%	c #E7E7E7",
"&	c #E8E8E8",
"*	c #EAEAEA",
"=	c #EBEBEB",
"-	c #ECECEC",
";	c #E9E9E9",
">	c #F0F0F0",
",	c #F2F2F2",
"'	c #EEEEEE",
")	c #EFEFEF",
"!	c #F1F1F1",
"~	c #D7D7D7",
"{	c #D4D4D4",
"]	c #D2D2D2",
"^	c #D0D0D0",
"/	c #CFCFCF",
"(	c #CECECE",
"_	c #CCCCCC",
":	c #CACACA",
"<	c #C9C9C9",
"[	c #C8C8C8",
"}	c #F4F4F4",
"|	c #D8D8D8",
"1	c #C6C6C6",
"2	c #F3F3F3",
"3	c #F7F7F7",
"4	c #C5C5C5",
"5	c #F8F8F8",
"6	c #FAFAFA",
"7	c #C4C4C4",
"8	c #F9F9F9",
"9	c #FBFBFB",
"0	c #C2C2C2",
"a	c #FCFCFC",
"b	c #FDFDFD",
"c	c #C0C0C0",
"d	c #BDBDBD",
"e	c #FEFEFE",
"f	c #CDCDCD",
"g	c #BBBBBB",
"h	c #B7B7B7",
"i	c #B5B5B5",
"j	c #B4B4B4",
"k	c #C1C1C1",
"l	c #BCBCBC",
"m	c #B9B9B9",
"n	c #B6B6B6",
"                     ",
".+.+.@.@.@.@.@.@..+.+",
"#$#%&*=*-=-=-*=*;$$#$",
";;;->,,,,,,,,,,,>-;;;",
"'')!.~{]^/(_:<[[~!)''",
">!>}|},>!>!>!>,}12!>!",
"}}}3~3}}}}}}}}}343}}}",
"5556~6555555555676555",
"6866{9868686868909868",
"aaab]baaaaaaaaabcbaaa",
"bbbb^bbbbbbbbbbbdbbbb",
"ebebfebebebebebegebeb",
"bebe:bebebebebebhbebe",
"abab1bbababababbibbab",
"aaab0bbbbbbbbbbbjbaaa",
"bbbbkeeeeeeeeeeeibbbb",
"ebeb{lmmnnjijiji(ebeb",
"ebebeebebebebebebebeb",
"bebebbebebebebebebebe",
"ebebeebebebebebebebeb",
"bebebbebebebebebebebe"};
