/* XPM */
static char * shadepr_xpm[] = {
"21 21 48 1",
" 	c #FFFFFF",
".	c #FEFEFE",
"+	c #FDFEFE",
"@	c #FEFEFD",
"#	c #FDFDFE",
"$	c #FEFDFD",
"%	c #FCFCFC",
"&	c #FCFBFC",
"*	c #FCFCFB",
"=	c #FBFBFB",
"-	c #FCFBFB",
";	c #FBFCFB",
">	c #FBFCFC",
",	c #FAF9F9",
"'	c #F9F9F9",
")	c #F9F9FA",
"!	c #FAFAF9",
"~	c #F9FAF9",
"{	c #FAF9FA",
"]	c #F7F7F7",
"^	c #F5F5F5",
"/	c #F5F6F6",
"(	c #F5F5F6",
"_	c #F5F6F5",
":	c #F6F6F5",
"<	c #8B8B8A",
"[	c #F6F5F5",
"}	c #F6F6F6",
"|	c #F3F3F3",
"1	c #F4F3F3",
"2	c #898989",
"3	c #F3F3F4",
"4	c #F4F4F3",
"5	c #F1F1F1",
"6	c #888888",
"7	c #EFEFEF",
"8	c #878787",
"9	c #ECECEC",
"0	c #EBEBEB",
"a	c #E9E9E9",
"b	c #E7E7E7",
"c	c #E3E3E3",
"d	c #D9D9D9",
"e	c #D9D9DA",
"f	c #DAD9DA",
"g	c #DAD9D9",
"h	c #CDCDCD",
"i	c #B7B7B7",
"                     ",
"                     ",
"                     ",
"                     ",
"..+.@..@..+..#.@.$#..",
"%%%%%%%%%%%%%%%%%%%%%",
"&&*=-=;>=;>*=---=&*-&",
",,')!!'~{'''))'~),'!,",
"]]]]]]]]]]]]]]]]]]]]]",
"^^/(_:::_/<[}(([/}}(_",
"||||||1|1222||||3|34|",
"555555556666655555555",
"777777788888887777777",
"999999999999999999999",
"000000000000000000000",
"aaaaaaaaaaaaaaaaaaaaa",
"bbbbbbbbbbbbbbbbbbbbb",
"ccccccccccccccccccccc",
"ddeedddfddddgedegdfed",
"hhhhhhhhhhhhhhhhhhhhh",
"iiiiiiiiiiiiiiiiiiiii"};
