/* XPM */
static char * stickpr_xpm[] = {
"18 18 31 1",
" 	c #FFFFFF",
".	c #E2E2E2",
"+	c #E3E3E3",
"@	c #E6E6E6",
"#	c #E5E5E5",
"$	c #E9E9E9",
"%	c #EEEEEE",
"&	c #9B9B9B",
"*	c #909090",
"=	c #8F8F8F",
"-	c #F1F1F1",
";	c #F0F0F0",
">	c #A9A9A9",
",	c #F4F4F4",
"'	c #9F9F9F",
")	c #F8F8F8",
"!	c #969696",
"~	c #F9F9F9",
"{	c #FAFAFA",
"]	c #D1D1D1",
"^	c #A4A4A4",
"/	c #A5A5A5",
"(	c #FCFCFC",
"_	c #979797",
":	c #A6A6A6",
"<	c #FDFDFD",
"[	c #989898",
"}	c #D3D3D3",
"|	c #A7A7A7",
"1	c #FEFEFE",
"2	c #B2B2B2",
"                  ",
".+.+.+.+.++.+.+.+.",
"@#@#@#@#@##@#@#@#@",
"$$$$$$$$$$$$$$$$$$",
"%%%%%&*=====&%%%%%",
"-;-;>;-;-;;-;>;-;-",
",,,',,,,,,,,,,',,,",
")))!))))))))))!)))",
"~{~!~{~]^/]~{~!~{~",
"(((_(((::::(((_(((",
"<<<[<<<}||}<<<[<<<",
"<1<[<1<1<11<1<[<1<",
"1<1/1<1<1<<1<1/1<1",
"<(<(2(<(<((<(2(<(<",
"(((((^[_____^(((((",
"<<<<<<<<<<<<<<<<<<",
"<1<1<1<1<11<1<1<1<",
"1<1<1<1<1<<1<1<1<1"};
