/* XPM */
static char * minufcs_xpm[] = {
"19 19 68 1",
" 	c #FEFEFE",
".	c #FDFDFD",
"+	c #FCFCFC",
"@	c #FBFBFB",
"#	c #FAFAFA",
"$	c #F9F9F9",
"%	c #F8F8F8",
"&	c #F6F6F6",
"*	c #F3F3F3",
"=	c #F1F1F1",
"-	c #F0F0F0",
";	c #F4F4F4",
">	c #EBEBEB",
",	c #E7E7E7",
"'	c #E2E2E2",
")	c #DFDFDF",
"!	c #DEDEDE",
"~	c #DDDDDD",
"{	c #EEEEEE",
"]	c #ECECEC",
"^	c #C6C6C6",
"/	c #B3B3B3",
"(	c #A0A0A0",
"_	c #9E9E9E",
":	c #9D9D9D",
"<	c #EAEAEA",
"[	c #E6E6E6",
"}	c #D3D3D3",
"|	c #ADADAD",
"1	c #949494",
"2	c #FFFFFF",
"3	c #959595",
"4	c #AEAEAE",
"5	c #D4D4D4",
"6	c #E0E0E0",
"7	c #E9E8E9",
"8	c #E4E4E4",
"9	c #DCDCDC",
"0	c #CFCFCF",
"a	c #B2B2B2",
"b	c #9C9C9C",
"c	c #888888",
"d	c #858585",
"e	c #838383",
"f	c #DDDCDD",
"g	c #E5E5E5",
"h	c #E9E9E9",
"i	c #D2D2D2",
"j	c #C4C4C4",
"k	c #B8B8B8",
"l	c #AFAFAF",
"m	c #B9B9B9",
"n	c #C5C5C5",
"o	c #DBDBDB",
"p	c #CACACA",
"q	c #C2C2C2",
"r	c #C1C1C1",
"s	c #CBCBCB",
"t	c #EDEDED",
"u	c #E6E6E5",
"v	c #E1E1E1",
"w	c #D9D9D9",
"x	c #D8D8D8",
"y	c #EDEDEE",
"z	c #EEEEEF",
"A	c #EFEFEF",
"B	c #E8E8E8",
"C	c #E7E8E7",
"                   ",
"                   ",
"                   ",
"                   ",
"                   ",
"                   ",
"                   ",
"                   ",
"...................",
"+++@@#########@@+++",
"$$%&*=-------=*&%$$",
";*->,')!~~~!)',>-*;",
"{],!^/(_:::_(/^!,]{",
"<[)}|122222223456,>",
"7890abcdeeedcba0fg<",
"hg!ijkal|||lamn})[<",
">h8oipnqrrrqns}9g<]",
"t]huv9wwxxxww9v[<yz",
"AA{]hB,,,,,,CB<tA--"};
