/* XPM */
static char * menuiconpr_xpm[] = {
"22 22 117 2",
"  	c #607B82",
". 	c #5F7A81",
"+ 	c #5F7981",
"@ 	c #607A82",
"# 	c #68878E",
"$ 	c #68868E",
"% 	c #67878F",
"& 	c #709098",
"* 	c #70909A",
"= 	c #708F98",
"- 	c #709198",
"; 	c #719199",
"> 	c #6F9099",
", 	c #6F8F99",
"' 	c #719099",
") 	c #719299",
"! 	c #74959C",
"~ 	c #74949C",
"{ 	c #73939D",
"] 	c #73949D",
"^ 	c #74939C",
"/ 	c #73959D",
"( 	c #7898A0",
"_ 	c #7899A0",
": 	c #7797A1",
"< 	c #7C9CA4",
"[ 	c #7C9DA4",
"} 	c #7A9BA4",
"| 	c #7B9AA3",
"1 	c #7C9BA4",
"2 	c #7A9CA4",
"3 	c #7E9FA8",
"4 	c #7FA0A7",
"5 	c #7E9EA8",
"6 	c #7EA0A8",
"7 	c #7D9EA7",
"8 	c #7FA2A9",
"9 	c #7FA0A9",
"0 	c #7FA1A9",
"a 	c #80A1AA",
"b 	c #80A2AA",
"c 	c #7B9EA7",
"d 	c #7BA0A7",
"e 	c #7B9DA7",
"f 	c #7A9FA8",
"g 	c #7B9FA7",
"h 	c #7A9EA8",
"i 	c #7C9FA8",
"j 	c #749CA6",
"k 	c #759BA5",
"l 	c #739BA5",
"m 	c #EFEFEF",
"n 	c #6F99A3",
"o 	c #7098A2",
"p 	c #6F9AA3",
"q 	c #6D98A3",
"r 	c #6E97A2",
"s 	c #7099A2",
"t 	c #6893A0",
"u 	c #69969F",
"v 	c #6996A1",
"w 	c #6994A1",
"x 	c #6895A0",
"y 	c #69949F",
"z 	c #6896A0",
"A 	c #6894A0",
"B 	c #6A95A0",
"C 	c #62929E",
"D 	c #62919E",
"E 	c #63919D",
"F 	c #5D8D99",
"G 	c #5E8C98",
"H 	c #5E8D98",
"I 	c #5E8E98",
"J 	c #5E8E9A",
"K 	c #5F8E99",
"L 	c #5A8994",
"M 	c #5A8894",
"N 	c #598895",
"O 	c #588694",
"P 	c #598793",
"Q 	c #588894",
"R 	c #598995",
"S 	c #568590",
"T 	c #568692",
"U 	c #558591",
"V 	c #568490",
"W 	c #53838F",
"X 	c #53838D",
"Y 	c #52828E",
"Z 	c #53848F",
"` 	c #52818E",
" .	c #51818D",
"..	c #53828D",
"+.	c #528390",
"@.	c #53828F",
"#.	c #528590",
"$.	c #52808C",
"%.	c #50808C",
"&.	c #507E8C",
"*.	c #51808D",
"=.	c #4F808D",
"-.	c #538895",
";.	c #548794",
">.	c #568E9C",
",.	c #56909C",
"'.	c #558D9D",
").	c #558E9D",
"!.	c #5893A2",
"~.	c #5792A3",
"{.	c #5892A2",
"].	c #5794A3",
"^.	c #5895A2",
"/.	c #5795A3",
"(.	c #5795A5",
"_.	c #5696A6",
":.	c #5797A5",
"        . + @   .                           ",
"# $ $ $ # % $ # # # # # # $ # $ # # # # # # ",
"& & * & = & & - - ; - & > - - - , & & & ' ) ",
"! ~ { ~ ] ~ ~ ] ^ ^ { ^ ^ ~ ! / ] / ^ ] ~ ~ ",
"( ( ( _ ( ( : ( ( : ( : ( ( _ ( ( ( : : : ( ",
"< < [ } | < < 1 < } 2 [ < 1 < < 1 < [ < 1 1 ",
"3 3 3 3 4 5 3 6 3 4 3 5 3 4 4 4 7 3 4 3 3 4 ",
"8 9 0 0 9 0 0 0 0 0 0 9 0 0 8 0 8 a b 8 0 b ",
"c c d e f c e g h f e d h h h c i e h e c c ",
"j k k k l j k m m m m m m m m m k j j k j k ",
"n o n p n n n o p p o o o q r n o n n q q s ",
"t u t v w v x y w x t z A y B y u t u u y x ",
"C C C D C E D m m m m m m m m m C C E C C E ",
"F G H F F I F G H H H H H G J H K H H G F F ",
"L M N L O L P L L Q Q L N L L L L R L R L L ",
"S S S T T U T m m m m m m m m m T T U S V S ",
"W X Y Z ` Z `  .X ..+.W @.@.#.W X ` ..X Y $.",
"%.%.&.%.%.%.%.%.%.%.&.%. .*.%.&.=.%. . .&.%.",
"-.-.;.-.-.-.;.-.-.-.-.-.-.-.-.-.-.-.-.-.-.-.",
">.>.>.>.,.>.>.>.>.,.,.,.'.'.>.'.).,.,.>.>.>.",
"!.!.!.!.~.!.{.!.!.!.].!.^.{.^.^./.^./.{.].].",
"(.(.(.(._.(.(.(.(.(.(.(.(._.(.(.:.(.(.:.(.(."};
