/* XPM */
static char * maxpr_xpm[] = {
"19 19 142 2",
"  	c #DFE58E",
". 	c #ACBC2A",
"+ 	c #F1F4B7",
"@ 	c #F0F4B6",
"# 	c #F0F3B5",
"$ 	c #F0F3B4",
"% 	c #EFF3B4",
"& 	c #EFF3B3",
"* 	c #C2C792",
"= 	c #C2C590",
"- 	c #C1C490",
"; 	c #BFC28D",
"> 	c #BFC18D",
", 	c #BEC18B",
"' 	c #BEC08B",
") 	c #BCC08B",
"! 	c #BCBE8B",
"~ 	c #EEF1B0",
"{ 	c #EEF1AF",
"] 	c #D1D698",
"^ 	c #D1D596",
"/ 	c #D0D595",
"( 	c #D0D393",
"_ 	c #CFD394",
": 	c #CDD392",
"< 	c #CDD092",
"[ 	c #CDD191",
"} 	c #CBCF91",
"| 	c #CCCF90",
"1 	c #ECF0AB",
"2 	c #ECEFAB",
"3 	c #E1E398",
"4 	c #DFE498",
"5 	c #E9EBA6",
"6 	c #E9EBA5",
"7 	c #E8EBA5",
"8 	c #E8E9A3",
"9 	c #E5E9A2",
"0 	c #DADE92",
"a 	c #D9DC90",
"b 	c #EAEEA7",
"c 	c #E7EC97",
"d 	c #E7EB98",
"e 	c #EDF0A4",
"f 	c #C1C46E",
"g 	c #BFC46E",
"h 	c #BFC46D",
"i 	c #EDF0A2",
"j 	c #E5EA91",
"k 	c #E5EA8F",
"l 	c #E9EDA3",
"m 	c #E8EDA3",
"n 	c #E5EA93",
"o 	c #EDF0A0",
"p 	c #BEC46A",
"q 	c #BDC46A",
"r 	c #BDC368",
"s 	c #BDC366",
"t 	c #EBF09B",
"u 	c #E2E78B",
"v 	c #E3E789",
"w 	c #E7EB9F",
"x 	c #E6EB9F",
"y 	c #E2E88D",
"z 	c #EBEF9A",
"A 	c #BAC164",
"B 	c #E9EE9A",
"C 	c #E9EE97",
"D 	c #E9ED96",
"E 	c #BAC061",
"F 	c #E9ED94",
"G 	c #E0E585",
"H 	c #E5EA9C",
"I 	c #D1D58B",
"J 	c #889229",
"K 	c #D9DC99",
"L 	c #D0D684",
"M 	c #D0D682",
"N 	c #DEE191",
"O 	c #AAAE5A",
"P 	c #D0D47F",
"Q 	c #CFD47E",
"R 	c #CDD47D",
"S 	c #A7AD57",
"T 	c #DCE08A",
"U 	c #CDD27C",
"V 	c #CDD17A",
"W 	c #D7DA94",
"X 	c #D6DA94",
"Y 	c #CED37D",
"Z 	c #DCDF8B",
"` 	c #A7AC56",
" .	c #A7AC54",
"..	c #A6AB54",
"+.	c #A6AA54",
"@.	c #A5AA53",
"#.	c #DADD85",
"$.	c #CBCE76",
"%.	c #CBCE74",
"&.	c #D4D890",
"*.	c #CAD077",
"=.	c #CACE77",
"-.	c #D9DD84",
";.	c #D7DD83",
">.	c #D7DD80",
",.	c #D5DC7F",
"'.	c #D5DD7F",
").	c #D5DA7E",
"!.	c #C6CA6E",
"~.	c #C4CA6E",
"{.	c #D2D68C",
"].	c #C8CD7F",
"^.	c #C8CB7D",
"/.	c #C6CA7C",
"(.	c #C5CA7C",
"_.	c #C4C97C",
":.	c #C4C97A",
"<.	c #C3C87A",
"[.	c #C3C97A",
"}.	c #C3C879",
"|.	c #C2C879",
"1.	c #C2C677",
"2.	c #D0D488",
"3.	c #D0D388",
"4.	c #C3C891",
"5.	c #C3C791",
"6.	c #C2C78F",
"7.	c #C0C78F",
"8.	c #C0C68E",
"9.	c #C0C48E",
"0.	c #BEC48E",
"a.	c #BFC48C",
"b.	c #BEC48C",
"c.	c #BCC38B",
"d.	c #BAC18B",
"e.	c #CDD184",
"f.	c #CCD184",
"g.	c #CCD084",
"h.	c #CCD083",
"i.	c #CCD082",
"j.	c #CBD081",
"k.	c #CBCF81",
"                                      ",
"                                      ",
"    . . . . . . . . . . . . . . .     ",
"    . + + @ # # # # # # $ $ % & .     ",
"    . & * = = - - ; > , ' ) ! ~ .     ",
"    . { ] ^ / / ( _ : < [ } | 1 .     ",
"    . 2 3 4 5 5 6 7 8 8 9 0 a b .     ",
"    . b c d e f g g h h i j k l .     ",
"    . m n j o p q r r s t u v w .     ",
"    . x y y z A B C D E F G G H .     ",
"I I J K L M N O P Q R S T U V W J I I ",
"I I J X Y U Z `  ...+.@.#.$.%.&.J I I ",
"I I J &.*.=.-.;.>.,.'.'.).!.~.{.J I I ",
"I I J {.].^./.(._.:.<.[.}.|.1.2.J I I ",
"I I J 3.4.5.6.7.8.9.0.a.b.c.d.e.J I I ",
"I I J f.f.g.h.h.h.i.i.j.j.j.k.k.J I I ",
"I I J J J J J J J J J J J J J J J I I ",
"I I I I I I I I I I I I I I I I I I I ",
"I I I I I I I I I I I I I I I I I I I "};
