/* XPM */
static char * shadefcs_xpm[] = {
"18 18 38 1",
" 	c #DCD096",
".	c #DBC45B",
"+	c #BCA84E",
"@	c #E0C95D",
"#	c #EAD161",
"$	c #B3A04A",
"%	c #B4A14B",
"&	c #B5A24B",
"*	c #B7A34C",
"=	c #B8A44C",
"-	c #B9A54D",
";	c #BAA64D",
">	c #BDA94F",
",	c #BEAA4F",
"'	c #BFAB4F",
")	c #B6A34C",
"!	c #BBA74E",
"~	c #C0AB50",
"{	c #C1AC50",
"]	c #C2AD51",
"^	c #C4AF51",
"/	c #FFE46A",
"(	c #C3AE51",
"_	c #C6B152",
":	c #C7B253",
"<	c #000000",
"[	c #FFE369",
"}	c #C5B052",
"|	c #C8B353",
"1	c #C9B354",
"2	c #CAB454",
"3	c #CBB554",
"4	c #CCB655",
"5	c #CDB755",
"6	c #CFB956",
"7	c #CEB856",
"8	c #D0BA56",
"9	c #D4B527",
"                  ",
"..................",
"..++++++++++++++..",
".+@############@+.",
".+#$%&*==-;+>,'#+.",
".+#%)*=-!++,,~{#+.",
".+#)*-;!+>'~{]]#+.",
".+#-;;+>,'~{]^^#+.",
".+#!+>>'//](^_:#+.",
".+#+>'~/<<[}_:|#+.",
".+#,'~{][[_:|12#+.",
".+#~{]^}_::1234#+.",
".+#](^}_:|23456#+.",
".+#^}_:|1234768#+.",
".+@############@+.",
"..++++++++++++++..",
"..................",
"999999999999999999"};
