/* XPM */
static char * closeufcs_xpm[] = {
"19 19 144 2",
"  	c #474A4C",
". 	c #46494B",
"+ 	c #45484A",
"@ 	c #434648",
"# 	c #424547",
"$ 	c #404244",
"% 	c #3A3D3F",
"& 	c #37383A",
"* 	c #343739",
"= 	c #343738",
"- 	c #3C3F42",
"; 	c #3A3D40",
"> 	c #35383B",
", 	c #2D2F31",
"' 	c #212324",
") 	c #1A1A1C",
"! 	c #171819",
"~ 	c #171818",
"{ 	c #212325",
"] 	c #343639",
"^ 	c #2E3032",
"/ 	c #232527",
"( 	c #1A1B1C",
"_ 	c #141516",
": 	c #252627",
"< 	c #343537",
"[ 	c #37393A",
"} 	c #363739",
"| 	c #252728",
"1 	c #141416",
"2 	c #222527",
"3 	c #2E2F32",
"4 	c #2F3235",
"5 	c #2E3134",
"6 	c #2A2D2F",
"7 	c #202324",
"8 	c #17191B",
"9 	c #0D0E0F",
"0 	c #1E2022",
"a 	c #343637",
"b 	c #3D3F40",
"c 	c #3E4041",
"d 	c #363839",
"e 	c #222325",
"f 	c #0D0F11",
"g 	c #181A1A",
"h 	c #202223",
"i 	c #2D3033",
"j 	c #2B2E31",
"k 	c #242628",
"l 	c #1B1D1F",
"m 	c #0F1011",
"n 	c #0B0C0E",
"o 	c #131416",
"p 	c #151619",
"q 	c #151719",
"r 	c #16181A",
"s 	c #18191B",
"t 	c #181A1C",
"u 	c #101214",
"v 	c #101011",
"w 	c #1C1E21",
"x 	c #292C2E",
"y 	c #202224",
"z 	c #1A1B1E",
"A 	c #070808",
"B 	c #010101",
"C 	c #000000",
"D 	c #1B1E1F",
"E 	c #202325",
"F 	c #292B2E",
"G 	c #2A2D30",
"H 	c #222326",
"I 	c #0E0F10",
"J 	c #020202",
"K 	c #0F1010",
"L 	c #2B2C2F",
"M 	c #323537",
"N 	c #2D3032",
"O 	c #25282A",
"P 	c #09090A",
"Q 	c #090A0A",
"R 	c #26272B",
"S 	c #2D2F32",
"T 	c #313437",
"U 	c #34373A",
"V 	c #303336",
"W 	c #292D2F",
"X 	c #33373A",
"Y 	c #35373B",
"Z 	c #323437",
"` 	c #2D2E31",
" .	c #0B0B0C",
"..	c #000001",
"+.	c #323337",
"@.	c #36393C",
"#.	c #323538",
"$.	c #2F3133",
"%.	c #151617",
"&.	c #030304",
"*.	c #030303",
"=.	c #34373B",
"-.	c #313336",
";.	c #2D3134",
">.	c #2D2F33",
",.	c #2F3236",
"'.	c #333739",
").	c #313436",
"!.	c #313638",
"~.	c #010202",
"{.	c #333738",
"].	c #303337",
"^.	c #2C2F32",
"/.	c #2A2C2F",
"(.	c #303338",
"_.	c #222426",
":.	c #040404",
"<.	c #030404",
"[.	c #0F0F10",
"}.	c #212426",
"|.	c #292C2F",
"1.	c #282A2D",
"2.	c #282A2C",
"3.	c #303437",
"4.	c #313538",
"5.	c #191B1D",
"6.	c #191B1C",
"7.	c #303438",
"8.	c #272A2D",
"9.	c #26282A",
"0.	c #232628",
"a.	c #303436",
"b.	c #2A2E2F",
"c.	c #26292C",
"d.	c #25282B",
"e.	c #24272A",
"f.	c #212326",
"g.	c #1F2223",
"h.	c #1F2123",
"i.	c #1F2124",
"j.	c #1F2224",
"k.	c #212427",
"l.	c #25272A",
"m.	c #242629",
"            . . + + + + .             ",
"@ @ @ @ # $ % & * = * & % $ # @ @ @ @ ",
"- - - ; > , ' ) ! ~ ! ) { , > ; - - - ",
"> > ] ^ / ( _ : < [ } | 1 ( 2 3 ] > > ",
"4 5 6 7 8 9 0 a b c b d e f g h 6 5 4 ",
"i j k l m n o p q r r s t u v w k j i ",
"i x y z A B C C C C C C C B A D E F i ",
"4 G H I J C C C C C C C C C J K / L 4 ",
"M N O P B C C C C C C C C C B Q R S T ",
"U V x P C C C C C C C C C C C P W V X ",
"Y Z `  ...C C C C C C C C C .. .^ +.Y ",
"@.#.$.%.&.C C C C C C C C C *.%.4 #.> ",
"=.-.;.i 9 B C C C C C C C B 9 >.5 ,.=.",
"'.).N !.7 Q ~.C C C C C B Q { {.N ).'.",
"].,.^./.(._.I :.B C B <.[.}.].|.j ,.].",
"i i ^.1.2.3.4.5.I 9 I 6.#.7.2.8.^.i i ",
"6 6 6 x 9.0.6 4 a.T Z 4 b.0.9.x 6 6 6 ",
"c.c.c.c.d.e.f.g.h.i.i.j.k.e.d.c.c.c.c.",
"l.l.l.l.l.l.m.m.m.m.m.m.m.l.l.l.l.l.l."};
