/* XPM */
static char * maxfcs_xpm[] = {
"19 19 162 2",
"  	c #474A4C",
". 	c #46494B",
"+ 	c #45484A",
"@ 	c #434648",
"# 	c #424547",
"$ 	c #404244",
"% 	c #3A3D3F",
"& 	c #37383A",
"* 	c #343739",
"= 	c #343738",
"- 	c #3C3F42",
"; 	c #3A3D40",
"> 	c #35383B",
", 	c #2E3032",
"' 	c #222425",
") 	c #1B1B1D",
"! 	c #171819",
"~ 	c #171818",
"{ 	c #1A1A1C",
"] 	c #212325",
"^ 	c #2D2F31",
"/ 	c #343639",
"( 	c #252729",
"_ 	c #1F2021",
": 	c #272829",
"< 	c #595A5A",
"[ 	c #707071",
"} 	c #727373",
"| 	c #535455",
"1 	c #1F1F20",
"2 	c #191A1B",
"3 	c #222527",
"4 	c #2E2F32",
"5 	c #2F3235",
"6 	c #2E3134",
"7 	c #2A2D2F",
"8 	c #222526",
"9 	c #232527",
"0 	c #3A3A3B",
"a 	c #68696A",
"b 	c #838484",
"c 	c #858686",
"d 	c #818282",
"e 	c #7E7F7F",
"f 	c #747575",
"g 	c #565657",
"h 	c #292B2C",
"i 	c #1B1D1D",
"j 	c #202223",
"k 	c #2D3033",
"l 	c #2B2E31",
"m 	c #232526",
"n 	c #323334",
"o 	c #555556",
"p 	c #656667",
"q 	c #636465",
"r 	c #5A5B5C",
"s 	c #555657",
"t 	c #555656",
"u 	c #444546",
"v 	c #242425",
"w 	c #1E1F22",
"x 	c #242628",
"y 	c #292C2E",
"z 	c #242528",
"A 	c #393A3A",
"B 	c #464646",
"C 	c #454545",
"D 	c #474747",
"E 	c #434343",
"F 	c #373737",
"G 	c #313131",
"H 	c #303030",
"I 	c #272828",
"J 	c #1D2021",
"K 	c #202224",
"L 	c #292B2E",
"M 	c #2A2D30",
"N 	c #222326",
"O 	c #1A1A1B",
"P 	c #252525",
"Q 	c #323232",
"R 	c #1F1F1F",
"S 	c #161616",
"T 	c #171717",
"U 	c #151616",
"V 	c #222426",
"W 	c #2B2C2F",
"X 	c #323537",
"Y 	c #2D3032",
"Z 	c #232628",
"` 	c #0F0F0F",
" .	c #0E0E0E",
"..	c #0A0A0A",
"+.	c #111111",
"@.	c #141414",
"#.	c #0D0D0D",
"$.	c #0B0B0B",
"%.	c #0E0F0F",
"&.	c #2D2F32",
"*.	c #313437",
"=.	c #34373A",
"-.	c #303336",
";.	c #26292A",
">.	c #0C0C0C",
",.	c #090909",
"'.	c #101010",
").	c #131313",
"!.	c #26292B",
"~.	c #33373A",
"{.	c #35373B",
"].	c #323437",
"^.	c #2A2B2D",
"/.	c #0E0E0F",
"(.	c #2A2C2E",
"_.	c #323337",
":.	c #36393C",
"<.	c #323538",
"[.	c #2D2E30",
"}.	c #141415",
"|.	c #131314",
"1.	c #34373B",
"2.	c #313336",
"3.	c #2C3033",
"4.	c #272A2C",
"5.	c #0D0D0E",
"6.	c #27292C",
"7.	c #2F3236",
"8.	c #333739",
"9.	c #313436",
"0.	c #2F3436",
"a.	c #1A1C1C",
"b.	c #0C0D0D",
"c.	c #090A0A",
"d.	c #1A1C1D",
"e.	c #313435",
"f.	c #303337",
"g.	c #2C2F32",
"h.	c #2A2C2F",
"i.	c #2C2F33",
"j.	c #282A2D",
"k.	c #282A2C",
"l.	c #2D3134",
"m.	c #141516",
"n.	c #2D3135",
"o.	c #272A2D",
"p.	c #26282A",
"q.	c #2B2F30",
"r.	c #2C2E31",
"s.	c #2D2E31",
"t.	c #292D2E",
"u.	c #26292C",
"v.	c #25282B",
"w.	c #24272A",
"x.	c #212326",
"y.	c #1F2223",
"z.	c #1F2123",
"A.	c #1F2124",
"B.	c #1F2224",
"C.	c #212427",
"D.	c #25272A",
"E.	c #242629",
"            . . + + + + .             ",
"@ @ @ @ # $ % & * = * & % $ # @ @ @ @ ",
"- - - ; > , ' ) ! ~ ! { ] ^ > ; - - - ",
"> > / , ( _ : < [ } [ | 1 2 3 4 / > > ",
"5 6 7 8 9 0 a b c d e f g h i j 7 6 5 ",
"k l ( m n o p a q r s g t u v w x l k ",
"k y ] z A B C D E F G H H H I J K L k ",
"5 M N O P Q R S S T S S S T S U V W 5 ",
"X Y Z `  .....+.@.#.$.$.$.$.$.%.z &.*.",
"=.-.;.>.,.>.'.).'.>...........>.!.-.~.",
"{.].^./.....$.$.$............. .(._.{.",
":.<.[.}.......................|.&.<.> ",
"1.2.3.4.%.,...............,.5.6.k 7.1.",
"8.9.Y 0.a.b.c.,.........,.>.d.e.Y 9.8.",
"f.7.g.h.i.d.5...........5.d.g.L l 7.f.",
"k k g.j.k.l.M m.5.b.5.m.7 n.k.o.g.k k ",
"7 7 7 y p.Z (.l q.r.s.l t.Z p.y 7 7 7 ",
"u.u.u.u.v.w.x.y.z.A.A.B.C.w.v.u.u.u.u.",
"D.D.D.D.D.D.E.E.E.E.E.E.E.D.D.D.D.D.D."};
