/* XPM */
static char * menuiconpr_xpm[] = {
"21 21 157 2",
"  	c #6F8093",
". 	c #6E7F93",
"+ 	c #6E7E92",
"@ 	c #6F7F93",
"# 	c #6E8093",
"$ 	c #334C66",
"% 	c #324A66",
"& 	c #344B66",
"* 	c #334B66",
"= 	c #324A65",
"- 	c #304762",
"; 	c #304862",
"> 	c #314963",
", 	c #314863",
"' 	c #2F4760",
") 	c #2F445F",
"! 	c #2F455F",
"~ 	c #2D435C",
"{ 	c #2D455F",
"] 	c #2D425B",
"^ 	c #2C425C",
"/ 	c #2D445C",
"( 	c #2C4159",
"_ 	c #293D54",
": 	c #2B415A",
"< 	c #2B4058",
"[ 	c #2B4159",
"} 	c #1C2B3F",
"| 	c #273A4F",
"1 	c #25364C",
"2 	c #283B53",
"3 	c #293E55",
"4 	c #293D55",
"5 	c #3E5269",
"6 	c #3E5168",
"7 	c #3E5369",
"8 	c #3D5169",
"9 	c #213246",
"0 	c #26384E",
"a 	c #263A51",
"b 	c #3C5066",
"c 	c #2E4661",
"d 	c #2F4660",
"e 	c #2F4460",
"f 	c #2F4661",
"g 	c #2F4761",
"h 	c #2F4560",
"i 	c #2E4660",
"j 	c #202F41",
"k 	c #1F3042",
"l 	c #23354B",
"m 	c #24384E",
"n 	c #25374E",
"o 	c #3A4D63",
"p 	c #2D435D",
"q 	c #2C425D",
"r 	c #2C435D",
"s 	c #1D2D3E",
"t 	c #1D2C3E",
"u 	c #223348",
"v 	c #23344A",
"w 	c #384A60",
"x 	c #293F58",
"y 	c #293E57",
"z 	c #1C2B3B",
"A 	c #192737",
"B 	c #1F3044",
"C 	c #203046",
"D 	c #213146",
"E 	c #37485D",
"F 	c #273A53",
"G 	c #263C53",
"H 	c #A6B9D2",
"I 	c #A6BAD2",
"J 	c #A5BBD2",
"K 	c #1A2939",
"L 	c #182432",
"M 	c #1E2E3F",
"N 	c #1F2E40",
"O 	c #35465A",
"P 	c #24374D",
"Q 	c #23374E",
"R 	c #24364D",
"S 	c #24384D",
"T 	c #23364D",
"U 	c #1A2837",
"V 	c #151F2B",
"W 	c #1C293A",
"X 	c #1B2B3B",
"Y 	c #354458",
"Z 	c #1C2938",
"` 	c #1C2A38",
" .	c #9BA8B7",
"..	c #9BA7B6",
"+.	c #9BA9B7",
"@.	c #9BA8B6",
"#.	c #1D2B38",
"$.	c #1C2837",
"%.	c #182534",
"&.	c #121A25",
"*.	c #182635",
"=.	c #192738",
"-.	c #314051",
";.	c #111C28",
">.	c #121C28",
",.	c #16222F",
"'.	c #0F1721",
").	c #162432",
"!.	c #182434",
"~.	c #2E3E4D",
"{.	c #131E2A",
"].	c #131D2A",
"^.	c #929CA9",
"/.	c #929DA9",
"(.	c #14202B",
"_.	c #0E151E",
":.	c #15212E",
"<.	c #172434",
"[.	c #2E3A4A",
"}.	c #14202C",
"|.	c #141F2C",
"1.	c #15202C",
"2.	c #151F2D",
"3.	c #15202D",
"4.	c #151F2C",
"5.	c #14202D",
"6.	c #141D28",
"7.	c #0D131C",
"8.	c #15202E",
"9.	c #182535",
"0.	c #2C3747",
"a.	c #16212F",
"b.	c #121A26",
"c.	c #0D141D",
"d.	c #15212F",
"e.	c #182636",
"f.	c #2C3847",
"g.	c #182431",
"h.	c #111A26",
"i.	c #0D151D",
"j.	c #152230",
"k.	c #192736",
"l.	c #121B27",
"m.	c #121B26",
"n.	c #162330",
"o.	c #1A2738",
"p.	c #1A2636",
"q.	c #172332",
"r.	c #182533",
"s.	c #182331",
"t.	c #162230",
"u.	c #16212E",
"v.	c #141E29",
"w.	c #111B25",
"x.	c #101A23",
"y.	c #0E161E",
"z.	c #0F1821",
"    . + . . . @ @     . .   @ @ @ . . # # ",
"$ % % % % % % % % & % % * * % % % % = % % ",
"- ; ; > , - ; ; , , ; ; ; ; - - ; - - ' - ",
") ! ! ! ! ! ! ! ) ! ' ) ) ! ) ! ! ) ) ~ { ",
"] ^ ~ ~ ~ ] ] ~ ] ] / ] ~ ] ] ^ ~ ~ ( _ : ",
"< [ < } } } } } } } } } } } } } } } | 1 2 ",
"3 4 } 5 5 6 6 5 6 6 7 6 5 6 6 8 5 5 } 9 0 ",
"a a } b c d d d d e f d g h i i g j } k l ",
"m n } o p p p q ^ r p r r r ^ ^ p s } t u ",
"v v } w x x x y x x x x x x x x x z } A B ",
"C D } E F G F F H I H H J F F F F K } L M ",
"N N } O P Q Q Q P R S P T P P P m U } V W ",
"X X } Y Z ` ` `  ...+.@.+.#.#.Z $.%.} &.*.",
"=.=.} -.;.;.;.;.;.;.;.;.>.;.;.;.;.,.} '.).",
"!.%.} ~.{.].].].^.^./.^.^.{.].{.].(.} _.:.",
"!.<.} [.}.|.1.2.1.3.4.}.4.5.4.1.2.6.} 7.8.",
"9.9.} 0.,.,.,.a.a.,.,.,.,.,.,.,.a.b.} c.d.",
"e.e.} f.L L g.L L L g.g.g.g.L g.g.h.} i.j.",
"A k.} l.m.m.l.l.l.m.l.l.l.l.l.l.l.l.} _.n.",
"o.p.!.} } } } } } } } } } } } } } } 5.'.q.",
"r.s.t.,.u.3.v.w.x.'._._.y.y._._._.y.z.,.o."};
