/* XPM */
static char * menuiconufcs_xpm[] = {
"21 21 65 1",
" 	c #C861A7",
".	c #C760A4",
"+	c #C75EA3",
"@	c #C65FA5",
"#	c #C45DA1",
"$	c #C35CA0",
"%	c #C1589F",
"&	c #C0579E",
"*	c #BE559C",
"=	c #BC539A",
"-	c #BD559C",
";	c #C462A6",
">	c #C664A9",
",	c #C665A9",
"'	c #C462A7",
")	c #BF599F",
"!	c #BC5199",
"~	c #C35CA3",
"{	c #F8C4F5",
"]	c #C96AAD",
"^	c #C35DA3",
"/	c #B85096",
"(	c #BB569B",
"_	c #C86BAD",
":	c #C668AB",
"<	c #CB71B2",
"[	c #CA6EB0",
"}	c #BC569B",
"|	c #B3428C",
"1	c #B2438C",
"2	c #BA4F97",
"3	c #F8B5F4",
"4	c #C15CA3",
"5	c #F7B6F4",
"6	c #B2428B",
"7	c #B64890",
"8	c #C35DA5",
"9	c #C15AA2",
"0	c #C560A8",
"a	c #C763AA",
"b	c #C966AD",
"c	c #B64891",
"d	c #B13F8A",
"e	c #B94B95",
"f	c #F7B2F3",
"g	c #F7B2F4",
"h	c #C158A1",
"i	c #B03F89",
"j	c #B23E8C",
"k	c #B4408E",
"l	c #BA4E98",
"m	c #BD4F9D",
"n	c #BB4E99",
"o	c #B64491",
"p	c #BC4D9A",
"q	c #B03C8A",
"r	c #AE3C87",
"s	c #B13D8B",
"t	c #AD3B86",
"u	c #AC3A83",
"v	c #A83981",
"w	c #A73883",
"x	c #A6357E",
"y	c #A4337C",
"z	c #A5347D",
"                     ",
".+.+.......+.+.......",
"@@@@@@@@@@@@@@@@@@@@@",
"#####################",
"$$$$$$$$$$$$$$$$$$$$$",
"%%%%%%%%%%%%%%%%%%%%%",
"&&&%&&&&&&&&&%&&&&&&&",
"*********************",
"======-;>,')';*======",
"!!!!!!~{{{{]{{^!!!!!!",
"//////(_:<<:<[}//////",
"|1|11|234335352|1|1||",
"66666678909ab0c666666",
"ddddddefgghgggeddiddd",
"jjjdjjklmnopmnkjjdjdj",
"qrqqqqqsqqqrqqqqqsqqq",
"tututuuuuutututuuuuut",
"vvvvvvvvvvvvvvvvvvvvv",
"wwwwwwwwwwwwwwwwwwwww",
"xxxxxxxxxxxxxxxxxxxxx",
"yzzzzyzyyzyzzzzyzyyzy"};
