/* XPM */
static char * menuiconfcs_xpm[] = {
"21 21 61 1",
" 	c #E582CD",
".	c #E581CA",
"+	c #E57FC9",
"@	c #E480CB",
"#	c #E37DC7",
"$	c #E27CC6",
"%	c #E177C5",
"&	c #E076C4",
"*	c #DE74C2",
"=	c #DD71C0",
"-	c #DE73C1",
";	c #E180C8",
">	c #E282C9",
",	c #E283C9",
"'	c #DF77C3",
")	c #DD6FBF",
"!	c #E07AC5",
"~	c #FCE2F9",
"{	c #E488CC",
"]	c #E07BC5",
"^	c #DB6EBD",
"/	c #DD74C0",
"(	c #E389CC",
"_	c #E286CA",
":	c #E58FCF",
"<	c #E48CCD",
"[	c #D75EB2",
"}	c #D65FB2",
"|	c #DA6BBA",
"1	c #FBD1F7",
"2	c #DE78C1",
"3	c #FBD2F7",
"4	c #D65CB1",
"5	c #D862B5",
"6	c #DF77C2",
"7	c #DE74C0",
"8	c #E07AC4",
"9	c #E17DC6",
"0	c #E280C8",
"a	c #D559B0",
"b	c #D965B8",
"c	c #FBCDF7",
"d	c #FBCCF7",
"e	c #DD72C0",
"f	c #D45AAF",
"g	c #D658B2",
"h	c #D75AB4",
"i	c #DA68BA",
"j	c #DC69BD",
"k	c #D85EB6",
"l	c #DB67BC",
"m	c #D455B0",
"n	c #D355AD",
"o	c #D556B1",
"p	c #D254AB",
"q	c #D153A9",
"r	c #CE51A7",
"s	c #CD50A9",
"t	c #CC4CA3",
"u	c #CA4AA1",
"v	c #CB4BA2",
"                     ",
".+.+.......+.+.......",
"@@@@@@@@@@@@@@@@@@@@@",
"#####################",
"$$$$$$$$$$$$$$$$$$$$$",
"%%%%%%%%%%%%%%%%%%%%%",
"&&&%&&&&&&&&&%&&&&&&&",
"*********************",
"======-;>,;';;-======",
"))))))!~~~~{~~]))))))",
"^^^^^^/(_::_:</^^^^^^",
"[}[}}[|1211313|[}[}[[",
"444444567879085444444",
"aaaaaabcddedddbaafaaa",
"gggagghijikljihggagag",
"mnmmmmmommmnmmmmmommm",
"pqpqpqqqqqpqpqpqqqqqp",
"rrrrrrrrrrrrrrrrrrrrr",
"sssssssssssssssssssss",
"ttttttttttttttttttttt",
"uvvvvuvuuvuvvvvuvuuvu"};
