/* XPM */
static char * minufcs_xpm[] = {
"21 21 234 2",
"  	c #C861A7",
". 	c #C760A4",
"+ 	c #C75EA3",
"@ 	c #C65FA5",
"# 	c #C45EA4",
"$ 	c #C15CA1",
"% 	c #BF599E",
"& 	c #BE599D",
"* 	c #C25BA1",
"= 	c #C55EA4",
"- 	c #C45DA1",
"; 	c #C25CA0",
"> 	c #BE599C",
", 	c #B65494",
"' 	c #AC4D8B",
") 	c #A74E87",
"! 	c #AC5E90",
"~ 	c #B06595",
"{ 	c #B26195",
"] 	c #B35491",
"^ 	c #B95395",
"/ 	c #BF589C",
"( 	c #C35CA0",
"_ 	c #C05B9D",
": 	c #B75596",
"< 	c #A94C89",
"[ 	c #AC5890",
"} 	c #D6A0C7",
"| 	c #E2D3DE",
"1 	c #E4E3E4",
"2 	c #E5E4E5",
"3 	c #E5DFE4",
"4 	c #DCBDD5",
"5 	c #B86C9F",
"6 	c #B2528F",
"7 	c #BA5497",
"8 	c #C15A9E",
"9 	c #C1589F",
"0 	c #BF579E",
"a 	c #B65396",
"b 	c #A14683",
"c 	c #C67FB3",
"d 	c #E1DAE0",
"e 	c #E2E1E1",
"f 	c #E3E2E3",
"g 	c #E3E3E3",
"h 	c #E3E3E2",
"i 	c #E3E3E4",
"j 	c #E4E4E5",
"k 	c #E5E0E5",
"l 	c #D2A5C8",
"m 	c #B15492",
"n 	c #BA5097",
"o 	c #C0579E",
"p 	c #BB559A",
"q 	c #AA4B8B",
"r 	c #C371AD",
"s 	c #E1D6DE",
"t 	c #E1E2E2",
"u 	c #E2E2E2",
"v 	c #E2E2E3",
"w 	c #E3E2E2",
"x 	c #D4A2C9",
"y 	c #B24E90",
"z 	c #BD539A",
"A 	c #BE559C",
"B 	c #BC549A",
"C 	c #B24F92",
"D 	c #A84D8C",
"E 	c #E0BBDB",
"F 	c #E2DDE0",
"G 	c #E1E1E2",
"H 	c #E1E1E3",
"I 	c #E6E0E5",
"J 	c #B9629E",
"K 	c #B54C92",
"L 	c #BD549B",
"M 	c #BC539A",
"N 	c #B85197",
"O 	c #A84889",
"P 	c #CB81B9",
"Q 	c #E0CADC",
"R 	c #E2E0E2",
"S 	c #E2E1E2",
"T 	c #E1E0E2",
"U 	c #E0E0E1",
"V 	c #DFDEE1",
"W 	c #E5E3E5",
"X 	c #D7A8CF",
"Y 	c #B14E8F",
"Z 	c #BC5199",
"` 	c #B74F95",
" .	c #A34583",
"..	c #DA9ECF",
"+.	c #E0D4DF",
"@.	c #E1DFE0",
"#.	c #E1DEE1",
"$.	c #DFDDE1",
"%.	c #DFDDE0",
"&.	c #E5E5E5",
"*.	c #E5D4E2",
"=.	c #B25190",
"-.	c #B94E95",
";.	c #B85096",
">.	c #B34E92",
",.	c #9E4280",
"'.	c #DDACD6",
").	c #DFD3DD",
"!.	c #E1DFE2",
"~.	c #E0DFE1",
"{.	c #E0DEE0",
"].	c #E0DFE0",
"^.	c #DEDBDF",
"/.	c #DEDCDE",
"(.	c #DEDCE0",
"_.	c #E6DCE5",
":.	c #AE528E",
"<.	c #B3428C",
"[.	c #AD4188",
"}.	c #9B3777",
"|.	c #D994CF",
"1.	c #DABFD7",
"2.	c #E0DCE0",
"3.	c #DFDCE0",
"4.	c #DFDBDF",
"5.	c #DEDADE",
"6.	c #DCD9DE",
"7.	c #DDD9DE",
"8.	c #E4E1E4",
"9.	c #E5CFE0",
"0.	c #A64281",
"a.	c #AF4088",
"b.	c #B2428B",
"c.	c #AF4188",
"d.	c #9E3A7B",
"e.	c #D17AC3",
"f.	c #D497CB",
"g.	c #D9C5D7",
"h.	c #DDD6DE",
"i.	c #DCD5DD",
"j.	c #DBD4DD",
"k.	c #DAD4DC",
"l.	c #DAD3DC",
"m.	c #DBD4DC",
"n.	c #DBD5DD",
"o.	c #DFD9E0",
"p.	c #E1D3DE",
"q.	c #DB9ED1",
"r.	c #A53B7D",
"s.	c #B13F8A",
"t.	c #AF3E88",
"u.	c #A63A81",
"v.	c #C25EAD",
"w.	c #D181C6",
"x.	c #D1A0CA",
"y.	c #D9CEDA",
"z.	c #D9CCD9",
"A.	c #D9CBD9",
"B.	c #DACEDB",
"C.	c #DFD5DE",
"D.	c #DFB6DA",
"E.	c #CA66B3",
"F.	c #A6387E",
"G.	c #B03E89",
"H.	c #B23E8C",
"I.	c #AD3C88",
"J.	c #A73E86",
"K.	c #D67DCA",
"L.	c #CF7EC5",
"M.	c #D6C0D5",
"N.	c #D5BFD4",
"O.	c #D5BDD4",
"P.	c #D5BCD4",
"Q.	c #D5BDD5",
"R.	c #D7C0D6",
"S.	c #DBC6D9",
"T.	c #DBAED5",
"U.	c #DD97D3",
"V.	c #AB3D89",
"W.	c #AE3C86",
"X.	c #B03C8A",
"Y.	c #AE3C87",
"Z.	c #AF3C89",
"`.	c #A63882",
" +	c #BA50A1",
".+	c #D579CA",
"++	c #CF74C3",
"@+	c #CC81C2",
"#+	c #CD8CC5",
"$+	c #D3ABCF",
"%+	c #D3A8CF",
"&+	c #D4AED1",
"*+	c #D492CC",
"=+	c #D68CCC",
"-+	c #D983CF",
";+	c #BF50A3",
">+	c #A83681",
",+	c #AD3B86",
"'+	c #AC3A83",
")+	c #A93981",
"!+	c #A2367D",
"~+	c #BC509F",
"{+	c #D779CA",
"]+	c #D36FC3",
"^+	c #CE6BBE",
"/+	c #CD6FBF",
"(+	c #D177C3",
"_+	c #D277C3",
":+	c #D574C9",
"<+	c #D979CB",
"[+	c #BE4EA1",
"}+	c #A23379",
"|+	c #AA3881",
"1+	c #A83981",
"2+	c #A73980",
"3+	c #A2367C",
"4+	c #A53C84",
"5+	c #C45DAD",
"6+	c #D976CC",
"7+	c #D979CC",
"8+	c #D36CC2",
"9+	c #C658AD",
"0+	c #A73B83",
"a+	c #A3367C",
"b+	c #A73880",
"c+	c #A73883",
"d+	c #A3367F",
"e+	c #A0357C",
"f+	c #9F347C",
"g+	c #A0347D",
"h+	c #A63782",
"i+	c #A6357E",
"j+	c #A4337C",
"k+	c #A5347D",
"                                          ",
". + . + . . . . . . . + . + . . . . . . . ",
"@ @ @ @ @ @ # $ % & & % * = @ @ @ @ @ @ @ ",
"- - - - ; > , ' ) ! ~ { ] ^ / ( - - - - - ",
"( ( ( _ : < [ } | 1 2 3 4 5 6 7 8 ( ( ( ( ",
"9 9 0 a b c d e f g h i j k l m n o 9 9 9 ",
"o o p q r s e t u u u v w i 2 x y z o o o ",
"A B C D E F u u u u u G H H j I J K L A A ",
"M N O P Q R u u u S S T U V g W X Y n M M ",
"Z `  ...+.S S R S T @.#.$.%.U &.*.=.-.Z Z ",
";.>.,.'.).T !.~.{.].%.^./.(.V 1 _.:.K ;.;.",
"<.[.}.|.1.2.3.3.4.5.6.6.6.7.3.8.9.0.a.<.<.",
"b.c.d.e.f.g.h.i.j.k.l.l.m.n.o.p.q.r.a.b.b.",
"s.t.u.v.w.x.y.z.A.A.A.A.z.B.C.D.E.F.G.s.s.",
"H.H.I.J.K.L.x.M.N.O.P.Q.R.S.T.U.V.W.H.s.H.",
"X.Y.Z.`. +.+++@+#+$+%+&+*+=+-+;+>+X.X.X.X.",
",+'+,+)+!+~+{+]+^+/+(+_+:+<+[+}+|+'+'+'+,+",
"1+1+1+1+2+3+4+5+]+6+7+8+9+0+a+b+1+1+1+1+1+",
"c+c+c+c+c+c+`.d+e+f+f+g+d+h+c+c+c+c+c+c+c+",
"i+i+i+i+i+i+i+i+i+i+i+i+i+i+i+i+i+i+i+i+i+",
"j+k+k+k+k+j+k+j+j+k+j+k+k+k+k+j+k+j+j+k+j+"};
