/* XPM */
static char * minufcs_xpm[] = {
"21 21 41 1",
" 	c #EDF0F5",
".	c #B7C2D7",
"+	c #BAC5D9",
"@	c #BEC8DB",
"#	c #BDC7DA",
"$	c #C1CBDD",
"%	c #C0CADC",
"&	c #BEC8DA",
"*	c #BCC5D7",
"=	c #B9C3D4",
"-	c #B9C2D3",
";	c #C5CFDF",
">	c #C2CCDC",
",	c #FFFFFF",
"'	c #B1BAC8",
")	c #BBC4D4",
"!	c #C9D2E2",
"~	c #C8D1E1",
"{	c #C3CCDC",
"]	c #A4ABB8",
"^	c #B6BECD",
"/	c #CDD4E4",
"(	c #CCD3E3",
"_	c #C7CEDE",
":	c #BAC0CF",
"<	c #A7ADBA",
"[	c #9A9FAB",
"}	c #959AA5",
"|	c #D0D8E5",
"1	c #CDD5E1",
"2	c #C5CDD9",
"3	c #BBC2CE",
"4	c #B3BAC5",
"5	c #B0B7C2",
"6	c #CFD7E4",
"7	c #CAD2DF",
"8	c #C8D0DC",
"9	c #C7CFDB",
"0	c #E5EAF1",
"a	c #E4E9F0",
"b	c #D3D7DE",
"                     ",
".....................",
".....................",
".....................",
".....................",
".....................",
".....................",
".....................",
".....................",
".....................",
".....................",
"+++++++++++++++++++++",
"@@@@@@@@@######@@@@@@",
"$$$$$$$%&*=--=*&%$$$$",
";;;;;;;>,,,,,,')>;;;;",
"!!!!!!~{,,,,,,]^{~!!!",
"//////(_:<[}}[<:_(///",
"|||||||1234554321||||",
"|||||||6178998716||||",
"000000000aaaaaa000000",
"bbbbbbbbbbbbbbbbbbbbb"};
