/* XPM */
static char * minufcs_xpm[] = {
"21 21 10 1",
" 	c #040404",
".	c #0D0909",
"+	c #120D0D",
"@	c #160D0D",
"#	c #1F1616",
"$	c #271F1A",
"%	c #938F8C",
"&	c #271A1A",
"*	c #140D0D",
"=	c #1D1414",
"                     ",
"                     ",
".....................",
".....................",
"+++++++++++++++++++++",
"+++++++++++++++++++++",
"+++++++++++++++++++++",
"@@@@@@@@@@@@@@@@@@@@@",
"@@@@@@@@@@@@@@@@@@@@@",
"@@@@@@@@@@@@@@@@@@@@@",
"#####################",
"#####################",
"#####################",
"$$$$$$$$%%%%%%$$$$$$$",
"&&&&&&&&******&&&&&&&",
"&&&&&&&&&&&&&&&&&&&&&",
"&&&&&&&&&&&&&&&&&&&&&",
"&&&&&&&&&&&&&&&&&&&&&",
"&&&&&&&&&&&&&&&&&&&&&",
"&&&&&&&&&&&&&&&&&&&&&",
"====================="};
