/* XPM */
static char * closepr_xpm[] = {
"21 21 83 1",
" 	c #FFFFFF",
".	c #E0E0DF",
"+	c #CECDCB",
"@	c #D5D4D2",
"#	c #D5D0D2",
"$	c #D0CBCF",
"%	c #C5C5C4",
"&	c #CAC5C9",
"*	c #DDDCD9",
"=	c #D8D8D9",
"-	c #C8C8C6",
";	c #B2B2B0",
">	c #A19F9A",
",	c #9C9795",
"'	c #969795",
")	c #DAD9D6",
"!	c #D7D7D5",
"~	c #C1BFBF",
"{	c #A5A19F",
"]	c #7A7879",
"^	c #5E5B5D",
"/	c #494B47",
"(	c #4E4B4D",
"_	c #C8C7C5",
":	c #C1C1C0",
"<	c #9A9899",
"[	c #636262",
"}	c #5E5A5D",
"|	c #959694",
"1	c #ABA8AA",
"2	c #BCBBBA",
"3	c #ACA7A6",
"4	c #706E6F",
"5	c #5A5959",
"6	c #A7A7A6",
"7	c #ACAAAB",
"8	c #B5B5B4",
"9	c #94928E",
"0	c #524F51",
"a	c #898A89",
"b	c #A4A0A4",
"c	c #9FA09F",
"d	c #8E8A89",
"e	c #3C3F3C",
"f	c #999899",
"g	c #999A99",
"h	c #9F9A9F",
"i	c #B5B5B3",
"j	c #898A88",
"k	c #8E8D8E",
"l	c #B9B8B7",
"m	c #9A9694",
"n	c #4E504D",
"o	c #696868",
"p	c #7A7979",
"q	c #C0BFBE",
"r	c #A8A6A7",
"s	c #777271",
"t	c #4B4A4A",
"u	c #817E81",
"v	c #818081",
"w	c #7C7E7B",
"x	c #C6C6C4",
"y	c #686567",
"z	c #4D4D4C",
"A	c #6D6D6D",
"B	c #7E7B7D",
"C	c #7E7D7D",
"D	c #CDCCCA",
"E	c #9C9A95",
"F	c #7B7775",
"G	c #545753",
"H	c #444743",
"I	c #444443",
"J	c #CBCAC8",
"K	c #B6B5B5",
"L	c #A09C9A",
"M	c #96918F",
"N	c #C9C8C6",
"O	c #C6C5C4",
"P	c #C4C3C2",
"Q	c #9F9F9E",
"R	c #6A6A69",
"                     ",
".....................",
"+++++++++++++++++++++",
"@@@@@@@#$%&%$#@@@@@@@",
"*****=-;>,',>;-=*****",
"))))!~{]^/(/^]{~!))))",
"____:<[}|111|}[<:____",
"222234567777765432222",
"888890abcbcbcba098888",
"8888defghghghgfed8888",
"iiiijejkkkkkkkjejiiii",
"llllmnoppppppponmllll",
"qqqqrstuuvwvuutsrqqqq",
"xxxxxfyzABCBAzyfxxxxx",
"DDDDDDEFGHIHGFEDDDDDD",
"JJJJJJJKLMMMLKJJJJJJJ",
"NNNNNNNNNNNNNNNNNNNNN",
"OOOOOOOOOOOOOOOOOOOOO",
"PPPPPPPPPPPPPPPPPPPPP",
"QQQQQQQQQQQQQQQQQQQQQ",
"RRRRRRRRRRRRRRRRRRRRR"};
