/* XPM */
static char * menuiconufcs_xpm[] = {
"21 21 31 1",
" 	c #C0BCB5",
".	c #D8D4CD",
"+	c #D6D2CB",
"@	c #C8C5BF",
"#	c #C7C4BE",
"$	c #E1DED7",
"%	c #E1DDD7",
"&	c #D3D1CB",
"*	c #EDEAE4",
"=	c #DBD9D4",
"-	c #F4F1ED",
";	c #E0DEDA",
">	c #DFDDD9",
",	c #CFCDCA",
"'	c #91908D",
")	c #858381",
"!	c #82817F",
"~	c #8F8E8C",
"{	c #CDCBC7",
"]	c #F7F5F2",
"^	c #AEADAB",
"/	c #FFFFFF",
"(	c #E1DFDC",
"_	c #D1CFCC",
":	c #92918F",
"<	c #858482",
"[	c #838281",
"}	c #918F8D",
"|	c #CECDCA",
"1	c #C5C1BB",
"2	c #C3BFB9",
"                     ",
"..+.++++..+.++++..+.+",
"@#@@@#@@@#@@@#@@@#@@@",
"$%%%%%$%$%%%%%$%$%%%%",
"&&&&&&&&&&&&&&&&&&&&&",
"*********************",
"=====================",
"---------------------",
";>>>>>,')!!!!~{>;>>>>",
"]]]]]]^///////^]]]]]]",
"((((((_:<[[[[}|((((((",
"]]]]]]]]]]]]]]]]]]]]]",
"((((((_:<[[[[}|((((((",
"]]]]]]^///////^]]]]]]",
"((((((_:<[[[[}|((((((",
"]]]]]]]]]]]]]]]]]]]]]",
"(((((((((((((((((((((",
"]]]]]]]]]]]]]]]]]]]]]",
"(((((((((((((((((((((",
"]]]]]]]]]]]]]]]]]]]]]",
"112122221121222211212"};
