/* XPM */
static char * stickufcs_xpm[] = {
"21 21 37 1",
" 	c #C0BCB5",
".	c #D8D4CD",
"+	c #D6D2CB",
"@	c #C8C5BF",
"#	c #C7C4BE",
"$	c #E1DED7",
"%	c #E1DDD7",
"&	c #D3D1CB",
"*	c #EDEAE4",
"=	c #DBD9D4",
"-	c #F4F1ED",
";	c #E3E0DC",
">	c #9F9D9A",
",	c #908F8C",
"'	c #8F8D8A",
")	c #9D9B98",
"!	c #E0DDD9",
"~	c #E0DEDA",
"{	c #DFDDD9",
"]	c #9D9C99",
"^	c #FFFFFF",
"/	c #F7F5F2",
"(	c #E6E4E1",
"_	c #6A6967",
":	c #E3E1DE",
"<	c #E1DFDC",
"[	c #D1CFCC",
"}	c #605F5E",
"|	c #CECDCA",
"1	c #AEADAB",
"2	c #9F9D9B",
"3	c #92918F",
"4	c #858482",
"5	c #838281",
"6	c #918F8D",
"7	c #C5C1BB",
"8	c #C3BFB9",
"                     ",
"..+.++++..+.++++..+.+",
"@#@@@#@@@#@@@#@@@#@@@",
"$%%%%%$%$%%%%%$%$%%%%",
"&&&&&&&&&&&&&&&&&&&&&",
"*********************",
"=====================",
"-------;>,'')!-------",
"~{{{{{{]^^^^^]{{~{{{{",
"///////(_^^^_:///////",
"<<<<<<<<[}^}|<<<<<<<<",
"/////////(1(/////////",
"<<<<<<<<<[2[<<<<<<<<<",
"////////(_^_:////////",
"<<<<<<<[}^^^}|<<<<<<<",
"///////1^^^^^1///////",
"<<<<<<<[34556|<<<<<<<",
"/////////////////////",
"<<<<<<<<<<<<<<<<<<<<<",
"/////////////////////",
"778788887787888877878"};
