/* XPM */
static char * tbarufcs_xpm[] = {
"21 21 17 1",
" 	c #C0BCB5",
".	c #D8D4CD",
"+	c #D6D2CB",
"@	c #C8C5BF",
"#	c #C7C4BE",
"$	c #E1DED7",
"%	c #E1DDD7",
"&	c #D3D1CB",
"*	c #EDEAE4",
"=	c #DBD9D4",
"-	c #F4F1ED",
";	c #E0DEDA",
">	c #DFDDD9",
",	c #F7F5F2",
"'	c #E1DFDC",
")	c #C5C1BB",
"!	c #C3BFB9",
"                     ",
"..+.++++..+.++++..+.+",
"@#@@@#@@@#@@@#@@@#@@@",
"$%%%%%$%$%%%%%$%$%%%%",
"&&&&&&&&&&&&&&&&&&&&&",
"*********************",
"=====================",
"---------------------",
";>>>>>>>;>>>>>>>;>>>>",
",,,,,,,,,,,,,,,,,,,,,",
"'''''''''''''''''''''",
",,,,,,,,,,,,,,,,,,,,,",
"'''''''''''''''''''''",
",,,,,,,,,,,,,,,,,,,,,",
"'''''''''''''''''''''",
",,,,,,,,,,,,,,,,,,,,,",
"'''''''''''''''''''''",
",,,,,,,,,,,,,,,,,,,,,",
"'''''''''''''''''''''",
",,,,,,,,,,,,,,,,,,,,,",
"))!)!!!!))!)!!!!))!)!"};
