/* XPM */
static char * closepr_xpm[] = {
"21 21 123 2",
"  	c #F9F9F9",
". 	c #F7F7F7",
"+ 	c #F8F8F8",
"@ 	c #F6F6F6",
"# 	c #F4F4F4",
"$ 	c #F5F5F5",
"% 	c #F2F2F2",
"& 	c #F1F1F1",
"* 	c #F0F0F0",
"= 	c #EFEFEF",
"- 	c #F3F3F3",
"; 	c #EEEEEE",
"> 	c #DCDBDC",
", 	c #BFBEBF",
"' 	c #A7A6A7",
") 	c #E4E4E4",
"! 	c #BAB8BA",
"~ 	c #928490",
"{ 	c #856A82",
"] 	c #846381",
"^ 	c #846981",
"/ 	c #91838F",
"( 	c #EDEDED",
"_ 	c #EAEAEA",
": 	c #B8B6B8",
"< 	c #837081",
"[ 	c #865C82",
"} 	c #905D8C",
"| 	c #935C8E",
"1 	c #8C5987",
"2 	c #835A7E",
"3 	c #816E7F",
"4 	c #EBEBEB",
"5 	c #D7D6D7",
"6 	c #90828E",
"7 	c #865D82",
"8 	c #915B8C",
"9 	c #90598B",
"0 	c #8D5687",
"a 	c #875381",
"b 	c #7E5679",
"c 	c #8F818D",
"d 	c #ECECEC",
"e 	c #E9E9E9",
"f 	c #E7E7E7",
"g 	c #B9B8B9",
"h 	c #82677F",
"i 	c #8D5A88",
"j 	c #90588A",
"k 	c #8E5788",
"l 	c #8B5585",
"m 	c #885382",
"n 	c #85507E",
"o 	c #7F507A",
"p 	c #7E637A",
"q 	c #B8B7B8",
"r 	c #E8E8E8",
"s 	c #9F9E9F",
"t 	c #805F7C",
"u 	c #8C5786",
"v 	c #8C5686",
"w 	c #895383",
"x 	c #86517F",
"y 	c #834F7C",
"z 	c #7F4C79",
"A 	c #7C4B76",
"B 	c #775772",
"C 	c #A09FA0",
"D 	c #E5E5E5",
"E 	c #E6E6E6",
"F 	c #B7B6B7",
"G 	c #7F647B",
"H 	c #85547F",
"I 	c #865180",
"J 	c #844F7D",
"K 	c #804D7A",
"L 	c #7D4B77",
"M 	c #7B4974",
"N 	c #774971",
"O 	c #7B6077",
"P 	c #B5B4B5",
"Q 	c #E3E3E3",
"R 	c #D0CFD0",
"S 	c #8B7D89",
"T 	c #7B5376",
"U 	c #7F4D79",
"V 	c #7E4B78",
"W 	c #7C4975",
"X 	c #784771",
"Y 	c #75466E",
"Z 	c #734D6D",
"` 	c #8A7C88",
" .	c #E2E2E2",
"..	c #DFDFDF",
"+.	c #AFADAF",
"@.	c #7C6879",
"#.	c #775071",
"$.	c #76466F",
"%.	c #72456C",
"&.	c #714B6B",
"*.	c #796576",
"=.	c #DEDEDE",
"-.	c #E0E0E0",
";.	c #D5D5D5",
">.	c #AEACAE",
",.	c #887B86",
"'.	c #785E75",
").	c #71526C",
"!.	c #775D74",
"~.	c #887A86",
"{.	c #D6D6D6",
"].	c #E1E1E1",
"^.	c #DCDCDC",
"/.	c #CCCBCC",
"(.	c #B1B0B1",
"_.	c #9A999A",
":.	c #B0AFB0",
"<.	c #DDDDDD",
"[.	c #DBDBDB",
"}.	c #DADADA",
"|.	c #D9D9D9",
"1.	c #D7D7D7",
"2.	c #D8D8D8",
"                                          ",
". . + + + + + + + + + + + + + + + + + + + ",
"@ @ @ @ @ @ @ @ @ @ @ @ @ @ @ @ @ @ @ @ @ ",
"# # # # # # # # # # # # # # # # # $ $ $ $ ",
"% % % % % % % % & * = * % - - - - - - - - ",
"* * * * * * * ; > , ' , > ; & & & & & & & ",
"; = = = = = ) ! ~ { ] ^ / ! ) = = = = = = ",
"( ( ( ( ( _ : < [ } | 1 2 3 : _ ( ( ( ( ( ",
"4 4 4 4 _ 5 6 7 | 8 9 0 a b c 5 4 d d d d ",
"e e e e f g h i j k l m n o p q r _ _ _ _ ",
"f f f f ) s t u v w x y z A B C D r r r r ",
"D E E E ) F G H I J K L M N O P ) E E E E ",
") ) ) ) Q R S T U V W X Y Z ` R Q ) ) ) ) ",
" . . . . ...+.@.#.N $.%.&.*.+.=.Q Q Q Q Q ",
"-.-.-.-.-.-.;.>.,.'.).!.~.+.{.].].].].].].",
"=.=.=.=.=.....^./.(._.:./.^...............",
"<.<.<.<.<.<.<.<.^.[.}.[.^.<.<.<.<.<.<.<.<.",
"[.[.[.[.[.[.[.[.[.[.[.[.[.[.[.[.[.[.[.[.^.",
"|.|.|.|.|.|.|.|.|.|.|.|.|.|.|.}.}.}.}.}.}.",
"1.1.1.1.1.1.1.1.1.1.2.2.2.2.2.2.2.2.2.2.2.",
"{.{.{.{.{.{.{.{.{.{.{.{.{.{.{.{.{.{.{.{.{."};
