/* XPM */
static char * unshadepr_xpm[] = {
"21 21 123 2",
"  	c #F9F9F9",
". 	c #F7F7F7",
"+ 	c #F8F8F8",
"@ 	c #F6F6F6",
"# 	c #F4F4F4",
"$ 	c #F5F5F5",
"% 	c #F2F2F2",
"& 	c #F1F1F1",
"* 	c #F0F0F0",
"= 	c #EFEFEF",
"- 	c #F3F3F3",
"; 	c #EEEEEE",
"> 	c #DBDCDC",
", 	c #BEC0C1",
"' 	c #A7A9AA",
") 	c #E4E4E4",
"! 	c #B8BABB",
"~ 	c #8490A2",
"{ 	c #738DB5",
"] 	c #7DA0CB",
"^ 	c #728CB5",
"/ 	c #838FA2",
"( 	c #EDEDED",
"_ 	c #EAEAEA",
": 	c #B6B8B9",
"< 	c #7485A4",
"[ 	c #72A0D4",
"} 	c #81C6EF",
"| 	c #86D5F7",
"1 	c #7EC2ED",
"2 	c #6E9CD1",
"3 	c #7283A3",
"4 	c #EBEBEB",
"5 	c #D6D7D7",
"6 	c #828EA1",
"7 	c #719FD3",
"8 	c #85D3F6",
"9 	c #8ADCFB",
"0 	c #88DAFA",
"a 	c #85D4F8",
"b 	c #7DC7F1",
"c 	c #6B97CF",
"d 	c #808C9F",
"e 	c #ECECEC",
"f 	c #E9E9E9",
"g 	c #E7E7E7",
"h 	c #B7B9BA",
"i 	c #7089B3",
"j 	c #7EC1ED",
"k 	c #88D9FA",
"l 	c #86D6F8",
"m 	c #83D4F7",
"n 	c #81D0F6",
"o 	c #7FCBF3",
"p 	c #73B1E5",
"q 	c #6C84AF",
"r 	c #E8E8E8",
"s 	c #9FA1A2",
"t 	c #779BC8",
"u 	c #80CBF2",
"v 	c #84D3F7",
"w 	c #7FCCF4",
"x 	c #7DCAF3",
"y 	c #7AC4F1",
"z 	c #74B8EA",
"A 	c #6F90C0",
"B 	c #A0A2A3",
"C 	c #E5E5E5",
"D 	c #E6E6E6",
"E 	c #B5B7B8",
"F 	c #6C85B0",
"G 	c #77B7E8",
"H 	c #7ECAF3",
"I 	c #7CC9F2",
"J 	c #7AC5F1",
"K 	c #78C2F0",
"L 	c #75BDED",
"M 	c #6BA6E0",
"N 	c #6880AC",
"O 	c #B4B6B7",
"P 	c #E3E3E3",
"Q 	c #CFD0D0",
"R 	c #7D889C",
"S 	c #6792CC",
"T 	c #75B9EB",
"U 	c #78C0EF",
"V 	c #76BEEE",
"W 	c #72B8EB",
"X 	c #6DAEE6",
"Y 	c #6088C7",
"Z 	c #7C889C",
"` 	c #E2E2E2",
" .	c #DFDFDF",
"..	c #ADAFB0",
"+.	c #6D7D9E",
"@.	c #628BC8",
"#.	c #6BA5E0",
"$.	c #6EAEE6",
"%.	c #679FDD",
"&.	c #5F86C6",
"*.	c #6A7B9C",
"=.	c #DEDEDE",
"-.	c #E0E0E0",
";.	c #D5D5D5",
">.	c #ACAEAF",
",.	c #7A8599",
"'.	c #667DAA",
").	c #6887BB",
"!.	c #657CAA",
"~.	c #7B869A",
"{.	c #D6D6D6",
"].	c #E1E1E1",
"^.	c #DCDCDC",
"/.	c #CBCCCC",
"(.	c #B0B2B3",
"_.	c #9A9C9D",
":.	c #AFB1B2",
"<.	c #DDDDDD",
"[.	c #DBDBDB",
"}.	c #DADADA",
"|.	c #D9D9D9",
"1.	c #D7D7D7",
"2.	c #D8D8D8",
"                                          ",
". . + + + + + + + + + + + + + + + + + + + ",
"@ @ @ @ @ @ @ @ @ @ @ @ @ @ @ @ @ @ @ @ @ ",
"# # # # # # # # # # # # # # # # # $ $ $ $ ",
"% % % % % % % % & * = * % - - - - - - - - ",
"* * * * * * * ; > , ' , > ; & & & & & & & ",
"; = = = = = ) ! ~ { ] ^ / ! ) = = = = = = ",
"( ( ( ( ( _ : < [ } | 1 2 3 : _ ( ( ( ( ( ",
"4 4 4 4 _ 5 6 7 8 9 0 a b c d 5 4 e e e e ",
"f f f f g h i j k l m n o p q h r _ _ _ _ ",
"g g g g ) s t u v n w x y z A B C r r r r ",
"C D D D ) E F G H I J K L M N O ) D D D D ",
") ) ) ) P Q R S T U V W X Y Z Q P ) ) ) ) ",
"` ` ` ` `  ...+.@.#.$.%.&.*...=.P P P P P ",
"-.-.-.-.-.-.;.>.,.'.).!.~...{.].].].].].].",
"=.=.=.=.=. . .^./.(._.:./.^. . . . . . . .",
"<.<.<.<.<.<.<.<.^.[.}.[.^.<.<.<.<.<.<.<.<.",
"[.[.[.[.[.[.[.[.[.[.[.[.[.[.[.[.[.[.[.[.^.",
"|.|.|.|.|.|.|.|.|.|.|.|.|.|.|.}.}.}.}.}.}.",
"1.1.1.1.1.1.1.1.1.1.2.2.2.2.2.2.2.2.2.2.2.",
"{.{.{.{.{.{.{.{.{.{.{.{.{.{.{.{.{.{.{.{.{."};
