/* XPM */
static char * maxfcs_xpm[] = {
"21 21 129 2",
"  	c #FFFFFF",
". 	c #FDFDFD",
"+ 	c #F2F2F2",
"@ 	c #E6E6E6",
"# 	c #DFDFDF",
"$ 	c #DEDEDE",
"% 	c #F1F1F1",
"& 	c #FEFEFE",
"* 	c #F6F6F6",
"= 	c #E0E0E0",
"- 	c #C9C9C9",
"; 	c #C8C8C8",
"> 	c #C6C6C6",
", 	c #C5C5C5",
"' 	c #C7C7C7",
") 	c #F5F5F5",
"! 	c #F0F0F0",
"~ 	c #CFCFCF",
"{ 	c #CBCBCB",
"] 	c #ECECEC",
"^ 	c #E9E9E9",
"/ 	c #EDEDED",
"( 	c #CCCCCC",
"_ 	c #D0D0D0",
": 	c #D1D1D1",
"< 	c #E1E1E1",
"[ 	c #CACACA",
"} 	c #CDCDCD",
"| 	c #C3C3C3",
"1 	c #B9B9B9",
"2 	c #DCDCDC",
"3 	c #CECECE",
"4 	c #E2E2E2",
"5 	c #D7D7D7",
"6 	c #A8A8A8",
"7 	c #A5A5A5",
"8 	c #A1A1A1",
"9 	c #9E9E9E",
"0 	c #9A9A9A",
"a 	c #949494",
"b 	c #D2D2D2",
"c 	c #838383",
"d 	c #868686",
"e 	c #7F7F7F",
"f 	c #7C7C7C",
"g 	c #797979",
"h 	c #757575",
"i 	c #727272",
"j 	c #6F6F6F",
"k 	c #D4D4D4",
"l 	c #B4B4B4",
"m 	c #656565",
"n 	c #616161",
"o 	c #5E5E5E",
"p 	c #5A5A5A",
"q 	c #575757",
"r 	c #545454",
"s 	c #505050",
"t 	c #4D4D4D",
"u 	c #4A4A4A",
"v 	c #AAAAAA",
"w 	c #D6D6D6",
"x 	c #DADADA",
"y 	c #6C6C6C",
"z 	c #3F3F3F",
"A 	c #3C3C3C",
"B 	c #393939",
"C 	c #353535",
"D 	c #323232",
"E 	c #2F2F2F",
"F 	c #2B2B2B",
"G 	c #282828",
"H 	c #252525",
"I 	c #5B5B5B",
"J 	c #E5E5E5",
"K 	c #DDDDDD",
"L 	c #202020",
"M 	c #171717",
"N 	c #1A1A1A",
"O 	c #1E1E1E",
"P 	c #212121",
"Q 	c #333333",
"R 	c #D8D8D8",
"S 	c #F4F4F4",
"T 	c #DBDBDB",
"U 	c #686868",
"V 	c #434343",
"W 	c #464646",
"X 	c #7B7B7B",
"Y 	c #F3F3F3",
"Z 	c #F7F7F7",
"` 	c #B3B3B3",
" .	c #6B6B6B",
"..	c #BEBEBE",
"+.	c #D9D9D9",
"@.	c #F9F9F9",
"#.	c #E7E7E7",
"$.	c #8A8A8A",
"%.	c #8D8D8D",
"&.	c #909090",
"*.	c #F8F8F8",
"=.	c #FBFBFB",
"-.	c #B8B8B8",
";.	c #E3E3E3",
">.	c #ABABAB",
",.	c #AFAFAF",
"'.	c #B2B2B2",
").	c #B5B5B5",
"!.	c #BCBCBC",
"~.	c #E4E4E4",
"{.	c #B7B7B7",
"].	c #FAFAFA",
"^.	c #D3D3D3",
"/.	c #AEAEAE",
"(.	c #EAEAEA",
"_.	c #EFEFEF",
":.	c #EEEEEE",
"<.	c #B1B1B1",
"[.	c #FCFCFC",
"}.	c #9C9C9C",
"|.	c #E8E8E8",
"1.	c #C2C2C2",
"2.	c #8F8F8F",
"3.	c #BDBDBD",
"4.	c #ACACAC",
"5.	c #A0A0A0",
"6.	c #999999",
"7.	c #969696",
"8.	c #959595",
"                                          ",
"            . + @ # $ # @ % .             ",
"        & * = - ; > , ' - - # ) &         ",
"      & ! ~ { , % ] ] ^ / > ( _ ! &       ",
"      ) : ( < [ } [ > > | 1 2 3 : )       ",
"    . 4 _ 5 6 6 6 7 8 8 9 0 a : b 4 .     ",
"    % 3 ~ c d c c e f g g h i j : ~ !     ",
"    ^ k l m n o o p q r r s t u v w ^     ",
"    @ x y z A B C C D E F F G H I 2 J     ",
"% % x K L M M M N N O P P P H G Q # R ! ! ",
"S S T = U B B A z V V W W W u t X 4 x Y Y ",
"Z ) x K ` o o n m U U U  .j j i ..$ +.Y ) ",
"@.S T { #.e d d $.$.%.%.&.a a a ^ ( x + *.",
"=.+ x -.;.$ 6 >.>.,.'.'.).1 !.~.~.{.R % ].",
"& + ^.` /./ (._ _ k 5 5 x $ _.:./.<.b % [.",
"& Y k ` }.7 #.Y @.*.[.. [.S |.7 0 '.k Y & ",
"& Z # 1.>.0 2.3.~.S *.S ~.3.2.0 v 1.# Z & ",
"  =./ +.' -.4.5.6.7.7.8.6.5.>.{.' +./ =.  ",
"  & Z :.4 5 } > 1...3...1.> } w 4 / Z &   ",
"    & @.S :.|.;.< # $ # < ;.|.:.S @..     ",
"      & [.@.Z ) S Y Y Y Y ) Z @.[.&       "};
