/* XPM */
static char * shadepr_xpm[] = {
"21 21 24 1",
" 	c #FFFFFF",
".	c #F1F1F1",
"+	c #F0F0F0",
"@	c #F4F4F4",
"#	c #F3F3F3",
"$	c #F7F7F7",
"%	c #F6F6F6",
"&	c #F5F5F5",
"*	c #F9F9F9",
"=	c #F8F8F8",
"-	c #FCFCFC",
";	c #FBFBFB",
">	c #FEFEFE",
",	c #FDFDFD",
"'	c #EEEEEE",
")	c #B8B8B8",
"!	c #878787",
"~	c #EDEDED",
"{	c #DEDEDE",
"]	c #888888",
"^	c #505050",
"/	c #DDDDDD",
"(	c #EFEFEF",
"_	c #B9B9B9",
"                     ",
"                     ",
"                     ",
"                     ",
"                     ",
"                     ",
"                     ",
"                     ",
"                     ",
"............+++++++++",
"@@@@@@@##############",
"$$%%%%%%%%%%%%%%%&&&&",
"************=========",
"-------;;;;;;;;;;;;;;",
" >>>>>>,')!)~,>>>,,,,",
"       -{]^]/-       ",
"       >(_]_'>       ",
"                     ",
"                     ",
"                     ",
"                     "};
