/* XPM */
static char * stickufcs_xpm[] = {
"18 18 13 1",
" 	c #565656",
".	c #343434",
"+	c #333333",
"@	c #383838",
"#	c #353535",
"$	c #3C3C3C",
"%	c #A4A4A4",
"&	c #393939",
"*	c #3D3D3D",
"=	c #3E3E3E",
"-	c #3F3F3F",
";	c #404040",
">	c #414141",
"                  ",
"..................",
"++++++++++++++++++",
"@@@@@@@@@@@@@@@@@@",
"##################",
"$$$$$$%%%%%%$$$$$$",
"&&&&&&%&&&&%&&&&&&",
"$$$$$$%$$$$%$$$$$$",
"******%****%******",
"======%====%======",
"==================",
"------------------",
"------%%%%%%------",
";;;;;;;;;;;;;;;;;;",
">>>>>>>>>>>>>>>>>>",
";;;;;;;;;;;;;;;;;;",
";;;;;;;;;;;;;;;;;;",
"=================="};
