/* XPM */
static char * minpr_xpm[] = {
"25 25 284 2",
"  	c #C5C49F",
". 	c #C5C59E",
"+ 	c #C6C49F",
"@ 	c #C6C59E",
"# 	c #C5C59D",
"$ 	c #C5C49E",
"% 	c #C6C49D",
"& 	c #C6C59D",
"* 	c #C5C59F",
"= 	c #C5C49D",
"- 	c #C7C59E",
"; 	c #C6C59F",
"> 	c #C6C49E",
", 	c #C3C19D",
"' 	c #C3C29E",
") 	c #C4C29D",
"! 	c #C4C29E",
"~ 	c #C2C19E",
"{ 	c #C3C29D",
"] 	c #C4C19E",
"^ 	c #C4C19D",
"/ 	c #C2C09D",
"( 	c #C1BE9C",
"_ 	c #C1BF9C",
": 	c #C2BD9C",
"< 	c #C1BD9B",
"[ 	c #C1BD9C",
"} 	c #C0BF9C",
"| 	c #C0BD9C",
"1 	c #C2BF9C",
"2 	c #C6C4A0",
"3 	c #C0BE9E",
"4 	c #BFBC9D",
"5 	c #BEBC9D",
"6 	c #BEBB9B",
"7 	c #716F5D",
"8 	c #716F5C",
"9 	c #726F5C",
"0 	c #716F5E",
"a 	c #726F5D",
"b 	c #C4C1A0",
"c 	c #BEBC9C",
"d 	c #BDB99B",
"e 	c #BDB99D",
"f 	c #706E5C",
"g 	c #8F908C",
"h 	c #8F8F8C",
"i 	c #8F8F8B",
"j 	c #8F908B",
"k 	c #8E8F8C",
"l 	c #8D8E8B",
"m 	c #8D8D8A",
"n 	c #8B8D89",
"o 	c #8B8B88",
"p 	c #6F6E5D",
"q 	c #C1BE9F",
"r 	c #BCBA9C",
"s 	c #BCB99C",
"t 	c #BAB69C",
"u 	c #BAB69D",
"v 	c #BBB69C",
"w 	c #6E6C5C",
"x 	c #8D8D8C",
"y 	c #8E8D8B",
"z 	c #8E8E8B",
"A 	c #8D8E8C",
"B 	c #8E8D8C",
"C 	c #8D8D8B",
"D 	c #8C8C8A",
"E 	c #8A8B8A",
"F 	c #8A8A89",
"G 	c #898988",
"H 	c #888887",
"I 	c #6F6C5C",
"J 	c #C0BB9F",
"K 	c #BAB69B",
"L 	c #BCB99B",
"M 	c #6F6E5C",
"N 	c #8E8F8B",
"O 	c #8C8E8A",
"P 	c #8B8C89",
"Q 	c #8A8B89",
"R 	c #898A87",
"S 	c #898987",
"T 	c #706E5D",
"U 	c #C3BEA0",
"V 	c #BFBC9E",
"W 	c #90928C",
"X 	c #90918C",
"Y 	c #91928D",
"Z 	c #91918C",
"` 	c #90918B",
" .	c #8F8F8A",
"..	c #8D8E8A",
"+.	c #8D8D89",
"@.	c #8B8C88",
"#.	c #8A8C87",
"$.	c #898B87",
"%.	c #898A86",
"&.	c #BFBC9C",
"*.	c #C1C09E",
"=.	c #C1BE9D",
"-.	c #73715D",
";.	c #92948C",
">.	c #91938C",
",.	c #92948D",
"'.	c #92938C",
").	c #91928C",
"!.	c #91918A",
"~.	c #8E918A",
"{.	c #8D8E88",
"].	c #8C8E88",
"^.	c #8B8C87",
"/.	c #898B86",
"(.	c #72715D",
"_.	c #C5C39F",
":.	c #C1C09D",
"<.	c #72725D",
"[.	c #92938D",
"}.	c #8E928B",
"|.	c #8E9089",
"1.	c #8D8F89",
"2.	c #8B8E88",
"3.	c #8A8D88",
"4.	c #8A8C86",
"5.	c #898B85",
"6.	c #C7C3A0",
"7.	c #C2BE9E",
"8.	c #C2C09E",
"9.	c #C2C09C",
"0.	c #73725D",
"a.	c #C8C9C5",
"b.	c #91928B",
"c.	c #90918A",
"d.	c #8F908A",
"e.	c #8E8F89",
"f.	c #C5C6C3",
"g.	c #888B85",
"h.	c #878984",
"i.	c #C7C5A0",
"j.	c #C3C09E",
"k.	c #C3C19E",
"l.	c #94948D",
"m.	c #93948D",
"n.	c #93958D",
"o.	c #C8C8C5",
"p.	c #C7C8C4",
"q.	c #8E908A",
"r.	c #8E8F88",
"s.	c #8D8F88",
"t.	c #C6C6C3",
"u.	c #8B8C86",
"v.	c #8A8B85",
"w.	c #888A85",
"x.	c #878A83",
"y.	c #74735D",
"z.	c #C8C5A0",
"A.	c #C2C29E",
"B.	c #C3C19C",
"C.	c #73735D",
"D.	c #93948C",
"E.	c #90938B",
"F.	c #90928A",
"G.	c #C6C7C3",
"H.	c #8B8D86",
"I.	c #8A8C85",
"J.	c #898A85",
"K.	c #888A84",
"L.	c #888A83",
"M.	c #878883",
"N.	c #74735E",
"O.	c #C9C6A1",
"P.	c #C3C39D",
"Q.	c #C5C39D",
"R.	c #C3C29C",
"S.	c #75735E",
"T.	c #94968C",
"U.	c #92948B",
"V.	c #91938B",
"W.	c #8F9189",
"X.	c #868882",
"Y.	c #C9C6A0",
"Z.	c #C4C39D",
"`.	c #C4C59D",
" +	c #C3C39C",
".+	c #75745E",
"++	c #94958C",
"@+	c #92938A",
"#+	c #91928A",
"$+	c #919189",
"%+	c #8F8F88",
"&+	c #8C9087",
"*+	c #8B8E86",
"=+	c #8A8D84",
"-+	c #868A82",
";+	c #848782",
">+	c #CBC8A1",
",+	c #C4C39E",
"'+	c #C5C39C",
")+	c #75755E",
"!+	c #93948B",
"~+	c #92938B",
"{+	c #90938A",
"]+	c #8E9188",
"^+	c #8D9088",
"/+	c #8D8E86",
"(+	c #8B8D85",
"_+	c #898B84",
":+	c #878983",
"<+	c #868982",
"[+	c #848881",
"}+	c #848780",
"|+	c #74745E",
"1+	c #CBC9A1",
"2+	c #C4C49D",
"3+	c #91948A",
"4+	c #919489",
"5+	c #909289",
"6+	c #8F9289",
"7+	c #8E9088",
"8+	c #8E9087",
"9+	c #8C8F86",
"0+	c #8C8D86",
"a+	c #898C84",
"b+	c #878A82",
"c+	c #868883",
"d+	c #858881",
"e+	c #838781",
"f+	c #75755D",
"g+	c #CAC8A1",
"h+	c #C6C69E",
"i+	c #C7C69E",
"j+	c #C6C49C",
"k+	c #76755D",
"l+	c #92948A",
"m+	c #8F9288",
"n+	c #8E9189",
"o+	c #8D9087",
"p+	c #8C8E86",
"q+	c #8B8E85",
"r+	c #888B83",
"s+	c #878982",
"t+	c #868881",
"u+	c #838780",
"v+	c #83867F",
"w+	c #76755E",
"x+	c #CBCAA0",
"y+	c #C7C79E",
"z+	c #C6C59C",
"A+	c #76765E",
"B+	c #8F9389",
"C+	c #8E9187",
"D+	c #8D9187",
"E+	c #8D9086",
"F+	c #888C83",
"G+	c #868981",
"H+	c #858780",
"I+	c #83867E",
"J+	c #82857E",
"K+	c #CCCAA1",
"L+	c #C6C79E",
"M+	c #76765D",
"N+	c #8E9288",
"O+	c #8C8F85",
"P+	c #858982",
"Q+	c #858880",
"R+	c #82857F",
"S+	c #CCCBA1",
"T+	c #C7C79D",
"U+	c #C7C79F",
"V+	c #CBC9A2",
"W+	c #C6C69D",
"X+	c #C9C7A0",
"Y+	c #CAC7A1",
"Z+	c #CAC7A0",
"`+	c #C9C7A1",
" @	c #CAC6A1",
".@	c #C3C09D",
"+@	c #C2C19D",
"@@	c #C3C09C",
"#@	c #C1BE9E",
"$@	c #C0BE9D",
"%@	c #C0BC9E",
"&@	c #C0BC9D",
"  . + @ @ . # $ % # & .   * = . & = - . %   ; & > ",
", ' ) , ) ! , ~ ) ! { { ~ ' , ) { ) { ) ] ^ ! , ^ ",
"/ ( _ _ : _ < _ [ [ } _ | | | _ 1 _ _ _ } [ 2 3 3 ",
"4 5 6 7 7 7 8 8 8 8 9 0 7 a 7 8 8 0 7 0 7 0 b 5 c ",
"d e d f g h h i g h j g g h h h k l m n o p q r s ",
"t u v w x y x x z A B C x x x D D E F G H I J K v ",
"s r L M g h h h k h k h g k N O D P Q R S T U L s ",
"V 5 6 8 W X Y Z Z Z X X ` j  ...+.@.#.$.%.7 b V &.",
"*.=.: -.;.>.,.'.;.'.;.).!.j ~.{.{.].^.$./.(._.*.=.",
"/ :.1 <.;.[.;.'.;.;.'.).}.|.1.1.2.3.4./.5.<.6./ 7.",
"8.8.9.0.;.;.;.;.a.a.b.c.d.e.1.f.f.#.4.g.h.0.i./ j.",
"~ k.1 0.l.m.m.n.'.o.p.q.r.s.t.f.u.v.w.x.h.y.z., ' ",
"{ A.B.C.D.n.n.'.E.F.p.G.s.t.f.H.I.J.K.L.M.N.O.) A.",
"P.Q.R.S.T.D.U.V.F.F.W.G.G.f.H.4./.w.K.X.X.y.Y.Z.) ",
"`.$  +.+++U.@+#+$+W.%+&+t.*+=+v.K.L.-+X.;+N.>+Z.,+",
"* # '+)+!+~+{+{+W.]+^+/+(+(+I._+L.:+<+[+}+|+1+= 2+",
"> & '+.+3+4+5+6+7+8+9+0+(+I.a+L.b+c+d+d+e+f+g++ h+",
"i+h+j+k+l+5+m+n+o+p+q+H.(+a+r+b+s+t+d+u+v+w+x+h+y+",
"i+i+z+A+B+6+C+D+E+9+(+=+a+F+b+-+G+H+}+I+J+A+K+L+y+",
"y+y+z+M+m+N+o+O+O+q+=+a+r+x.-+P+Q+}+v+R+J+A+S+T+U+",
"- ; = )+)+)+f+)+f+f+)+)+f+)+)+)+f+)+f+)+f+f+V+W+@ ",
"Z.! R.X+Y+Z+X+`+`+O.`+O.Z+X+X+ @Y.`+O.X+X+X+X+,+Z.",
"8..@+@B..@, , , / +@, , ~ +@, +@, .@+@j.B.+@8.+@@@",
"( =.#@=.=.$@:.( #@=.*.( ( =.#@=.*.( =.=.=.=.=.( ( ",
"&.4 V 4 &.V 4 &.4 4 V 4 V 4 V &.&.4 %@&.&.4 4 &@4 "};
