/* XPM */
static char * menuiconfcs_xpm[] = {
"13 13 2 1",
" 	c #D9D8D3",
".	c #000000",
"             ",
"             ",
"             ",
"             ",
"             ",
"     ...     ",
"             ",
"     ...     ",
"             ",
"             ",
"             ",
"             ",
"             "};
