/* XPM */
static char * minpr_xpm[] = {
"13 13 2 1",
" 	c #D9D8D3",
".	c #FFFFFF",
"             ",
"             ",
"             ",
"             ",
"             ",
"             ",
"             ",
"             ",
"   .......   ",
"   .......   ",
"             ",
"             ",
"             "};
