/* XPM */
static char * stuckfcs_xpm[] = {
"19 19 14 1",
" 	c #C9C9C9",
".	c #C6C6C6",
"+	c #C4C4C4",
"@	c #C1C1C1",
"#	c #BFBFBF",
"$	c #C0C0C0",
"%	c #5A5A5A",
"&	c #5FAFCD",
"*	c #C3C3C3",
"=	c #D2D2D2",
"-	c #DDDDDD",
";	c #E6E6E6",
">	c #EAEAEA",
",	c #909090",
"                   ",
"...................",
"+++++++++++++++++++",
"@@@@@@@@@@@@@@@@@@@",
"###################",
"$$$$$$$$$$$$$$$$$$$",
"$$$$$$%%%%%%%$$$$$$",
"######%&&&&&%######",
"######%&%%%&%######",
"@@@@@@%&%%%&%@@@@@@",
"******%&%%%&%******",
"      %&&&&&%      ",
"======%%%%%%%======",
"-------------------",
";;;;;;;;;;;;;;;;;;;",
">>>>>>>>>>>>>>>>>>>",
">>>>>>>>>>>>>>>>>>>",
"===================",
",,,,,,,,,,,,,,,,,,,"};
