/* XPM */
static char * closefcs_xpm[] = {
"21 21 54 1",
" 	c #570101",
".	c #220000",
"+	c #5A0101",
"@	c #5F0101",
"#	c #540000",
"$	c #530000",
"%	c #520000",
"&	c #510000",
"*	c #4C0000",
"=	c #4B0000",
"-	c #490000",
";	c #460000",
">	c #440000",
",	c #420000",
"'	c #450000",
")	c #3F0000",
"!	c #390000",
"~	c #340000",
"{	c #300000",
"]	c #2F0000",
"^	c #3D0000",
"/	c #3C0000",
"(	c #380000",
"_	c #320000",
":	c #290000",
"<	c #1D0000",
"[	c #1B0000",
"}	c #370000",
"|	c #2D0000",
"1	c #FFFFFF",
"2	c #120000",
"3	c #330000",
"4	c #310000",
"5	c #2C0000",
"6	c #230000",
"7	c #180000",
"8	c #170000",
"9	c #0F0000",
"0	c #2B0000",
"a	c #270000",
"b	c #1F0000",
"c	c #140000",
"d	c #0D0000",
"e	c #240000",
"f	c #190000",
"g	c #110000",
"h	c #280000",
"i	c #210000",
"j	c #2A0000",
"k	c #1C0000",
"l	c #3B0000",
"m	c #2E0000",
"n	c #350000",
"o	c #360000",
"                     ",
".....................",
"+++++++++++++++++++++",
"@@@@@@@@@@@@@@@@@@@@@",
"#######$%&&&&%$######",
"*****=-;>,,,,>;-=****",
"''''>,)!~{]]{~!),>'''",
"^^^^/(_:.<[[<.:_(/^^^",
"^^^^/}|.112211.|}/^^^",
"333345671111117654333",
"333345689111198654333",
"||||0abcd1111dcba0|||",
"eeee6bfg111111gfb6eee",
"||||5hif11dd11fih5|||",
"3333_]j6k7887k6j]_333",
"^^^^/l}_mj::jm_}l/^^^",
"^^^^^/l(}nnnn}(l/^^^^",
"ooooooonn~~~~nnoooooo",
"ooooooooooooooooooooo",
".....................",
"                     "};
