/* XPM */
static char * shadefcs_xpm[] = {
"20 20 95 2",
"  	c #BF8D3D",
". 	c #BF8D3C",
"+ 	c #BF8C3D",
"@ 	c #BF8C3C",
"# 	c #BE8A38",
"$ 	c #BE8A37",
"% 	c #BE8938",
"& 	c #BE8937",
"* 	c #BB8530",
"= 	c #BB852F",
"- 	c #BB842F",
"; 	c #BB8430",
"> 	c #B77F25",
", 	c #B87E25",
"' 	c #B87F25",
") 	c #B77E25",
"! 	c #B78127",
"~ 	c #B77F28",
"{ 	c #B97F27",
"] 	c #B98127",
"^ 	c #B97F28",
"/ 	c #B98128",
"( 	c #B78128",
"_ 	c #B77F27",
": 	c #B9832D",
"< 	c #BB832C",
"[ 	c #BB842C",
"} 	c #B9832C",
"| 	c #BB832D",
"1 	c #B9842D",
"2 	c #BB842D",
"3 	c #B9842C",
"4 	c #BC8732",
"5 	c #BC8731",
"6 	c #BD8732",
"7 	c #BD8832",
"8 	c #BC8831",
"9 	c #BF8B3A",
"0 	c #BF8B39",
"a 	c #BF8A39",
"b 	c #BE8B3A",
"c 	c #BE8B39",
"d 	c #BF8A3A",
"e 	c #C29042",
"f 	c #C19042",
"g 	c #C28F42",
"h 	c #C49347",
"i 	c #C49348",
"j 	c #C59347",
"k 	c #C49447",
"l 	c #624A24",
"m 	c #C49448",
"n 	c #C7994F",
"o 	c #C5984F",
"p 	c #C7984F",
"q 	c #C79850",
"r 	c #644C28",
"s 	c #644D28",
"t 	c #C89C56",
"u 	c #C89C55",
"v 	c #CA9C56",
"w 	c #644E2B",
"x 	c #654E2B",
"y 	c #CBA15E",
"z 	c #CBA15D",
"A 	c #CBA05E",
"B 	c #CA9F5C",
"C 	c #CB9F5C",
"D 	c #CA9F5B",
"E 	c #CB9F5B",
"F 	c #C99C56",
"G 	c #C99D56",
"H 	c #C99C57",
"I 	c #C89C57",
"J 	c #C79851",
"K 	c #C79A51",
"L 	c #C79A50",
"M 	c #C5954A",
"N 	c #C5944A",
"O 	c #C4944A",
"P 	c #C4954A",
"Q 	c #C29145",
"R 	c #C29144",
"S 	c #C29044",
"T 	c #C19044",
"U 	c #C19145",
"V 	c #C19144",
"W 	c #BC8832",
"X 	c #BD8731",
"Y 	c #B77C21",
"Z 	c #B67C21",
"` 	c #B77D22",
" .	c #B77C22",
"..	c #B67D21",
"+.	c #B77D21",
"  . +   @ @ @ .   @ . @   . .     @ . + ",
"# $ $ % # # & # & # % % $ & & % % & & & ",
"* * = - - = * * ; = - * ; - - - ; - - * ",
"> , ' > > > ) , > > ) > > ) > > > > > > ",
"! ~ { { ] ^ / / ] ^ / ( _ ( ^ { / ~ ^ ^ ",
": < : < [ } | } < < : 1 } < } < 2 } 3 3 ",
"4 5 4 4 6 4 6 7 4 5 5 8 4 5 4 5 4 4 4 4 ",
"9 0 0 9 9 9 a 0 b 0 0 0 0 0 c 0 d 9 a 0 ",
"e f e e f g e f e f e f g e e f e e g f ",
"h h h i h h j i k l l i i h m i m h h h ",
"n o p q p p o p r r r s q n p o p p q p ",
"t t t u v v t w w t u x x v t t t t v u ",
"y z y A y z z z y z z z z z z z z z z z ",
"B B C B D C C C D C C C B B B B B B C E ",
"F F F G H I H H G F t F F F F t t F H F ",
"q J J K K K L J J q L L K q J q q q J q ",
"M N O M O P N P P M M P M P O P O M O M ",
"Q R R S T R R R R U R Q V R R Q R Q U U ",
"W 4 4 4 X 5 5 4 4 W 6 4 5 4 4 5 4 4 4 8 ",
"Y Y Y Y Z Y ` Y Z Y  .Z ..Y ..Z +.Z Y Y "};
