/* XPM */
static char * stickfcs_xpm[] = {
"20 20 217 2",
"  	c #BF8D3D",
". 	c #BF8D3C",
"+ 	c #BF8C3D",
"@ 	c #BF8C3C",
"# 	c #BE8A38",
"$ 	c #BE8A37",
"% 	c #BE8938",
"& 	c #BE8937",
"* 	c #BB8530",
"= 	c #BB852F",
"- 	c #BB842F",
"; 	c #845E22",
"> 	c #845D22",
", 	c #845E21",
"' 	c #845D21",
") 	c #BB8430",
"! 	c #B77F25",
"~ 	c #B87E25",
"{ 	c #B87F25",
"] 	c #815A1A",
"^ 	c #835A1A",
"/ 	c #8B5F1A",
"( 	c #91651E",
"_ 	c #93641A",
": 	c #8E6525",
"< 	c #89662E",
"[ 	c #B78127",
"} 	c #B77F28",
"| 	c #B97F27",
"1 	c #835B1C",
"2 	c #895E1B",
"3 	c #97681E",
"4 	c #A5772E",
"5 	c #AD7F36",
"6 	c #AA7C32",
"7 	c #A07128",
"8 	c #95661C",
"9 	c #8E6629",
"0 	c #8A6731",
"a 	c #B98128",
"b 	c #B97F28",
"c 	c #B9832D",
"d 	c #BB832C",
"e 	c #845C1F",
"f 	c #8A601D",
"g 	c #A2732A",
"h 	c #B5883F",
"i 	c #B3853C",
"j 	c #AF8238",
"k 	c #AC7D34",
"l 	c #A87A31",
"m 	c #A4752C",
"n 	c #996A21",
"o 	c #906A2E",
"p 	c #8B6A35",
"q 	c #B9832C",
"r 	c #B9842C",
"s 	c #BC8732",
"t 	c #BC8731",
"u 	c #876022",
"v 	c #93641B",
"w 	c #A1732A",
"x 	c #B6883F",
"y 	c #B2853B",
"z 	c #AE8138",
"A 	c #AB7D34",
"B 	c #A87931",
"C 	c #A4752D",
"D 	c #A17229",
"E 	c #9D6E25",
"F 	c #9A6A21",
"G 	c #9C6E25",
"H 	c #8E6C36",
"I 	c #C69850",
"J 	c #BF8B3A",
"K 	c #BF8B39",
"L 	c #876228",
"M 	c #8D6321",
"N 	c #B5873E",
"O 	c #B2833B",
"P 	c #AE8037",
"Q 	c #A8792F",
"R 	c #A07228",
"S 	c #996B21",
"T 	c #96661D",
"U 	c #9E6F26",
"V 	c #987033",
"W 	c #8D6E3D",
"X 	c #BF8A39",
"Y 	c #C29042",
"Z 	c #C19042",
"` 	c #89662F",
" .	c #926621",
"..	c #A5762D",
"+.	c #B1833B",
"@.	c #AB7D33",
"#.	c #A7792F",
"$.	c #A3742C",
"%.	c #9C6E24",
"&.	c #996A20",
"*.	c #95671D",
"=.	c #9A6B21",
"-.	c #A17531",
";.	c #8F7142",
">.	c #CB9F5D",
",.	c #C49347",
"'.	c #8A6832",
").	c #AB7D35",
"!.	c #AA7B33",
"~.	c #A7782F",
"{.	c #A3752B",
"].	c #A07028",
"^.	c #9C6D24",
"/.	c #94661C",
"(.	c #96671D",
"_.	c #917345",
":.	c #CDA362",
"<.	c #C7994F",
"[.	c #C5984F",
"}.	c #8C6B38",
"|.	c #A97A31",
"1.	c #AA7B32",
"2.	c #A6772F",
"3.	c #A3742B",
"4.	c #9F7027",
"5.	c #9B6D23",
"6.	c #986920",
"7.	c #94651C",
"8.	c #92764A",
"9.	c #CFA769",
"0.	c #C7984F",
"a.	c #C89C56",
"b.	c #936723",
"c.	c #9E7026",
"d.	c #A2742A",
"e.	c #9E7027",
"f.	c #98691F",
"g.	c #94651B",
"h.	c #A97E3B",
"i.	c #93784E",
"j.	c #D2AA6F",
"k.	c #C89C55",
"l.	c #CBA15E",
"m.	c #CBA15D",
"n.	c #8F7242",
"o.	c #946F35",
"p.	c #9F6F26",
"q.	c #9B6C22",
"r.	c #97681F",
"s.	c #94641B",
"t.	c #AA7C33",
"u.	c #A48046",
"v.	c #957C53",
"w.	c #D3AF75",
"x.	c #CA9F5C",
"y.	c #CB9F5C",
"z.	c #94784C",
"A.	c #96671E",
"B.	c #9A6C22",
"C.	c #94651A",
"D.	c #A3752C",
"E.	c #B0833A",
"F.	c #987B50",
"G.	c #D2AD74",
"H.	c #D3AD74",
"I.	c #CB9F5B",
"J.	c #C99C56",
"K.	c #8E6F3D",
"L.	c #96733C",
"M.	c #9B6C23",
"N.	c #9A6B22",
"O.	c #B1843B",
"P.	c #A07D47",
"Q.	c #D1AA6F",
"R.	c #C99C57",
"S.	c #C79850",
"T.	c #C79851",
"U.	c #C79A51",
"V.	c #92774B",
"W.	c #97743C",
"X.	c #A0712A",
"Y.	c #96681E",
"Z.	c #AC7E35",
"`.	c #9F7D46",
" +	c #C5954A",
".+	c #C5944A",
"++	c #C4944A",
"@+	c #917447",
"#+	c #937444",
"$+	c #9C763A",
"%+	c #A47935",
"&+	c #AA7C34",
"*+	c #AC7F36",
"=+	c #AB803B",
"-+	c #A37D41",
";+	c #957646",
">+	c #CDA464",
",+	c #C29145",
"'+	c #C29144",
")+	c #C29044",
"!+	c #C19044",
"~+	c #CBA15F",
"{+	c #8F7243",
"]+	c #8F7244",
"^+	c #CBA160",
"/+	c #C19145",
"(+	c #BC8832",
"_+	c #BD8731",
":+	c #C69950",
"<+	c #C6984F",
"[+	c #BC8831",
"}+	c #B77C21",
"|+	c #B67C21",
"1+	c #B77D22",
"2+	c #B77C22",
"3+	c #B67D21",
"4+	c #B77D21",
"  . +   @ @ @ .   @ . @   . .     @ . + ",
"# $ $ % # # & # & # % % $ & & % % & & & ",
"* * = - - = * ; > , ' ; > - - - ) - - * ",
"! ~ { ! ! ] ^ / ( _ _ ( : < ] ! ! ! ! ! ",
"[ } | | 1 2 _ 3 4 5 6 7 8 _ 9 0 a } b b ",
"c d c e f _ g h i j k l m n 3 o p q r r ",
"s t s u v w x y z A B C D E F G H I s s ",
"J K L M 3 N O P A Q m R E S T U V W X K ",
"Y Z `  ...+.P @.#.$.R %.&.*._ =.-.;.>.Z ",
",.,.'.v ).P !.~.{.].^.&./._ _ (.l _.:.,.",
"<.[.}.v |.1.2.3.4.5.6.7._ _ _ (.@.8.9.0.",
"a.a.W b.c.4 d.e.5.f.g._ _ _ _ U h.i.j.k.",
"l.m.n.o.8 D p.q.r.s._ _ _ _ _ t.u.v.w.m.",
"x.x.y.z.A.=.B.3 C._ _ _ _ _ D.E.F.G.H.I.",
"J.J.J.K.L.M.N._ _ _ _ _ _ m O.P.i.Q.R.J.",
"S.T.T.U.V.W.X.D M.(.Y.4.Z.O.`.8.9.9.T.S.",
" +.+++ +++@+#+$+%+&+*+=+-+;+@+>+>+ +++ +",
",+'+'+)+!+'+~+{+{+]+{+]+{+~+~+^+'+,+/+/+",
"(+s s s _+t t s I :+S.I <+I s t s s s [+",
"}+}+}+}+|+}+1+}+|+}+2+|+3+}+3+|+4+|+}+}+"};
