/* XPM */
static char * minpr_xpm[] = {
"19 19 50 1",
" 	c #ECF1C9",
".	c #D5E087",
"+	c #637534",
"@	c #D9EF6F",
"#	c #DAEF6F",
"$	c #D9EE67",
"%	c #D9EF67",
"&	c #D9EE6F",
"*	c #D8ED6F",
"=	c #D8ED67",
"-	c #D8EC6F",
";	c #D8EC67",
">	c #D8EB67",
",	c #D8EB6F",
"'	c #D7EB6F",
")	c #D7EB67",
"!	c #C7D280",
"~	c #607232",
"{	c #C9DF68",
"]	c #C9DF60",
"^	c #C9DE60",
"/	c #C9DE68",
"(	c #BFC97C",
"_	c #5E7032",
":	c #C0D664",
"<	c #BAD24B",
"[	c #DCE8A5",
"}	c #BFD665",
"|	c #B1BA74",
"1	c #5B6D30",
"2	c #B0C75D",
"3	c #AAC142",
"4	c #D4E0A0",
"5	c #000000",
"6	c #D4E0A1",
"7	c #B0C65C",
"8	c #AFC45C",
"9	c #A9BF43",
"0	c #D4DEA0",
"a	c #D4DEA1",
"b	c #A9BE42",
"c	c #AFC45D",
"d	c #AEC25D",
"e	c #A8BD42",
"f	c #A8BC42",
"g	c #A8BC43",
"h	c #AEC25C",
"i	c #ADC05D",
"j	c #ADC05C",
"k	c #858F42",
"                   ",
"...................",
"...................",
"....+++++++++++....",
"...+@@#######@@+...",
"...+@$%%$$%%%%&+...",
"...+*=========*+...",
"...+-;;;;>>>>;,+...",
"...+')))))))))'+...",
"!!!~{]]]]]]]^]/~!!!",
"(((_:<[[[[[[[<}_(((",
"|||1234555556371|||",
"|||1890a0a0aabc1|||",
"|||1defefffggfh1|||",
"|||1iiiiiiiiiji1|||",
"||||11111111111||||",
"|||||||||||||||||||",
"|||||||||||||||||||",
"kkkkkkkkkkkkkkkkkkk"};
