/* XPM */
static char * maxufcs_xpm[] = {
"19 19 180 2",
"  	c #F2F0EB",
". 	c #DCD8CB",
"+ 	c #DCD7CB",
"@ 	c #DCD7CA",
"# 	c #DDD8CB",
"$ 	c #DCD8CA",
"% 	c #DDD8CA",
"& 	c #DDD7CB",
"* 	c #DFDACE",
"= 	c #DEDACE",
"- 	c #DEDACD",
"; 	c #DFD9CD",
"> 	c #DED9CE",
", 	c #DED9CD",
"' 	c #E0DCD0",
") 	c #E0DBD0",
"! 	c #E0DCD1",
"~ 	c #E1DCD0",
"{ 	c #E0DBD1",
"] 	c #E2DED3",
"^ 	c #E2DED4",
"/ 	c #A29E94",
"( 	c #9F9B90",
"_ 	c #9E9A8F",
": 	c #9E9A90",
"< 	c #9D9A8F",
"[ 	c #9E998F",
"} 	c #9F9A90",
"| 	c #A19E93",
"1 	c #E2DDD3",
"2 	c #E1DED3",
"3 	c #E4E0D6",
"4 	c #E4E1D7",
"5 	c #A19D93",
"6 	c #D3CFC5",
"7 	c #CFCBC1",
"8 	c #CECBC1",
"9 	c #D2CFC5",
"0 	c #E3E0D6",
"a 	c #E4E0D5",
"b 	c #E6E3D9",
"c 	c #E6E2D9",
"d 	c #A29E95",
"e 	c #D1CDC4",
"f 	c #CDC9C0",
"g 	c #CCC9BF",
"h 	c #CCC9C0",
"i 	c #D1CDC3",
"j 	c #E6E2D8",
"k 	c #E8E4DC",
"l 	c #E8E5DC",
"m 	c #E7E5DB",
"n 	c #A4A098",
"o 	c #D3D0C6",
"p 	c #CECBC3",
"q 	c #CFCBC3",
"r 	c #CECCC2",
"s 	c #CECCC3",
"t 	c #CECBC2",
"u 	c #CFCBC2",
"v 	c #D2CFC6",
"w 	c #A4A197",
"x 	c #E7E4DB",
"y 	c #E7E4DC",
"z 	c #E9E7DE",
"A 	c #E9E6DF",
"B 	c #EAE6DF",
"C 	c #A6A39B",
"D 	c #D4D1C9",
"E 	c #D1CEC7",
"F 	c #D3D1C8",
"G 	c #D5D1C9",
"H 	c #D5D2C9",
"I 	c #D4D1CA",
"J 	c #D3D0C9",
"K 	c #D1CEC6",
"L 	c #A5A29A",
"M 	c #E9E6DE",
"N 	c #EBE9E2",
"O 	c #EBE8E1",
"P 	c #EBE8E2",
"Q 	c #A7A59E",
"R 	c #D6D4CD",
"S 	c #D5D2CC",
"T 	c #A4A19A",
"U 	c #A7A49E",
"V 	c #A7A59D",
"W 	c #A7A49D",
"X 	c #A4A29A",
"Y 	c #D5D2CB",
"Z 	c #D6D3CC",
"` 	c #EDEBE4",
" .	c #EDEBE5",
"..	c #A9A7A0",
"+.	c #D8D6D0",
"@.	c #D8D6CF",
"#.	c #EDEAE4",
"$.	c #A8A6A0",
"%.	c #A9A6A0",
"&.	c #ECEAE3",
"*.	c #EFECE7",
"=.	c #EEEDE7",
"-.	c #EFEDE7",
";.	c #AAA9A3",
">.	c #D9D8D2",
",.	c #DAD8D2",
"'.	c #ABA8A3",
").	c #DAD8D1",
"!.	c #EEECE7",
"~.	c #F1EFEA",
"{.	c #ADABA6",
"].	c #DCDAD5",
"^.	c #F0EFEA",
"/.	c #F1EEEA",
"(.	c #F0EEEA",
"_.	c #F1EFE9",
":.	c #ACABA6",
"<.	c #DBDAD5",
"[.	c #F1EEE9",
"}.	c #F3F2ED",
"|.	c #F3F1EC",
"1.	c #F2F1ED",
"2.	c #AEADA9",
"3.	c #DEDCD8",
"4.	c #DCDBD7",
"5.	c #ABAAA6",
"6.	c #AFADA9",
"7.	c #ABAAA5",
"8.	c #DCDAD7",
"9.	c #DDDCD8",
"0.	c #F3F0EC",
"a.	c #F2F0ED",
"b.	c #F2F1EC",
"c.	c #F4F4F0",
"d.	c #F5F4F0",
"e.	c #F5F3EF",
"f.	c #B1AFAB",
"g.	c #DFDEDB",
"h.	c #DEDDDA",
"i.	c #E0DEDB",
"j.	c #E0DEDA",
"k.	c #DFDEDA",
"l.	c #DFDDDA",
"m.	c #F4F3F0",
"n.	c #F4F3EF",
"o.	c #F6F6F3",
"p.	c #F7F5F3",
"q.	c #B3B2B0",
"r.	c #E5E4E1",
"s.	c #E1E0DD",
"t.	c #E1E1DD",
"u.	c #E2E1DE",
"v.	c #E1E0DE",
"w.	c #E2E0DD",
"x.	c #E5E4E2",
"y.	c #B3B2AF",
"z.	c #F6F5F2",
"A.	c #F9F8F5",
"B.	c #F8F8F5",
"C.	c #F8F7F5",
"D.	c #B9B8B5",
"E.	c #B5B4B2",
"F.	c #B4B3B1",
"G.	c #B4B4B1",
"H.	c #B4B3B2",
"I.	c #B4B4B2",
"J.	c #B7B7B5",
"K.	c #F7F7F5",
"L.	c #FAFAF8",
"M.	c #FAF9F8",
"N.	c #F9FAF8",
"O.	c #FAFAF9",
"P.	c #F9F9F8",
"Q.	c #FCFBFB",
"R.	c #FBFCFB",
"S.	c #FBFBFC",
"T.	c #FBFBFB",
"U.	c #FCFCFB",
"V.	c #FBFBFA",
"W.	c #FCFBFA",
"                                      ",
". . + @ . . . + # $ $ % $ $ & + + + $ ",
"* = = = * - * ; - > - - > , - , , , - ",
"' ) ! ~ { ' ' ' ' ' ' ) ' ' ' ' ' ' ) ",
"] ^ ] / ( _ _ : < [ _ _ : _ } | 1 2 ] ",
"3 3 4 5 6 7 8 8 7 7 7 7 7 7 9 5 0 3 a ",
"b c b d e f f g f f h h f h i / j j c ",
"k l m n o p q q r s s t q u v w x x y ",
"z A B C D E F G H I I G J K D L B M A ",
"N O P Q R S T U V W W W X Y Z V P O O ",
"`  . ...+.@...#.` #.#.` $.@.@.%.` #.&.",
"*.=.-.;.>.,.;.=.-.-.*.-.'.).,.'.!.=.*.",
"~.~.~.{.].].{.^./.^.(._.:.<.<.{.^.[.~.",
"}.|.1.2.3.4.5.2.6.2.6.6.7.8.9.2.0.a.b.",
"c.d.e.f.g.9.h.g.i.j.g.k.l.4.k.f.m.n.m.",
"o.o.p.q.r.s.s.t.s.s.u.v.w.v.x.y.z.z.z.",
"A.B.C.D.E.F.G.F.H.F.G.F.I.H.E.J.K.C.C.",
"L.L.M.M.L.M.L.M.N.L.O.M.M.P.L.M.M.M.P.",
"Q.R.S.Q.R.Q.T.U.T.Q.T.T.Q.V.Q.Q.Q.W.R."};
