/* XPM */
static char * tbarfcs_xpm[] = {
"19 19 131 2",
"  	c #E6BCEA",
". 	c #C362CD",
"+ 	c #C462CD",
"@ 	c #C462CC",
"# 	c #C463CD",
"$ 	c #C363CD",
"% 	c #C463CC",
"& 	c #C563CD",
"* 	c #C464CD",
"= 	c #C566CE",
"- 	c #C565CE",
"; 	c #C665CE",
"> 	c #C666CE",
", 	c #C667CE",
"' 	c #C666CF",
") 	c #C566CF",
"! 	c #C667CF",
"~ 	c #C769CF",
"{ 	c #C76ACF",
"] 	c #C669D0",
"^ 	c #C66AD0",
"/ 	c #C76AD0",
"( 	c #C86BD0",
"_ 	c #C76BD0",
": 	c #C86CD1",
"< 	c #C86CD0",
"[ 	c #C86DD0",
"} 	c #C86DD1",
"| 	c #C96CD0",
"1 	c #C96DD1",
"2 	c #C96ED1",
"3 	c #C96DD0",
"4 	c #C96ED0",
"5 	c #CA6FD1",
"6 	c #CA70D1",
"7 	c #C970D1",
"8 	c #CA70D2",
"9 	c #CA71D2",
"0 	c #CA71D3",
"a 	c #CB72D2",
"b 	c #CB71D2",
"c 	c #CB73D3",
"d 	c #CC73D3",
"e 	c #CB74D3",
"f 	c #CC74D3",
"g 	c #CB74D4",
"h 	c #CC74D4",
"i 	c #CC75D3",
"j 	c #CD76D5",
"k 	c #CC77D5",
"l 	c #CD77D5",
"m 	c #CD77D4",
"n 	c #CD78D4",
"o 	c #CD78D5",
"p 	c #CE7AD5",
"q 	c #CF7AD5",
"r 	c #CF7BD6",
"s 	c #CE7BD6",
"t 	c #CE7BD5",
"u 	c #CF7AD6",
"v 	c #CF7BD5",
"w 	c #CF7CD6",
"x 	c #CF7DD7",
"y 	c #CF7ED7",
"z 	c #D07DD7",
"A 	c #D07ED7",
"B 	c #D07ED8",
"C 	c #CF7FD7",
"D 	c #D07FD7",
"E 	c #D17FD7",
"F 	c #D07FD8",
"G 	c #D181D8",
"H 	c #D182D8",
"I 	c #D182D9",
"J 	c #D181D9",
"K 	c #D282D9",
"L 	c #D283D9",
"M 	c #D282D8",
"N 	c #D385D9",
"O 	c #D384D9",
"P 	c #D285DA",
"Q 	c #D385DA",
"R 	c #D386D9",
"S 	c #D386DA",
"T 	c #D487DA",
"U 	c #D488DB",
"V 	c #D489DB",
"W 	c #D589DC",
"X 	c #D589DB",
"Y 	c #D58ADC",
"Z 	c #D48ADC",
"` 	c #D68BDC",
" .	c #D58CDD",
"..	c #D68CDD",
"+.	c #D68BDD",
"@.	c #D68CDC",
"#.	c #D68DDC",
"$.	c #D58CDC",
"%.	c #D68DDD",
"&.	c #D78FDD",
"*.	c #D78EDD",
"=.	c #D78FDE",
"-.	c #D790DE",
";.	c #D890DE",
">.	c #D790DD",
",.	c #D892DE",
"'.	c #D892DF",
").	c #D992DF",
"!.	c #D893DF",
"~.	c #D993DF",
"{.	c #D994DF",
"].	c #DA96E0",
"^.	c #DA95E0",
"/.	c #DA97E0",
"(.	c #DA96E1",
"_.	c #DB97E0",
":.	c #DA97E1",
"<.	c #DB99E1",
"[.	c #DB99E2",
"}.	c #DC99E1",
"|.	c #DB9AE1",
"1.	c #DB9AE2",
"2.	c #DC9AE2",
"3.	c #DC9BE2",
"4.	c #DC9AE1",
"5.	c #DC9DE2",
"6.	c #DD9CE3",
"7.	c #DD9DE2",
"8.	c #DD9DE3",
"9.	c #DD9EE3",
"0.	c #DE9EE3",
"                                      ",
". + + @ # + $ % # # & # % # # # # * * ",
"= - ; = = = > = = , = ' ' ) , ! ! ! , ",
"~ ~ ~ ~ { ~ ~ ] ^ { / { ~ / / ( { / _ ",
": < : [ } | [ 1 } } } } 2 3 2 2 2 4 2 ",
"5 6 7 8 6 6 8 8 8 9 8 9 9 9 8 0 9 a b ",
"c c c c d e f g e e e h f f e h g h i ",
"j k l l m m m m k n m l l o l n o o o ",
"p q r p s t q t t s u v r r s r r r w ",
"x y z y y A y A B C D y A D B E A D F ",
"G G H G H G G I H G H J I I K I L K M ",
"N O P N P N P Q N Q Q R N Q S S Q R S ",
"T U U V V U V U U U V W X X V W Y Z V ",
"` `  ...+.@.@.+... .#.#.$...%.@.%.#.@.",
"&.*.&.=.=.-.&.-.-.&.=.-.-.-.;.;.-.;.>.",
",.'.'.).!.!.~.~.~.!.~.!.~.~.!.~.{.~.~.",
"].].^.].].]./.].]./.].(.].]././._.:.:.",
"<.[.<.<.}.|.<.1.2.|.}.2.1.2.3.2.4.3.2.",
"5.6.7.7.8.8.8.8.8.7.8.9.9.9.9.0.9.9.9."};
