/* XPM */
static char * stuckufcs_xpm[] = {
"19 19 238 2",
"  	c #E9E6E0",
". 	c #E9E5DF",
"+ 	c #E9E5E0",
"@ 	c #E9E6DF",
"# 	c #E9E4DF",
"$ 	c #E9E5E1",
"% 	c #E9E4E0",
"& 	c #EBE7E3",
"* 	c #EBE9E3",
"= 	c #EBE8E3",
"- 	c #EBE7E2",
"; 	c #EAE7E1",
"> 	c #EAE7E2",
", 	c #E9E6E1",
"' 	c #EAE6E0",
") 	c #E9E7E0",
"! 	c #E9E7E2",
"~ 	c #EDE9E7",
"{ 	c #EDEAE6",
"] 	c #EEEAE7",
"^ 	c #EDEAE5",
"/ 	c #ECE8E4",
"( 	c #EBE8E4",
"_ 	c #DCBEBB",
": 	c #D3A09E",
"< 	c #CB8987",
"[ 	c #B98381",
"} 	c #BF8482",
"| 	c #CA9D9A",
"1 	c #D8BEBB",
"2 	c #EDE9E4",
"3 	c #ECE9E4",
"4 	c #ECE7E4",
"5 	c #ECE7E3",
"6 	c #EBE9E4",
"7 	c #EFEDE9",
"8 	c #F0ECE9",
"9 	c #EAE6E4",
"0 	c #D7B9B7",
"a 	c #C18584",
"b 	c #C45655",
"c 	c #C14E4D",
"d 	c #BA4848",
"e 	c #BB4D4D",
"f 	c #BA4C4C",
"g 	c #BA4A4A",
"h 	c #BE5655",
"i 	c #C88785",
"j 	c #DFC0BE",
"k 	c #EFEAE7",
"l 	c #EDEBE6",
"m 	c #F2EFEC",
"n 	c #EFECE9",
"o 	c #E9E7E4",
"p 	c #D8B8B5",
"q 	c #AD6361",
"r 	c #BE4B4B",
"s 	c #B74242",
"t 	c #B74141",
"u 	c #BC4444",
"v 	c #C04545",
"w 	c #C05252",
"x 	c #C24C4C",
"y 	c #BC4545",
"z 	c #BD4A4A",
"A 	c #C05655",
"B 	c #DBA4A3",
"C 	c #F0EDE9",
"D 	c #F1EDE9",
"E 	c #F1EDEA",
"F 	c #F2F0ED",
"G 	c #EBE9E7",
"H 	c #DEDBD9",
"I 	c #B97B7A",
"J 	c #B24545",
"K 	c #B84040",
"L 	c #BC4343",
"M 	c #BF4747",
"N 	c #BA4343",
"O 	c #C44949",
"P 	c #C25454",
"Q 	c #E2C4C2",
"R 	c #E6E3E2",
"S 	c #D4D2D0",
"T 	c #A3504F",
"U 	c #B84141",
"V 	c #BA4141",
"W 	c #BD4545",
"X 	c #C44C4C",
"Y 	c #C04646",
"Z 	c #BB4242",
"` 	c #C34949",
" .	c #CF8C8B",
"..	c #F5F2F0",
"+.	c #F5F2EF",
"@.	c #F1EFEE",
"#.	c #E0DFDD",
"$.	c #C0A8A8",
"%.	c #A84949",
"&.	c #C44848",
"*.	c #C66564",
"=.	c #F7F5F3",
"-.	c #F7F5F2",
";.	c #EFEEED",
">.	c #DCDBDB",
",.	c #B07878",
"'.	c #B84747",
").	c #C44747",
"!.	c #C54A4A",
"~.	c #BB4545",
"{.	c #C46161",
"].	c #FAF8F6",
"^.	c #F9F8F5",
"/.	c #EBEBEA",
"(.	c #D9D8D8",
"_.	c #AF6A6A",
":.	c #BD4949",
"<.	c #C54B4B",
"[.	c #BB4646",
"}.	c #BC5959",
"|.	c #FCFCFA",
"1.	c #FAFAF9",
"2.	c #E6E7E5",
"3.	c #D5D4D4",
"4.	c #B17877",
"5.	c #B44747",
"6.	c #B84444",
"7.	c #C36161",
"8.	c #FEFEFD",
"9.	c #FCFDFD",
"0.	c #E6E5E5",
"a.	c #D4D4D3",
"b.	c #BEA6A6",
"c.	c #AE4B4B",
"d.	c #C54949",
"e.	c #BB4444",
"f.	c #B34242",
"g.	c #C76666",
"h.	c #FCFCFC",
"i.	c #FEFEFE",
"j.	c #E9E8E7",
"k.	c #D7D6D5",
"l.	c #CBCACA",
"m.	c #A45151",
"n.	c #C34848",
"o.	c #C44B4B",
"p.	c #B44141",
"q.	c #BA4646",
"r.	c #D49090",
"s.	c #FDFCFB",
"t.	c #FCFCFB",
"u.	c #EDEBEA",
"v.	c #DBDAD9",
"w.	c #CECDCB",
"x.	c #B27777",
"y.	c #B44646",
"z.	c #C34747",
"A.	c #C24A4A",
"B.	c #C24949",
"C.	c #C55655",
"D.	c #E8CCCB",
"E.	c #FBFAF9",
"F.	c #FBFBFA",
"G.	c #F0EFED",
"H.	c #E1E0DE",
"I.	c #D3D1D0",
"J.	c #C9A9A9",
"K.	c #A65D5D",
"L.	c #AE4545",
"M.	c #C14848",
"N.	c #BC4B4B",
"O.	c #BD4F4F",
"P.	c #C14B4B",
"Q.	c #B84847",
"R.	c #BC5454",
"S.	c #DEA8A7",
"T.	c #F9F9F7",
"U.	c #FAF8F7",
"V.	c #FAF9F7",
"W.	c #F2F1EF",
"X.	c #E8E8E5",
"Y.	c #DCDAD8",
"Z.	c #D2D0CF",
"`.	c #C3A8A6",
" +	c #B27877",
".+	c #B94F4F",
"++	c #C34E4D",
"@+	c #BF4A4A",
"#+	c #BB4C4C",
"$+	c #B74A49",
"%+	c #B84848",
"&+	c #BB5353",
"*+	c #C48483",
"=+	c #E1C4C3",
"-+	c #F6F5F3",
";+	c #F8F7F5",
">+	c #F3F1EF",
",+	c #F0EDEB",
"'+	c #E8E5E4",
")+	c #DEDDDA",
"!+	c #D6D4D2",
"~+	c #CFCECB",
"{+	c #C5A8A5",
"]+	c #BF8E8D",
"^+	c #BD7C7A",
"/+	c #AB7675",
"(+	c #B37A79",
"_+	c #C09493",
":+	c #D3BAB8",
"<+	c #EFEDEA",
"[+	c #F5F3F0",
"}+	c #F4F2EF",
"|+	c #ECE9E8",
"1+	c #E6E3E0",
"2+	c #DFDDDA",
"3+	c #DBD8D7",
"4+	c #D8D6D5",
"5+	c #DAD8D6",
"6+	c #DDDBD9",
"7+	c #E3E1DE",
"8+	c #EAE9E6",
"9+	c #F0EEEC",
"0+	c #F3F1EE",
"a+	c #F5F3F1",
"b+	c #F5F4F1",
"c+	c #F6F4F1",
"d+	c #F6F4F2",
"e+	c #F2F0EE",
"f+	c #F1EFEB",
"g+	c #EEEBE8",
"h+	c #ECEAE7",
"i+	c #EAE8E6",
"j+	c #E9E8E4",
"k+	c #EBE8E6",
"l+	c #EBE9E8",
"m+	c #F1EFEC",
"n+	c #F3F0EE",
"o+	c #F4F1EF",
"  . + . @ @ . # @   $ % @ % . + + # + ",
"& * = = & & - - ; > ; ; , ' ) + ! ) + ",
"~ { ] ^ / ( _ : < [ } | 1 2 3 4 * 5 6 ",
"7 8 ] 9 0 a b c d e f g h i j k ] { l ",
"m n o p q r s t u v w x y z A B C D E ",
"F G H I J t K L v v v v M N O P Q F m ",
"F R S T U V W v v v v v X Y Z `  ...+.",
"@.#.$.%.L Y O v v v v v v &.N v *.=.-.",
";.>.,.'.).&.!.v v v v v v O ~.~.{.].^.",
"/.(._.:.&.&.<.v v v /.v v v ~.[.}.|.1.",
"2.3.4.5.).&.!.v v v v v v v ~.6.7.8.9.",
"0.a.b.c.&.&.d.v v v v v v &.e.f.g.h.i.",
"j.k.l.m.n.).&.o.v v v v v ).p.q.r.s.t.",
"u.v.w.x.y.z.).&.A.v v v B.6.q.C.D.E.F.",
"G.H.I.J.K.L.n.z.M.N.O.P.M.Q.R.S.T.U.V.",
"W.X.Y.Z.`. +.+++@+#+$+%+&+*+=+-+;+;+;+",
">+,+'+)+!+~+{+]+^+/+(+_+:+<+[+=.=.=.=.",
"}+F <+|+1+2+3+4+5+6+7+8+9+0+a+b+c+c+d+",
"F F e+f+g+h+i+j+k+l+n m+n+o+}+o+o++..."};
