/* XPM */
static char * closepr_xpm[] = {
"21 21 141 2",
"  	c #F4F3F2",
". 	c #546B7B",
"+ 	c #69869A",
"@ 	c #7393A9",
"# 	c #7490A4",
"$ 	c #4E6473",
"% 	c #4D6271",
"& 	c #4B606F",
"* 	c #6A889C",
"= 	c #6C8A9F",
"- 	c #6C8A9E",
"; 	c #6B899E",
"> 	c #6B899D",
", 	c #6B889D",
"' 	c #59768B",
") 	c #577388",
"! 	c #587589",
"~ 	c #5A778C",
"{ 	c #5C788D",
"] 	c #5D798E",
"^ 	c #5E7B8F",
"/ 	c #607C91",
"( 	c #617E92",
"_ 	c #638195",
": 	c #718EA3",
"< 	c #59758A",
"[ 	c #5B788D",
"} 	c #5E7A8F",
"| 	c #5F7C90",
"1 	c #607D91",
"2 	c #617E93",
"3 	c #638094",
"4 	c #648195",
"5 	c #728FA3",
"6 	c #4D6371",
"7 	c #5B788C",
"8 	c #648095",
"9 	c #658296",
"0 	c #648094",
"a 	c #7390A4",
"b 	c #5A778B",
"c 	c #5C798E",
"d 	c #A3B3BF",
"e 	c #A4B4C0",
"f 	c #637F94",
"g 	c #A7B7C3",
"h 	c #A7B8C3",
"i 	c #668397",
"j 	c #658195",
"k 	c #7592A6",
"l 	c #59768A",
"m 	c #A3B4BF",
"n 	c #A4B5C0",
"o 	c #617D92",
"p 	c #A5B6C1",
"q 	c #A6B7C2",
"r 	c #658095",
"s 	c #475B69",
"t 	c #577285",
"u 	c #587386",
"v 	c #5A7488",
"w 	c #495E6E",
"x 	c #A2B2BC",
"y 	c #A3B2BD",
"z 	c #A3B3BE",
"A 	c #A5B4BF",
"B 	c #A5B5BF",
"C 	c #637E91",
"D 	c #607B8F",
"E 	c #728DA1",
"F 	c #4A5E6C",
"G 	c #688599",
"H 	c #577386",
"I 	c #597487",
"J 	c #5A7589",
"K 	c #5B768A",
"L 	c #4A606F",
"M 	c #A4B3BF",
"N 	c #627E91",
"O 	c #637F92",
"P 	c #627D90",
"Q 	c #738EA1",
"R 	c #678598",
"S 	c #597486",
"T 	c #5A7588",
"U 	c #5B7689",
"V 	c #5C788A",
"W 	c #A3B3BD",
"X 	c #A4B3BE",
"Y 	c #A6B6C0",
"Z 	c #637F91",
"` 	c #648093",
" .	c #637E90",
"..	c #5A7587",
"+.	c #4E6472",
"@.	c #A7B7C1",
"#.	c #658193",
"$.	c #647F91",
"%.	c #748FA2",
"&.	c #5B7588",
"*.	c #5C778A",
"=.	c #5D788B",
"-.	c #4E6272",
";.	c #4F6574",
">.	c #A7B6C1",
",.	c #A7B7C2",
"'.	c #678295",
").	c #658093",
"!.	c #7590A3",
"~.	c #495E6B",
"{.	c #5C778C",
"].	c #5C788B",
"^.	c #5D788A",
"/.	c #4B616F",
"(.	c #4B6270",
"_.	c #607C8E",
":.	c #617D8F",
"<.	c #506674",
"[.	c #678294",
"}.	c #688496",
"|.	c #7591A4",
"1.	c #4A5F6E",
"2.	c #4C616F",
"3.	c #708B9F",
"4.	c #6A869A",
"5.	c #6B8699",
"6.	c #6B879A",
"7.	c #6C879C",
"8.	c #6E899D",
"9.	c #6F8A9D",
"0.	c #708B9E",
"a.	c #718B9F",
"b.	c #738DA0",
"c.	c #7590A4",
"d.	c #678497",
"e.	c #495D6C",
"f.	c #4B606E",
"g.	c #4C6170",
"h.	c #678397",
"i.	c #658194",
"j.	c #647F92",
"                                          ",
". . . . . . . . . . . . . . . . . . . . . ",
"+ + + + + + + + + + + + + + + + + + + + + ",
"@ @ # $ % & & & & & & & & & & % $ + @ @ @ ",
"@ @ $ * = - - ; ; ; ; > > > , * # $ @ @ @ ",
"@ @ % = ' ) ! ' ~ { ] ^ ^ / ( _ : $ @ @ @ ",
"@ @ & = ! < ~ [ ] } | 1 2 3 4 3 5 6 @ @ @ ",
"@ @ & = < ~ 7 ] } | 1 ( 3 8 9 0 a 6 @ @ @ ",
"@ @ & = b 7 c d e 1 ( f g h i j k 6 @ @ @ ",
"@ @ & - l b [ d m n o p q g 9 r k 6 @ @ @ ",
"@ @ s + t u v w x y z A B $ C D E F @ @ @ ",
"@ @ s G H I J K L z M B $ N O P Q F @ @ @ ",
"@ @ s R S T U V W X B B Y Z `  .Q F @ @ @ ",
"@ @ s R ..U V W z B +.Y Y @.#.$.%.F @ @ @ ",
"@ @ s R &.*.=.z M -.P ;.>.,.'.).!.F @ @ @ ",
"@ @ ~.R {.].^./.(._.:.P ;.<.[.}.|.1.@ @ @ ",
"@ @ 2.3.4.5.6.7.8.9.0.a.b.E %.c.!.2.@ @ @ ",
"@ @ d.% & e.e.e.e.e.e.e.e.e.e.f.g.d.@ @ @ ",
"+ + h.i.).j.j.j.j.j.j.j.j.j.j.).i.h.+ + + ",
"I I I I I I I I I I I I I I I I I I I I I ",
"L L L L L L L L L L L L L L L L L L L L L "};
