/* XPM */
static char * menuiconfcs_xpm[] = {
"21 21 8 1",
" 	c #F4F3F2",
".	c #546B7B",
"+	c #69869A",
"@	c #7393A9",
"#	c #B9C9D4",
"$	c #576F7F",
"%	c #597487",
"&	c #4A606F",
"                     ",
".....................",
"+++++++++++++++++++++",
"@@@@@@@@@@@@@@@@@@@@@",
"@@@@@@@@@@@@@@@@@@@@@",
"@@@@@@@@@@@@@@@@@@@@@",
"@@@@@@@@@@@@@@@@@@@@@",
"@@@@@###########@@@@@",
"@@@@@$$$$$$$$$$$@@@@@",
"@@@@@@@@@@@@@@@@@@@@@",
"@@@@@###########@@@@@",
"@@@@@$$$$$$$$$$$@@@@@",
"@@@@@@@@@@@@@@@@@@@@@",
"@@@@@###########@@@@@",
"@@@@@$$$$$$$$$$$@@@@@",
"@@@@@@@@@@@@@@@@@@@@@",
"@@@@@@@@@@@@@@@@@@@@@",
"@@@@@@@@@@@@@@@@@@@@@",
"+++++++++++++++++++++",
"%%%%%%%%%%%%%%%%%%%%%",
"&&&&&&&&&&&&&&&&&&&&&"};
