/* XPM */
static char * shadepr_xpm[] = {
"19 19 256 2",
"  	c #EBEBEB",
". 	c #ECECEB",
"+ 	c #ECEBEB",
"@ 	c #ECECEC",
"# 	c #ECEDEC",
"$ 	c #ECECED",
"% 	c #EDEDED",
"& 	c #E6E6E6",
"* 	c #E7E7E6",
"= 	c #E7E7E7",
"- 	c #E7E8E7",
"; 	c #E7E8E8",
"> 	c #E8E8E8",
", 	c #E8E9E8",
"' 	c #E9E9E8",
") 	c #E9E9E9",
"! 	c #EAE9EA",
"~ 	c #E9EAEA",
"{ 	c #EAEAEA",
"] 	c #EBEBEA",
"^ 	c #E2E1E2",
"/ 	c #E2E2E2",
"( 	c #E2E2E3",
"_ 	c #E2E3E2",
": 	c #E3E3E3",
"< 	c #E4E3E3",
"[ 	c #E4E3E4",
"} 	c #E3E4E4",
"| 	c #E4E4E4",
"1 	c #E5E4E4",
"2 	c #E4E5E4",
"3 	c #E4E5E5",
"4 	c #E5E5E5",
"5 	c #E6E6E5",
"6 	c #E5E5E6",
"7 	c #DDDDDE",
"8 	c #DDDEDE",
"9 	c #DEDEDE",
"0 	c #DEDFDE",
"a 	c #DEDEDF",
"b 	c #DFDFDF",
"c 	c #DFE0E0",
"d 	c #E0DFE0",
"e 	c #E0E0DF",
"f 	c #E0E0E0",
"g 	c #E0E1E0",
"h 	c #E1E1E1",
"i 	c #E1E1E2",
"j 	c #E1E2E1",
"k 	c #D9D9D9",
"l 	c #D9D9DA",
"m 	c #D9DAD9",
"n 	c #DADAD9",
"o 	c #DADADA",
"p 	c #DBDADB",
"q 	c #DBDBDA",
"r 	c #DBDBDB",
"s 	c #DCDBDB",
"t 	c #DBDCDB",
"u 	c #DCDCDC",
"v 	c #DDDCDC",
"w 	c #DDDDDD",
"x 	c #D4D5D5",
"y 	c #D5D5D5",
"z 	c #D6D5D5",
"A 	c #D6D6D5",
"B 	c #D6D5D6",
"C 	c #D6D6D6",
"D 	c #D7D6D6",
"E 	c #D7D7D7",
"F 	c #D7D8D8",
"G 	c #D8D8D8",
"H 	c #D9D9D8",
"I 	c #D9D8D9",
"J 	c #D0D0D0",
"K 	c #D1D1D0",
"L 	c #D1D1D1",
"M 	c #D1D1D2",
"N 	c #D1D2D2",
"O 	c #D2D1D2",
"P 	c #D2D2D2",
"Q 	c #D3D3D2",
"R 	c #D2D3D3",
"S 	c #D3D3D3",
"T 	c #D3D3D4",
"U 	c #D4D4D3",
"V 	c #D4D4D4",
"W 	c #D5D4D4",
"X 	c #CCCCCB",
"Y 	c #CCCCCC",
"Z 	c #CCCCCD",
"` 	c #CDCCCC",
" .	c #CDCCCD",
"..	c #CDCDCD",
"+.	c #CDCDCE",
"@.	c #CDCECE",
"#.	c #CECECE",
"$.	c #CECECF",
"%.	c #CECFCF",
"&.	c #CFCECF",
"*.	c #CFCFCF",
"=.	c #CFD0CF",
"-.	c #CFCFD0",
";.	c #CFD0D0",
">.	c #C7C8C7",
",.	c #C8C7C8",
"'.	c #C7C8C8",
").	c #C8C8C8",
"!.	c #C9C8C8",
"~.	c #C8C9C9",
"{.	c #C0C0C0",
"].	c #A1A1A1",
"^.	c #909090",
"/.	c #A9A9AA",
"(.	c #CACACA",
"_.	c #CACBCA",
":.	c #CACBCB",
"<.	c #CBCBCB",
"[.	c #C2C2C3",
"}.	c #C3C3C3",
"|.	c #C4C4C3",
"1.	c #C3C4C3",
"2.	c #C4C4C4",
"3.	c #979798",
"4.	c #7D7D7D",
"5.	c #696969",
"6.	c #626262",
"7.	c #C6C5C5",
"8.	c #C6C6C5",
"9.	c #C6C6C6",
"0.	c #C7C6C7",
"a.	c #C7C7C6",
"b.	c #C7C7C7",
"c.	c #BEBEBE",
"d.	c #BFBFBE",
"e.	c #BFBFBF",
"f.	c #BFBFC0",
"g.	c #BFC0BF",
"h.	c #7C7B7B",
"i.	c #5F5E5E",
"j.	c #4B4A4A",
"k.	c #464646",
"l.	c #C1C1C1",
"m.	c #C2C1C2",
"n.	c #C2C2C1",
"o.	c #C2C2C2",
"p.	c #C2C3C2",
"q.	c #BABABA",
"r.	c #BBBBBB",
"s.	c #BBBABB",
"t.	c #BBBBBA",
"u.	c #959595",
"v.	c #4E4F4E",
"w.	c #3C3D3D",
"x.	c #7F7F7F",
"y.	c #BDBCBC",
"z.	c #BDBDBD",
"A.	c #BEBDBD",
"B.	c #BDBEBE",
"C.	c #B5B6B6",
"D.	c #B6B6B5",
"E.	c #B6B6B6",
"F.	c #B6B6B7",
"G.	c #B7B7B7",
"H.	c #B8B7B7",
"I.	c #B8B8B8",
"J.	c #B8B9B8",
"K.	c #B8B8B9",
"L.	c #B9B9B8",
"M.	c #B9BAB9",
"N.	c #B1B1B1",
"O.	c #B1B2B1",
"P.	c #B1B2B2",
"Q.	c #B2B2B2",
"R.	c #B3B2B2",
"S.	c #B2B2B3",
"T.	c #B3B2B3",
"U.	c #B3B3B3",
"V.	c #B4B3B3",
"W.	c #B3B4B4",
"X.	c #B4B4B4",
"Y.	c #B4B4B3",
"Z.	c #B4B4B5",
"`.	c #B5B5B4",
" +	c #B5B5B5",
".+	c #B5B5B6",
"++	c #ACADAD",
"@+	c #ADADAD",
"#+	c #AEADAD",
"$+	c #AEAEAD",
"%+	c #AEAEAE",
"&+	c #AFAEAE",
"*+	c #AEAFAF",
"=+	c #AFAFAE",
"-+	c #AFAFAF",
";+	c #B0AFB0",
">+	c #B0AFAF",
",+	c #AFB0AF",
"'+	c #B0B0B0",
")+	c #B1B0B1",
"!+	c #A8A8A8",
"~+	c #A8A8A9",
"{+	c #A9A9A9",
"]+	c #A9A9A8",
"^+	c #A9AAA9",
"/+	c #AAA9AA",
"(+	c #AAA9A9",
"_+	c #AAAAAA",
":+	c #AAAAAB",
"<+	c #AAABAB",
"[+	c #ABABAB",
"}+	c #ABACAB",
"|+	c #ACACAC",
"1+	c #A4A4A4",
"2+	c #A4A5A4",
"3+	c #A4A4A5",
"4+	c #A5A4A4",
"5+	c #A5A5A5",
"6+	c #A5A6A5",
"7+	c #A5A6A6",
"8+	c #A5A5A6",
"9+	c #A6A6A6",
"0+	c #A7A6A6",
"a+	c #A7A6A7",
"b+	c #A7A8A7",
"c+	c #A7A7A7",
"d+	c #A8A8A7",
"e+	c #9F9FA0",
"f+	c #A09F9F",
"g+	c #9FA09F",
"h+	c #9FA0A0",
"i+	c #A0A0A0",
"j+	c #A0A0A1",
"k+	c #A2A2A1",
"l+	c #A1A2A2",
"m+	c #A2A1A2",
"n+	c #A2A2A2",
"o+	c #A2A2A3",
"p+	c #A3A2A2",
"q+	c #A3A3A2",
"r+	c #A3A4A3",
"s+	c #A4A3A3",
"t+	c #9A9A9A",
"u+	c #9C9B9B",
"v+	c #9C9C9C",
"w+	c #9C9C9B",
"x+	c #9B9C9B",
"y+	c #9D9C9C",
"z+	c #9C9D9D",
"A+	c #9D9E9D",
"B+	c #9E9D9D",
"C+	c #9E9E9D",
"D+	c #9E9E9E",
"E+	c #9E9E9F",
"F+	c #9F9E9F",
"G+	c #9F9F9F",
"      . + @ # # # $ % % % % % % % % % ",
"& * = = - - ; > > > , ' ) ) ! ~ ! { ] ",
"^ / ( _ / : < [ } } | 1 2 3 4 5 5 6 & ",
"7 8 9 0 a a b b c c d e f g f g h i j ",
"k k l m n o p q q r s t u u u v u w w ",
"x x y y z A B C C D E E F E F G G H I ",
"J K J L L M N O O P Q R S S T U V V W ",
"X Y Y Z `  .....+.@.#.#.$.%.&.*.=.-.;.",
">.,.'.).!.).~.{.].^./.(.(.(._.:.<.<.<.",
"[.}.}.|.1.2.2.3.4.5.6.7.7.8.9.0.a.b.b.",
"c.d.e.e.f.g.{.h.i.j.k.l.l.l.m.n.o.[.p.",
"q.q.r.s.t.r.r.u.v.w.x.y.y.z.z.A.B.c.c.",
"C.D.E.E.F.F.G.G.H.G.G.I.J.K.J.L.M.M.q.",
"N.N.O.P.Q.R.S.T.T.U.V.W.X.Y.Z.Z.`. +.+",
"++@+#+#+$+$+%+&+*+=+-+-+;+>+,+'+'+)+N.",
"!+~+{+]+^+/+(+_+_+_+:+<+[+[+[+}+|+|+|+",
"1+1+2+3+4+5+5+6+7+8+9+9+0+0+a+b+c+!+d+",
"e+f+g+h+i+j+i+j+].k+l+m+n+n+o+p+q+r+s+",
"t+u+v+w+x+v+y+z+y+z+A+B+C+D+D+E+F+G+G+"};
