/* XPM */
static char * maxfcs_xpm[] = {
"19 19 164 2",
"  	c #FFFFFF",
". 	c #BCBCBC",
"+ 	c #E3E3E2",
"@ 	c #E3E3E3",
"# 	c #E4E3E4",
"$ 	c #E3E4E3",
"% 	c #E4E4E3",
"& 	c #E4E3E3",
"* 	c #E3E3E4",
"= 	c #E4E4E4",
"- 	c #E5E5E5",
"; 	c #E5E6E5",
"> 	c #E5E6E6",
", 	c #E5E5E6",
"' 	c #E6E6E5",
") 	c #E6E6E6",
"! 	c #E8E8E8",
"~ 	c #E8E6E6",
"{ 	c #E8E8E9",
"] 	c #E7E8E7",
"^ 	c #E6E5E6",
"/ 	c #E5E5E4",
"( 	c #E7E6E7",
"_ 	c #E9E8E9",
": 	c #EAEAE9",
"< 	c #EAEAEA",
"[ 	c #ECECEC",
"} 	c #EBEBEB",
"| 	c #BDBB3D",
"1 	c #B5B437",
"2 	c #B3B235",
"3 	c #DAD9D9",
"4 	c #E4E5E4",
"5 	c #B5B438",
"6 	c #DADADA",
"7 	c #B6B538",
"8 	c #DADADB",
"9 	c #ECECED",
"0 	c #EEEEEE",
"a 	c #EEEEEF",
"b 	c #B8B638",
"c 	c #F2F19B",
"d 	c #9C9A24",
"e 	c #BDBDBD",
"f 	c #D9D9D9",
"g 	c #F2F198",
"h 	c #BFBDBD",
"i 	c #D9D9DB",
"j 	c #F1F095",
"k 	c #9D9A24",
"l 	c #C0C0C0",
"m 	c #DEDEDE",
"n 	c #F1F1F1",
"o 	c #F2F2F2",
"p 	c #ECEA86",
"q 	c #8F8E1D",
"r 	c #B0B0B0",
"s 	c #D5D5D5",
"t 	c #EBE983",
"u 	c #EAE982",
"v 	c #F0F0EF",
"w 	c #F4F3F3",
"x 	c #F3F4F3",
"y 	c #EFF0F0",
"z 	c #E7E67C",
"A 	c #8C8B1C",
"B 	c #ADAEAD",
"C 	c #E7E579",
"D 	c #ADADAD",
"E 	c #D5D5D4",
"F 	c #E5E477",
"G 	c #D7D7D7",
"H 	c #EFEEEF",
"I 	c #F2F2F3",
"J 	c #F2F3F2",
"K 	c #EFEEEE",
"L 	c #B4B437",
"M 	c #E4E374",
"N 	c #8B8A1B",
"O 	c #E3E171",
"P 	c #D5D4D5",
"Q 	c #E1E06F",
"R 	c #F3F2F2",
"S 	c #F1F2F2",
"T 	c #EDEDEE",
"U 	c #B4B336",
"V 	c #DFDE6C",
"W 	c #D4D4D4",
"X 	c #DFDD69",
"Y 	c #DEDD68",
"Z 	c #D8D7D7",
"` 	c #EFEFEE",
" .	c #EDEDED",
"..	c #E9EAE9",
"+.	c #B3B234",
"@.	c #DAD962",
"#.	c #8A881A",
"$.	c #A9A9AA",
"%.	c #CFCFCF",
"&.	c #B0AF32",
"*.	c #D9D75F",
"=.	c #A9A9A9",
"-.	c #D0D0CF",
";.	c #D7D75D",
">.	c #AAAAA9",
",.	c #D4D4D3",
"'.	c #E9E9E9",
").	c #E4E4E5",
"!.	c #D4D358",
"~.	c #888719",
"{.	c #A6A6A6",
"].	c #CCCCCC",
"^.	c #AEAC30",
"/.	c #D2D056",
"(.	c #88871A",
"_.	c #CCCDCC",
":.	c #D1D055",
"<.	c #CFD0CF",
"[.	c #E0E1E0",
"}.	c #AEAD30",
"|.	c #949320",
"1.	c #A6A5A6",
"2.	c #C9C8C9",
"3.	c #ADAB2F",
"4.	c #A5A6A5",
"5.	c #C9C9C8",
"6.	c #ADAA2F",
"7.	c #CCCDCD",
"8.	c #E0E1E1",
"9.	c #E5E4E5",
"0.	c #E2E2E2",
"a.	c #DFDFDD",
"b.	c #CED0D0",
"c.	c #B4B4B4",
"d.	c #A7A5A5",
"e.	c #B1B1B1",
"f.	c #CCCCCE",
"g.	c #B1B1B3",
"h.	c #A5A5A5",
"i.	c #CECCCE",
"j.	c #A5A7A5",
"k.	c #B2B2B2",
"l.	c #CECECE",
"m.	c #DFDDDD",
"n.	c #E0E2E0",
"o.	c #DFDEDE",
"p.	c #DEDDDE",
"q.	c #CDCDCD",
"r.	c #C7C7C7",
"s.	c #D6D6D6",
"t.	c #C6C7C6",
"u.	c #CDCCCD",
"v.	c #D5D5D6",
"w.	c #C6C6C6",
"x.	c #DCDCDC",
"y.	c #DDDDDD",
"z.	c #DBDBDB",
"A.	c #D8D8D7",
"B.	c #D7D7D8",
"C.	c #DADAD9",
"D.	c #D7D7D6",
"E.	c #D6D7D7",
"F.	c #D9DAD9",
"G.	c #D9D9DA",
"                                      ",
". . . . . . . . . . . . . . . . . . . ",
"+ @ @ @ @ @ @ # $ $ % & * & = = = = = ",
"- - ; ; > , ' ) > > ) ' ) ) ) ! ) ~ ! ",
"{ { ] ^ / ) ! { ) - ) ! { ) ' ( _ : < ",
"[ } | 1 2 3 4 | 5 2 6 - | 7 2 8 ) 9 0 ",
"a [ b c d e f 1 g d h i 7 j k l m 0 n ",
"o 0 1 p q r s 2 t q r s 2 u q r f v w ",
"x y 1 z A B s 2 C A D E 2 F A D G H I ",
"J K L M N D E 2 O N D P 2 Q N D G K R ",
"S T U V N D W 2 X N D W 2 Y N D Z ` J ",
" ...+.@.#.$.%.&.*.#.=.-.&.;.#.>.,.< 0 ",
"'.).&.!.~.{.].^./.(.{._.^.:.(.{.<.- : ",
"- [.}.|.(.1.2.3.|.(.4.5.6.|.(.{.7.8.9.",
"0.a.b.c.d.e.f.].g.h.e.].i.e.j.k.l.m.n.",
"o.p.G q.r.q.s.s.q.t.u.s v.].w.].s.x.y.",
"z.z.3 A.A.B.f C.G Z G f f D.D.E.f F.G.",
". . . . . . . . . . . . . . . . . . . ",
"                                      "};
