/* XPM */
static char * minufcs_xpm[] = {
"19 19 162 2",
"  	c #FFFFFF",
". 	c #BCBCBC",
"+ 	c #D4D4D3",
"@ 	c #D4D4D4",
"# 	c #D5D4D5",
"$ 	c #D4D5D4",
"% 	c #D5D5D4",
"& 	c #D5D4D4",
"* 	c #D4D4D5",
"= 	c #D5D5D5",
"- 	c #D6D6D6",
"; 	c #D6D7D6",
"> 	c #D6D7D7",
", 	c #D6D6D7",
"' 	c #D7D7D6",
") 	c #D7D7D7",
"! 	c #D9D9D9",
"~ 	c #D9D7D7",
"{ 	c #D8D8D8",
"] 	c #D8D8D9",
"^ 	c #D7D6D7",
"/ 	c #D9D8D9",
"( 	c #DADAD9",
"_ 	c #DADADA",
": 	c #DCDCDC",
"< 	c #DBDBDB",
"[ 	c #969696",
"} 	c #8F8F8F",
"| 	c #8B8B8B",
"1 	c #CCCBCB",
"2 	c #CCCCCC",
"3 	c #CCCCCD",
"4 	c #DCDCDD",
"5 	c #DEDEDE",
"6 	c #DEDEDF",
"7 	c #919191",
"8 	c #BBBABB",
"9 	c #737373",
"0 	c #B0B1B0",
"a 	c #CBCBCB",
"b 	c #BAB9BA",
"c 	c #B2B1B1",
"d 	c #CBCBCD",
"e 	c #909090",
"f 	c #B9B8B9",
"g 	c #757373",
"h 	c #B3B3B3",
"i 	c #CFCFCF",
"j 	c #E1E1E1",
"k 	c #E2E2E2",
"l 	c #8E8E8E",
"m 	c #AEAEAE",
"n 	c #666666",
"o 	c #A5A4A5",
"p 	c #C7C7C7",
"q 	c #8C8C8C",
"r 	c #ADACAC",
"s 	c #676767",
"t 	c #A5A5A4",
"u 	c #ACACAC",
"v 	c #A5A5A5",
"w 	c #E0E0DF",
"x 	c #E4E3E3",
"y 	c #E3E4E3",
"z 	c #DFE0E0",
"A 	c #8E8E8F",
"B 	c #A8A8A9",
"C 	c #A2A3A2",
"D 	c #A7A7A7",
"E 	c #656565",
"F 	c #A2A2A2",
"G 	c #C7C7C6",
"H 	c #8C8B8C",
"I 	c #A5A6A5",
"J 	c #A1A2A1",
"K 	c #C9C9C9",
"L 	c #DFDEDF",
"M 	c #E2E2E3",
"N 	c #E2E3E2",
"O 	c #DFDEDE",
"P 	c #8D8E8E",
"Q 	c #A4A4A4",
"R 	c #646464",
"S 	c #A1A1A2",
"T 	c #A2A2A3",
"U 	c #A1A2A2",
"V 	c #C7C6C7",
"W 	c #8B8B8C",
"X 	c #A1A1A1",
"Y 	c #E3E2E2",
"Z 	c #E1E2E2",
"` 	c #DDDDDE",
" .	c #8D8D8D",
"..	c #A0A0A0",
"+.	c #C6C6C6",
"@.	c #9F9F9F",
"#.	c #A2A1A1",
"$.	c #9E9E9E",
"%.	c #CAC9C9",
"&.	c #DFDFDE",
"*.	c #DDDDDD",
"=.	c #DADBDA",
"-.	c #8B8B8A",
";.	c #9A9A9A",
">.	c #626262",
",.	c #C1C1C1",
"'.	c #878788",
").	c #999999",
"!.	c #C2C2C1",
"~.	c #888888",
"{.	c #989798",
"].	c #C6C6C5",
"^.	c #878787",
"/.	c #949494",
"(.	c #616161",
"_.	c #9B9B9B",
":.	c #BEBEBE",
"<.	c #858585",
"[.	c #939393",
"}.	c #BEBFBE",
"|.	c #929292",
"1.	c #C1C2C1",
"2.	c #D2D3D2",
"3.	c #858685",
"4.	c #6D6D6D",
"5.	c #BCBBBC",
"6.	c #848483",
"7.	c #BCBCBB",
"8.	c #848384",
"9.	c #BEBFBF",
"0.	c #D2D3D3",
"a.	c #D6D5D6",
"b.	c #D3D3D3",
"c.	c #D1D1CF",
"d.	c #C1C2C2",
"e.	c #A8A8A8",
"f.	c #9C9A9A",
"g.	c #A6A6A6",
"h.	c #BEBEC0",
"i.	c #A6A6A7",
"j.	c #C0BEC0",
"k.	c #9A9C9A",
"l.	c #D1CFCF",
"m.	c #D1D3D1",
"n.	c #D0CFCF",
"o.	c #CFCECF",
"p.	c #BFBFBF",
"q.	c #BABABA",
"r.	c #C8C8C8",
"s.	c #B9BAB9",
"t.	c #BFBEBF",
"u.	c #C7C7C8",
"v.	c #B9B9B9",
"w.	c #CDCDCD",
"x.	c #CECECE",
"y.	c #CBCACA",
"z.	c #CACAC9",
"A.	c #C9C9C8",
"B.	c #C9C9CA",
"C.	c #CACACA",
"D.	c #CBCBCA",
"E.	c #C9C8C8",
"                                      ",
". . . . . . . . . . . . . . . . . . . ",
"+ @ @ @ @ @ @ # $ $ % & * & = = = = = ",
"- - ; ; > , ' ) > > ) ' ) ) ) ! ) ~ ! ",
"! ! { - - - { ] - - - { ] - ' ^ / ( _ ",
": < [ } | 1 $ [ } | 2 = [ } | 3 - 4 5 ",
"6 : 7 8 9 0 a } b 9 c d e f g h i 5 j ",
"k 5 l m n o p q r s t p q u s v a w x ",
"y z A B n C p q D E F G H I E J K L M ",
"N O P Q R S G | T R U V W F R X K O Y ",
"Z `  ...R X +.| @.R #.+.| $.R X %.&.N ",
"*.=.-.;.>.$.,.'.).>.$.!.~.{.>.$.].< 5 ",
"! - ^./.(._.:.<.[.(._.}.<.|.(._.1.- ( ",
"- 2.3.4.(._.5.6.4.(._.7.8.4.(._.9.0.a.",
"b.c.d.e.f.g.h.:.i.;.g.:.j.g.k.g.,.l.m.",
"n.o.K p.q.p.r.r.p.s.t.p u.:.v.:.r.w.x.",
"2 2 y.z.A.B.C.D.K E.K C.C.K r.K C.a a ",
". . . . . . . . . . . . . . . . . . . ",
"                                      "};
