/* XPM */
static char * unshadeufcs_xpm[] = {
"19 19 107 2",
"  	c #FFFFFF",
". 	c #BCBCBC",
"+ 	c #D4D4D3",
"@ 	c #D4D4D4",
"# 	c #D5D4D5",
"$ 	c #D4D5D4",
"% 	c #D5D5D4",
"& 	c #D5D4D4",
"* 	c #D4D4D5",
"= 	c #D5D5D5",
"- 	c #D6D6D6",
"; 	c #D6D7D6",
"> 	c #D6D7D7",
", 	c #D6D6D7",
"' 	c #D7D7D6",
") 	c #D7D7D7",
"! 	c #D9D9D9",
"~ 	c #D9D7D7",
"{ 	c #D9D9DA",
"] 	c #DADAD9",
"^ 	c #DAD9DA",
"/ 	c #DADADA",
"( 	c #DCDCDC",
"_ 	c #DCDDDC",
": 	c #DDDCDC",
"< 	c #DDDDDD",
"[ 	c #DCDCDD",
"} 	c #DDDDDC",
"| 	c #DDDDDE",
"1 	c #DEDEDE",
"2 	c #DEDEDF",
"3 	c #DFDFDF",
"4 	c #DEDFDE",
"5 	c #E1DFDF",
"6 	c #DFDFE1",
"7 	c #E1E1E1",
"8 	c #E2E2E2",
"9 	c #E3E2E3",
"0 	c #E3E3E2",
"a 	c #E3E3E3",
"b 	c #E2E3E3",
"c 	c #E4E4E3",
"d 	c #E4E3E3",
"e 	c #E3E4E3",
"f 	c #E3E4E4",
"g 	c #E3E3E4",
"h 	c #E4E4E4",
"i 	c #E0E0E0",
"j 	c #E0E0DF",
"k 	c #E2E1E2",
"l 	c #E2E3E2",
"m 	c #E2E2E3",
"n 	c #E3E2E2",
"o 	c #AAAAAA",
"p 	c #929291",
"q 	c #7A7A7B",
"r 	c #D1D0D1",
"s 	c #DBDBDC",
"t 	c #E1E1E2",
"u 	c #E1E2E2",
"v 	c #8D8C8D",
"w 	c #6F6F6F",
"x 	c #565555",
"y 	c #B6B6B6",
"z 	c #D1D1D1",
"A 	c #DDDEDD",
"B 	c #DEDEDD",
"C 	c #DEDDDE",
"D 	c #CDCDCD",
"E 	c #B2B2B2",
"F 	c #A6A6A6",
"G 	c #DBDCDB",
"H 	c #DEDDDD",
"I 	c #D8D8D8",
"J 	c #D2D2D2",
"K 	c #C8C8C8",
"L 	c #C3C3C3",
"M 	c #C8C9C8",
"N 	c #D8D9D8",
"O 	c #D9DAD9",
"P 	c #D5D6D5",
"Q 	c #D6D5D5",
"R 	c #D6D6D5",
"S 	c #D6D5D6",
"T 	c #D2D2D3",
"U 	c #D2D3D2",
"V 	c #D3D3D2",
"W 	c #D5D6D6",
"X 	c #D3D3D3",
"Y 	c #D3D3D1",
"Z 	c #D1D3D3",
"` 	c #D3D1D1",
" .	c #D1D1D3",
"..	c #D3D1D3",
"+.	c #D1D3D1",
"@.	c #D0CFCF",
"#.	c #D0CFD0",
"$.	c #CFCFCF",
"%.	c #CECFCE",
"&.	c #CFCECF",
"*.	c #CECECE",
"=.	c #CECECF",
"-.	c #CCCCCC",
";.	c #CCCBCB",
">.	c #CCCCCB",
",.	c #CBCBCC",
"'.	c #CBCBCB",
"                                      ",
". . . . . . . . . . . . . . . . . . . ",
"+ @ @ @ @ @ @ # $ $ % & * & = = = = = ",
"- - ; ; > , ' ) > > ) ' ) ) ) ! ) ~ ! ",
"! ! ! ! ! ! ! { ! ! ! ! { ! ] ^ ^ ] / ",
"( ( ( ( _ : _ < [ } < < < < < | < | 1 ",
"2 3 3 2 3 4 3 3 3 3 5 6 7 5 5 7 7 7 7 ",
"8 8 8 8 8 9 8 0 8 a 0 a b a a a a c d ",
"e f g g h e a a 8 i 3 j k l a l 8 9 m ",
"l n b 0 n m 0 7 o p q r s t l 8 8 n n ",
"u t 8 8 8 8 8 i v w x y z i 8 8 n 0 l ",
"< A B C B | < s D E F E D G H B B 1 1 ",
"! ! ! ! ! ! ! I J K L M J N ! ! O ! ] ",
"- P P Q R S S R @ T U V # W S - W W S ",
"X Y Z X ` z  .z  .z z z ..z +.z z ` +.",
"@.#.$.$.$.$.$.$.$.%.&.*.=.*.*.*.*.*.*.",
"-.-.;.>.>.,.'.>.'.;.'.'.'.'.'.'.'.'.'.",
". . . . . . . . . . . . . . . . . . . ",
"                                      "};
