/* XPM */
static char * closeufcs_xpm[] = {
"19 19 43 1",
" 	c #E5EACD",
".	c #AEB78C",
"+	c #ABB389",
"@	c #A9B187",
"#	c #A7AF85",
"$	c #A5AD82",
"%	c #A3AC80",
"&	c #A1AA7E",
"*	c #A5AE84",
"=	c #B8BF9E",
"-	c #AAB28B",
";	c #B9C09F",
">	c #A6AF85",
",	c #9FA87C",
"'	c #B7BD9C",
")	c #000000",
"!	c #DADECD",
"~	c #B7BE9D",
"{	c #9DA67A",
"]	c #B5BC9B",
"^	c #B6BD9C",
"/	c #9CA477",
"(	c #A6AD84",
"_	c #D9DCCB",
":	c #A6AE85",
"<	c #9AA275",
"[	c #B3B997",
"}	c #B4BA98",
"|	c #98A073",
"1	c #B1B796",
"2	c #D8DBCA",
"3	c #B2B897",
"4	c #969E71",
"5	c #9BA378",
"6	c #B0B694",
"7	c #A0A87F",
"8	c #B1B795",
"9	c #9CA379",
"0	c #949D6F",
"a	c #929B6C",
"b	c #90996A",
"c	c #8E9768",
"d	c #ADB58D",
"                   ",
"...................",
"+++++++++++++++++++",
"@@@@@@@@@@@@@@@@@@@",
"###################",
"$$$$$$$$$$$$$$$$$$$",
"%%%%%%%%%%%%%%%%%%%",
"&&&&&&*==-;=>&&&&&&",
",,,,,,'))!))~,,,,,,",
"{{{{{{])))))^{{{{{{",
"//////(_)))_://////",
"<<<<<<[)))))}<<<<<<",
"||||||1))2))3||||||",
"4444445667869444444",
"0000000000000000000",
"aaaaaaaaaaaaaaaaaaa",
"bbbbbbbbbbbbbbbbbbb",
"ccccccccccccccccccc",
"ddddddddddddddddddd"};
