/* XPM */
static char * menuiconfcs_xpm[] = {
"19 19 40 1",
" 	c #E5EACD",
".	c #AEB78C",
"+	c #ABB389",
"@	c #A9B187",
"#	c #A7AF85",
"$	c #A5AD82",
"%	c #A3AC80",
"&	c #A1AA7E",
"*	c #9FA87C",
"=	c #98A076",
"-	c #787E5D",
";	c #707758",
">	c #6F7557",
",	c #767D5C",
"'	c #969F75",
")	c #9DA67A",
"!	c #7C8461",
"~	c #FFFFFF",
"{	c #9CA477",
"]	c #8D946B",
"^	c #53573F",
"/	c #474B36",
"(	c #464A36",
"_	c #52563F",
":	c #8B936A",
"<	c #9AA275",
"[	c #7A805D",
"}	c #98A073",
"|	c #91986E",
"1	c #727857",
"2	c #6B7151",
"3	c #6A7050",
"4	c #717756",
"5	c #90976D",
"6	c #969E71",
"7	c #949D6F",
"8	c #929B6C",
"9	c #90996A",
"0	c #8E9768",
"a	c #ADB58D",
"                   ",
"...................",
"+++++++++++++++++++",
"@@@@@@@@@@@@@@@@@@@",
"###################",
"$$$$$$$$$$$$$$$$$$$",
"%%%%%%%%%%%%%%%%%%%",
"&&&&&&&&&&&&&&&&&&&",
"******=-;>>,'******",
"))))))!~~~~~!))))))",
"{{{{{{]^/((_:{{{{{{",
"<<<<<<[~~~~~[<<<<<<",
"}}}}}}|123345}}}}}}",
"6666666666666666666",
"7777777777777777777",
"8888888888888888888",
"9999999999999999999",
"0000000000000000000",
"aaaaaaaaaaaaaaaaaaa"};
