/* XPM */
static char * unshadeufcs_xpm[] = {
"19 19 36 1",
" 	c #E5EACD",
".	c #AEB78C",
"+	c #ABB389",
"@	c #A9B187",
"#	c #A7AF85",
"$	c #A5AD82",
"%	c #A3AC80",
"&	c #A1AA7E",
"*	c #9FA87C",
"=	c #A4AC82",
"-	c #B7BD9C",
";	c #BBC2A3",
">	c #B7BE9D",
",	c #A4AD83",
"'	c #9DA67A",
")	c #B5BC9B",
"!	c #000000",
"~	c #B6BD9C",
"{	c #9CA477",
"]	c #B9BF9F",
"^	c #BABFA0",
"/	c #9AA275",
"(	c #B3B997",
"_	c #B4BA98",
":	c #98A073",
"<	c #9DA47A",
"[	c #B1B796",
"}	c #B6BC9C",
"|	c #B2B897",
"1	c #9EA57B",
"2	c #969E71",
"3	c #949D6F",
"4	c #929B6C",
"5	c #90996A",
"6	c #8E9768",
"7	c #ADB58D",
"                   ",
"...................",
"+++++++++++++++++++",
"@@@@@@@@@@@@@@@@@@@",
"###################",
"$$$$$$$$$$$$$$$$$$$",
"%%%%%%%%%%%%%%%%%%%",
"&&&&&&&&&&&&&&&&&&&",
"*******=-;>,*******",
"''''''')!!!~'''''''",
"{{{{{{{]!!!^{{{{{{{",
"///////(!!!_///////",
":::::::<[}|1:::::::",
"2222222222222222222",
"3333333333333333333",
"4444444444444444444",
"5555555555555555555",
"6666666666666666666",
"7777777777777777777"};
