/* XPM */
static char * minufcs_xpm[] = {
"21 21 6 1",
" 	c #303D68",
".	c #4896AC",
"+	c #7A96AB",
"@	c #ADBC5B",
"#	c #C5FF9F",
"$	c #F7FF9E",
"                     ",
"                     ",
"                     ",
"                     ",
"   ......            ",
"   .++++.+           ",
"   .+   .+           ",
"   .+   .+           ",
"   .+   .+           ",
"   .+   .+           ",
"   .+   .+           ",
"   .+   .+           ",
"   .+ @@#$@@@@@@@@@  ",
"   .+ @ .+        @  ",
"   .+ @ .+        @  ",
"   .+ @@#$@@@@@@@@@  ",
"   .+   .+           ",
".....................",
"+++++++++++++++++++++",
"                     ",
"                     "};
