/* XPM */
static char * selected_xpm[] = {
"16 16 70 1",
" 	c None",
".	c #8374B7",
"+	c #8474B7",
"@	c #8676BA",
"#	c #8878BD",
"$	c #8B7AC0",
"%	c #8D7CC4",
"&	c #8F7EC7",
"*	c #9280CA",
"=	c #9482CD",
"-	c #9684D1",
";	c #9986D4",
">	c #B39EF8",
",	c #B19CF6",
"'	c #AE99F1",
")	c #AA96EC",
"!	c #A793E7",
"~	c #A390E2",
"{	c #A08DDE",
"]	c #9C8AD9",
"^	c #9A88D6",
"/	c #8575B9",
"(	c #AA96ED",
"_	c #A793E8",
":	c #A390E3",
"<	c #9D8AD9",
"[	c #9987D4",
"}	c #8777BB",
"|	c #B29CF7",
"1	c #AE99F2",
"2	c #AB96ED",
"3	c #A490E3",
"4	c #A08DDF",
"5	c #9D8ADA",
"6	c #9987D5",
"7	c #9684D0",
"8	c #9E8BDB",
"9	c #8978BE",
"0	c #AF9AF2",
"a	c #AB97ED",
"b	c #A894E9",
"c	c #A491E4",
"d	c #A18DDF",
"e	c #9A87D5",
"f	c #9381CC",
"g	c #8A7AC0",
"h	c #AB97EE",
"i	c #A18EDF",
"j	c #9785D1",
"k	c #9382CC",
"l	c #907EC7",
"m	c #A28EE1",
"n	c #8C7BC3",
"o	c #A591E5",
"p	c #A18EE0",
"q	c #9382CD",
"r	c #907FC8",
"s	c #8C7CC3",
"t	c #8E7DC5",
"u	c #A28EE0",
"v	c #9E8BDC",
"w	c #9B88D7",
"x	c #9785D2",
"y	c #8D7CC3",
"z	c #8979BF",
"A	c #A592E6",
"B	c #9281CB",
"C	c #9583CE",
"D	c #9C89D8",
"E	c #A38FE2",
"                ",
"                ",
"                ",
"                ",
"     .+@#$%&*=-;",
"     .>>,')!~{]^",
"     />,'(_:{<[]",
"     }|12_345678",
"     90abcd5e-f{",
"     ghbci8^jklm",
"     nbop8^jqrs3",
"     touvwx=ryzA",
"     rBCj6D8{Eo_",
"                ",
"                ",
"                "};
