/* XPM */
static char * closeufcs_xpm[] = {
"19 19 53 1",
" 	c #FEFDFC",
".	c #FDFCFB",
"+	c #FCFBFA",
"@	c #575757",
"#	c #FDFCFC",
"$	c #FEFDFD",
"%	c #FBFAF9",
"&	c #575756",
"*	c #FDFDFD",
"=	c #FAF9F8",
"-	c #F9F8F7",
";	c #575656",
">	c #F8F7F6",
",	c #565656",
"'	c #FCFCFB",
")	c #000000",
"!	c #F7F6F5",
"~	c #FCFBFB",
"{	c #F6F5F4",
"]	c #FAFAF9",
"^	c #FBFBFB",
"/	c #E4E3E2",
"(	c #525252",
"_	c #F4F4F3",
":	c #F0EFEF",
"<	c #E3E2E1",
"[	c #E6E5E4",
"}	c #535352",
"|	c #F5F5F4",
"1	c #E7E6E5",
"2	c #E9E8E7",
"3	c #535353",
"4	c #F6F5F5",
"5	c #E8E7E6",
"6	c #F2F2F1",
"7	c #F3F2F2",
"8	c #F6F6F5",
"9	c #EBEAE9",
"0	c #545453",
"a	c #F7F7F6",
"b	c #EDECEB",
"c	c #545454",
"d	c #F8F7F7",
"e	c #F8F8F7",
"f	c #F0EFEE",
"g	c #555454",
"h	c #F5F4F3",
"i	c #F9F9F8",
"j	c #F9F8F8",
"k	c #555554",
"l	c #F2F1F0",
"m	c #555555",
"n	c #F4F3F2",
"                   ",
" ...  ...    ....  ",
"++@@@@@@@@@@@@@@@++",
"+@#$$$$$$$$$$$$$#@+",
"%&*%%%=%%%%%%%%%*@%",
"-;#-------------#;-",
"-;#-------------#;-",
">,'>>>>))>))>>>>',>",
"!,~!!!!))!))!!!!~,!",
"!,~!{{{]])]]{{!{^,{",
"/(_////)):))////_(<",
"[}|[[[1))[))1111|}[",
"2342555675662222832",
"90a9999999999999a09",
"bcdbbbbbbbbbbbbbecb",
"fghiijjijjjiiijihkf",
"llmmmmmmmmmmmmmmmll",
"hhhnnnnhnhnhhnnnnhn",
"{{!{{{!{{{!{!{!{!!!"};
