/* XPM */
static char * stickufcs_xpm[] = {
"19 19 28 1",
" 	c #FEFDFC",
".	c #FDFCFB",
"+	c #FCFBFA",
"@	c #FBFAF9",
"#	c #FAF9F8",
"$	c #F9F8F7",
"%	c #F8F7F6",
"&	c #323131",
"*	c #F7F6F5",
"=	c #313131",
"-	c #F6F5F4",
";	c #E4E3E2",
">	c #2E2D2D",
",	c #E3E2E1",
"'	c #E6E5E4",
")	c #E7E6E5",
"!	c #2E2E2E",
"~	c #E9E8E7",
"{	c #E8E7E6",
"]	c #F3F2F2",
"^	c #F4F3F2",
"/	c #EBEAE9",
"(	c #EDECEB",
"_	c #EEEDEC",
":	c #F0EFEE",
"<	c #EFEEED",
"[	c #F2F1F0",
"}	c #F5F4F3",
"                   ",
" ...  ...    ....  ",
"+++++++++++++++++++",
"+++++++++++++++++++",
"@#@@@@#@@@@@@@@@@@@",
"$$$$$$$$$$$$$$$$$$$",
"$$$$$$$$$$$$$$$$$$$",
"%%%%%%%&&&&&%%%%%%%",
"*******=***=*******",
"****---=---=--*----",
";;;;;;;>;;;>;;;;;;,",
"'''''')!!!!!))))'''",
"~~{~{{{]^]]]~~~~~~~",
"///////////////////",
"((((((((((((((((__(",
":<<::<<:<<<:::<:<::",
"[[[[[[[[[[[[[[[[[[[",
"}}}^^^^}^}^}}^^^^}^",
"--*---*---*-*-*-***"};
