/* XPM */
static char * shadeufcs_xpm[] = {
"19 19 17 1",
" 	c #75806E",
".	c #778170",
"+	c #798372",
"@	c #7B8574",
"#	c #7D8776",
"$	c #7F8979",
"%	c #838C7C",
"&	c #000000",
"*	c #848E7E",
"=	c #868F7F",
"-	c #889181",
";	c #8B9485",
">	c #929B8D",
",	c #9FA69A",
"'	c #AFB5AA",
")	c #A7AEA2",
"!	c #879080",
"                   ",
"                   ",
"                   ",
"                   ",
"...................",
"+++++++++++++++++++",
"@@@@@@@@@@@@@@@@@@@",
"###################",
"$$$$$$$$$$$$$$$$$$$",
"%%%%%%%%%&%%%%%%%%%",
"********&*&********",
"===================",
"-------------------",
";;;;;;;;;;;;;;;;;;;",
">>>>>>>>>>>>>>>>>>>",
",,,,,,,,,,,,,,,,,,,",
"'''''''''''''''''''",
")))))))))))))))))))",
"!!!!!!!!!!!!!!!!!!!"};
