/* XPM */
static char * minfcs_xpm[] = {
"17 17 33 1",
" 	c #AF2D8F",
".	c #971A79",
"+	c #991C7B",
"@	c #9F2281",
"#	c #A22584",
"$	c #A12483",
"%	c #A02382",
"&	c #9A1D7C",
"*	c #A52887",
"=	c #444444",
"-	c #CA41B0",
";	c #DC43C3",
">	c #DD45C4",
",	c #A41C84",
"'	c #98207E",
")	c #D53CBE",
"!	c #9B187E",
"~	c #8B1B6F",
"{	c #CA33AE",
"]	c #8C126E",
"^	c #891974",
"/	c #C830B3",
"(	c #8A1073",
"_	c #E8CFE3",
":	c #871772",
"<	c #B631A1",
"[	c #881873",
"}	c #81116C",
"|	c #8D1D78",
"1	c #82126D",
"2	c #7F0F6A",
"3	c #8A1A75",
"4	c #5D0846",
"                 ",
".+@#$$$$$$$$$$%&.",
"+*=============*&",
"@=-;;;;;;;;;;;-=%",
"#=>,,,,,,,,,,,>=#",
"$=;,,,,,,,,,,,;=$",
"$=;,,,,,,,,,,,;=$",
"$=;,,,,,,,,,,,;=$",
"'=)!!!!!!!!!!!)='",
"~={]]]]]]]]]]]{=~",
"^=/(((_____(((/=^",
"^=/(((((((((((/=^",
"^=/(((((((((((/=^",
":=<///////////<=[",
"}|=============|1",
"2}:3^^^^^^^^^^[12",
"44444444444444444"};
