/* XPM */
static char * stickufcs_xpm[] = {
"17 17 10 1",
" 	c #8F2271",
".	c #79145E",
"+	c #BC89AE",
"@	c #701259",
"#	c #B788AC",
"$	c #630D4E",
"%	c #B186A6",
"&	c #620B51",
"*	c #B085A8",
"=	c #460635",
"                 ",
".................",
".................",
".................",
".................",
"........+........",
"........+........",
"........+........",
"@@@@@@@@#@@@@@@@@",
"$$$$$$$$%$$$$$$$$",
"&&&&&&&&*&&&&&&&&",
"&&&&&&&&*&&&&&&&&",
"&&&&&&&&&&&&&&&&&",
"&&&&&&&&&&&&&&&&&",
"&&&&&&&&&&&&&&&&&",
"&&&&&&&&&&&&&&&&&",
"================="};
