/* XPM */
static char * maxufcs_xpm[] = {
"19 19 127 2",
"  	c #E1E0CE",
". 	c #E6E5D5",
"+ 	c #E7E6D6",
"@ 	c #E9E8DA",
"# 	c #EAE9DB",
"$ 	c #E6E4D3",
"% 	c #E7E5D4",
"& 	c #EBE9DB",
"* 	c #CFCCAF",
"= 	c #E6E3D3",
"- 	c #EAE8DA",
"; 	c #CEC8AD",
"> 	c #EFECE1",
", 	c #EDEBDF",
"' 	c #E4E4D3",
") 	c #C7C5A6",
"! 	c #ECECDF",
"~ 	c #F7F7F0",
"{ 	c #F4F4EC",
"] 	c #F3F4EC",
"^ 	c #F6F6EF",
"/ 	c #E5E4D3",
"( 	c #C7C3A5",
"_ 	c #EAE9DA",
": 	c #E9E9DF",
"< 	c #E9E9DE",
"[ 	c #E9E8DE",
"} 	c #E8E7DE",
"| 	c #E8E7DD",
"1 	c #E7E7DC",
"2 	c #E7E5D6",
"3 	c #CAC7AA",
"4 	c #ECEADD",
"5 	c #DFDED4",
"6 	c #DFDED3",
"7 	c #DFDED2",
"8 	c #DEDDD2",
"9 	c #DEDDD1",
"0 	c #DDDDD2",
"a 	c #DCDCD1",
"b 	c #DDDCD1",
"c 	c #E4E2D2",
"d 	c #C5C0A2",
"e 	c #E9E7DA",
"f 	c #D2CFC4",
"g 	c #D2CFC3",
"h 	c #D2CFC2",
"i 	c #D0CEC2",
"j 	c #FFFFFF",
"k 	c #D0CEC1",
"l 	c #CFCEC1",
"m 	c #CFCEC0",
"n 	c #CFCDC0",
"o 	c #D8D7C3",
"p 	c #ADAB89",
"q 	c #DFDECD",
"r 	c #BDBBAA",
"s 	c #BBBAA9",
"t 	c #BBBAAA",
"u 	c #B9BAA8",
"v 	c #BAB8A9",
"w 	c #B9B8A8",
"x 	c #D6D5BF",
"y 	c #AAA682",
"z 	c #DDDCC9",
"A 	c #AFAD99",
"B 	c #ADAD99",
"C 	c #ADAC99",
"D 	c #ADAC98",
"E 	c #ADAB99",
"F 	c #ACAA98",
"G 	c #ACAA97",
"H 	c #DAD8C3",
"I 	c #B0AD89",
"J 	c #E1DFCD",
"K 	c #A6A592",
"L 	c #A6A591",
"M 	c #A6A590",
"N 	c #A6A490",
"O 	c #A4A390",
"P 	c #B7B492",
"Q 	c #E3E2D2",
"R 	c #9E9C8B",
"S 	c #9E9C8A",
"T 	c #9D9C8A",
"U 	c #9D9B8A",
"V 	c #9D9A89",
"W 	c #9C9A8A",
"X 	c #9C9A89",
"Y 	c #9B9A89",
"Z 	c #DFDDCB",
"` 	c #BAB797",
" .	c #E5E3D4",
"..	c #959482",
"+.	c #959382",
"@.	c #949382",
"#.	c #949381",
"$.	c #949281",
"%.	c #949280",
"&.	c #949180",
"*.	c #939180",
"=.	c #E1E0CF",
"-.	c #BEBC9D",
";.	c #E6E6D7",
">.	c #8D8B7B",
",.	c #8C8B7A",
"'.	c #8B8B7A",
").	c #8B8A79",
"!.	c #8B8979",
"~.	c #C5C1A5",
"{.	c #ECEADE",
"].	c #8C8B7D",
"^.	c #868475",
"/.	c #868474",
"(.	c #858375",
"_.	c #858374",
":.	c #858274",
"<.	c #858273",
"[.	c #8A897B",
"}.	c #EBEADD",
"|.	c #CFCEB2",
"1.	c #E9E7D8",
"2.	c #E9E8D9",
"3.	c #ECEADC",
"4.	c #ECEBDD",
"5.	c #EAE8D9",
"6.	c #E5E2D2",
"                                      ",
". . + @ # # # # # # # # # # # @ + . . ",
"$ % & * * * * * * * * * * * * * & % $ ",
"= - ; > , , , , , , , , , , , > ; - = ",
"' ) ! ~ { { { { { { { { { { ] ^ ! ) / ",
"/ ( _ : < < [ [ [ } } } | | 1 1 _ ( / ",
"2 3 4 5 6 6 7 8 8 8 8 9 0 a b b 4 3 2 ",
"c d e f g g h i i j k l k m m n e d c ",
"o p q r r s t s j s j u v w w w q p o ",
"x y z A A B B j C D E j F F G F z y x ",
"H I J K K L L M N N O O O O O O J I H ",
"z P Q R R R S S T T T U V W X Y Q P z ",
"Z `  .....+.+.@.#.$.#.$.%.&.*.*. .` Z ",
"=.-.;.>.>.>.>.,.,.,.,.'.'.).).!.;.-.=.",
"c ~.{.].^.^.^./.(._._.:.:.<.<.[.{.~.c ",
"= - ; > , , , , , , , , , , , > ; - = ",
". + }.|.|.|.|.|.|.|.|.|.|.|.|.|.}.+ . ",
"1.1.2.3.4.4.4.4.4.4.4.4.4.4.4.4 5.1.1.",
"6.6.6.6.6.6.6.6.6.6.6.6.6.6.6.6.6.6.6."};
