/* XPM */
static char * minfcs_xpm[] = {
"19 19 107 2",
"  	c #8F94B7",
". 	c #989CC1",
"+ 	c #999DC2",
"@ 	c #A0A4C7",
"# 	c #A2A6C9",
"$ 	c #9A9EC2",
"% 	c #9499BC",
"& 	c #959ABD",
"* 	c #A2A6C7",
"= 	c #565C8B",
"- 	c #969BBD",
"; 	c #A1A5C6",
"> 	c #555B89",
", 	c #AEB3D0",
"' 	c #A9AECD",
") 	c #959ABC",
"! 	c #979CBE",
"~ 	c #505683",
"{ 	c #ABAFCD",
"] 	c #9EA3C3",
"^ 	c #9DA2C2",
"/ 	c #989DBE",
"( 	c #979BBD",
"_ 	c #4E527F",
": 	c #A4A8C7",
"< 	c #888DAE",
"[ 	c #888CAE",
"} 	c #888BAE",
"| 	c #888BAD",
"1 	c #878BAD",
"2 	c #9A9FC0",
"3 	c #515785",
"4 	c #A7ABCA",
"5 	c #868BAC",
"6 	c #868BAB",
"7 	c #868AAB",
"8 	c #868AAA",
"9 	c #858AAB",
"0 	c #858AAA",
"a 	c #9297B7",
"b 	c #494E77",
"c 	c #9FA4C2",
"d 	c #7A7F9C",
"e 	c #7A7E9C",
"f 	c #797E9C",
"g 	c #797E9B",
"h 	c #797D9B",
"i 	c #7E839F",
"j 	c #353857",
"k 	c #8B90AB",
"l 	c #646780",
"m 	c #64677F",
"n 	c #63677F",
"o 	c #63667F",
"p 	c #787B96",
"q 	c #2F324D",
"r 	c #8588A3",
"s 	c #5B5D74",
"t 	c #5B5D73",
"u 	c #5A5D73",
"v 	c #FFFFFF",
"w 	c #5A5D72",
"x 	c #7F839F",
"y 	c #363857",
"z 	c #8C90AB",
"A 	c #5C5E75",
"B 	c #5B5E75",
"C 	c #868AA7",
"D 	c #3B3F61",
"E 	c #9397B3",
"F 	c #5D5F76",
"G 	c #5C5F76",
"H 	c #5C5F75",
"I 	c #5B5F75",
"J 	c #8A8EAC",
"K 	c #3F4367",
"L 	c #979BB8",
"M 	c #5B5E74",
"N 	c #8F92B3",
"O 	c #444971",
"P 	c #9C9FBE",
"Q 	c #5A5C74",
"R 	c #5A5C73",
"S 	c #595C73",
"T 	c #595C72",
"U 	c #9398BA",
"V 	c #4C517E",
"W 	c #A8ACCA",
"X 	c #64667B",
"Y 	c #61657A",
"Z 	c #9499BA",
"` 	c #9498BD",
" .	c #A1A5C7",
"..	c #55598B",
"+.	c #AEB2D1",
"@.	c #A9ADCD",
"#.	c #9599BD",
"$.	c #969AC0",
"%.	c #979BC1",
"&.	c #A4A7CA",
"*.	c #585D91",
"=.	c #9BA0C5",
"-.	c #9CA1C6",
";.	c #A3A8CB",
">.	c #A5AACC",
",.	c #9DA2C6",
"'.	c #9296BA",
"                                      ",
". . + @ # # # # # # # # # # # @ $ . . ",
"% & * = = = = = = = = = = = = = * - % ",
"% ; > , ' ' ' ' ' ' ' ' ' ' ' , > ; ) ",
"! ~ { ]                       ^ { ~ / ",
"( _ : < [ [ [ [ [ [ [ } | | 1 1 : _ ( ",
"2 3 4 5 6 6 6 6 7 7 7 8 9 0 0 0 4 3 2 ",
"a b c d e e e e f f g h g h h h c b a ",
"i j k l l l l l l m n n o o o o k j i ",
"p q r s t u u v u u u v w w w w r q p ",
"x y z A A A A A v A v A A B B B z y x ",
"C D E F G G H H H v H H H H H I E D C ",
"J K L M M M M M s s u u u u u u L K J ",
"N O P Q Q R R S S S S S S T T T P O N ",
"U V W X S S S S S S S S S T T Y W V Z ",
"`  ...+.@.@.@.@.@.@.@.@.@.@.@.+... .#.",
"$.%.&.*.*.*.*.*.*.*.*.*.*.*.*.*.&.. $.",
"=.=.-.;.>.>.>.>.>.>.>.>.>.>.>.;.,.=.=.",
"'.'.'.'.'.'.'.'.'.'.'.'.'.'.'.'.'.'.'."};
