/* XPM */
static char * minpr_xpm[] = {
"19 19 147 2",
"  	c #8F94B7",
". 	c #989CC1",
"+ 	c #999DC2",
"@ 	c #A0A4C7",
"# 	c #A2A6C9",
"$ 	c #9A9EC2",
"% 	c #9499BC",
"& 	c #959ABD",
"* 	c #A2A6C7",
"= 	c #565C8B",
"- 	c #969BBD",
"; 	c #A1A5C6",
"> 	c #555B89",
", 	c #AEB3D0",
"' 	c #A9AECD",
") 	c #959ABC",
"! 	c #979CBE",
"~ 	c #505683",
"{ 	c #ABAFCD",
"] 	c #CBCFE5",
"^ 	c #BEC2DE",
"/ 	c #BDC2DE",
"( 	c #BEC2DD",
"_ 	c #BDC2DD",
": 	c #C8CCE4",
"< 	c #989DBE",
"[ 	c #979BBD",
"} 	c #4E527F",
"| 	c #A4A8C7",
"1 	c #AFB3CE",
"2 	c #AFB2CE",
"3 	c #AEB2CE",
"4 	c #AEB2CC",
"5 	c #ADB0CC",
"6 	c #ACB0CC",
"7 	c #ACB0CB",
"8 	c #9A9FC0",
"9 	c #515785",
"0 	c #A7ABCA",
"a 	c #A3A7C3",
"b 	c #A3A7C2",
"c 	c #A3A6C2",
"d 	c #A2A6C2",
"e 	c #A3A6C1",
"f 	c #A2A6C1",
"g 	c #A1A6C1",
"h 	c #A0A5C1",
"i 	c #A1A4C0",
"j 	c #A1A4C1",
"k 	c #9297B7",
"l 	c #494E77",
"m 	c #9FA4C2",
"n 	c #8D92AE",
"o 	c #8E92AD",
"p 	c #8D92AD",
"q 	c #8D91AD",
"r 	c #8D92AC",
"s 	c #8D90AC",
"t 	c #8D91AC",
"u 	c #7E839F",
"v 	c #353857",
"w 	c #8B90AB",
"x 	c #70738B",
"y 	c #6F738B",
"z 	c #70728B",
"A 	c #6F728B",
"B 	c #6E728B",
"C 	c #6E728A",
"D 	c #6E718B",
"E 	c #6E718A",
"F 	c #6E7089",
"G 	c #6E7189",
"H 	c #787B96",
"I 	c #2F324D",
"J 	c #8588A3",
"K 	c #606278",
"L 	c #606177",
"M 	c #5F6177",
"N 	c #FFFFFF",
"O 	c #5E6177",
"P 	c #5E6176",
"Q 	c #5E6077",
"R 	c #5D6076",
"S 	c #7F839F",
"T 	c #363857",
"U 	c #8C90AB",
"V 	c #5A5C73",
"W 	c #595C73",
"X 	c #595C72",
"Y 	c #595B72",
"Z 	c #595B71",
"` 	c #585B71",
" .	c #868AA7",
"..	c #3B3F61",
"+.	c #9397B3",
"@.	c #54576F",
"#.	c #53566F",
"$.	c #53566E",
"%.	c #53566D",
"&.	c #53566C",
"*.	c #52556C",
"=.	c #8A8EAC",
"-.	c #3F4367",
";.	c #979BB8",
">.	c #4D4F66",
",.	c #4C4F66",
"'.	c #4C4E66",
").	c #4C4E65",
"!.	c #4C4D65",
"~.	c #4B4D65",
"{.	c #4B4D64",
"].	c #8F92B3",
"^.	c #444971",
"/.	c #9C9FBE",
"(.	c #474A63",
"_.	c #464962",
":.	c #454861",
"<.	c #454860",
"[.	c #454760",
"}.	c #9398BA",
"|.	c #4C517E",
"1.	c #A8ACCA",
"2.	c #4D5069",
"3.	c #42455F",
"4.	c #42455E",
"5.	c #41455F",
"6.	c #41455E",
"7.	c #41445E",
"8.	c #41445D",
"9.	c #4A4D67",
"0.	c #9499BA",
"a.	c #9498BD",
"b.	c #A1A5C7",
"c.	c #55598B",
"d.	c #AEB2D1",
"e.	c #A9ADCD",
"f.	c #9599BD",
"g.	c #969AC0",
"h.	c #979BC1",
"i.	c #A4A7CA",
"j.	c #585D91",
"k.	c #9BA0C5",
"l.	c #9CA1C6",
"m.	c #A3A8CB",
"n.	c #A5AACC",
"o.	c #9DA2C6",
"p.	c #9296BA",
"                                      ",
". . + @ # # # # # # # # # # # @ $ . . ",
"% & * = = = = = = = = = = = = = * - % ",
"% ; > , ' ' ' ' ' ' ' ' ' ' ' , > ; ) ",
"! ~ { ] ^ ^ ^ ^ ^ ^ / ( / _ _ : { ~ < ",
"[ } | 1 2 2 3 3 4 5 5 6 6 6 7 7 | } [ ",
"8 9 0 a a a b c d e f f g h i j 0 9 8 ",
"k l m n o p p p p q r s t s s s m l k ",
"u v w x x x y z A A B C D E F G w v u ",
"H I J K L M M N O P Q N R R R R J I H ",
"S T U V V V W X N Y N Y Z ` ` ` U T S ",
" ...+.@.#.$.%.%.%.N &.*.*.*.*.*.+... .",
"=.-.;.>.>.>.>.,.'.'.'.'.).!.~.{.;.-.=.",
"].^./.(.(._._._._._._.:.:.<.<.[./.^.].",
"}.|.1.2.3.3.3.4.5.6.6.7.7.8.8.9.1.|.0.",
"a.b.c.d.e.e.e.e.e.e.e.e.e.e.e.d.c.b.f.",
"g.h.i.j.j.j.j.j.j.j.j.j.j.j.j.j.i.. g.",
"k.k.l.m.n.n.n.n.n.n.n.n.n.n.n.m.o.k.k.",
"p.p.p.p.p.p.p.p.p.p.p.p.p.p.p.p.p.p.p."};
