/* XPM */
static char * closefcs_xpm[] = {
"21 21 157 2",
"  	c #FFFFFF",
". 	c #FEFEFE",
"+ 	c #FDFDFD",
"@ 	c #FCFCFC",
"# 	c #DADADA",
"$ 	c #D9D9D9",
"% 	c #D9D8D8",
"& 	c #D5D6D5",
"* 	c #D1D2D2",
"= 	c #CFD0CF",
"- 	c #CECECE",
"; 	c #CECECD",
"> 	c #CDCDCD",
", 	c #CECDCE",
"' 	c #CDCECE",
") 	c #CFCFCF",
"! 	c #D2D1D1",
"~ 	c #D6D6D5",
"{ 	c #D8D8D8",
"] 	c #DBDBDA",
"^ 	c #DCDBDC",
"/ 	c #DADAD9",
"( 	c #D4D5D5",
"_ 	c #CBCACB",
": 	c #C0C0C0",
"< 	c #BABABA",
"[ 	c #B8B9B9",
"} 	c #B7B8B7",
"| 	c #B8B8B8",
"1 	c #B8B7B8",
"2 	c #B9B9B9",
"3 	c #CBCBCB",
"4 	c #D5D5D5",
"5 	c #DCDCDC",
"6 	c #D8D8D9",
"7 	c #CCCCCC",
"8 	c #777777",
"9 	c #737173",
"0 	c #707071",
"a 	c #717071",
"b 	c #707170",
"c 	c #707070",
"d 	c #717373",
"e 	c #777877",
"f 	c #BABBBB",
"g 	c #CDCCCD",
"h 	c #DDDDDD",
"i 	c #DEDEDE",
"j 	c #D5D4D5",
"k 	c #C2C2C3",
"l 	c #797979",
"m 	c #C3C3C3",
"n 	c #BEBEBF",
"o 	c #747474",
"p 	c #747575",
"q 	c #BEBEBE",
"r 	c #DFDEDE",
"s 	c #D4D4D5",
"t 	c #BDBCBD",
"u 	c #757575",
"v 	c #F9F9F9",
"w 	c #BDBCBC",
"x 	c #DFDFDF",
"y 	c #E0E0E0",
"z 	c #D5D6D6",
"A 	c #F1F1F0",
"B 	c #F0F0F0",
"C 	c #F1F0F1",
"D 	c #F2F2F3",
"E 	c #F2F1F1",
"F 	c #F2F3F2",
"G 	c #F3F2F3",
"H 	c #F1F1F1",
"I 	c #D6D7D6",
"J 	c #E1E1E1",
"K 	c #D7D7D7",
"L 	c #BEBFBE",
"M 	c #E8E8E8",
"N 	c #EBEBEB",
"O 	c #9A0808",
"P 	c #BFBFBF",
"Q 	c #D8D7D7",
"R 	c #E1E2E2",
"S 	c #E3E3E3",
"T 	c #C0C0BF",
"U 	c #DFE0DF",
"V 	c #DFE0E0",
"W 	c #E4E4E4",
"X 	c #E4E5E4",
"Y 	c #D9D9DA",
"Z 	c #C1C2C1",
"` 	c #7B7B7B",
" .	c #E7E7E7",
"..	c #DAD9D9",
"+.	c #E5E5E4",
"@.	c #E5E5E5",
"#.	c #C2C2C2",
"$.	c #D6D6D6",
"%.	c #E6E6E6",
"&.	c #DBDBDB",
"*.	c #7C7C7C",
"=.	c #C6C7C7",
"-.	c #C7C6C7",
";.	c #CFCFCE",
">.	c #DCDDDC",
",.	c #CECFCF",
"'.	c #C7C7C7",
").	c #C6C7C6",
"!.	c #E6E6E7",
"~.	c #E8E7E7",
"{.	c #C4C4C3",
"].	c #7E7E7F",
"^.	c #BEBFBF",
"/.	c #C0C1C1",
"(.	c #C7C7C8",
"_.	c #C3C2C2",
":.	c #C7C8C7",
"<.	c #C0C1C0",
"[.	c #7F7F7F",
"}.	c #C3C3C4",
"|.	c #E9E9E8",
"1.	c #C5C5C4",
"2.	c #B6B5B6",
"3.	c #B6B5B5",
"4.	c #B6B6B6",
"5.	c #B5B5B5",
"6.	c #B5B6B6",
"7.	c #B5B6B5",
"8.	c #C5C5C5",
"9.	c #E9E9E9",
"0.	c #ECEBEB",
"a.	c #E1E2E1",
"b.	c #C9C9C9",
"c.	c #828283",
"d.	c #ADAEAD",
"e.	c #ADADAE",
"f.	c #ADADAD",
"g.	c #AEAEAD",
"h.	c #ADAEAE",
"i.	c #838383",
"j.	c #E2E1E2",
"k.	c #EBEBEC",
"l.	c #EEEEED",
"m.	c #E4E5E5",
"n.	c #D0D0D1",
"o.	c #8B8B8B",
"p.	c #D1D1D1",
"q.	c #EDEDED",
"r.	c #EFEFEF",
"s.	c #EAEAEA",
"t.	c #CACACA",
"u.	c #8C8C8C",
"v.	c #858585",
"w.	c #EEEEEE",
"x.	c #D2D2D2",
"y.	c #C8C8C8",
"z.	c #E2E2E2",
"      . + @ @ @ @ @ @ @ @ @ @ @ + .       ",
"# $ % & * = - ; > - , ; , ; ' ) ! ~ { # ] ",
"^ / ( _ : < [ } | 1 | | | | 2 < : 3 4 # 5 ",
"5 6 7 < 8 9 0 0 a 0 b c 0 0 a d e f g % h ",
"i j k l                           l m j h ",
"i 4 n o                           p q & r ",
"r s t u   v v v v v v v v v v v   u w 4 x ",
"y z q 8   A B C D D E F G H C C   8 q I y ",
"J K L 8   M M N O O H O O N M M   e P Q R ",
"S { T l   U V W O O O O O W U x   l : { S ",
"X Y Z `   K K $  .O O O  .$ K K   ` Z ..+.",
"@.# #.`   ) ) $.O O O O O $.) )   ` #.# @.",
"%.&.m *.  =.-.;.O O >.O O ,.'.).  *.m &.!.",
"~.h {.].  ^.n /.'.(._.:.(.<.q q   [.}.h ~.",
"|.i 1.[.  2.3.4.5.2.4.6.2.3.2.7.  [.8.i 9.",
"0.a.b.c.  d.e.f.g.f.f.d.f.f.f.h.  i.b.j.k.",
"l.m.n.o.                          o.p.@.q.",
"r.s.h t.u.v.v.v.v.v.v.v.v.v.v.v.u.t.h s.r.",
"B w.M h x.3 b.y.y.y.y.y.y.y.b.3 x.h M w.B ",
"B r.w.s.%.W z.z.z.z.z.z.z.z.z.W %.s.w.r.B ",
"B B B r.w.q.q.q.q.q.q.q.q.q.q.q.w.r.B B B "};
