/* XPM */
static char * stuckfcs_xpm[] = {
"21 21 177 2",
"  	c #FFFFFF",
". 	c #FEFEFE",
"+ 	c #FDFDFD",
"@ 	c #FCFCFC",
"# 	c #DADADA",
"$ 	c #D9D9D9",
"% 	c #D9D8D8",
"& 	c #D5D6D5",
"* 	c #D1D2D2",
"= 	c #CFD0CF",
"- 	c #CECECE",
"; 	c #CECECD",
"> 	c #CDCDCD",
", 	c #CECDCE",
"' 	c #CDCECE",
") 	c #CFCFCF",
"! 	c #D2D1D1",
"~ 	c #D6D6D5",
"{ 	c #D8D8D8",
"] 	c #DBDBDA",
"^ 	c #DCDBDC",
"/ 	c #DADAD9",
"( 	c #D4D5D5",
"_ 	c #CBCACB",
": 	c #C0C0C0",
"< 	c #BABABA",
"[ 	c #B8B9B9",
"} 	c #B7B8B7",
"| 	c #B8B8B8",
"1 	c #B8B7B8",
"2 	c #B9B9B9",
"3 	c #CBCBCB",
"4 	c #D5D5D5",
"5 	c #DCDCDC",
"6 	c #D8D8D9",
"7 	c #CCCCCC",
"8 	c #777777",
"9 	c #737173",
"0 	c #707071",
"a 	c #717071",
"b 	c #707170",
"c 	c #707070",
"d 	c #717373",
"e 	c #777877",
"f 	c #BABBBB",
"g 	c #CDCCCD",
"h 	c #DDDDDD",
"i 	c #DEDEDE",
"j 	c #D5D4D5",
"k 	c #C2C2C3",
"l 	c #797979",
"m 	c #C3C3C3",
"n 	c #BEBEBF",
"o 	c #747474",
"p 	c #747575",
"q 	c #BEBEBE",
"r 	c #DFDEDE",
"s 	c #D4D4D5",
"t 	c #BDBCBD",
"u 	c #757575",
"v 	c #F9F9F9",
"w 	c #FAFAFA",
"x 	c #E0B8B8",
"y 	c #B34646",
"z 	c #9D1010",
"A 	c #BDBCBC",
"B 	c #DFDFDF",
"C 	c #E0E0E0",
"D 	c #D5D6D6",
"E 	c #F1F1F0",
"F 	c #F2F2F2",
"G 	c #C37171",
"H 	c #9B0808",
"I 	c #B74A4A",
"J 	c #BA4B4B",
"K 	c #F3F2F3",
"L 	c #F1F0F1",
"M 	c #D6D7D6",
"N 	c #E1E1E1",
"O 	c #D7D7D7",
"P 	c #BEBFBE",
"Q 	c #E9E9E9",
"R 	c #D8B0B0",
"S 	c #B43C3C",
"T 	c #B94C4C",
"U 	c #B84C4C",
"V 	c #BFBFBF",
"W 	c #D8D7D7",
"X 	c #E1E2E2",
"Y 	c #E3E3E3",
"Z 	c #C0C0BF",
"` 	c #E3E4E3",
" .	c #B04343",
"..	c #B54747",
"+.	c #B64A4A",
"@.	c #B54949",
"#.	c #E4E5E4",
"$.	c #D9D9DA",
"%.	c #C1C2C1",
"&.	c #7B7B7B",
"*.	c #9D0F0F",
"=.	c #B54646",
"-.	c #B34747",
";.	c #B24646",
">.	c #DAD9D9",
",.	c #E5E5E4",
"'.	c #E5E5E5",
").	c #C2C2C2",
"!.	c #AE4242",
"~.	c #B24444",
"{.	c #B14545",
"].	c #B04444",
"^.	c #E6E6E6",
"/.	c #DBDBDB",
"(.	c #7C7C7C",
"_.	c #C9CACA",
":.	c #C8A0A0",
"<.	c #AF3737",
"[.	c #AF4343",
"}.	c #AE4241",
"|.	c #C9CAC9",
"1.	c #E6E6E7",
"2.	c #E8E7E7",
"3.	c #C4C4C3",
"4.	c #7E7E7F",
"5.	c #BFC0C0",
"6.	c #C6C6C7",
"7.	c #B86666",
"8.	c #B04242",
"9.	c #B04141",
"0.	c #C6C6C6",
"a.	c #7F7F7F",
"b.	c #C3C3C4",
"c.	c #E9E9E8",
"d.	c #C5C5C4",
"e.	c #B6B5B6",
"f.	c #B7B6B6",
"g.	c #C09898",
"h.	c #AB3F3F",
"i.	c #9C0F0F",
"j.	c #BFBEBE",
"k.	c #B7B6B7",
"l.	c #B5B6B5",
"m.	c #C5C5C5",
"n.	c #ECEBEB",
"o.	c #E1E2E1",
"p.	c #C9C9C9",
"q.	c #828283",
"r.	c #ADAEAD",
"s.	c #ADADAE",
"t.	c #AEAEAE",
"u.	c #B2B2B1",
"v.	c #B7B7B7",
"w.	c #B1B1B1",
"x.	c #ADADAD",
"y.	c #ADAEAE",
"z.	c #838383",
"A.	c #E2E1E2",
"B.	c #EBEBEC",
"C.	c #EEEEED",
"D.	c #E4E5E5",
"E.	c #D0D0D1",
"F.	c #8B8B8B",
"G.	c #D1D1D1",
"H.	c #EDEDED",
"I.	c #EFEFEF",
"J.	c #EAEAEA",
"K.	c #CACACA",
"L.	c #8C8C8C",
"M.	c #858585",
"N.	c #F0F0F0",
"O.	c #EEEEEE",
"P.	c #E8E8E8",
"Q.	c #D2D2D2",
"R.	c #C8C8C8",
"S.	c #E4E4E4",
"T.	c #E2E2E2",
"      . + @ @ @ @ @ @ @ @ @ @ @ + .       ",
"# $ % & * = - ; > - , ; , ; ' ) ! ~ { # ] ",
"^ / ( _ : < [ } | 1 | | | | 2 < : 3 4 # 5 ",
"5 6 7 < 8 9 0 0 a 0 b c 0 0 a d e f g % h ",
"i j k l                           l m j h ",
"i 4 n o                           p q & r ",
"r s t u   v v w x y z y x w v v   u A 4 B ",
"C D q 8   E F G H I J I H G K L   8 q M C ",
"N O P 8   Q R H S T U T S H R Q   e V W X ",
"Y { Z l   `  ...+.@.@.@.+... .Y   l : { Y ",
"#.$.%.&.  h *.=.-.;.;.;.-.=.*.h   &.%.>.,.",
"'.# ).&.  4 !.~.{.].].].{.~.!.4   &.).# '.",
"^./.m (.  _.:.H <.[.}.[.<.H :.|.  (.m /.1.",
"2.h 3.4.  5.6.7.H 8.9.8.H 7.0.V   a.b.h 2.",
"c.i d.a.  e.f.V g.h.i.h.g.j.k.l.  a.m.i Q ",
"n.o.p.q.  r.s.t.u.v.2 } w.t.x.y.  z.p.A.B.",
"C.D.E.F.                          F.G.'.H.",
"I.J.h K.L.M.M.M.M.M.M.M.M.M.M.M.L.K.h J.I.",
"N.O.P.h Q.3 p.R.R.R.R.R.R.R.p.3 Q.h P.O.N.",
"N.I.O.J.^.S.T.T.T.T.T.T.T.T.T.S.^.J.O.I.N.",
"N.N.N.I.O.H.H.H.H.H.H.H.H.H.H.H.O.I.N.N.N."};
