/* XPM */
static char * closefcs_xpm[] = {
"19 19 62 1",
" 	c #F4F4F4",
".	c #F2F2F2",
"+	c #E7E7E7",
"@	c #E5E5E5",
"#	c #E4E4E4",
"$	c #F1F1F1",
"%	c #DCDCDC",
"&	c #B1B1B1",
"*	c #B3B3B3",
"=	c #AEAEAE",
"-	c #494949",
";	c #69CAE9",
">	c #6DCDEB",
",	c #6ECDEB",
"'	c #6ECEEB",
")	c #74D4EB",
"!	c #75D4EC",
"~	c #75D5EB",
"{	c #74D4EC",
"]	c #75D5EC",
"^	c #76D5EC",
"/	c #76D6EB",
"(	c #76D5EB",
"_	c #7DDBEC",
":	c #7CDBEC",
"<	c #7DDCEC",
"[	c #7CDCEC",
"}	c #84E2EE",
"|	c #84E1EE",
"1	c #85E2EE",
"2	c #8BE7EE",
"3	c #8BE8EE",
"4	c #8CE7EE",
"5	c #8CE8EE",
"6	c #8CE9EE",
"7	c #8FEAEE",
"8	c #72D3EB",
"9	c #71D2EB",
"0	c #72D2EB",
"a	c #73D2EB",
"b	c #73D4EB",
"c	c #79D9EC",
"d	c #7AD9EC",
"e	c #7BD9EC",
"f	c #7BDBED",
"g	c #7BDBEC",
"h	c #7FDFED",
"i	c #80E0ED",
"j	c #81E0ED",
"k	c #81DFED",
"l	c #82E0ED",
"m	c #87E5ED",
"n	c #88E6ED",
"o	c #87E6ED",
"p	c #89E6ED",
"q	c #8AE6ED",
"r	c #8FEBEE",
"s	c #90EBEE",
"t	c #90EAEE",
"u	c #96EEEF",
"v	c #96EFEF",
"w	c #97EFEF",
"                   ",
"                   ",
"                   ",
"  .+@##########+$  ",
" .%&&*********&&%$ ",
" +&=-----------=&+ ",
" @&-;;;;;;;;;;;-&# ",
" #*->>>>>>,''''-*# ",
" #*-)!~{~]]^/^(-*# ",
" #*-_:::<:<<[<<-*# ",
" #*-}}|}}}1}}}|-*# ",
" #*-22334455556-*# ",
" #*-77777777777-*# ",
" #*-889009a8bbb-*# ",
" #*-ccdddddedfg-*# ",
" #*-hiijjjkjllj-*# ",
" #*-mmnoopqnpqp-*# ",
" #*-77777rr7srt-*# ",
" #*-uuvvuwwwwww-*# "};
