/* XPM */
static char * menuiconfcs_xpm[] = {
"19 19 2 1",
" 	c #F4F4F4",
".	c #707070",
"                   ",
"                   ",
"                   ",
"                   ",
"                   ",
"                   ",
"                   ",
"                   ",
"                   ",
"      .......      ",
"       .......     ",
"                   ",
"                   ",
"                   ",
"                   ",
"                   ",
"                   ",
"                   ",
"                   "};
