/* XPM */
static char * closeufcs_xpm[] = {
"19 19 6 1",
" 	c #FFFFF6",
".	c #ECE8DF",
"+	c #D5D0C6",
"@	c #797872",
"#	c #FFFFFF",
"$	c #C9C9C9",
"                   ",
"..................+",
"@@@@@@@@@@@@@@@@@#+",
"@###############@#+",
"@#.............$@#+",
"@#.............$@#+",
"@#.............$@#+",
"@#.............$@#+",
"@#.............$@#+",
"@#.............$@#+",
"@#.............$@#+",
"@#.............$@#+",
"@#.............$@#+",
"@#.............$@#+",
"@#$$$$$$$$$$$$$$@#+",
"@@@@@@@@@@@@@@@@@#+",
"##################+",
"..................+",
"+++++++++++++++++++"};
