/* XPM */
static char * maxfcs_xpm[] = {
"18 18 95 2",
"  	c #F9FAFA",
". 	c #F9F9FA",
"+ 	c #F8F9F9",
"@ 	c #F7F9F9",
"# 	c #F7F8F8",
"$ 	c #919292",
"% 	c #F6F8F8",
"& 	c #F5F7F7",
"* 	c #909191",
"= 	c #F1E8E6",
"- 	c #F4F6F7",
"; 	c #F4F6F6",
"> 	c #8F9191",
", 	c #F0E4E4",
"' 	c #EFE4E4",
") 	c #EDE4E4",
"! 	c #F3F6F6",
"~ 	c #F2F5F6",
"{ 	c #8E9091",
"] 	c #EAE2E3",
"^ 	c #E9E2E3",
"/ 	c #E9E2E1",
"( 	c #8E9090",
"_ 	c #F2F5F5",
": 	c #F1F5F5",
"< 	c #F1F4F5",
"[ 	c #8D8F90",
"} 	c #E6E1E0",
"| 	c #676261",
"1 	c #E5E1E0",
"2 	c #E5E0E0",
"3 	c #E4E0E0",
"4 	c #F0F4F4",
"5 	c #8D8F8F",
"6 	c #E1DFDE",
"7 	c #625F5F",
"8 	c #E1DEDE",
"9 	c #EFF3F4",
"0 	c #EEF3F3",
"a 	c #8C8F8F",
"b 	c #DEDDDC",
"c 	c #DEDCDC",
"d 	c #5E5D5D",
"e 	c #DDDCDC",
"f 	c #5E5C5D",
"g 	c #DDDBDB",
"h 	c #8C8E8F",
"i 	c #EEF2F3",
"j 	c #EDF2F2",
"k 	c #8B8E8E",
"l 	c #DADAD9",
"m 	c #5B5B5A",
"n 	c #D9DAD9",
"o 	c #D9D9D9",
"p 	c #5A5A5A",
"q 	c #ECF1F2",
"r 	c #EBF1F1",
"s 	c #8B8D8D",
"t 	c #D6D7D7",
"u 	c #575858",
"v 	c #D6D7D6",
"w 	c #575857",
"x 	c #D5D7D6",
"y 	c #EAF0F1",
"z 	c #8A8D8D",
"A 	c #D3D4D5",
"B 	c #545555",
"C 	c #D3D4D4",
"D 	c #D2D4D4",
"E 	c #898D8D",
"F 	c #E9F0F0",
"G 	c #E9EFF0",
"H 	c #E8EFF0",
"I 	c #CFD2D3",
"J 	c #505354",
"K 	c #4F5354",
"L 	c #CED2D3",
"M 	c #CED2D2",
"N 	c #E8EFEF",
"O 	c #E7EEEF",
"P 	c #888C8D",
"Q 	c #CBD0D1",
"R 	c #CAD0D0",
"S 	c #CACFD0",
"T 	c #E6EDEE",
"U 	c #878B8C",
"V 	c #C8CDCE",
"W 	c #E5EDEE",
"X 	c #E4EDED",
"Y 	c #E4ECED",
"Z 	c #878B8B",
"` 	c #E3ECEC",
" .	c #E3EBEC",
"..	c #E2EBEC",
"+.	c #E1EBEC",
"                                . . ",
"+ + + + + + + + + + + + + + + + @ @ ",
"# # # $ $ $ $ $ $ $ $ $ $ $ $ % % % ",
"& & * = = = = = = = = = = = = * & & ",
"- ; > , ' ' ' ' ' ) ) ) ) ) ) > ! ! ",
"~ ~ { ] ] ] ] ] ^ / / / / / / ( _ _ ",
": < [ } } } | | | | | | 1 2 3 [ 4 4 ",
"4 4 5 6 6 6 7 7 7 7 7 7 8 8 8 5 9 9 ",
"0 0 a b c c d e e e e f g g g h i i ",
"j j k l l l m l l n o p o o o k q q ",
"r r s t t t u v v v v w v x x s r r ",
"y y z A A A B C C C C B C D D E F F ",
"G H E I I I J K K K K K L L M E N N ",
"O O P Q Q Q Q Q Q Q Q R R R S P O O ",
"T T U V V V V V V V V V V V V U W W ",
"X Y Y Z Z Z Z Z Z Z Z Z Z Z Z Y Y Y ",
"` ` ` ` ` `  . . . . ...............",
"+.+.+.+.+.+.+.+.+.+.+.+.+.+.+.+.+.+."};
