/* XPM */
static char * minpr_xpm[] = {
"19 19 3 1",
" 	c #DFE58E",
".	c #D1D58B",
"+	c #9EA258",
"                   ",
"                   ",
"                   ",
"                   ",
"                   ",
"                   ",
"                   ",
"                   ",
"                   ",
"                   ",
"...................",
"...................",
"......+++++++......",
"......+++++++......",
"...................",
"...................",
"...................",
"...................",
"..................."};
