/* XPM */
static char * unshadefcs_xpm[] = {
"19 19 4 1",
" 	c #DFE58E",
".	c #60660F",
"+	c #D1D58B",
"@	c #52560C",
"                   ",
"                   ",
"                   ",
"                   ",
"                   ",
"                   ",
"                   ",
"                   ",
"                   ",
"        ...        ",
"++++++++@@@++++++++",
"+++++++++++++++++++",
"+++++++++++++++++++",
"+++++++++++++++++++",
"+++++++++++++++++++",
"+++++++++++++++++++",
"+++++++++++++++++++",
"+++++++++++++++++++",
"+++++++++++++++++++"};
