/* XPM */
static char * minfcs_xpm[] = {
"21 21 159 2",
"  	c #000000",
". 	c #737373",
"+ 	c #464646",
"@ 	c #464645",
"# 	c #444444",
"$ 	c #434242",
"% 	c #404141",
"& 	c #3F3F3F",
"* 	c #3D3E3D",
"= 	c #3B3C3C",
"- 	c #3A3A3A",
"; 	c #383839",
"> 	c #373737",
", 	c #353636",
"' 	c #343434",
") 	c #434344",
"! 	c #8A8A8A",
"~ 	c #898989",
"{ 	c #888888",
"] 	c #878787",
"^ 	c #868686",
"/ 	c #858585",
"( 	c #303030",
"_ 	c #404040",
": 	c #787878",
"< 	c #777877",
"[ 	c #777777",
"} 	c #767776",
"| 	c #767676",
"1 	c #757575",
"2 	c #767675",
"3 	c #757574",
"4 	c #747574",
"5 	c #737374",
"6 	c #747374",
"7 	c #2D2C2C",
"8 	c #3D3D3D",
"9 	c #666666",
"0 	c #666565",
"a 	c #656565",
"b 	c #646464",
"c 	c #646364",
"d 	c #636463",
"e 	c #636364",
"f 	c #626262",
"g 	c #616161",
"h 	c #292929",
"i 	c #020202",
"j 	c #747474",
"k 	c #393939",
"l 	c #545454",
"m 	c #535253",
"n 	c #535353",
"o 	c #525252",
"p 	c #525251",
"q 	c #515151",
"r 	c #505050",
"s 	c #504F50",
"t 	c #252525",
"u 	c #060606",
"v 	c #353536",
"w 	c #414242",
"x 	c #414141",
"y 	c #404140",
"z 	c #414040",
"A 	c #3F4040",
"B 	c #3F403F",
"C 	c #3E3E3E",
"D 	c #3F3E3E",
"E 	c #222122",
"F 	c #0E0E0E",
"G 	c #0D0E0D",
"H 	c #7A7B7A",
"I 	c #313232",
"J 	c #2F302F",
"K 	c #302F2F",
"L 	c #2F2F2F",
"M 	c #2E2E2E",
"N 	c #2E2F2E",
"O 	c #2D2D2D",
"P 	c #2C2D2C",
"Q 	c #2B2B2B",
"R 	c #1E1E1E",
"S 	c #7B7A7B",
"T 	c #0D0E0E",
"U 	c #191919",
"V 	c #818181",
"W 	c #2D2E2E",
"X 	c #1E1D1E",
"Y 	c #1D1D1D",
"Z 	c #1D1C1D",
"` 	c #1C1C1C",
" .	c #1C1B1B",
"..	c #1B1B1B",
"+.	c #1B1B1A",
"@.	c #191A1A",
"#.	c #1A1A1A",
"$.	c #2A2A2A",
"%.	c #0C0D0D",
"&.	c #0C0B0B",
"*.	c #0B0B0B",
"=.	c #0A0B0A",
"-.	c #0A0A0A",
";.	c #0A0909",
">.	c #090909",
",.	c #080908",
"'.	c #090809",
").	c #070807",
"!.	c #161717",
"~.	c #8C8C8C",
"{.	c #262626",
"].	c #878888",
"^.	c #070707",
"/.	c #131313",
"(.	c #2F3030",
"_.	c #30302F",
":.	c #8D8D8D",
"<.	c #232323",
"[.	c #080808",
"}.	c #060506",
"|.	c #050505",
"1.	c #0F0F0F",
"2.	c #2F2E2E",
"3.	c #2E2F2F",
"4.	c #8D8D8C",
"5.	c #1F201F",
"6.	c #070606",
"7.	c #040405",
"8.	c #040404",
"9.	c #0C0C0B",
"0.	c #8D8C8D",
"a.	c #2B2B2C",
"b.	c #2B2C2B",
"c.	c #8B8B8B",
"d.	c #1B1B1C",
"e.	c #191918",
"f.	c #171717",
"g.	c #151516",
"h.	c #141414",
"i.	c #121212",
"j.	c #111010",
"k.	c #0E0F0F",
"l.	c #0D0D0D",
"m.	c #272727",
"n.	c #222323",
"o.	c #232223",
"p.	c #232222",
"q.	c #232322",
"r.	c #1F1F1F",
"s.	c #1E1F1F",
"t.	c #1E1E1F",
"u.	c #1F1E1E",
"v.	c #1F1E1F",
"w.	c #1F1F1E",
"x.	c #1E1F1E",
"y.	c #1A1A1B",
"z.	c #1A1B1A",
"A.	c #1B1A1A",
"B.	c #1B1A1B",
"                                          ",
"                                          ",
"                                          ",
"        . . . . . . . . . . . . .         ",
"      . + @ # $ % & * = - ; > , ' .       ",
"      . ) ! ~ ~ { { { ] ] ^ ^ / ( .       ",
"      . _ : < [ } | 1 2 3 4 5 6 7 .       ",
"      . 8 9 0 a b b c d e f f g h .       ",
"i i i j k l l m n o o p q r s r t j i i i ",
"u u u | v $ w x y z A B C D C C E | u u u ",
"F G F H I ( J K L M N O O P 7 Q R S F T F ",
"U U U V W X R Y Y Z `  ...+.@.#.+.V U U U ",
"t t t ] $.%.&.&.*.=.-.;.>.,.'.).!.] t t t ",
"O O O ~.{.-.-.>.{ ].] ^ ^ ^.u u /.~.O O O ",
"( (._.:.<.>.>.[.[.^.^.^.u }.|.|.1.:.L K _.",
"M 2.3.4.5.[.[.^.^.6.u |.|.7.8.8.9.0.N 3.N ",
"Q a.b.c.d.#.e.f.g.h.i.j.k.l.&.-.[.c.Q Q b.",
"m.m.m.m.{ { { { { { { { { { { { { m.m.m.m.",
"n.<.o.o.n.p.<.o.n.<.o.o.<.n.n.<.n.q.q.<.<.",
"r.s.t.u.v.s.r.R r.R s.v.w.u.s.x.x.R w.x.r.",
"y.z.A.#.#.B.A.z.y.#.A.#.y.A.#.A.#.z.y.A.#."};
