/* XPM */
static char * minufcs_xpm[] = {
"21 21 153 2",
"  	c #000000",
". 	c #4C4C4C",
"+ 	c #464646",
"@ 	c #464645",
"# 	c #444444",
"$ 	c #434242",
"% 	c #404141",
"& 	c #3F3F3F",
"* 	c #3D3E3D",
"= 	c #3B3C3C",
"- 	c #3A3A3A",
"; 	c #383839",
"> 	c #373737",
", 	c #353636",
"' 	c #343434",
") 	c #434344",
"! 	c #424242",
"~ 	c #404040",
"{ 	c #3D3D3D",
"] 	c #3B3B3B",
"^ 	c #383838",
"/ 	c #373736",
"( 	c #353535",
"_ 	c #333434",
": 	c #323231",
"< 	c #303030",
"[ 	c #3F3E3E",
"} 	c #3D3D3C",
"| 	c #3C3B3B",
"1 	c #3A393A",
"2 	c #373838",
"3 	c #363637",
"4 	c #353534",
"5 	c #333333",
"6 	c #313231",
"7 	c #2E2F2E",
"8 	c #2D2C2C",
"9 	c #3B3B3A",
"0 	c #393939",
"a 	c #383737",
"b 	c #363636",
"c 	c #353434",
"d 	c #333233",
"e 	c #313031",
"f 	c #2D2E2E",
"g 	c #2C2C2C",
"h 	c #2B2A2A",
"i 	c #292929",
"j 	c #010101",
"k 	c #4D4D4D",
"l 	c #343334",
"m 	c #323232",
"n 	c #303031",
"o 	c #2F2F2F",
"p 	c #2E2E2D",
"q 	c #2A2A2A",
"r 	c #282928",
"s 	c #272727",
"t 	c #252525",
"u 	c #030303",
"v 	c #4E4E4E",
"w 	c #353536",
"x 	c #343333",
"y 	c #323131",
"z 	c #2E2E2F",
"A 	c #2D2D2D",
"B 	c #2B2B2B",
"C 	c #292A29",
"D 	c #282828",
"E 	c #262726",
"F 	c #232323",
"G 	c #222122",
"H 	c #070707",
"I 	c #515151",
"J 	c #313232",
"K 	c #302F30",
"L 	c #2E2E2E",
"M 	c #2C2D2C",
"N 	c #2A2A29",
"O 	c #262626",
"P 	c #242524",
"Q 	c #222323",
"R 	c #222121",
"S 	c #1F1F1F",
"T 	c #1E1E1E",
"U 	c #0D0D0D",
"V 	c #555555",
"W 	c #2B2A2B",
"X 	c #272728",
"Y 	c #262526",
"Z 	c #242424",
"` 	c #232222",
" .	c #212120",
"..	c #1F201F",
"+.	c #1D1D1E",
"@.	c #1C1C1C",
"#.	c #1B1B1A",
"$.	c #131313",
"%.	c #595959",
"&.	c #242324",
"*.	c #222222",
"=.	c #202020",
"-.	c #1D1D1D",
";.	c #1C1B1B",
">.	c #1A1A1A",
",.	c #181918",
"'.	c #161717",
").	c #181818",
"!.	c #5D5D5D",
"~.	c #232423",
"{.	c #212122",
"].	c #6C6C6C",
"^.	c #6A6B6B",
"/.	c #696969",
"(.	c #676767",
"_.	c #656566",
":.	c #161616",
"<.	c #151515",
"[.	c #191919",
"}.	c #5E5E5E",
"|.	c #1F1F20",
"1.	c #1C1D1D",
"2.	c #1B1A1B",
"3.	c #151415",
"4.	c #121313",
"5.	c #111111",
"6.	c #0F0F0F",
"7.	c #191818",
"8.	c #181919",
"9.	c #5E5E5D",
"0.	c #1B1A1A",
"a.	c #181717",
"b.	c #151516",
"c.	c #131314",
"d.	c #131213",
"e.	c #101011",
"f.	c #0E0D0E",
"g.	c #0C0C0B",
"h.	c #5E5D5E",
"i.	c #171717",
"j.	c #5C5C5C",
"k.	c #1B1B1C",
"l.	c #191918",
"m.	c #141414",
"n.	c #121212",
"o.	c #111010",
"p.	c #0E0F0F",
"q.	c #0C0B0B",
"r.	c #0A0A0A",
"s.	c #080808",
"t.	c #5A5A5A",
"u.	c #101010",
"v.	c #0E0E0E",
"                                          ",
"                                          ",
"                                          ",
"        . . . . . . . . . . . . .         ",
"      . + @ # $ % & * = - ; > , ' .       ",
"      . ) ! ~ & { ] - ^ / ( _ : < .       ",
"      . ~ [ } | 1 2 3 4 5 6 < 7 8 .       ",
"      . { 9 0 a b c d e < f g h i .       ",
"j j j k 0 > b l m n o p g q r s t k j j j ",
"u u u v w x y < z A B C D E t F G v u u u ",
"H H H I J K L M B N D O P Q R S T I H H H ",
"U U U V f g W i X Y Z `  ...+.@.#.V U U U ",
"$.$.$.%.q i s t &.*.=.S -.;.>.,.'.%.$.$.$.",
").).).!.O t ~.{.].^./.(._.).:.<.$.!.).).).",
"[.[.[.}.F {.|.T 1.2.[.).:.3.4.5.6.}.[.[.[.",
").7.8.9...T @.0.[.a.b.c.d.e.6.f.g.h.,.8.,.",
"i.i.i.j.k.>.l.i.b.m.n.o.p.U q.r.s.j.i.i.i.",
"m.m.m.m.t.t.t.t.t.t.t.t.t.t.t.t.t.m.m.m.m.",
"n.n.n.n.n.n.n.n.n.n.n.n.n.n.n.n.n.n.n.n.n.",
"u.u.u.u.u.u.u.u.u.u.u.u.u.u.u.u.u.u.u.u.u.",
"v.v.v.v.v.v.v.v.v.v.v.v.v.v.v.v.v.v.v.v.v."};
