/* XPM */
static char * stickfcs_xpm[] = {
"21 21 164 2",
"  	c #000000",
". 	c #737373",
"+ 	c #464646",
"@ 	c #464645",
"# 	c #444444",
"$ 	c #434242",
"% 	c #404141",
"& 	c #3F3F3F",
"* 	c #3D3E3D",
"= 	c #3B3C3C",
"- 	c #3A3A3A",
"; 	c #383839",
"> 	c #373737",
", 	c #353636",
"' 	c #343434",
") 	c #434344",
"! 	c #8A8A8A",
"~ 	c #898989",
"{ 	c #888888",
"] 	c #878787",
"^ 	c #868686",
"/ 	c #858585",
"( 	c #303030",
"_ 	c #404040",
": 	c #787878",
"< 	c #777877",
"[ 	c #777777",
"} 	c #767776",
"| 	c #767676",
"1 	c #757575",
"2 	c #767675",
"3 	c #757574",
"4 	c #747574",
"5 	c #737374",
"6 	c #747374",
"7 	c #2D2C2C",
"8 	c #3D3D3D",
"9 	c #666666",
"0 	c #666565",
"a 	c #656565",
"b 	c #646464",
"c 	c #646364",
"d 	c #636463",
"e 	c #636364",
"f 	c #626262",
"g 	c #616161",
"h 	c #292929",
"i 	c #020202",
"j 	c #747474",
"k 	c #393939",
"l 	c #545454",
"m 	c #535253",
"n 	c #535353",
"o 	c #525252",
"p 	c #525251",
"q 	c #D0D0D0",
"r 	c #505050",
"s 	c #504F50",
"t 	c #252525",
"u 	c #060606",
"v 	c #353536",
"w 	c #414242",
"x 	c #414141",
"y 	c #404140",
"z 	c #414040",
"A 	c #3F4040",
"B 	c #BEBFBE",
"C 	c #BDBDBD",
"D 	c #BEBDBD",
"E 	c #3E3E3E",
"F 	c #222122",
"G 	c #0E0E0E",
"H 	c #0D0E0D",
"I 	c #7A7B7A",
"J 	c #313232",
"K 	c #2F302F",
"L 	c #302F2F",
"M 	c #AEAEAE",
"N 	c #ADADAD",
"O 	c #ADAEAD",
"P 	c #ACACAC",
"Q 	c #2C2D2C",
"R 	c #2B2B2B",
"S 	c #1E1E1E",
"T 	c #7B7A7B",
"U 	c #0D0E0E",
"V 	c #191919",
"W 	c #818181",
"X 	c #2D2E2E",
"Y 	c #1E1D1E",
"Z 	c #1D1D1D",
"` 	c #9C9B9C",
" .	c #9B9B9B",
"..	c #9B9A9A",
"+.	c #1B1B1B",
"@.	c #1B1B1A",
"#.	c #191A1A",
"$.	c #1A1A1A",
"%.	c #2A2A2A",
"&.	c #0C0D0D",
"*.	c #0C0B0B",
"=.	c #0B0B0B",
"-.	c #898A89",
";.	c #898888",
">.	c #090909",
",.	c #080908",
"'.	c #090809",
").	c #070807",
"!.	c #161717",
"~.	c #2D2D2D",
"{.	c #8C8C8C",
"].	c #262626",
"^.	c #0A0A0A",
"/.	c #080909",
"(.	c #080808",
"_.	c #070707",
":.	c #131313",
"<.	c #2F3030",
"[.	c #30302F",
"}.	c #8D8D8D",
"|.	c #232323",
"1.	c #060506",
"2.	c #050505",
"3.	c #0F0F0F",
"4.	c #2F2F2F",
"5.	c #2E2E2E",
"6.	c #2F2E2E",
"7.	c #2E2F2F",
"8.	c #8D8D8C",
"9.	c #1F201F",
"0.	c #070606",
"a.	c #040405",
"b.	c #040404",
"c.	c #0C0C0B",
"d.	c #8D8C8D",
"e.	c #2E2F2E",
"f.	c #2B2B2C",
"g.	c #2B2C2B",
"h.	c #8B8B8B",
"i.	c #1B1B1C",
"j.	c #191918",
"k.	c #171717",
"l.	c #151516",
"m.	c #141414",
"n.	c #121212",
"o.	c #111010",
"p.	c #0E0F0F",
"q.	c #0D0D0D",
"r.	c #272727",
"s.	c #222323",
"t.	c #232223",
"u.	c #232222",
"v.	c #232322",
"w.	c #1F1F1F",
"x.	c #1E1F1F",
"y.	c #1E1E1F",
"z.	c #1F1E1E",
"A.	c #1F1E1F",
"B.	c #1F1F1E",
"C.	c #1E1F1E",
"D.	c #1A1A1B",
"E.	c #1A1B1A",
"F.	c #1B1A1A",
"G.	c #1B1A1B",
"                                          ",
"                                          ",
"                                          ",
"        . . . . . . . . . . . . .         ",
"      . + @ # $ % & * = - ; > , ' .       ",
"      . ) ! ~ ~ { { { ] ] ^ ^ / ( .       ",
"      . _ : < [ } | 1 2 3 4 5 6 7 .       ",
"      . 8 9 0 a b b c d e f f g h .       ",
"i i i j k l l m n o o p q r s r t j i i i ",
"u u u | v $ w x y z A B C D E E F | u u u ",
"G H G I J ( K L M N O P P Q 7 R S T G U G ",
"V V V W X Y S Z Z `  ...+.@.#.$.@.W V V V ",
"t t t ] %.&.*.*.=.-.~ ;.>.,.'.).!.] t t t ",
"~.~.~.{.].^.^.>.{ /.(.^ _._.u u :.{.~.~.~.",
"( <.[.}.|.>.>.] (._._._.u 1.2.2.3.}.4.L [.",
"5.6.7.8.9.(.(._._.0.u 2.2.a.b.b.c.d.e.7.e.",
"R f.g.h.i.$.j.k.l.m.n.o.p.q.*.^.(.h.R R g.",
"r.r.r.r.{ { { { { { { { { { { { { r.r.r.r.",
"s.|.t.t.s.u.|.t.s.|.t.t.|.s.s.|.s.v.v.|.|.",
"w.x.y.z.A.x.w.S w.S x.A.B.z.x.C.C.S B.C.w.",
"D.E.F.$.$.G.F.E.D.$.F.$.D.F.$.F.$.E.D.F.$."};
