/* XPM */
static char * unshadeufcs_xpm[] = {
"21 21 156 2",
"  	c #000000",
". 	c #4C4C4C",
"+ 	c #464646",
"@ 	c #464645",
"# 	c #444444",
"$ 	c #434242",
"% 	c #404141",
"& 	c #3F3F3F",
"* 	c #3D3E3D",
"= 	c #3B3C3C",
"- 	c #3A3A3A",
"; 	c #383839",
"> 	c #373737",
", 	c #353636",
"' 	c #343434",
") 	c #434344",
"! 	c #424242",
"~ 	c #404040",
"{ 	c #3D3D3D",
"] 	c #3B3B3B",
"^ 	c #383838",
"/ 	c #373736",
"( 	c #353535",
"_ 	c #333434",
": 	c #323231",
"< 	c #303030",
"[ 	c #3F3E3E",
"} 	c #3D3D3C",
"| 	c #3C3B3B",
"1 	c #3A393A",
"2 	c #373838",
"3 	c #363637",
"4 	c #353534",
"5 	c #333333",
"6 	c #313231",
"7 	c #2E2F2E",
"8 	c #2D2C2C",
"9 	c #3B3B3A",
"0 	c #393939",
"a 	c #383737",
"b 	c #363636",
"c 	c #353434",
"d 	c #7F7E7F",
"e 	c #313031",
"f 	c #2D2E2E",
"g 	c #2C2C2C",
"h 	c #2B2A2A",
"i 	c #292929",
"j 	c #010101",
"k 	c #4D4D4D",
"l 	c #343334",
"m 	c #323232",
"n 	c #7C7C7D",
"o 	c #7B7B7B",
"p 	c #7A7A79",
"q 	c #2A2A2A",
"r 	c #282928",
"s 	c #272727",
"t 	c #252525",
"u 	c #030303",
"v 	c #4E4E4E",
"w 	c #353536",
"x 	c #343333",
"y 	c #323131",
"z 	c #7A7A7B",
"A 	c #797979",
"B 	c #777777",
"C 	c #757675",
"D 	c #747474",
"E 	c #262726",
"F 	c #232323",
"G 	c #222122",
"H 	c #070707",
"I 	c #515151",
"J 	c #313232",
"K 	c #302F30",
"L 	c #2E2E2E",
"M 	c #2C2D2C",
"N 	c #2B2B2B",
"O 	c #2A2A29",
"P 	c #282828",
"Q 	c #262626",
"R 	c #242524",
"S 	c #222323",
"T 	c #222121",
"U 	c #1F1F1F",
"V 	c #1E1E1E",
"W 	c #0D0D0D",
"X 	c #555555",
"Y 	c #2B2A2B",
"Z 	c #272728",
"` 	c #262526",
" .	c #242424",
"..	c #232222",
"+.	c #212120",
"@.	c #1F201F",
"#.	c #1D1D1E",
"$.	c #1C1C1C",
"%.	c #1B1B1A",
"&.	c #131313",
"*.	c #595959",
"=.	c #706F70",
"-.	c #6E6E6E",
";.	c #6C6C6C",
">.	c #6B6B6B",
",.	c #696969",
"'.	c #1C1B1B",
").	c #1A1A1A",
"!.	c #181918",
"~.	c #161717",
"{.	c #181818",
"].	c #5D5D5D",
"^.	c #232423",
"/.	c #212122",
"(.	c #202020",
"_.	c #6A6B6B",
":.	c #676767",
"<.	c #19191A",
"[.	c #161616",
"}.	c #151515",
"|.	c #191919",
"1.	c #5E5E5E",
"2.	c #1F1F20",
"3.	c #1C1D1D",
"4.	c #1B1A1B",
"5.	c #656565",
"6.	c #151415",
"7.	c #121313",
"8.	c #111111",
"9.	c #0F0F0F",
"0.	c #191818",
"a.	c #181919",
"b.	c #5E5E5D",
"c.	c #1B1A1A",
"d.	c #181717",
"e.	c #151516",
"f.	c #131314",
"g.	c #131213",
"h.	c #101011",
"i.	c #0E0D0E",
"j.	c #0C0C0B",
"k.	c #5E5D5E",
"l.	c #171717",
"m.	c #5C5C5C",
"n.	c #1B1B1C",
"o.	c #191918",
"p.	c #141414",
"q.	c #121212",
"r.	c #111010",
"s.	c #0E0F0F",
"t.	c #0C0B0B",
"u.	c #0A0A0A",
"v.	c #080808",
"w.	c #5A5A5A",
"x.	c #101010",
"y.	c #0E0E0E",
"                                          ",
"                                          ",
"                                          ",
"        . . . . . . . . . . . . .         ",
"      . + @ # $ % & * = - ; > , ' .       ",
"      . ) ! ~ & { ] - ^ / ( _ : < .       ",
"      . ~ [ } | 1 2 3 4 5 6 < 7 8 .       ",
"      . { 9 0 a b c d e < f g h i .       ",
"j j j k 0 > b l m n o p g q r s t k j j j ",
"u u u v w x y < z A B C D E t F G v u u u ",
"H H H I J K L M N O P Q R S T U V I H H H ",
"W W W X f g Y i Z `  ...+.@.#.$.%.X W W W ",
"&.&.&.*.q i s t =.-.;.>.,.'.).!.~.*.&.&.&.",
"{.{.{.].Q t ^./.(._.,.:.<.{.[.}.&.].{.{.{.",
"|.|.|.1.F /.2.V 3.4.5.{.[.6.7.8.9.1.|.|.|.",
"{.0.a.b.@.V $.c.|.d.e.f.g.h.9.i.j.k.!.a.!.",
"l.l.l.m.n.).o.l.e.p.q.r.s.W t.u.v.m.l.l.l.",
"p.p.p.p.w.w.w.w.w.w.w.w.w.w.w.w.w.p.p.p.p.",
"q.q.q.q.q.q.q.q.q.q.q.q.q.q.q.q.q.q.q.q.q.",
"x.x.x.x.x.x.x.x.x.x.x.x.x.x.x.x.x.x.x.x.x.",
"y.y.y.y.y.y.y.y.y.y.y.y.y.y.y.y.y.y.y.y.y."};
