/* XPM */
static char * shadefcs_xpm[] = {
"20 21 57 1",
" 	c #A69F9F",
".	c #D6D2D2",
"+	c #D5D0D0",
"@	c #D2CDCD",
"#	c #D0CBCB",
"$	c #CDCBCB",
"%	c #CDC7CB",
"&	c #CDC7C7",
"*	c #CBC7C7",
"=	c #C7C5C5",
"-	c #C7C5C2",
";	c #C7C2C5",
">	c #C7C2C2",
",	c #C5C2C2",
"'	c #C5BEC2",
")	c #C5C2BE",
"!	c #C2BEBE",
"~	c #C2BEBC",
"{	c #C2BCBE",
"]	c #C2BCBC",
"^	c #BEBCBC",
"/	c #BEB8B8",
"(	c #BEB8BC",
"_	c #BCBCB8",
":	c #BCB8B8",
"<	c #BCB8BC",
"[	c #BCBCBC",
"}	c #BEBCB8",
"|	c #BCB6B6",
"1	c #B8B6B6",
"2	c #B6B6B2",
"3	c #B6B2B2",
"4	c #B2AFAF",
"5	c #B2B2AF",
"6	c #B2AFB2",
"7	c #AFABAB",
"8	c #343333",
"9	c #ABA8A8",
"0	c #333232",
"a	c #A8A4A4",
"b	c #323131",
"c	c #313131",
"d	c #A4A4A4",
"e	c #A4A0A0",
"f	c #A0A0A0",
"g	c #A0A09D",
"h	c #A09D9D",
"i	c #9D9D9D",
"j	c #989898",
"k	c #989598",
"l	c #989595",
"m	c #989895",
"n	c #959595",
"o	c #959095",
"p	c #959590",
"q	c #959090",
"r	c #827D7D",
"                    ",
"....................",
"++++++++++++++++++++",
"@@@@@@@@@@@@@@@@@@@@",
"###$#$$###$$#$$%$$$$",
"&&&**&&&&&&*&*******",
"======-;;===;->>;;;-",
",,,,,,,,,',,)')),),'",
"!~{]]~{]]]]~]]]]]]]]",
"^/((_^/:(:<<[}[://::",
"|||||111|||111|11||1",
"22333333333333333333",
"44546555444644444444",
"77777777788777777777",
"99999999000099999999",
"aaaaaaabbbbccdaaaadd",
"eeeeeeeeeeeefeeeegfe",
"hiiiiiiiiiiiiiiiiiii",
"jjkjjjljkljjjlklkllm",
"nnnnnnnnonnnpnpnoqnn",
"rrrrrrrrrrrrrrrrrrrr"};
