/* XPM */
static char * menuiconfcs_xpm[] = {
"21 21 178 2",
"  	c #DDE0EB",
". 	c #D0D5E4",
"+ 	c #CAD0E1",
"@ 	c #C9CFE1",
"# 	c #C8CEDF",
"$ 	c #A9AFBD",
"% 	c #828791",
"& 	c #6B6F78",
"* 	c #656871",
"= 	c #6D717B",
"- 	c #858994",
"; 	c #ABB0BF",
"> 	c #8F929D",
", 	c #868891",
"' 	c #B1B3BB",
") 	c #CCCED6",
"! 	c #D7D9E0",
"~ 	c #CDCFD7",
"{ 	c #B5B6BE",
"] 	c #8D9098",
"^ 	c #969AA4",
"/ 	c #A5AFCC",
"( 	c #72798D",
"_ 	c #9499A8",
": 	c #C2C7D5",
"< 	c #C3C8D7",
"[ 	c #C3C8D6",
"} 	c #C2C6D5",
"| 	c #C1C5D5",
"1 	c #C0C5D5",
"2 	c #C0C3D4",
"3 	c #979CAC",
"4 	c #7B8296",
"5 	c #A3ADCA",
"6 	c #8B94AC",
"7 	c #9699A9",
"8 	c #C3C7D6",
"9 	c #C2C7D6",
"0 	c #C1C6D6",
"a 	c #C1C6D4",
"b 	c #C0C5D4",
"c 	c #BEC3D2",
"d 	c #BEC4D3",
"e 	c #BDC4D1",
"f 	c #979DAE",
"g 	c #8F98B2",
"h 	c #8E94A7",
"i 	c #C4CAD9",
"j 	c #C3C9D9",
"k 	c #C2C7D7",
"l 	c #C2C6D7",
"m 	c #C0C6D6",
"n 	c #BFC6D6",
"o 	c #BFC5D5",
"p 	c #BDC4D3",
"q 	c #BDC2D4",
"r 	c #BCC1D2",
"s 	c #9299AE",
"t 	c #A1ABC9",
"u 	c #A6ACBD",
"v 	c #C0C7D6",
"w 	c #BFC5D6",
"x 	c #BEC4D5",
"y 	c #BEC3D4",
"z 	c #BDC2D6",
"A 	c #BBC2D3",
"B 	c #BBC3D2",
"C 	c #B9BFD3",
"D 	c #A3AABD",
"E 	c #A2ACC9",
"F 	c #9FA9C9",
"G 	c #B8BED0",
"H 	c #C1C7D8",
"I 	c #C0C6D7",
"J 	c #BFC5D7",
"K 	c #4C4E56",
"L 	c #4C4E55",
"M 	c #4B4E55",
"N 	c #4A4D55",
"O 	c #B9C0D4",
"P 	c #BBC1D3",
"Q 	c #B9BED2",
"R 	c #B2B6CC",
"S 	c #A0AAC9",
"T 	c #9BA6C6",
"U 	c #9CA6C6",
"V 	c #C3C9DF",
"W 	c #BEC5D6",
"X 	c #BDC4D6",
"Y 	c #BDC2D5",
"Z 	c #BCC2D5",
"` 	c #BCC1D4",
" .	c #BAC0D4",
"..	c #BABFD3",
"+.	c #B9BFD2",
"@.	c #B8BED2",
"#.	c #B7BED2",
"$.	c #B6BDD1",
"%.	c #B8C0D4",
"&.	c #9CA7C7",
"*.	c #96A1C2",
"=.	c #97A1C2",
"-.	c #C5CEE5",
";.	c #BBC0D5",
">.	c #BAC0D5",
",.	c #4A4C54",
"'.	c #494C54",
").	c #494C53",
"!.	c #B4BBD0",
"~.	c #B3BACF",
"{.	c #B2BAD0",
"].	c #BBC3DB",
"^.	c #97A2C3",
"/.	c #919CBE",
"(.	c #C1CAE3",
"_.	c #B6BED1",
":.	c #B6BDD0",
"<.	c #B5BCD1",
"[.	c #B4BCD1",
"}.	c #B3BBD1",
"|.	c #B3B9D0",
"1.	c #B1B9CE",
"2.	c #B1B7CE",
"3.	c #B0B7CD",
"4.	c #B0B5CC",
"5.	c #B4BDDD",
"6.	c #929DBE",
"7.	c #8C97BA",
"8.	c #A7B2CE",
"9.	c #C7D0E9",
"0.	c #B2B8CE",
"a.	c #B1B8CE",
"b.	c #AFB6CD",
"c.	c #AFB5CC",
"d.	c #ADB4CB",
"e.	c #ADB3CC",
"f.	c #BCC2DE",
"g.	c #A0ABCD",
"h.	c #8691B5",
"i.	c #8792B5",
"j.	c #BAC4E2",
"k.	c #BFC8E3",
"l.	c #ADB5CA",
"m.	c #ABB4CA",
"n.	c #AAB3C9",
"o.	c #AAB2CA",
"p.	c #A9B0C9",
"q.	c #A8B0C8",
"r.	c #B6BEDA",
"s.	c #AFB9DB",
"t.	c #8792B6",
"u.	c #808BB1",
"v.	c #818CB2",
"w.	c #B1BCE1",
"x.	c #C4CDEE",
"y.	c #B4BDD9",
"z.	c #ABB2CC",
"A.	c #A6AFC7",
"B.	c #AAAFCB",
"C.	c #B0B8D5",
"D.	c #BBC4E4",
"E.	c #A9B3D8",
"F.	c #828CB2",
"G.	c #7E89AF",
"H.	c #7F8AB0",
"I.	c #95A0C5",
"J.	c #B1BBDF",
"K.	c #C0CBEF",
"L.	c #C4CEF2",
"M.	c #BCC6EB",
"N.	c #ACB6DA",
"O.	c #929DC1",
"P.	c #7984AB",
"Q.	c #7A85AC",
"R.	c #7B85AC",
"S.	c #7A84AB",
"T.	c #6C7598",
"U.	c #5C6180",
"                                          ",
". . . . . . . . . . . . . . . . . . . . . ",
"+ + + + + + + + + + + + + + + + + + + + + ",
"@ @ @ @ @ @ @ @ @ @ @ @ @ @ @ @ @ @ @ @ @ ",
"# # # # # # # $ % & * = - ; # # # # # # # ",
". . . . . . > , ' ) ! ~ { ] ^ . . . . . . ",
"/ / / / / ( _ : < [ } | 1 2 3 4 / / / / / ",
"5 5 5 5 6 7 8 < 9 0 a b c d e f g 5 5 5 5 ",
"5 5 5 5 h i j k l m n o d p q r s 5 5 5 5 ",
"t t t t u < 9 v n w x y z A B C D E t t t ",
"F F F F G H I J K L K M N O P Q R S F F F ",
"T T T U V W X Y Z `  ...+.@.#.$.%.&.T T T ",
"*.*.*.=.-.;.>.C ,.,.'.'.).!.~.{.].^.*.*.*.",
"/./././.(._.:.<.[.}.|.1.1.2.3.4.5.6./././.",
"7.7.7.7.8.9.{.0.a.2.b.c.d.d.e.f.g.7.7.7.7.",
"h.h.h.h.i.j.k.e.l.m.n.o.p.q.r.s.t.h.h.h.h.",
"u.u.u.u.u.v.w.x.y.z.A.B.C.D.E.F.u.u.u.u.u.",
"G.G.G.G.G.G.H.I.J.K.L.M.N.O.H.G.G.G.G.G.G.",
"P.P.P.P.P.P.P.P.Q.Q.R.R.Q.S.P.P.P.P.P.P.P.",
"T.T.T.T.T.T.T.T.T.T.T.T.T.T.T.T.T.T.T.T.T.",
"U.U.U.U.U.U.U.U.U.U.U.U.U.U.U.U.U.U.U.U.U."};
