/* XPM */
static char * unshadepr_xpm[] = {
"20 21 23 1",
" 	c #47484B",
".	c #45464A",
"+	c #444548",
"@	c #444448",
"#	c #434448",
"$	c #424346",
"%	c #414346",
"&	c #414246",
"*	c #404144",
"=	c #3D3E41",
"-	c #3B3C3F",
";	c #3A3B3E",
">	c #3A3B3D",
",	c #38393C",
"'	c #37383B",
")	c #C3C3C3",
"!	c #37383A",
"~	c #8F8F8F",
"{	c #393A3D",
"]	c #3C3D40",
"^	c #3E3F42",
"/	c #434447",
"(	c #444549",
"                    ",
"....................",
"++++++++++++++@@####",
"$$$$$$$$$$%&&&&&&&&&",
"********************",
"====================",
"--------------------",
";;;;;;;;;;;;>>>>>>>>",
",,,,,,,,,,,,,,,,,,,,",
"''''''''''''''''''''",
"''''''')))))))'!!!!!",
"'''''''')))))~~'''''",
",,,,,,,,,)))~~,,,,,,",
"{{{{{{{{{{)~~{{{{{{{",
"-----------~--------",
"]]]]]]]]]]]]]]]]]]]]",
"^^^^^^^^^^^^^^^^^^^^",
"********************",
"$$$$$$$$$$$$$$$$$$$$",
"////////////////////",
"(((((((((((((((((((("};
