/* XPM */
static char * stickfcs_xpm[] = {
"21 21 126 2",
"  	c #CBCCCC",
". 	c #CCCCCC",
"+ 	c #CCCCCB",
"@ 	c #CBCBCC",
"# 	c #CCCBCB",
"$ 	c #CCCBCC",
"% 	c #CACACA",
"& 	c #CBCACA",
"* 	c #CACBCA",
"= 	c #C9C9C9",
"- 	c #CAC9C9",
"; 	c #C9CACA",
"> 	c #C9C9CA",
", 	c #C9CAC9",
"' 	c #CAC9CA",
") 	c #CDCDCD",
"! 	c #C8C8C7",
"~ 	c #C8C8C8",
"{ 	c #C7C8C8",
"] 	c #C8C7C7",
"^ 	c #C8C7C8",
"/ 	c #C7C8C7",
"( 	c #C7C7C8",
"_ 	c #C7C7C7",
": 	c #D2D2D2",
"< 	c #323132",
"[ 	c #C6C6C6",
"} 	c #313131",
"| 	c #C5C5C5",
"1 	c #C5C5C4",
"2 	c #C5C4C5",
"3 	c #C4C4C5",
"4 	c #C3C4C3",
"5 	c #C4C3C4",
"6 	c #C3C3C3",
"7 	c #C4C4C3",
"8 	c #C3C3C4",
"9 	c #C2C2C2",
"0 	c #C3C2C3",
"a 	c #303030",
"b 	c #C1C1C1",
"c 	c #C0C0C0",
"d 	c #C1C0C1",
"e 	c #C0C1C1",
"f 	c #C0C1C0",
"g 	c #C0C0C1",
"h 	c #BFC0C0",
"i 	c #BFBEBF",
"j 	c #BDBEBE",
"k 	c #BBBCBB",
"l 	c #BBBBBC",
"m 	c #BCBBBB",
"n 	c #BDBEBD",
"o 	c #BFBEBE",
"p 	c #BFC0BF",
"q 	c #BFBFBE",
"r 	c #BFBFBF",
"s 	c #BEBEBE",
"t 	c #BCBCBC",
"u 	c #BABABA",
"v 	c #B4B4B4",
"w 	c #B3B3B4",
"x 	c #B3B4B4",
"y 	c #B9BABA",
"z 	c #BEBEBF",
"A 	c #2F2F2F",
"B 	c #BDBDBD",
"C 	c #535353",
"D 	c #BCBDBC",
"E 	c #BDBCBD",
"F 	c #BCBDBD",
"G 	c #BCBBBC",
"H 	c #BBBBBA",
"I 	c #B8B8B8",
"J 	c #B2B2B2",
"K 	c #B8B8B9",
"L 	c #BBBBBB",
"M 	c #BBBABA",
"N 	c #BABBBB",
"O 	c #BABAB9",
"P 	c #B7B7B7",
"Q 	c #B7B6B6",
"R 	c #B8B9B9",
"S 	c #B9BAB9",
"T 	c #2E2E2E",
"U 	c #BAB9BA",
"V 	c #B9B8B8",
"W 	c #B6B6B7",
"X 	c #B5B4B4",
"Y 	c #B1B1B1",
"Z 	c #B0B1B1",
"` 	c #B4B5B5",
" .	c #B6B7B7",
"..	c #B9B9B8",
"+.	c #B9B9B9",
"@.	c #BAB9B9",
"#.	c #B6B6B6",
"$.	c #B5B5B5",
"%.	c #B6B5B6",
"&.	c #B8B8B7",
"*.	c #B7B8B8",
"=.	c #B6B7B6",
"-.	c #B7B6B7",
";.	c #B5B6B6",
">.	c #B4B5B4",
",.	c #2D2D2D",
"'.	c #B5B5B6",
").	c #B5B6B5",
"!.	c #B6B5B5",
"~.	c #B6B6B5",
"{.	c #B5B5B4",
"].	c #B3B4B3",
"^.	c #B4B3B3",
"/.	c #B4B4B3",
"(.	c #B3B3B3",
"_.	c #B4B3B4",
":.	c #2C2D2D",
"<.	c #B1B1B2",
"[.	c #B1B2B1",
"}.	c #B0AFB0",
"|.	c #AFB0AF",
"1.	c #B0B0B0",
"2.	c #AFAFAF",
"3.	c #B0AFAF",
"4.	c #AFAFB0",
"5.	c #AFB0B0",
"  . . . + . . .   @ . + .       #   $ + $ ",
"% & * % % % % % % % % % % % % % % % % % % ",
"= - ; - = = = - > - , = - = = ' = = = = ) ",
"! ~ ~ ! { ] ! ^ ! ^ { / ( ! / ] ] _ / : < ",
"[ [ [ [ [ [ [ [ [ [ [ [ [ [ [ [ [ [ [ : } ",
"| | | | | | | | | | | | | 1 | 2 | 3 2 : } ",
"4 5 6 7 6 8 6 8 9 0 9 9 9 6 8 6 6 0 6 : a ",
"9 9 9 9 9 9 b b c c c c c b b 9 9 9 9 : a ",
"d b e f b g h i j k l m n o p e b c f : a ",
"q i r r q s s t u v w x y t s s q z z : A ",
"s s s s s B t u w C C C w u t B s s s : A ",
"t D E F D G H I J C C C J K u L t t D : A ",
"M H L N N O I P J C C C J Q R S u u M : T ",
"U S u O S V R W X Y Z Y `  ...+.@.y U : T ",
"I I I I I I P #.X v v v $.%.P I &.I *.: T ",
"#.=.Q -.#.=.$.;.$.X v >.$.$.$.#.#.#.#.: ,.",
"%.$.#.'.).!.'.~.X {.v >.v $.'.$.!.'.'.: ,.",
"v ].^.]./.(././.v v v /._.w /._.^.w v : :.",
"J J J J J J J J J J J J J J J J J J J J : ",
"Y Y <.[.Y Y [.Y Y Y Y Y Y Y Y Y Y Y Y Y Y ",
"}.|.1.2.3.4.5.2.5.2.|.2.|.2.|.2.2.3.2.2.2."};
