/* XPM */
static char * stuckufcs_xpm[] = {
"25 25 130 2",
"  	c #080000",
". 	c #F4EBDA",
"+ 	c #C5BEB2",
"@ 	c #000000",
"# 	c #A69D8D",
"$ 	c #A79D8D",
"% 	c #A69E8C",
"& 	c #A69D8C",
"* 	c #A69E8D",
"= 	c #A79D8C",
"- 	c #948F89",
"; 	c #A79F8E",
"> 	c #A79E8E",
", 	c #A89F8E",
"' 	c #A79F8D",
") 	c #A79E8D",
"! 	c #A9A08F",
"~ 	c #A8A08F",
"{ 	c #A9A090",
"] 	c #A8A090",
"^ 	c #10100E",
"/ 	c #A99F90",
"( 	c #A89F8F",
"_ 	c #A99F8F",
": 	c #A9A191",
"< 	c #AAA091",
"[ 	c #AAA191",
"} 	c #AAA190",
"| 	c #11100E",
"1 	c #A9A190",
"2 	c #ABA392",
"3 	c #AAA292",
"4 	c #ABA292",
"5 	c #AAA293",
"6 	c #ABA293",
"7 	c #ABA393",
"8 	c #AAA392",
"9 	c #ABA394",
"0 	c #ACA494",
"a 	c #ACA393",
"b 	c #ACA394",
"c 	c #ABA494",
"d 	c #11100F",
"e 	c #ADA496",
"f 	c #ADA495",
"g 	c #ACA595",
"h 	c #ACA496",
"i 	c #ACA596",
"j 	c #ACA495",
"k 	c #ADA595",
"l 	c #ADA596",
"m 	c #ADA697",
"n 	c #AEA697",
"o 	c #ADA696",
"p 	c #AEA596",
"q 	c #AEA597",
"r 	c #AEA696",
"s 	c #AFA898",
"t 	c #AFA798",
"u 	c #AEA798",
"v 	c #AEA898",
"w 	c #AFA799",
"x 	c #B0A89A",
"y 	c #AFA99A",
"z 	c #B0A999",
"A 	c #B0A99A",
"B 	c #B1A99C",
"C 	c #B1AA9B",
"D 	c #B1AA9C",
"E 	c #B2AA9B",
"F 	c #11110F",
"G 	c #B1A99B",
"H 	c #B2AB9C",
"I 	c #B2AB9D",
"J 	c #B3AB9D",
"K 	c #B2AA9C",
"L 	c #B4AD9F",
"M 	c #B3AC9F",
"N 	c #B3AD9E",
"O 	c #B3AC9E",
"P 	c #B4AC9E",
"Q 	c #12110F",
"R 	c #B4AD9E",
"S 	c #B5ADA0",
"T 	c #B5AE9F",
"U 	c #B4AEA0",
"V 	c #B4ADA0",
"W 	c #B5AD9F",
"X 	c #B5AEA0",
"Y 	c #121110",
"Z 	c #B6AEA1",
"` 	c #B5AFA1",
" .	c #B6AFA1",
"..	c #B6AEA2",
"+.	c #B6AFA2",
"@.	c #B5AEA1",
"#.	c #B5AFA2",
"$.	c #B7B0A3",
"%.	c #B7B0A2",
"&.	c #B6AFA3",
"*.	c #B7AFA3",
"=.	c #B7AFA2",
"-.	c #B6B0A3",
";.	c #B6B0A2",
">.	c #B7B1A4",
",.	c #B8B1A4",
"'.	c #B7B1A5",
").	c #B9B2A6",
"!.	c #B9B2A5",
"~.	c #B8B2A5",
"{.	c #B9B3A5",
"].	c #B8B2A6",
"^.	c #121210",
"/.	c #B8B3A6",
"(.	c #B9B3A6",
"_.	c #BAB4A7",
":.	c #BAB3A7",
"<.	c #B9B3A7",
"[.	c #BAB3A8",
"}.	c #B9B4A7",
"|.	c #BBB5A9",
"1.	c #BBB5A8",
"2.	c #BBB4A9",
"3.	c #BAB5A9",
"4.	c #BBB4A8",
"5.	c #BBB5AF",
"6.	c #C2BBB0",
"7.	c #928D87",
"8.	c #938E88",
"9.	c #030000",
"                                                  ",
"  . . . . . . . . . . . . . . . . . . . . . . + @ ",
"  . # # $ # # % & * & & * # # = # * & # # # $ - @ ",
"  . ; > ; ; ; ; > ; > > ; > ; ; , ' ; ; ; ) ; - @ ",
"  . ! ~ ! ~ { { ] ~ ! ^ ^ ^ ] { / ( { ( _ { ~ - @ ",
"  . : < [ [ [ [ : : : } | [ [ : : [ 1 : : [ [ - @ ",
"  . 2 3 4 5 5 6 2 4 4 2 | 7 6 3 8 3 4 3 6 3 5 - @ ",
"  . 9 0 0 a b 9 a c c c d 0 b b b b b 7 b b c - @ ",
"  . e f f g h f i j k l d l g l k j j j j i g - @ ",
"  . m n m o m n p n q n d q n n r r n r n o n - @ ",
"  . s t u v w w t t w t d t t t s u s t w t t - @ ",
"  . x y z x A x A x A x d A x A z x z A z x z - @ ",
"  . B C C C B C D C B E F C G C G C E G C G C - @ ",
"  . H H I I I I I H H I F I I I I I J H K I J - @ ",
"  . L M N O P O N O M P Q O M O P O N O R M P - @ ",
"  . S T S U V L W V L X Y X S T V U X U X U V - @ ",
"  . Z `  .Z Z Z ` ..Z  .Y Z +. . .@.Z ` +.#. .- @ ",
"  . $.%.%.&.*.+.$.$.=.$.Y =.*.-.$.%.%.;.-.$.-.- @ ",
"  . >.,.,.>.,.>.>.'.,.,.Y ,.>.>.,.,.,.>.,.,.,.- @ ",
"  . ).!.~.{.).].).{.).Y ^.^.{.]./.(.].(.!.(.).- @ ",
"  . _.:.:._.<.[.<.<.}.:.<.<.:.:.:._.:.:._._.<.- @ ",
"  . |.1.|.1.1.1.|.1.1.2.2.|.1.1.2.|.3.4.2.4.|.- @ ",
"  . 5.5.5.5.5.5.5.5.5.5.5.5.5.5.5.5.5.5.5.5.5.- @ ",
"  6.7.7.7.7.7.7.7.8.8.8.8.8.8.8.8.- - - - - - - @ ",
"  9.9.9.9.9.9.9.9.9.9.9.9.9.9.9.9.9.9.9.9.9.9.9.  "};
