/* XPM */
static char * stuckfcs_xpm[] = {
"25 25 36 1",
" 	c #080000",
".	c #180000",
"+	c #190000",
"@	c #CA6575",
"#	c #C96474",
"$	c #8C3843",
"%	c #8E0924",
"&	c #4D0A11",
"*	c #8D0B25",
"=	c #8C0A24",
"-	c #8B0B24",
";	c #8C0C25",
">	c #F4E7EA",
",	c #8A0C24",
"'	c #8A0C22",
")	c #8E0C24",
"!	c #900C24",
"~	c #8D0B23",
"{	c #8C0C23",
"]	c #8B0B22",
"^	c #8B0C21",
"/	c #8C0A22",
"(	c #8A0B20",
"_	c #A43A4C",
":	c #801124",
"<	c #7E1124",
"[	c #7D1224",
"}	c #7C1123",
"|	c #7D1121",
"1	c #660F1A",
"2	c #6D202B",
"3	c #500A14",
"4	c #4D0A13",
"5	c #4C0B13",
"6	c #1B0000",
"7	c #1A0000",
" ......+++++++++++++++++ ",
" @@@@@@################$ ",
" #%%%%%%%%%%%%%%%%%%%%%& ",
" #*****========--------& ",
" #;;;;;---->>>-,,,,,,,,& ",
" #;;;;;----->--,,,,,,,,& ",
" #;;;;;----->--,,,,,,,,& ",
" #;;;;;----->--,,,,,,,,& ",
" #;;;;;----->--,,,,,,,,& ",
" #;;;;;----->--,,,,,,,,& ",
" #;;;;;----->--,,,,,,,,& ",
" #;;;;;----->--,,,,,,,,& ",
" #;;;;;----->--,,,,,,,,& ",
" #;;;;;----->--,,,,,,,,& ",
" #;;;;;----->--,,,,,,,,& ",
" #;;;;;----->--,,,,,,,,& ",
" #;;;;;----->--,,,,,,,,& ",
" #;;;;;----->--,,,,,,,,& ",
" #;;;;;----->--,,,,,,,,& ",
" #;;;;;---->>>-,,,,,,,,& ",
" #;*;;;---------'-'-'-'& ",
" #)!~~~~~~~{{]]]^/^/^/(& ",
" _:::<<<<<<[[}}||||||||1 ",
" 23333344444455&&&&&&&&& ",
" 66666+++++++..++++++++7 "};
