/* XPM */
static char * closeufcs_xpm[] = {
"19 19 73 1",
" 	c #3A3A3A",
".	c #3B3C3B",
"+	c #3B3B3C",
"@	c #3B3B3B",
"#	c #3C3C3C",
"$	c #3B3C3C",
"%	c #3C3C3B",
"&	c #3C3C3D",
"*	c #3C3D3C",
"=	c #3D3D3D",
"-	c #3C3D3D",
";	c #3D3D3C",
">	c #3D3C3C",
",	c #3E3E3E",
"'	c #3F3F3F",
")	c #3F3F40",
"!	c #3F4040",
"~	c #403F3F",
"{	c #40403F",
"]	c #414141",
"^	c #404040",
"/	c #424242",
"(	c #4C4C4C",
"_	c #707070",
":	c #848484",
"<	c #717171",
"[	c #434344",
"}	c #434443",
"|	c #424343",
"1	c #898989",
"2	c #898787",
"3	c #777877",
"4	c #737373",
"5	c #4A4A4A",
"6	c #434343",
"7	c #444444",
"8	c #454545",
"9	c #838382",
"0	c #767675",
"a	c #5B5B5B",
"b	c #464646",
"c	c #858585",
"d	c #868585",
"e	c #828383",
"f	c #7A7A7B",
"g	c #6E6E6E",
"h	c #464747",
"i	c #474646",
"j	c #464746",
"k	c #858484",
"l	c #868586",
"m	c #828182",
"n	c #7F7E7E",
"o	c #7B7C7C",
"p	c #777777",
"q	c #6F6E6E",
"r	c #404141",
"s	c #6D6D6D",
"t	c #787979",
"u	c #787879",
"v	c #767676",
"w	c #5E5D5E",
"x	c #4B4C4B",
"y	c #696969",
"z	c #6D6D6E",
"A	c #6C6C6C",
"B	c #6B6B6B",
"C	c #6A6A6A",
"D	c #646464",
"E	c #474747",
"F	c #565656",
"G	c #5E5F5F",
"H	c #555555",
"                   ",
".+@+.#$%$@%$#######",
"#&*&=--;=->========",
",,,,,,,,,,,,,,,,,,,",
"''''''''')'!'))~!{!",
"]]]]]]]^'=='^]]]]]]",
"//////](_::<(]/////",
"[}}[[|(:11234567777",
"88888]<111190a]8888",
"bbbbb'c111defg~hijh",
"88888'kl:mnopq'8888",
"[}}[[rstupv4_w]7777",
"/////]xyzABCDE]////",
"]]]]]]'8FGGH7']]]]]",
"'''''''  ##  ))~!{!",
",,,,,,,,,,,,,,,,,,,",
"#&*&=--;=->========",
".+@+.#$%$@%$#######",
"                   "};
