/* XPM */
static char * closepr_xpm[] = {
"19 19 83 1",
" 	c #3A3A3A",
".	c #3B3C3B",
"+	c #3B3B3C",
"@	c #3B3B3B",
"#	c #3C3C3C",
"$	c #3B3C3C",
"%	c #3C3C3B",
"&	c #3C3C3D",
"*	c #3C3D3C",
"=	c #3D3D3D",
"-	c #3C3D3D",
";	c #3D3D3C",
">	c #3D3C3C",
",	c #3E3E3E",
"'	c #3F3F3F",
")	c #3F3F40",
"!	c #3F4040",
"~	c #403F3F",
"{	c #40403F",
"]	c #414141",
"^	c #303030",
"/	c #262626",
"(	c #424242",
"_	c #393939",
":	c #373737",
"<	c #686868",
"[	c #838383",
"}	c #434344",
"|	c #434443",
"1	c #383737",
"2	c #828282",
"3	c #898989",
"4	c #898787",
"5	c #717371",
"6	c #6B6B6B",
"7	c #343434",
"8	c #404040",
"9	c #444444",
"0	c #454545",
"a	c #333333",
"b	c #818180",
"c	c #6F6F6E",
"d	c #4C4C4C",
"e	c #464646",
"f	c #282828",
"g	c #848484",
"h	c #858484",
"i	c #7F8181",
"j	c #747576",
"k	c #656565",
"l	c #292828",
"m	c #464747",
"n	c #474646",
"o	c #464746",
"p	c #848383",
"q	c #858485",
"r	c #807F80",
"s	c #7C7A7B",
"t	c #767777",
"u	c #717171",
"v	c #666565",
"w	c #313232",
"x	c #646364",
"y	c #727474",
"z	c #727273",
"A	c #6F6F6F",
"B	c #6C6C6C",
"C	c #676767",
"D	c #4F4E4F",
"E	c #323232",
"F	c #363736",
"G	c #5E5E5E",
"H	c #646465",
"I	c #616261",
"J	c #616161",
"K	c #5F5F5F",
"L	c #575757",
"M	c #2E2E2E",
"N	c #505050",
"O	c #505151",
"P	c #2C2C2C",
"Q	c #2B2B2B",
"R	c #242424",
"                   ",
".+@+.#$%$@%$#######",
"#&*&=--;=->========",
",,,,,,,,,,,,,,,,,,,",
"''''''''')'!'))~!{!",
"]]]]]]]=^//^=]]]]]]",
"((((((_:<[[<:_(((((",
"}||}}!1233456789999",
"00000a<3333bcda0000",
"eeeeefg333hijklmnom",
"00000fpq[rstuvf0000",
"}||}}wxyzuABCDE9999",
"(((((,FGHIJKL^,((((",
"]]]]]]:M9NO9P:]]]]]",
"''''''':QRRQ:))~!{!",
",,,,,,,,,,,,,,,,,,,",
"#&*&=--;=->========",
".+@+.#$%$@%$#######",
"                   "};
