/* XPM */
static char * stuckufcs_xpm[] = {
"22 22 78 1",
" 	c #585858",
".	c #474747",
"+	c #383838",
"@	c #313131",
"#	c #595959",
"$	c #7B7B7B",
"%	c #8F8F8F",
"&	c #969696",
"*	c #6A6A6A",
"=	c #838383",
"-	c #6F6F6F",
";	c #626262",
">	c #696969",
",	c #6D6D6D",
"'	c #727272",
")	c #898989",
"!	c #9D9D9D",
"~	c #7A7A7A",
"{	c #5A5A5A",
"]	c #636363",
"^	c #616161",
"/	c #4C4C4C",
"(	c #353535",
"_	c #5D5D5D",
":	c #A0A0A0",
"<	c #757575",
"[	c #7E7E7E",
"}	c #3C3C3C",
"|	c #6B6B6B",
"1	c #9C9C9C",
"2	c #494949",
"3	c #919191",
"4	c #4E4E4E",
"5	c #8C8C8C",
"6	c #404040",
"7	c #A1A1A1",
"8	c #5E5E5E",
"9	c #939393",
"0	c #777777",
"a	c #3A3A3A",
"b	c #9A9A9A",
"c	c #848484",
"d	c #434343",
"e	c #979797",
"f	c #949494",
"g	c #414141",
"h	c #363636",
"i	c #8A8A8A",
"j	c #676565",
"k	c #A8A6A6",
"l	c #727070",
"m	c #3E3C3C",
"n	c #595757",
"o	c #8E8C8C",
"p	c #807E7E",
"q	c #8D8C8C",
"r	c #ABAAAA",
"s	c #7F7E7E",
"t	c #545353",
"u	c #444343",
"v	c #737373",
"w	c #909090",
"x	c #868686",
"y	c #676666",
"z	c #515050",
"A	c #8B8B89",
"B	c #A9A9A7",
"C	c #AAAAAA",
"D	c #A7A7A6",
"E	c #A3A3A1",
"F	c #949492",
"G	c #868685",
"H	c #676767",
"I	c #5B5B5B",
"J	c #555554",
"K	c #666664",
"L	c #6E6E6E",
"M	c #727271",
"                      ",
"                      ",
"                      ",
"                      ",
"......................",
"++++++++++++++++++++++",
"@@@@@@@@@@@@@@@@@@@@@@",
"@@@@@@@@@@@@@@@@@@@@@@",
"@@@@#$%&&&&&&&&%$#@@@@",
"@@@*=-;>,,,,,,,')!~@@@",
"@@{=]^/(@@@@@@@@(_:<@@",
"@@[<;}@@@@@@@@@@@@|12@",
"@@3>4@@@555555@@@@678@",
"@@90a@@@,bbbbbc@@@de*@",
"@@=fghhhh||||||hhh*i|@",
"@@jklmmmmmmmmmmmmnop;@",
"@@@qrstuuuuuuuutvwxyz@",
"@@@@ABCDEEEEEEE1FGHI@@",
"@@@@@JKLMMMMMMMMLKJ@@@",
"@@@@@@@@@@@@@@@@@@@@@@",
"@@@@@@@@@@@@@@@@@@@@@@",
"@@@@@@@@@@@@@@@@@@@@@@"};
