/* XPM */
static char * stuckufcs_xpm[] = {
"21 21 85 1",
" 	c #B5B6B8",
".	c #83888F",
"+	c #91959B",
"@	c #9B9EA3",
"#	c #9C9FA4",
"$	c #A2A5A9",
"%	c #A3A6AA",
"&	c #A4A7AB",
"*	c #A5A8AC",
"=	c #A7A9AD",
"-	c #A8AAAE",
";	c #A9ABAF",
">	c #ABADB1",
",	c #ADAFB2",
"'	c #AEB0B4",
")	c #AFB1B4",
"!	c #ABADB0",
"~	c #ACAEB1",
"{	c #AEB0B2",
"]	c #B0B2B5",
"^	c #B4B5B8",
"/	c #B7B9BB",
"(	c #BABBBE",
"_	c #BBBCBF",
":	c #AEAFB2",
"<	c #AFB0B3",
"[	c #B0B1B4",
"}	c #B3B4B7",
"|	c #B8B8BB",
"1	c #BDBEC0",
"2	c #DDDDDF",
"3	c #F4F4F5",
"4	c #FEFEFE",
"5	c #B1B2B5",
"6	c #B8B9BC",
"7	c #BFBFC2",
"8	c #EDEDED",
"9	c #DFE0E3",
"0	c #87888B",
"a	c #67686B",
"b	c #B2B3B6",
"c	c #B6B7BA",
"d	c #BCBDC0",
"e	c #DEDFE0",
"f	c #DCDDE0",
"g	c #78797C",
"h	c #ACADB0",
"i	c #C0C1C4",
"j	c #6C6D70",
"k	c #E0E1E4",
"l	c #B5B6B9",
"m	c #C1C2C5",
"n	c #F5F5F6",
"o	c #8B8C8F",
"p	c #B7B8BB",
"q	c #838487",
"r	c #6B6C6F",
"s	c #434447",
"t	c #B6B7B9",
"u	c #B8B9BB",
"v	c #BCBDBE",
"w	c #C3C4C5",
"x	c #6C6D6F",
"y	c #C4C5C7",
"z	c #848587",
"A	c #606163",
"B	c #38393B",
"C	c #B7B8BA",
"D	c #BBBCBE",
"E	c #C2C3C5",
"F	c #8C8D8F",
"G	c #B0B1B3",
"H	c #444547",
"I	c #BABBBD",
"J	c #C0C1C2",
"K	c #E0E1E1",
"L	c #E4E5E7",
"M	c #707173",
"N	c #646567",
"O	c #C3C3C5",
"P	c #EEEEEE",
"Q	c #BABBBC",
"R	c #BEBFC0",
"S	c #BDBDBF",
"T	c #A0A0A4",
"                     ",
".....................",
"+++++++++++++++++++++",
"@@@@@@@@@###@@@@@@@@@",
"$$$$$$%%&***&%%$$$$$$",
"=====-;>,')',>;-=====",
"!!!!~{]^/(_(/^]{~!!!!",
":::<[}|1234321|}[<:::",
"[[[5^67890a09876^5[[[",
"55b}cdefghihjkedc}b55",
"^^lc(mno<pqrsonm(cl^^",
"  tuvw4xyzxABx4wvut  ",
"  tCDEnFGxAHHFnEDCt  ",
"  tCIJKLMHBHNLKJICt  ",
"   tu1OPLFxFLPO1ut   ",
"   tCQROKn4nKORQCt   ",
"    tCQSJEwEJSQCt    ",
"     tCuIDvDIuCt     ",
"      ttCCCCCtt      ",
"         ttt         ",
"TTTTTTTTTTTTTTTTTTTTT"};
