/* XPM */
static char *maxpr[] = {
/* columns rows colors chars-per-pixel */
"21 21 70 1",
"  c #32323E",
". c #353443",
"X c #383846",
"o c #3A3A49",
"O c #3F3F52",
"+ c #454552",
"@ c #4A4A55",
"# c #4E4E59",
"$ c #52525B",
"% c #555563",
"& c #5B5A62",
"* c #5F5F69",
"= c #64646B",
"- c #6A6A6E",
"; c #6C6C74",
": c #727274",
"> c #73737A",
", c #7C7C7B",
"< c #7E7E81",
"1 c #80807D",
"2 c #838384",
"3 c #888885",
"4 c #8B8B8A",
"5 c #90908E",
"6 c #929296",
"7 c #939398",
"8 c #989895",
"9 c #9B9B9B",
"0 c #9BA1AB",
"q c #A4A49C",
"w c #A8A89D",
"e c #A5A5A2",
"r c #A6A6A9",
"t c #ADADA6",
"y c #B3B3AB",
"u c #B9B9AD",
"i c #B3B3B2",
"p c #BCBCB3",
"a c #BDBDBC",
"s c #BEC5CC",
"d c #C0C0B6",
"f c #C3C3BC",
"g c #C8C8BF",
"h c #C1C1C0",
"j c #C0C7CD",
"k c #CBCBC3",
"l c #CDCDC9",
"z c #CFD7DC",
"x c #D0D0C5",
"c c #D3D3CB",
"v c #D9D9CF",
"b c #D5D5D3",
"n c #D0D8DD",
"m c #DCDCD4",
"M c #D4DCE3",
"N c #DCDCE0",
"B c #D8E0EA",
"V c #D9E5F3",
"C c #DCE8F7",
"Z c #DCE8F8",
"A c #E1E1D7",
"S c #E4E4DB",
"D c #E7E7E2",
"F c #EBEBE3",
"G c #EDEDE8",
"H c #EFF0E9",
"J c #F2F2EC",
"K c #F5F5F1",
"L c #F8F8F5",
"P c #FDFDFC",
/* pixels */
"hhhhhaaaahhaaahhhhhhh",
"PPPPPPLLLLLLLLLLPPPPP",
"PPPPPJJJNr7bJJKLPPPPP",
"PPPPKGFFe+O>zDGJJPPPP",
"PPPKJFSc;OOO<lSFJLPPP",
"PPPJHSA6oXXoX7ADHJKPP",
"PPLJFSm>XX+oX$fASGJPP",
"PLJGSSd$Xo*XXX-kSFGJL",
"LKJFSg$oo;y$oXo>lSSGJ",
"LJFSl-oo&aqu#XXo>xSFH",
"JFDA6ooo2;o4>XXXo>kAS",
"JDAf&X$4<X.@e&XXXo8vv",
"DSm5oo4u@X  $e3#.X2cc",
"Nmvd<11#  X .@t3X.=ax",
"mclku-    &$  @q=Xo4k",
"bckg4X  +1tw+  :y-o;p",
"blkh4...2apdq@ $ii:@9",
"bclka4>2ihffgy=+9kp9a",
"MMMMMMMMzzzzzMs0sznnM",
"ZZZZZZZZVVVBVVVVVVCCZ",
"iiiiiiiiiiiiiiiiiiiii"
};
