/* XPM */
static char * closefcs_xpm[] = {
"21 21 65 1",
" 	c #4F5052",
".	c #4D4D4E",
"+	c #222224",
"@	c #535353",
"#	c #4B4C4C",
"$	c #4A4B4B",
"%	c #494A4A",
"&	c #484949",
"*	c #454647",
"=	c #444546",
"-	c #424344",
";	c #404142",
">	c #3E3F3F",
",	c #3C3D3E",
"'	c #3F3F43",
")	c #3E3E42",
"!	c #3D3D40",
"~	c #39393D",
"{	c #343437",
"]	c #2F2F32",
"^	c #2C2C2F",
"/	c #2B2B2D",
"(	c #39393C",
"_	c #38383B",
":	c #353538",
"<	c #2F2F31",
"[	c #272729",
"}	c #202021",
"|	c #1B1B1D",
"1	c #19191B",
"2	c #333336",
"3	c #2A2A2C",
"4	c #FFFFFF",
"5	c #111111",
"6	c #323436",
"7	c #303234",
"8	c #2B2D2F",
"9	c #232425",
"0	c #18191A",
"a	c #222325",
"b	c #161718",
"c	c #0F0F10",
"d	c #2C2C2E",
"e	c #262628",
"f	c #1E1E1F",
"g	c #141415",
"h	c #0D0D0D",
"i	c #242425",
"j	c #232324",
"k	c #1F1F20",
"l	c #19191A",
"m	c #111112",
"n	c #202022",
"o	c #181819",
"p	c #313335",
"q	c #2E3032",
"r	c #292B2C",
"s	c #1C1D1E",
"t	c #37373A",
"u	c #343436",
"v	c #28282A",
"w	c #313134",
"x	c #333437",
"y	c #323336",
"z	c #313235",
" ....................",
"+++++++++++++++++++++",
"                     ",
"@@@@@@@@@@@@@@@@@@@@@",
"#######$%&&&&%$######",
"*****=-;>,,,,>;-=****",
"'''')!~{]^//^]{~!)'''",
"((((_:<[}|11|}[<:_(((",
"((((_23}445544}32_(((",
"666678904444440987666",
"666678abc4444cba87666",
"dddd3efgh4444hgfe3ddd",
"iiiijklm444444mlkjiii",
"dddd/[no44hh44on[/ddd",
"6666pqras0bb0sarqp666",
"((((_tu</v[[v/<ut_(((",
"(((((_t:2wwww2:t_((((",
"xxxxxxxyyzzzzyyxxxxxx",
"xxxxxxxxxxxxxxxxxxxxx",
"+++++++++++++++++++++",
"....................."};
