/* XPM */
static char * menuiconpr_xpm[] = {
"21 21 14 1",
" 	c #4F5052",
".	c #4D4D4E",
"+	c #222224",
"@	c #535353",
"#	c #4B4C4C",
"$	c #454647",
"%	c #3F3F43",
"&	c #39393C",
"*	c #323436",
"=	c #EBEBEB",
"-	c #2C2C2E",
";	c #EAEAEB",
">	c #242425",
",	c #333437",
" ....................",
"+++++++++++++++++++++",
"                     ",
"@@@@@@@@@@@@@@@@@@@@@",
"#####################",
"$$$$$$$$$$$$$$$$$$$$$",
"%%%%%%%%%%%%%%%%%%%%%",
"&&&&&&&&&&&&&&&&&&&&&",
"&&&&&&&&&&&&&&&&&&&&&",
"********=====********",
"*********************",
"--------;;;;;--------",
">>>>>>>>>>>>>>>>>>>>>",
"--------;;;;;--------",
"*********************",
"&&&&&&&&&&&&&&&&&&&&&",
"&&&&&&&&&&&&&&&&&&&&&",
",,,,,,,,,,,,,,,,,,,,,",
",,,,,,,,,,,,,,,,,,,,,",
"+++++++++++++++++++++",
"....................."};
