/* XPM */
static char * stuckufcs_xpm[] = {
"21 21 89 1",
" 	c #393A3C",
".	c #373738",
"+	c #141415",
"@	c #3D3D3D",
"#	c #353636",
"$	c #383939",
"%	c #3B3C3C",
"&	c #3F3F3F",
"*	c #2F3031",
"=	c #323334",
"-	c #393A3B",
";	c #434344",
">	c #4B4C4C",
",	c #515253",
"'	c #535455",
")	c #2A2A2D",
"!	c #2D2D30",
"~	c #37373A",
"{	c #464649",
"]	c #5A5A5D",
"^	c #6A6A6C",
"/	c #747476",
"(	c #79797B",
"_	c #252527",
":	c #28282A",
"<	c #2F2F31",
"[	c #424244",
"}	c #5F5F61",
"|	c #79797A",
"1	c #8C8C8D",
"2	c #989899",
"3	c #9D9D9E",
"4	c #2C2C2E",
"5	c #3A3A3B",
"6	c #575758",
"7	c #FFFFFF",
"8	c #1F2122",
"9	c #2A2B2C",
"0	c #3D3F3F",
"a	c #636465",
"b	c #8C8D8D",
"c	c #B1B2B2",
"d	c #B0B1B1",
"e	c #ABABAC",
"f	c #444646",
"g	c #6D6E6F",
"h	c #969797",
"i	c #A5A5A6",
"j	c #98999A",
"k	c #1B1B1C",
"l	c #1F1F20",
"m	c #29292A",
"n	c #424243",
"o	c #6D6D6E",
"p	c #ACACAC",
"q	c #9D9D9D",
"r	c #8C8C8C",
"s	c #151516",
"t	c #202021",
"u	c #3C3C3C",
"v	c #676767",
"w	c #919191",
"x	c #ACACAD",
"y	c #A0A0A1",
"z	c #949494",
"A	c #262627",
"B	c #39393A",
"C	c #606061",
"D	c #8A8A8A",
"E	c #AFAFB0",
"F	c #AFAFAF",
"G	c #A9A9AA",
"H	c #262829",
"I	c #343637",
"J	c #525354",
"K	c #757677",
"L	c #959696",
"M	c #333335",
"N	c #676768",
"O	c #717172",
"P	c #767677",
"Q	c #202123",
"R	c #232426",
"S	c #2A2B2D",
"T	c #353638",
"U	c #3E3F40",
"V	c #454647",
"W	c #464749",
"X	c #27282A",
" ....................",
"+++++++++++++++++++++",
"                     ",
"@@@@@@@@@@@@@@@@@@@@@",
"#######$%&&&&%$######",
"*****=-;>,'',>;-=****",
"))))!~{]^/((/^]{~!)))",
"___:<[}|123321|}[<:__",
"___456|27777772|654__",
"88890ab7cdeedc7ba0988",
"8889fgh7dijjid7hgf988",
"kklmno27pqrrqp72onmlk",
"ssstuvw7xyzzyx7wvutss",
"kkkABCD7EFGGFE7DCBAkk",
"888HIJKL777777LKJIH88",
"___:<[}|123321|}[<:__",
"____:M[6NOPPON6[M:___",
"QQQQQRSTUVWWVUTSRQQQQ",
"QQQQQQQRXSSSSXRQQQQQQ",
"+++++++++++++++++++++",
"....................."};
