/* XPM */
static char * closepr_xpm[] = {
"19 19 92 2",
"  	c #FBFBFB",
". 	c #FAFAFA",
"+ 	c #F5F5F5",
"@ 	c #F0F0F0",
"# 	c #EFEFEF",
"$ 	c #F9F9F9",
"% 	c #EDEDED",
"& 	c #C8C8C8",
"* 	c #969696",
"= 	c #EEEEEE",
"- 	c #A2A2A2",
"; 	c #A7A7A7",
"> 	c #D7D7D8",
", 	c #F5F5F6",
"' 	c #F5F6F6",
") 	c #F7F7F7",
"! 	c #D7D7D7",
"~ 	c #F6F6F6",
"{ 	c #C9C9C9",
"] 	c #EBEBEB",
"^ 	c #F2F3F3",
"/ 	c #F3F3F3",
"( 	c #EAEAEA",
"_ 	c #EBEAEB",
": 	c #EAEBEA",
"< 	c #EAEAE9",
"[ 	c #EFEEEF",
"} 	c #EFEFEE",
"| 	c #D6D5D6",
"1 	c #F2F1F2",
"2 	c #F2F2F2",
"3 	c #E9E9E9",
"4 	c #ECEBEB",
"5 	c #EBECEB",
"6 	c #EBECEC",
"7 	c #EAE9E9",
"8 	c #EDEDEC",
"9 	c #ECECED",
"0 	c #EDEEED",
"a 	c #D5D6D5",
"b 	c #F4F5F5",
"c 	c #EDECED",
"d 	c #E9E9E8",
"e 	c #E8E8E8",
"f 	c #F5F4F4",
"g 	c #EDECEC",
"h 	c #7B7B7B",
"i 	c #EBEBEA",
"j 	c #7A7A7B",
"k 	c #E9EAEA",
"l 	c #F4F4F3",
"m 	c #ECECEC",
"n 	c #7A7A7A",
"o 	c #E9E9EA",
"p 	c #E8E7E8",
"q 	c #F1F2F1",
"r 	c #E6E6E6",
"s 	c #E7E8E8",
"t 	c #E9E8E8",
"u 	c #E8E9E8",
"v 	c #7A797A",
"w 	c #E7E7E7",
"x 	c #E7E6E7",
"y 	c #E8E7E7",
"z 	c #797979",
"A 	c #E7E8E7",
"B 	c #E7E6E6",
"C 	c #EEEFEE",
"D 	c #E3E3E3",
"E 	c #E5E5E5",
"F 	c #787878",
"G 	c #E6E6E5",
"H 	c #E3E3E4",
"I 	c #EAE9EA",
"J 	c #E2E2E2",
"K 	c #E5E4E4",
"L 	c #E4E4E5",
"M 	c #E4E4E4",
"N 	c #E3E4E3",
"O 	c #D0D0D0",
"P 	c #E0E1E1",
"Q 	c #E1E1E1",
"R 	c #E0E0E0",
"S 	c #E1E0E1",
"T 	c #DEDEDE",
"U 	c #DFDFDF",
"V 	c #E6E5E5",
"W 	c #E2E3E3",
"X 	c #CECECE",
"Y 	c #E8E8E9",
"Z 	c #E8E9E9",
"` 	c #E8E8E7",
"                                      ",
"      . + @ # # # # # # # @ + .       ",
"    $ % & * * * * * * * * * & % $     ",
"  . = - ; > , ' , + + + ) ! ; - = .   ",
"  ~ { ; ] ^ / ( _ : < [ = # } ; { ~   ",
"  / * | 1 2 3 4 5 ] 6 7 8 9 0 a * /   ",
"  2 * b c d 4 5 5 ] 4 ] ( e % f * 2   ",
"  2 * / g 3 ( h h i ] j ( k e l * 2   ",
"  2 * # m 3 ( < n o n n < 3 p q * 2   ",
"  2 * # r s t 3 u v e e e w r # * 2   ",
"  2 * 0 r x y z z A z w B w r C * 2   ",
"  2 * m D E r F r r F F G E H = * 2   ",
"  2 * 8 I J K L E E E E M N B 0 * 2   ",
"  / * O A w P D N H H Q Q R s O * /   ",
"  ~ { ; S r r T U U T D r V W ; { ~   ",
"  . = - ; X e u r G Y Z ` X ; - = .   ",
"    $ % & * * * * * * * * * & % $     ",
"      . + @ # # # # # # # @ + .       ",
"                                      "};
