/* XPM */
static char * minpr_xpm[] = {
"19 19 92 2",
"  	c #FBFBFB",
". 	c #FAFAFA",
"+ 	c #F5F5F5",
"@ 	c #F0F0F0",
"# 	c #EFEFEF",
"$ 	c #F9F9F9",
"% 	c #EDEDED",
"& 	c #C8C8C8",
"* 	c #969696",
"= 	c #EEEEEE",
"- 	c #A2A2A2",
"; 	c #A7A7A7",
"> 	c #D7D7D8",
", 	c #F5F5F6",
"' 	c #F5F6F6",
") 	c #F7F7F7",
"! 	c #D7D7D7",
"~ 	c #F6F6F6",
"{ 	c #C9C9C9",
"] 	c #EBEBEB",
"^ 	c #F2F3F3",
"/ 	c #F3F3F3",
"( 	c #EAEAEA",
"_ 	c #EBEAEB",
": 	c #EAEBEA",
"< 	c #EAEAE9",
"[ 	c #EFEEEF",
"} 	c #EFEFEE",
"| 	c #D6D5D6",
"1 	c #F2F1F2",
"2 	c #F2F2F2",
"3 	c #E9E9E9",
"4 	c #ECEBEB",
"5 	c #EBECEB",
"6 	c #EBECEC",
"7 	c #EAE9E9",
"8 	c #EDEDEC",
"9 	c #ECECED",
"0 	c #EDEEED",
"a 	c #D5D6D5",
"b 	c #F4F5F5",
"c 	c #EDECED",
"d 	c #E9E9E8",
"e 	c #E8E8E8",
"f 	c #F5F4F4",
"g 	c #EDECEC",
"h 	c #EBEBEA",
"i 	c #E9EAEA",
"j 	c #F4F4F3",
"k 	c #ECECEC",
"l 	c #7A7A7A",
"m 	c #E9E9EA",
"n 	c #E8E7E8",
"o 	c #F1F2F1",
"p 	c #E6E6E6",
"q 	c #E7E8E8",
"r 	c #E9E8E8",
"s 	c #797A79",
"t 	c #E9E8E9",
"u 	c #797979",
"v 	c #E7E7E7",
"w 	c #E7E6E7",
"x 	c #E8E7E7",
"y 	c #E7E6E6",
"z 	c #EEEFEE",
"A 	c #E3E3E3",
"B 	c #E5E5E5",
"C 	c #E5E6E6",
"D 	c #E6E5E6",
"E 	c #E6E6E5",
"F 	c #E3E3E4",
"G 	c #EAE9EA",
"H 	c #E2E2E2",
"I 	c #E5E4E4",
"J 	c #E4E4E5",
"K 	c #E4E4E4",
"L 	c #E3E4E3",
"M 	c #D0D0D0",
"N 	c #E7E8E7",
"O 	c #E0E1E1",
"P 	c #E1E1E1",
"Q 	c #E0E0E0",
"R 	c #E1E0E1",
"S 	c #DEDEDE",
"T 	c #DFDFDF",
"U 	c #E6E5E5",
"V 	c #E2E3E3",
"W 	c #CECECE",
"X 	c #E8E9E8",
"Y 	c #E8E8E9",
"Z 	c #E8E9E9",
"` 	c #E8E8E7",
"                                      ",
"      . + @ # # # # # # # @ + .       ",
"    $ % & * * * * * * * * * & % $     ",
"  . = - ; > , ' , + + + ) ! ; - = .   ",
"  ~ { ; ] ^ / ( _ : < [ = # } ; { ~   ",
"  / * | 1 2 3 4 5 ] 6 7 8 9 0 a * /   ",
"  2 * b c d 4 5 5 ] 4 ] ( e % f * 2   ",
"  2 * / g 3 ( ] ( h ] ( ( i e j * 2   ",
"  2 * # k 3 ( l ( m i l < 3 n o * 2   ",
"  2 * # p q r 3 s t u e e v p # * 2   ",
"  2 * 0 p w x v v u v v y v p z * 2   ",
"  2 * k A B p p p p C D E B F = * 2   ",
"  2 * 8 G H I J B B B B K L y 0 * 2   ",
"  / * M N v O A L F F P P Q q M * /   ",
"  ~ { ; R p p S T T S A p U V ; { ~   ",
"  . = - ; W e X p E Y Z ` W ; - = .   ",
"    $ % & * * * * * * * * * & % $     ",
"      . + @ # # # # # # # @ + .       ",
"                                      "};
