/* XPM */
static char * tbarfcs_xpm[] = {
"21 21 14 1",
" 	c #A9C676",
".	c #A8C676",
"+	c #A8C675",
"@	c #A8C575",
"#	c #A8C574",
"$	c #A4BD6B",
"%	c #A4BD6C",
"&	c #A4BE6C",
"*	c #A5BF6D",
"=	c #A5BF6E",
"-	c #A6C06F",
";	c #A6C170",
">	c #A7C372",
",	c #A8C473",
"                     ",
"........             ",
"+++++++++++++........",
"+++++++++++++++++++++",
"+++++++++++++++++++++",
"+++++++++++++++++++++",
"@@@@@@@@@@@@@@@@@@+++",
"@@@@@@@@@@@@@@@@@@@@@",
"@@@@@@@@@@@@@@@@@@@@@",
"@@@@@@@@@@@@@@@@@@@@@",
"#####################",
"$$$$$$$$$$$$$$$$$$$$$",
"%&&&&&&&&&&&&&&&&&&&&",
"**===================",
"---------------------",
";;;;;;;;;;;;;;;;;;;;;",
">>>>>>>>>>>>>>>>>>>>>",
",,,,,,,,,,,,,,,,,,,,,",
"@@@@@@@@@@@@@@@@@@@@@",
"                     ",
"                     "};
