/* XPM */
static char * stickpr_xpm[] = {
"21 21 140 2",
"  	c #F1F1F1",
". 	c #EFEFEF",
"+ 	c #EDEDED",
"@ 	c #EBEBEB",
"# 	c #EAEAEA",
"$ 	c #DDDDDD",
"% 	c #DBDBDB",
"& 	c #D9D9D9",
"* 	c #D7D7D7",
"= 	c #D6D6D6",
"- 	c #D5D5D5",
"; 	c #CECECE",
"> 	c #CCCCCC",
", 	c #CACACA",
"' 	c #C8C8C8",
") 	c #C7C7C7",
"! 	c #C6C6C6",
"~ 	c #C5C5C5",
"{ 	c #C0C0C0",
"] 	c #C4C4C4",
"^ 	c #C2C2C2",
"/ 	c #BEBEBE",
"( 	c #ADAEAF",
"_ 	c #BDBDBE",
": 	c #BABABB",
"< 	c #B0B1B2",
"[ 	c #898F95",
"} 	c #AEAFB1",
"| 	c #BEBEBF",
"1 	c #CDCDCD",
"2 	c #CBCBCB",
"3 	c #C9C9C9",
"4 	c #BFBFC0",
"5 	c #FFFFFF",
"6 	c #A1A5A9",
"7 	c #BABBBC",
"8 	c #C3C3C3",
"9 	c #D1D1D1",
"0 	c #CFCFCF",
"a 	c #BCBDBE",
"b 	c #A3A7AA",
"c 	c #F8FBFF",
"d 	c #9CA1A6",
"e 	c #B8B9BA",
"f 	c #D3D3D3",
"g 	c #9EA3A8",
"h 	c #EBF4FD",
"i 	c #ECF4FE",
"j 	c #9BA0A5",
"k 	c #BBBDBE",
"l 	c #DADADA",
"m 	c #D8D8D8",
"n 	c #D2D2D2",
"o 	c #BFC0C1",
"p 	c #9DA3A8",
"q 	c #DFEEFB",
"r 	c #DEEDFB",
"s 	c #9FA5AB",
"t 	c #E0E0E0",
"u 	c #DEDEDE",
"v 	c #DCDCDC",
"w 	c #C3C5C6",
"x 	c #A2A8AE",
"y 	c #D3E6F7",
"z 	c #D3E6F8",
"A 	c #A4ABB1",
"B 	c #C5C7C8",
"C 	c #E6E6E6",
"D 	c #E4E4E4",
"E 	c #E1E1E1",
"F 	c #CACCCD",
"G 	c #A7ADB3",
"H 	c #C7DDF4",
"I 	c #C5DFF4",
"J 	c #A9AFB5",
"K 	c #ECECEC",
"L 	c #E9E9E9",
"M 	c #E3E3E3",
"N 	c #CED0D1",
"O 	c #ADB3B9",
"P 	c #BAD5EF",
"Q 	c #BAD6EE",
"R 	c #AFB5BC",
"S 	c #E7E7E7",
"T 	c #E2E2E2",
"U 	c #D2D4D5",
"V 	c #B1B7BE",
"W 	c #AECDE9",
"X 	c #AFCCE8",
"Y 	c #B2B9BF",
"Z 	c #D4D6D7",
"` 	c #F6F6F6",
" .	c #F4F4F4",
"..	c #F2F2F2",
"+.	c #F0F0F0",
"@.	c #D8D9DB",
"#.	c #B6BCC3",
"$.	c #A2C3E2",
"%.	c #A2C4E2",
"&.	c #B7BEC5",
"*.	c #FAFAFA",
"=.	c #F8F8F8",
"-.	c #DBDDDF",
";.	c #B9C0C7",
">.	c #96B9D9",
",.	c #96BADA",
"'.	c #BCC3CA",
").	c #FDFDFD",
"!.	c #FBFBFB",
"~.	c #F9F9F9",
"{.	c #F7F7F7",
"].	c #F3F3F3",
"^.	c #DEE0E1",
"/.	c #BEC6CC",
"(.	c #8BAFD1",
"_.	c #8CB0D1",
":.	c #C3C9CF",
"<.	c #DFE1E2",
"[.	c #E2E4E5",
"}.	c #C6CCD2",
"|.	c #80A6C8",
"1.	c #80A6C7",
"2.	c #CED2D7",
"3.	c #E4E5E6",
"4.	c #FEFEFE",
"5.	c #FCFCFC",
"6.	c #F5F5F5",
"7.	c #CED3D8",
"8.	c #759BBD",
"9.	c #D9DCDF",
"0.	c #E9EAEB",
"a.	c #ECEDED",
"b.	c #DBDEE0",
"c.	c #C8CED4",
"d.	c #90A8BE",
"e.	c #E8E8E9",
"f.	c #EEEEEE",
"g.	c #E7E8E9",
"h.	c #DADCDF",
"i.	c #DADDE0",
"          . . + + @ # # @ + + . .         ",
"$ $ $ $ % % & & * = - - = * & & % % $ $ $ ",
"; ; ; ; ; > , ' ) ! ~ { ] ) ' , > ; ; ; ; ",
"; ; ; ; > > , ' ! ^ / ( _ ] ' , > > ; ; ; ",
"> > > > , ' ) ~ { : < [ } | ~ ) ' , > > > ",
"1 1 1 2 2 3 ) ~ 4 } 5 5 6 7 8 ) 3 2 2 1 1 ",
"9 9 9 0 0 1 2 ! a b c c d e ! 2 1 0 0 9 9 ",
"- - - f f 9 0 3 7 g h i j k 3 0 9 f f - - ",
"l l l m m = n ; o p q r s o ; n = m m l l ",
"t t t u u v m f w x y z A B f m v u u t t ",
"C C C D D E u m F G H I J F m u E D D C C ",
"K K K # L C M $ N O P Q R N $ M C L # K K ",
"      . + @ S T U V W X Y Z T S @ + .     ",
"` ` `  ...+.K C @.#.$.%.&.@.C K +... .` ` ",
"*.*.*.=.`  .+.# -.;.>.,.'.-.# +. .` =.*.*.",
").).).!.~.{.].+ ^./.(._.:.<.+ ].{.~.!.).).",
"5 5 5 ).!.~.` . [.}.|.1.2.3.. ` ~.!.).5 5 ",
"4.4.4.4.5.=.6.+.3.7.8.8.9.0...6.=.5.4.4.4.",
"4.4.4.4.5.*.`  .a.b.c.d.e.f. .` *.5.4.4.4.",
"4.4.4.4.5.*.=.6.f.g.h.i.f...6.=.*.5.4.4.4.",
", , , , , ' ' ! ! ] ] ] ] ! ! ' ' , , , , "};
