/* XPM */
static char * unshadeufcs_xpm[] = {
"21 21 25 1",
" 	c #F1F1F1",
".	c #DDDDDD",
"+	c #CECECE",
"@	c #CCCCCC",
"#	c #CDCDCD",
"$	c #D1D1D1",
"%	c #D5D5D5",
"&	c #DADADA",
"*	c #E0E0E0",
"=	c #E6E6E6",
"-	c #ECECEC",
";	c #EFEFEF",
">	c #E9E9E9",
",	c #EDEDED",
"'	c #F6F6F6",
")	c #EEEEEE",
"!	c #464646",
"~	c #DEDEDE",
"{	c #FAFAFA",
"]	c #F7F7F7",
"^	c #D9D9D9",
"/	c #FDFDFD",
"(	c #FFFFFF",
"_	c #FEFEFE",
":	c #CACACA",
"                     ",
".....................",
"+++++++++++++++++++++",
"+++++++++++++++++++++",
"@@@@@@@@@@@@@@@@@@@@@",
"#####################",
"$$$$$$$$$$$$$$$$$$$$$",
"%%%%%%%%%%%%%%%%%%%%%",
"&&&&&&&&&&&&&&&&&&&&&",
"*********************",
"=====================",
"---------------------",
"       ;>,>,>;       ",
"''''''')!~!~!)'''''''",
"{{{{{{{]>!^!>]{{{{{{{",
"////////{-!-{////////",
"(((((((((/]/(((((((((",
"_____________________",
"_____________________",
"_____________________",
":::::::::::::::::::::"};
