/* XPM */
static char * menuiconufcs_xpm[] = {
"19 19 96 2",
"  	c #F4F3F0",
". 	c #DFDDD9",
"+ 	c #E0DEDB",
"@ 	c #9F9D9B",
"# 	c #E1E0DD",
"$ 	c #9F9F9D",
"% 	c #F8F8F7",
"& 	c #F8F7F7",
"* 	c #F2F2F0",
"= 	c #F2F2EF",
"- 	c #F2F1EF",
"; 	c #F1F0EE",
"> 	c #F0EFED",
", 	c #EFEEED",
"' 	c #EEEDEC",
") 	c #E3E1DF",
"! 	c #A19F9E",
"~ 	c #F9F8F8",
"{ 	c #F3F2F0",
"] 	c #F2F1F0",
"^ 	c #F1F0EF",
"/ 	c #F0EFEE",
"( 	c #EFEDEC",
"_ 	c #EEECEB",
": 	c #EDECEA",
"< 	c #ECEBE9",
"[ 	c #EDECE9",
"} 	c #ECEAE9",
"| 	c #EBEAE8",
"1 	c #EAE8E7",
"2 	c #E8E7E5",
"3 	c #E5E3E0",
"4 	c #A2A19F",
"5 	c #F9F9F8",
"6 	c #F1EFED",
"7 	c #F0EFEC",
"8 	c #EFEEEB",
"9 	c #EEEDEB",
"0 	c #ECEAE8",
"a 	c #EBE9E7",
"b 	c #EAE8E6",
"c 	c #E9E7E4",
"d 	c #E8E6E4",
"e 	c #E7E5E2",
"f 	c #E6E5E1",
"g 	c #A3A29F",
"h 	c #EDEBE9",
"i 	c #ECECE9",
"j 	c #ADADAB",
"k 	c #ADACAA",
"l 	c #ACABAA",
"m 	c #ABAAA9",
"n 	c #E4E2DE",
"o 	c #E3E1DD",
"p 	c #EBEAE7",
"q 	c #EBE9E6",
"r 	c #EAE9E5",
"s 	c #ACACAA",
"t 	c #ABABA9",
"u 	c #ABAAA8",
"v 	c #AAA9A7",
"w 	c #E3E2DD",
"x 	c #E8E7E3",
"y 	c #E5E4E0",
"z 	c #A9A9A6",
"A 	c #A9A8A6",
"B 	c #E2E1DD",
"C 	c #E1E1DC",
"D 	c #E8E6E3",
"E 	c #A4A3A1",
"F 	c #FAF9F9",
"G 	c #E6E4E1",
"H 	c #E6E4E0",
"I 	c #E6E3E0",
"J 	c #E5E3DF",
"K 	c #E5E2DF",
"L 	c #E4E2DF",
"M 	c #E4E1DF",
"N 	c #E3E1DE",
"O 	c #E3E0DD",
"P 	c #E6E3E1",
"Q 	c #E3E0DC",
"R 	c #E2E0DC",
"S 	c #E1DEDA",
"T 	c #FAFAF9",
"U 	c #EAE8E5",
"V 	c #A6A4A2",
"W 	c #E4E3DF",
"X 	c #E4E1DD",
"Y 	c #E3E0DB",
"Z 	c #A7A6A4",
"` 	c #FAFAFA",
" .	c #E6E4E2",
"..	c #E5E4E1",
"+.	c #E2E1DC",
"@.	c #A7A7A5",
"                                      ",
". . . . . . . . . . . . . . . . . . . ",
"+ + + + @ @ @ @ @ @ @ @ @ @ @ + + + + ",
"# # + $ % & % % % % & % % & % $ # # # ",
"# # $ % * = = = = = - ; > , ' % $ # # ",
") ) ! ~ { { { ] ^ / , ( _ : < ~ ! ) ) ",
") ) ! ~ ] ^ / , ( _ [ } | 1 2 ~ ! ) ) ",
"3 3 4 5 6 7 8 9 : 0 a b c d e 5 4 3 3 ",
"f 3 g 5 _ h i j j k l m f n o 5 g 3 3 ",
"f f g 5 p q r s t u v v n w o 5 g f f ",
"f f g 5 x f y v v v z A B B C 5 g f f ",
"D D E F G H I J K L M N N o O F E D D ",
"D D E F J L L N P N o Q R n S T E D D ",
"U U V T P 3 3 J W n n X o Q Y T V U U ",
"p p Z `  .....y y J W n w o +.` Z p p ",
"p p p Z ` ` ` ` ` ` ` ` ` ` ` Z p p p ",
"< < < < @.@.@.@.@.@.@.@.@.@.@.< < < < ",
"9 < 9 9 9 9 < < < 9 < 9 9 9 9 9 9 9 9 ",
"                                      "};
