/* XPM */
static char * menuiconfcs_xpm[] = {
"19 19 179 2",
"  	c #A5D5F6",
". 	c #A6D5F6",
"+ 	c #A7D6F6",
"@ 	c #A8D6F6",
"# 	c #4B9FD9",
"$ 	c #4C9FD9",
"% 	c #4FA1DA",
"& 	c #5AA7DC",
"* 	c #6BAEDF",
"= 	c #73B4E1",
"- 	c #75B4E1",
"; 	c #76B5E1",
"> 	c #76B5E0",
", 	c #74B3E1",
"' 	c #6BAFDF",
") 	c #59A7DC",
"! 	c #4FA0DA",
"~ 	c #4C9ED9",
"{ 	c #50A1DB",
"] 	c #53A3DC",
"^ 	c #60AADD",
"/ 	c #79B8E3",
"( 	c #266591",
"_ 	c #5FA9DD",
": 	c #50A2DB",
"< 	c #55A5DD",
"[ 	c #62ACDF",
"} 	c #7BB9E5",
"| 	c #ABD6F0",
"1 	c #A1D2EE",
"2 	c #A1D2ED",
"3 	c #A0D2ED",
"4 	c #ABD6EF",
"5 	c #7CB9E4",
"6 	c #62ABDF",
"7 	c #5DA8DF",
"8 	c #76B7E4",
"9 	c #AED7F0",
"0 	c #B0DBF2",
"a 	c #AEDCF2",
"b 	c #AEDBF2",
"c 	c #ACD8F2",
"d 	c #A7D7F0",
"e 	c #9BCFEB",
"f 	c #94CBE9",
"g 	c #AFD8F0",
"h 	c #75B7E4",
"i 	c #5DA9DF",
"j 	c #62ADE1",
"k 	c #81BDE7",
"l 	c #AAD7F2",
"m 	c #ACD8F1",
"n 	c #A5D5EE",
"o 	c #9ED2EC",
"p 	c #97CEEA",
"q 	c #92CAE7",
"r 	c #8BC9E5",
"s 	c #84C3E1",
"t 	c #7BC1E1",
"u 	c #ABD8F2",
"v 	c #62ACE0",
"w 	c #66AFE2",
"x 	c #85C0E8",
"y 	c #ADD9F2",
"z 	c #A8D8F1",
"A 	c #A3D5EE",
"B 	c #9DD1EB",
"C 	c #96CEEA",
"D 	c #91CAE7",
"E 	c #89C7E4",
"F 	c #81C3E1",
"G 	c #79BFE2",
"H 	c #73BAE2",
"I 	c #6BB4E1",
"J 	c #66B2E2",
"K 	c #85C0E9",
"L 	c #65AFE3",
"M 	c #69B2E4",
"N 	c #88C1E9",
"O 	c #AFDAF3",
"P 	c #96CBE9",
"Q 	c #8DC9E6",
"R 	c #87C6E4",
"S 	c #80C1E3",
"T 	c #79BCE3",
"U 	c #71BAE3",
"V 	c #68B4E3",
"W 	c #64AFE3",
"X 	c #64AEE3",
"Y 	c #69B2E5",
"Z 	c #6DB5E6",
"` 	c #8BC2EA",
" .	c #B5DBF4",
"..	c #7DC1E6",
"+.	c #77BCE5",
"@.	c #6FB8E5",
"#.	c #FFFFFF",
"$.	c #68B2E5",
"%.	c #68B1E5",
"&.	c #6DB4E6",
"*.	c #B5DCF4",
"=.	c #71B7E7",
"-.	c #8EC5EB",
";.	c #B8DFF6",
">.	c #71B7E8",
",.	c #6CB4E6",
"'.	c #6CB4E7",
").	c #B8E0F5",
"!.	c #8EC5EC",
"~.	c #75BAE9",
"{.	c #91C7ED",
"].	c #BCE1F6",
"^.	c #70B6E8",
"/.	c #70B7E8",
"(.	c #70B7E9",
"_.	c #75B9EA",
":.	c #79BBEA",
"<.	c #94C9EE",
"[.	c #C0E4F8",
"}.	c #79BCEB",
"|.	c #74B9EA",
"1.	c #74BAEA",
"2.	c #2B86B5",
"3.	c #79BBEB",
"4.	c #C0E4F7",
"5.	c #7DBEEC",
"6.	c #98CCF0",
"7.	c #C6E7FA",
"8.	c #7DBEED",
"9.	c #78BCEC",
"0.	c #2C87B6",
"a.	c #79BCEC",
"b.	c #C6E8FA",
"c.	c #81C1EE",
"d.	c #9ACEF1",
"e.	c #CBE9FB",
"f.	c #82C2EE",
"g.	c #7DBFED",
"h.	c #7DBFEE",
"i.	c #7CBFED",
"j.	c #7CBFEE",
"k.	c #7CBEED",
"l.	c #82C1EF",
"m.	c #CBEBFB",
"n.	c #84C4EF",
"o.	c #98CCF2",
"p.	c #D4EEFC",
"q.	c #8DC8F0",
"r.	c #85C5F0",
"s.	c #84C4F0",
"t.	c #84C3F0",
"u.	c #85C3F0",
"v.	c #85C4F0",
"w.	c #8EC7F1",
"x.	c #97CCF2",
"y.	c #83C3EF",
"z.	c #86C4F1",
"A.	c #8EC9F2",
"B.	c #A1D2F4",
"C.	c #D7F0FC",
"D.	c #D2EDFC",
"E.	c #D0EDFC",
"F.	c #89C7F2",
"G.	c #8BC7F2",
"H.	c #93CCF4",
"I.	c #A5D4F6",
"J.	c #A4D4F5",
"K.	c #8AC8F3",
"L.	c #88C7F2",
"M.	c #8CCAF4",
"N.	c #8CC9F4",
"O.	c #8FCAF4",
"P.	c #96CDF5",
"Q.	c #A0D2F5",
"R.	c #A6D5F5",
"S.	c #A7D5F5",
"T.	c #A5D5F5",
"U.	c #95CEF5",
"V.	c #8DC9F4",
"      . + @ @ @ @ @ @ @ @ @ + .       ",
"# $ % & * = - ; > ; ; ; - , ' ) ! ~ # ",
"{ ] ^ / ( ( ( ( ( ( ( ( ( ( ( / _ ] : ",
"< [ } ( | 1 2 1 1 2 3 2 1 2 4 ( 5 6 < ",
"7 8 ( 9 0 a b b a a c d 3 e f g ( h i ",
"j k ( l b 0 0 m n o p q r s t u ( k v ",
"w x ( y z A B C D E F G H I J y ( K L ",
"M N ( O P Q R S T U V W X W M O ( N Y ",
"Z ` (  ...+.@.#.#.#.#.#.$.%.&.*.( ` &.",
"=.-.( ;.>.,.'.#.#.#.#.#.'.'.>.).( !.>.",
"~.{.( ].~.^./.#.#.#.#.#.^.(._.].( {.~.",
":.<.( [.}.|.1.2.2.2.2.2.|.|.3.4.( <.}.",
"5.6.( 7.8.9.9.0.0.0.0.0.9.a.5.b.( 6.5.",
"c.d.( e.f.g.g.h.i.i.j.i.j.k.l.m.( d.c.",
"n.o.( p.q.r.s.t.t.t.u.u.v.v.w.p.( x.y.",
"z.A.B.( C.D.E.D.E.E.E.E.E.D.C.( B.A.v.",
"F.G.H.I.( ( ( ( ( ( ( ( ( ( ( J.H.K.L.",
"M.N.O.P.Q.R.R.. R.S.R.S.S.T.Q.U.O.M.V.",
"      . + @ @ @ @ @ @ @ @ @ + .       "};
