/* XPM */
static char * shadeufcs_xpm[] = {
"19 19 94 2",
"  	c #F4F3F0",
". 	c #DFDDD9",
"+ 	c #E0DEDB",
"@ 	c #9F9D9B",
"# 	c #E1E0DD",
"$ 	c #9F9F9D",
"% 	c #F8F8F7",
"& 	c #F8F7F7",
"* 	c #F2F2F0",
"= 	c #F2F2EF",
"- 	c #F2F1EF",
"; 	c #F1F0EE",
"> 	c #F0EFED",
", 	c #EFEEED",
"' 	c #EEEDEC",
") 	c #E3E1DF",
"! 	c #A19F9E",
"~ 	c #F9F8F8",
"{ 	c #F3F2F0",
"] 	c #F2F1F0",
"^ 	c #F1F0EF",
"/ 	c #F0EFEE",
"( 	c #EFEDEC",
"_ 	c #EEECEB",
": 	c #EDECEA",
"< 	c #ECEBE9",
"[ 	c #B0AFAF",
"} 	c #AFAFAE",
"| 	c #AFAEAE",
"1 	c #AFAEAD",
"2 	c #AEAEAC",
"3 	c #AEADAC",
"4 	c #ADADAC",
"5 	c #EAE8E7",
"6 	c #E8E7E5",
"7 	c #E5E3E0",
"8 	c #A2A19F",
"9 	c #F9F9F8",
"0 	c #F1EFED",
"a 	c #F0EFEC",
"b 	c #EFEEEB",
"c 	c #EEEDEB",
"d 	c #ECEAE8",
"e 	c #EBE9E7",
"f 	c #EAE8E6",
"g 	c #E9E7E4",
"h 	c #E8E6E4",
"i 	c #E7E5E2",
"j 	c #E6E5E1",
"k 	c #A3A29F",
"l 	c #EDEBE9",
"m 	c #ECECE9",
"n 	c #EBEAE7",
"o 	c #EBEAE6",
"p 	c #EAE9E5",
"q 	c #E4E2DE",
"r 	c #E3E1DD",
"s 	c #EBE9E6",
"t 	c #E9E8E4",
"u 	c #E7E6E2",
"v 	c #E5E3DF",
"w 	c #E4E3DF",
"x 	c #E3E2DD",
"y 	c #E8E7E3",
"z 	c #E5E4E0",
"A 	c #E4E3DE",
"B 	c #E2E1DD",
"C 	c #E1E1DC",
"D 	c #E8E6E3",
"E 	c #A4A3A1",
"F 	c #FAF9F9",
"G 	c #E6E4E1",
"H 	c #E6E4E0",
"I 	c #E6E3E0",
"J 	c #E5E2DF",
"K 	c #E4E2DF",
"L 	c #E4E1DF",
"M 	c #E3E1DE",
"N 	c #E3E0DD",
"O 	c #E6E3E1",
"P 	c #E3E0DC",
"Q 	c #E2E0DC",
"R 	c #E1DEDA",
"S 	c #FAFAF9",
"T 	c #EAE8E5",
"U 	c #A6A4A2",
"V 	c #E4E1DD",
"W 	c #E3E0DB",
"X 	c #A7A6A4",
"Y 	c #FAFAFA",
"Z 	c #E6E4E2",
"` 	c #E5E4E1",
" .	c #E2E1DC",
"..	c #A7A7A5",
"                                      ",
". . . . . . . . . . . . . . . . . . . ",
"+ + + + @ @ @ @ @ @ @ @ @ @ @ + + + + ",
"# # + $ % & % % % % & % % & % $ # # # ",
"# # $ % * = = = = = - ; > , ' % $ # # ",
") ) ! ~ { { { ] ^ / , ( _ : < ~ ! ) ) ",
") ) ! ~ ] ^ [ } | 1 2 3 4 5 6 ~ ! ) ) ",
"7 7 8 9 0 a b c : d e f g h i 9 8 7 7 ",
"j 7 k 9 _ l m n o p h i j q r 9 k 7 7 ",
"j j k 9 n s p t u j v w q x r 9 k j j ",
"j j k 9 y j z w A q x r B B C 9 k j j ",
"D D E F G H I v J K L M M r N F E D D ",
"D D E F v K K M O M r P Q q R S E D D ",
"T T U S O 7 7 v w q q V r P W S U T T ",
"n n X Y Z ` ` z z v w q x r  .Y X n n ",
"n n n X Y Y Y Y Y Y Y Y Y Y Y X n n n ",
"< < < < ......................< < < < ",
"c < c c c c < < < c < c c c c c c c c ",
"                                      "};
