/* XPM */
static char * shadefcs_xpm[] = {
"21 21 24 1",
" 	c #FAFAFA",
".	c #F9F9F9",
"+	c #F8F8F8",
"@	c #F6F6F6",
"#	c #F5F5F5",
"$	c #F3F3F3",
"%	c #F2F2F2",
"&	c #F1F1F1",
"*	c #EFEFEF",
"=	c #EEEEEE",
"-	c #EDEDED",
";	c #ECECEC",
">	c #EBEBEB",
",	c #EAEAEA",
"'	c #E9E9E9",
")	c #9D91C4",
"!	c #E8E8E8",
"~	c #9D91C3",
"{	c #C1B1F5",
"]	c #E7E7E7",
"^	c #C1B0F4",
"/	c #E6E6E6",
"(	c #E5E5E5",
"_	c #E4E4E4",
"                     ",
"                     ",
"                     ",
"                     ",
"                     ",
"                     ",
"                     ",
".............++++++++",
"@#@@#@@##############",
"$$%%%%%%%%%%%%%%%&&%%",
"*********===**===*===",
"=====================",
"--------------------;",
";;;;;;;;;;;;;;;>;;>;;",
">>>>>>>>>,>,>,,>>>,,>",
",'''',''',))',','',''",
"!!!'!'!!!~{{)!!!!!!!!",
"]]]]]]]]~^^^^~]]]]]]]",
"///////~~~~~~~~//////",
"(((((((((((((((((((((",
"_____________________"};
