/* XPM */
static char * stuckufcs_xpm[] = {
"21 21 250 2",
"  	c #788C99",
". 	c #778B98",
"+ 	c #768A97",
"@ 	c #758996",
"# 	c #738794",
"$ 	c #708390",
"% 	c #6C7F8C",
"& 	c #6B7E8B",
"* 	c #6D808D",
"= 	c #708491",
"- 	c #748895",
"; 	c #718592",
"> 	c #627481",
", 	c #576772",
"' 	c #4E5C67",
") 	c #4A5863",
"! 	c #495963",
"~ 	c #4E5F69",
"{ 	c #586A77",
"] 	c #647884",
"^ 	c #6D818E",
"/ 	c #728693",
"( 	c #6E828F",
"_ 	c #647683",
": 	c #54646E",
"< 	c #53636C",
"[ 	c #80919D",
"} 	c #99A7B8",
"| 	c #9FB0C1",
"1 	c #9CAAC0",
"2 	c #899CB1",
"3 	c #758799",
"4 	c #536270",
"5 	c #586A75",
"6 	c #667A87",
"7 	c #6F8390",
"8 	c #4C5B64",
"9 	c #6D7E8A",
"0 	c #A8BFC9",
"a 	c #8EA4B2",
"b 	c #768C9F",
"c 	c #698395",
"d 	c #667D94",
"e 	c #677F94",
"f 	c #718BA6",
"g 	c #859CB8",
"h 	c #607384",
"i 	c #50626F",
"j 	c #657986",
"k 	c #677A87",
"l 	c #55656E",
"m 	c #6D7C88",
"n 	c #9DB2C0",
"o 	c #7592A1",
"p 	c #667B8F",
"q 	c #597388",
"r 	c #586C83",
"s 	c #556780",
"t 	c #546480",
"u 	c #536480",
"v 	c #5A738E",
"w 	c #7993AE",
"x 	c #63788A",
"y 	c #586B78",
"z 	c #697D8A",
"A 	c #6B7F8C",
"B 	c #697D89",
"C 	c #5E6F7C",
"D 	c #52606C",
"E 	c #A8B6C8",
"F 	c #7A90A1",
"G 	c #60748C",
"H 	c #6D869C",
"I 	c #829AB3",
"J 	c #7C98B2",
"K 	c #7793AF",
"L 	c #6F8AA5",
"M 	c #586F8A",
"N 	c #475F79",
"O 	c #5D7891",
"P 	c #8AA4BC",
"Q 	c #546575",
"R 	c #607480",
"S 	c #6A7D8B",
"T 	c #657985",
"U 	c #53646E",
"V 	c #7E8A9A",
"W 	c #879CAF",
"X 	c #63758C",
"Y 	c #69839A",
"Z 	c #7F98B2",
"` 	c #7995B0",
" .	c #7692AE",
"..	c #7089AA",
"+.	c #6B89A6",
"@.	c #6583A1",
"#.	c #4F6984",
"$.	c #48647E",
"%.	c #708CA8",
"&.	c #71879D",
"*.	c #576A77",
"=.	c #677B88",
"-.	c #617581",
";.	c #4C5C65",
">.	c #91A1B2",
",.	c #75849D",
"'.	c #56697C",
").	c #758EAA",
"!.	c #7390AA",
"~.	c #718AA8",
"{.	c #6C88A5",
"].	c #6983A1",
"^.	c #647F9F",
"/.	c #63799D",
"(.	c #5D7997",
"_.	c #425774",
":.	c #5F7996",
"<.	c #839DB5",
"[.	c #516270",
"}.	c #637784",
"|.	c #5F737F",
"1.	c #9CA9BE",
"2.	c #677A90",
"3.	c #4B6079",
"4.	c #6F8AA6",
"5.	c #6B88A3",
"6.	c #6783A1",
"7.	c #6480A0",
"8.	c #617D9C",
"9.	c #5D7998",
"0.	c #587896",
"a.	c #5D7996",
"b.	c #3F536D",
"c.	c #57738E",
"d.	c #8FABC2",
"e.	c #4E5F6C",
"f.	c #617582",
"g.	c #5C6F7B",
"h.	c #43525C",
"i.	c #8EA1B5",
"j.	c #5F7081",
"k.	c #3D5067",
"l.	c #5B7590",
"m.	c #55718E",
"n.	c #526E8A",
"o.	c #4E6988",
"p.	c #4C6984",
"q.	c #4F6D88",
"r.	c #364E60",
"s.	c #85A1BA",
"t.	c #475862",
"u.	c #596C77",
"v.	c #5B6E7A",
"w.	c #576A76",
"x.	c #475760",
"y.	c #7F94A9",
"z.	c #62768B",
"A.	c #3D536B",
"B.	c #4D6784",
"C.	c #516A88",
"D.	c #4E6888",
"E.	c #4C6884",
"F.	c #46607E",
"G.	c #3A5269",
"H.	c #587891",
"I.	c #8299B2",
"J.	c #4A5B67",
"K.	c #586B77",
"L.	c #5A6C78",
"M.	c #586A76",
"N.	c #4F5F68",
"O.	c #708292",
"P.	c #74899C",
"Q.	c #485A70",
"R.	c #3A5264",
"S.	c #4C6881",
"T.	c #4F6881",
"U.	c #364E65",
"V.	c #485E75",
"W.	c #768FAC",
"X.	c #75889C",
"Y.	c #50626D",
"Z.	c #596B76",
"`.	c #596B77",
" +	c #556571",
".+	c #505F6B",
"++	c #8A9FB5",
"@+	c #5F7389",
"#+	c #425369",
"$+	c #3A5265",
"%+	c #425E75",
"&+	c #4C6481",
"*+	c #425A75",
"=+	c #42576D",
"-+	c #8DA6BF",
";+	c #526370",
">+	c #556873",
",+	c #576975",
"'+	c #566974",
")+	c #556773",
"!+	c #4E5E68",
"~+	c #647584",
"{+	c #859CB2",
"]+	c #637891",
"^+	c #4C6079",
"/+	c #364B60",
"(+	c #3F5265",
"_+	c #486079",
":+	c #637D96",
"<+	c #889FBA",
"[+	c #677C8B",
"}+	c #4E5F6B",
"|+	c #566773",
"1+	c #556772",
"2+	c #53636E",
"3+	c #4C5B65",
"4+	c #687C89",
"5+	c #94AAC0",
"6+	c #7A93AC",
"7+	c #657E96",
"8+	c #5D748D",
"9+	c #5F748E",
"0+	c #697E97",
"a+	c #7F98B1",
"b+	c #97ADC4",
"c+	c #6A7E8F",
"d+	c #4C5D66",
"e+	c #536570",
"f+	c #51636E",
"g+	c #4E5E69",
"h+	c #52626F",
"i+	c #788B9D",
"j+	c #8CA4B8",
"k+	c #9CB1C7",
"l+	c #99B3C7",
"m+	c #8EA5BA",
"n+	c #798EA0",
"o+	c #536470",
"p+	c #4D5F6A",
"q+	c #52646F",
"r+	c #51636F",
"s+	c #4F616D",
"t+	c #4C5E69",
"u+	c #4A5A65",
"v+	c #4A5964",
"w+	c #495964",
"x+	c #4B5B66",
"y+	c #4F616C",
"z+	c #4D5F69",
"A+	c #4E5F6A",
"                                          ",
". + . + . . . . . . . + . + . . . . . . . ",
"@ @ @ @ @ @ # $ % & & * = - @ @ @ @ @ @ @ ",
"# # # # ; % > , ' ) ! ~ { ] ^ / # # # # # ",
"/ / / ( _ : < [ } | 1 2 3 4 5 6 = / / / / ",
"7 7 ^ > 8 9 0 a b c d e f g h i j ( 7 7 7 ",
"^ ^ k l m n o p q r s t u v w x y z ^ ^ ^ ",
"A B C D E F G H I J K L M N O P Q R S A A ",
"z T U V W X Y Z `  ...+.@.#.$.%.&.*.6 z z ",
"=.-.;.>.,.'.).!.~.{.].^./.(._.:.<.[.}.=.=.",
"j |.) 1.2.3.4.5.6.7.8.9.0.a.b.c.d.e.f.j j ",
"g.5 h.i.j.k.l.m.M n.o.#.p.q.r.#.s.t.u.g.g.",
"v.w.x.y.z.A.B.C.D.E.E.E.E.F.G.H.I.J.K.v.v.",
"L.M.N.O.P.Q.R.S.S.S.S.S.T.U.V.W.X.Y.Z.L.L.",
"`.`. +.+++@+#+$+%+S.&+*+U.=+O -+;+>+`.u.`.",
",+'+)+!+~+{+]+^+$+/+/+(+_+:+<+[+}+,+,+,+,+",
"|+1+|+2+3+4+5+6+7+8+9+0+a+b+c+d+e+1+1+1+|+",
"e+e+e+e+f+g+h+i+j+k+l+m+n+o+p+q+e+e+e+e+e+",
"f+f+f+f+r+f+s+t+u+v+w+x+t+Y.r+f+r+f+f+f+f+",
"y+y+y+y+y+y+y+y+y+y+y+y+y+y+y+y+y+y+y+y+y+",
"z+A+A+A+A+z+A+z+z+A+z+A+A+A+A+z+A+z+z+A+z+"};
