/* XPM */
static char * menuiconpr_xpm[] = {
"21 21 73 1",
" 	c #5741B7",
".	c #1B143B",
"+	c #1B143E",
"@	c #1B143F",
"#	c #1B1442",
"$	c #1C1442",
"%	c #1C1443",
"&	c #1D1444",
"*	c #1D1445",
"=	c #1D1446",
"-	c #1D1449",
";	c #1D144C",
">	c #1D144F",
",	c #1E144F",
"'	c #E7E7E7",
")	c #393064",
"!	c #231954",
"~	c #1E1450",
"{	c #1E1454",
"]	c #342B64",
"^	c #8B87A4",
"/	c #A19EB4",
"(	c #A29FB4",
"_	c #1F1456",
":	c #1F1457",
"<	c #24195B",
"[	c #3A306A",
"}	c #3F366E",
"|	c #40376F",
"1	c #1F1458",
"2	c #1F145B",
"3	c #20145B",
"4	c #21155C",
"5	c #20145E",
"6	c #3B3070",
"7	c #251961",
"8	c #20145F",
"9	c #211562",
"0	c #362C70",
"a	c #8D87AA",
"b	c #A29EB8",
"c	c #A39FB9",
"d	c #211566",
"e	c #261A69",
"f	c #3C3177",
"g	c #41377B",
"h	c #41377C",
"i	c #3C3178",
"j	c #261A6A",
"k	c #211567",
"l	c #221569",
"m	c #23166A",
"n	c #23166B",
"o	c #22156A",
"p	c #23156E",
"q	c #3D317F",
"r	c #281A72",
"s	c #23156F",
"t	c #231570",
"u	c #231571",
"v	c #382C7E",
"w	c #8E87B1",
"x	c #A39EBD",
"y	c #A49FBE",
"z	c #231572",
"A	c #231573",
"B	c #281A76",
"C	c #3D3183",
"D	c #423785",
"E	c #433786",
"F	c #22156C",
"G	c #22156D",
"H	c #000000",
"                     ",
".....................",
"+++++++++++++++@@@@@@",
"################$$%%%",
"&&&&&***************=",
"---------------------",
";;;;;;;;;;;;;;;;;;;;;",
">,,,,,,''''''')!~~~~~",
"{{{{{{{]^/(((/^]{{{{{",
"_::::::<[}|||}[<11111",
"222222333344433333333",
"5555555'''''''6755558",
"99999990abcccba099999",
"dddddddefghhhgijkkkkk",
"llllllllllmnnoooooooo",
"ppppppp'''''''qrsssss",
"tuuuuuuvwxyyyxwvzzzzz",
"AAAAAAABCDEEEDCBAAAAA",
"zzAAAAAAAAAAAAAAAAAAA",
"FGGGGppppssssttuuuuuz",
"HHHHHHHHHHHHHHHHHHHHH"};
