/* XPM */
static char * menuiconpr_xpm[] = {
"19 19 193 2",
"  	c #DCECB7",
". 	c #DDECB7",
"+ 	c #A4CD40",
"@ 	c #A3CE3F",
"# 	c #A4CD3F",
"$ 	c #A4CE3F",
"% 	c #A3CD3F",
"& 	c #A7D047",
"* 	c #A8D047",
"= 	c #A7D046",
"- 	c #A8D046",
"; 	c #A8CF47",
"> 	c #ACD34E",
", 	c #ACD24E",
"' 	c #ABD34E",
") 	c #ACD34D",
"! 	c #ABD24E",
"~ 	c #ABD34D",
"{ 	c #ABD24D",
"] 	c #AFD456",
"^ 	c #AFD556",
"/ 	c #AFD555",
"( 	c #B0D455",
"_ 	c #AFD455",
": 	c #B0D555",
"< 	c #AFD554",
"[ 	c #AFD454",
"} 	c #B3D85D",
"| 	c #B4D75C",
"1 	c #B3D85C",
"2 	c #B4D85C",
"3 	c #B3D75D",
"4 	c #B4D85E",
"5 	c #B5D860",
"6 	c #B5D862",
"7 	c #B6D962",
"8 	c #B7D862",
"9 	c #B6D862",
"0 	c #B5D861",
"a 	c #B5D960",
"b 	c #B4D75D",
"c 	c #B3D75C",
"d 	c #B7D963",
"e 	c #B7DA63",
"f 	c #B7DA64",
"g 	c #B8DA64",
"h 	c #BCDD70",
"i 	c #C5E180",
"j 	c #C8E388",
"k 	c #C8E288",
"l 	c #C8E289",
"m 	c #C5E080",
"n 	c #BCDD6F",
"o 	c #B6D963",
"p 	c #BBDC6B",
"q 	c #BADD6B",
"r 	c #BDDD6F",
"s 	c #C8E387",
"t 	c #96A876",
"u 	c #ADBB94",
"v 	c #A9B790",
"w 	c #A9B78F",
"x 	c #A9B890",
"y 	c #ACBA93",
"z 	c #95A776",
"A 	c #C8E386",
"B 	c #BDDD6E",
"C 	c #BADC6B",
"D 	c #BBDC6A",
"E 	c #BFDF73",
"F 	c #BFDF72",
"G 	c #BFDE73",
"H 	c #C1E078",
"I 	c #CEE794",
"J 	c #B0BD96",
"K 	c #F1F8E3",
"L 	c #F3F8E6",
"M 	c #F3F8E5",
"N 	c #F2F9E4",
"O 	c #B1BD97",
"P 	c #C0DF77",
"Q 	c #BFDE72",
"R 	c #BEDE72",
"S 	c #C3E17A",
"T 	c #C3E27A",
"U 	c #C2E179",
"V 	c #C5E27E",
"W 	c #CFE795",
"X 	c #9FAF7D",
"Y 	c #B6C19C",
"Z 	c #B3BF98",
"` 	c #B2BE97",
" .	c #B3BF99",
"..	c #B5C19C",
"+.	c #9FAE7D",
"@.	c #CFE794",
"#.	c #C4E27D",
"$.	c #C6E381",
"%.	c #C7E481",
"&.	c #C7E381",
"*.	c #C8E583",
"=.	c #CEE893",
"-.	c #DCEEB0",
";.	c #E1F0BC",
">.	c #E1F1BD",
",.	c #E1F0BD",
"'.	c #E2F0BC",
").	c #CFE793",
"!.	c #C7E483",
"~.	c #C6E380",
"{.	c #CBE688",
"].	c #CAE688",
"^.	c #CAE788",
"/.	c #CBE78B",
"(.	c #D5EBA0",
"_.	c #A3B181",
":.	c #B9C4A0",
"<.	c #B7C19C",
"[.	c #B5C09A",
"}.	c #B8C39E",
"|.	c #A3B081",
"1.	c #CCE78B",
"2.	c #CAE687",
"3.	c #CEE98F",
"4.	c #CEE890",
"5.	c #CEE990",
"6.	c #CFE890",
"7.	c #D1E993",
"8.	c #DAEEAA",
"9.	c #B6C09C",
"0.	c #F5F9E8",
"a.	c #F5FAEA",
"b.	c #F5FAEB",
"c.	c #F6FBE9",
"d.	c #B7C29D",
"e.	c #D0E993",
"f.	c #CEE88F",
"g.	c #D2EB97",
"h.	c #D2EB96",
"i.	c #D3EC99",
"j.	c #DAEFAB",
"k.	c #A2B083",
"l.	c #B6C19D",
"m.	c #B3BE99",
"n.	c #B3BE98",
"o.	c #B4BE9A",
"p.	c #B5C09C",
"q.	c #A2AF82",
"r.	c #D2EA97",
"s.	c #D6ED9E",
"t.	c #D6ED9F",
"u.	c #D9EEA5",
"v.	c #DEF0B0",
"w.	c #E0F1B5",
"x.	c #E0F2B5",
"y.	c #E0F1B4",
"z.	c #DEF0AF",
"A.	c #D5ED9E",
"B.	c #D6ED9D",
"C.	c #D6EE9D",
"D.	c #DAF0A6",
"E.	c #DAF0A5",
"F.	c #DAEFA5",
"G.	c #DBEFA7",
"H.	c #DBF0A8",
"I.	c #DBF1A8",
"J.	c #DAF1A8",
"K.	c #DAF0A8",
"L.	c #DBF0A7",
"M.	c #DAEFA6",
"N.	c #D9F0A5",
"O.	c #DDF3AD",
"P.	c #DEF2AC",
"Q.	c #DEF3AD",
"R.	c #DEF2AD",
"S.	c #DDF2AD",
"T.	c #DDF2AC",
"U.	c #DDF3AC",
"V.	c #E1F5B4",
"W.	c #E2F5B4",
"X.	c #E2F4B3",
"Y.	c #E2F4B4",
"Z.	c #E1F4B4",
"`.	c #E2F5B3",
" +	c #E1F5B3",
".+	c #E5F8BB",
"++	c #E6F8BB",
"@+	c #E6F7BC",
"#+	c #E6F7BB",
"$+	c #E5F7BC",
"%+	c #E5F7BB",
"&+	c #E5F7BA",
"*+	c #E6F8BA",
"  . .   . . . . . .       .   .   . . ",
"+ + @ + # $ @ # # @ @ # % @ % % % $ @ ",
"& * = - - = - = & = = ; = = - = = = = ",
"> , , ' ) ! ' ! ! ~ ' ! ! { , ! ! { { ",
"] ] ^ / ( / _ : / / _ / _ < < / [ _ [ ",
"} | 1 2 3 4 5 6 7 8 9 9 9 0 a b c c c ",
"d e f f g h i j k j j l k k m n g o d ",
"p q p p r s t u v w w w x y z A B C D ",
"E F G F H I J K L M M M L N O I P Q R ",
"S T S U V W X Y Z ` ` `  ...+.@.#.U U ",
"$.%.&.%.*.=.-.;.>.>.>.>.,.'.-.).!.~.~.",
"{.].].^./.(._.:.<.[.[.[.Y }.|.(.1.2.].",
"3.4.5.6.7.8.9.0.a.a.a.a.b.c.d.8.e.f.f.",
"g.g.g.h.i.j.k.l.m.m.n.n.o.p.q.8.i.r.h.",
"s.s.s.s.t.u.v.w.w.w.w.w.x.y.z.u.A.B.C.",
"D.E.D.F.F.D.G.H.I.I.J.I.H.K.L.M.E.E.N.",
"O.P.Q.P.P.R.R.P.S.S.R.P.T.P.P.P.T.P.U.",
"V.V.W.X.Y.Y.W.Y.Z.Z.`. +Z.W.V.V.W. +`.",
".+++.+@+#+#+#+$+%+#+#+%+&+%+*+%+#+%+%+"};
