/* XPM */
static char * unshadepr_xpm[] = {
"21 21 20 1",
" 	c #DFDFDF",
".	c #D5D5D5",
"+	c #C6C6C6",
"@	c #B0B0B0",
"#	c #A1A1A1",
"$	c #8F8F8F",
"%	c #7B7B7B",
"&	c #676767",
"*	c #575757",
"=	c #444444",
"-	c #141414",
";	c #161616",
">	c #191919",
",	c #9B9B9B",
"'	c #1E1E1E",
")	c #242424",
"!	c #2E2E2E",
"~	c #3B3B3B",
"{	c #515151",
"]	c #6D6D6D",
"                     ",
".....................",
"+++++++++++++++++++++",
"@@@@@@@@@@@@@@@@@@@@@",
"#####################",
"$$$$$$$$$$$$$$$$$$$$$",
"%%%%%%%%%%%%%%%%%%%%%",
"&&&&&&&&&&&&&&&&&&&&&",
"*********************",
"=====================",
"=====================",
"---------------------",
";;;;;;;;;;;;;;;;;;;;;",
">>>>>>>>>>,>>>>>>>>>>",
"'''''''''',''''''''''",
")))))))),,,,,))))))))",
"!!!!!!!!!!,!!!!!!!!!!",
"~~~~~~~~~~,~~~~~~~~~~",
"{{{{{{{{{{{{{{{{{{{{{",
"]]]]]]]]]]]]]]]]]]]]]",
"$$$$$$$$$$$$$$$$$$$$$"};
