/* XPM */
static char * unshadeufcs_xpm[] = {
"21 21 36 1",
" 	c #FBFBFB",
".	c #F9F9FA",
"+	c #F6F7F7",
"@	c #F4F4F4",
"#	c #F1F1F2",
"$	c #EEEEEF",
"%	c #EBECEC",
"&	c #E8E9E9",
"*	c #E6E6E8",
"=	c #E3E5E5",
"-	c #E2E4E4",
";	c #E2E2E3",
">	c #D9D9DA",
",	c #CCCDCE",
"'	c #CBCCCD",
")	c #B0B1B2",
"!	c #CDCED0",
"~	c #C6C7C9",
"{	c #646464",
"]	c #D0D2D3",
"^	c #BABCBD",
"/	c #D3D5D7",
"(	c #D8D9DA",
"_	c #A5A6A7",
":	c #DCDDDE",
"<	c #B2B3B3",
"[	c #E0E2E3",
"}	c #C9CACB",
"|	c #7A7A7B",
"1	c #E5E7E7",
"2	c #DDDFDF",
"3	c #9FA0A0",
"4	c #EAEBEC",
"5	c #E9EAEB",
"6	c #C9C9CA",
"7	c #EFEFF0",
"                     ",
".....................",
"+++++++++++++++++++++",
"@@@@@@@@@@@@@@@@@@@@@",
"#####################",
"$$$$$$$$$$$$$$$$$$$$$",
"%%%%%%%%%%%%%%%%%%%%%",
"&&&&&&&&&&&&&&&&&&&&&",
"*********************",
"==========-==========",
";;;;;;;;;;>;;;;;;;;;;",
",,,,,,,,'')'',,,,,,,,",
"!!!!!!!!~~{~~!!!!!!!!",
"]]]]]]]]^^{^^]]]]]]]]",
"////////{{{{{////////",
"((((((((__{__((((((((",
"::::::::<<{<<::::::::",
"[[[[[[[[}}|}}[[[[[[[[",
"111111112232211111111",
"444444445565544444444",
"777777777777777777777"};
