/* XPM */
static char * unshadefcs_xpm[] = {
"21 21 13 1",
" 	c #ABACA6",
".	c #6A7567",
"+	c #262B26",
"@	c #737F70",
"#	c #616B5F",
"$	c #5A6358",
"%	c #3F463E",
"&	c #5C655A",
"*	c #E6E6E6",
"=	c #3E453D",
"-	c #596257",
";	c #586256",
">	c #859382",
"                     ",
".....................",
"+++++++++++++++++++++",
"@@@@@@@@@@@@@@@@@@@@@",
"#####################",
"#####################",
"#####################",
"#####################",
"#####################",
"#########$%%&########",
"#########%**=########",
"#########%**=########",
"#########$%%-########",
"#####################",
"#####################",
"#####################",
"#####################",
";;;;;;;;;;;;;;;;;;;;;",
"+++++++++++++++++++++",
"                     ",
">>>>>>>>>>>>>>>>>>>>>"};
