/* XPM */
static char * minpr_xpm[] = {
"21 21 113 2",
"  	c #916257",
". 	c #8F6357",
"+ 	c #8E6256",
"@ 	c #956055",
"# 	c #A6817E",
"$ 	c #A7837F",
"% 	c #A5817D",
"& 	c #A4807C",
"* 	c #A3827D",
"= 	c #8D6D5B",
"- 	c #8F6E5D",
"; 	c #8C6C5A",
"> 	c #8D6E5D",
", 	c #875841",
"' 	c #8A5A44",
") 	c #875943",
"! 	c #8B5B45",
"~ 	c #C79885",
"{ 	c #FFF2DD",
"] 	c #FFFFFF",
"^ 	c #FFF3DF",
"/ 	c #C59885",
"( 	c #794E31",
"_ 	c #FFE8CD",
": 	c #FFFFFD",
"< 	c #D5AA8D",
"[ 	c #B68B6E",
"} 	c #A77C5F",
"| 	c #A57A5D",
"1 	c #B08568",
"2 	c #D4A98C",
"3 	c #6A4224",
"4 	c #FFFCDF",
"5 	c #D9B193",
"6 	c #997153",
"7 	c #7D5537",
"8 	c #724A2C",
"9 	c #71492B",
"0 	c #70482A",
"a 	c #785032",
"b 	c #A77F61",
"c 	c #E1B99B",
"d 	c #694021",
"e 	c #FFDABD",
"f 	c #D3AA8B",
"g 	c #976E4F",
"h 	c #744B2C",
"i 	c #704728",
"j 	c #6F4627",
"k 	c #966D4E",
"l 	c #E0B798",
"m 	c #6C4122",
"n 	c #A97F63",
"o 	c #FFFDDE",
"p 	c #94694A",
"q 	c #774C2D",
"r 	c #724728",
"s 	c #9E7354",
"t 	c #FFFFEE",
"u 	c #FFDBBE",
"v 	c #986D4E",
"w 	c #754A2B",
"x 	c #805536",
"y 	c #BF9475",
"z 	c #714627",
"A 	c #7A4F30",
"B 	c #A07556",
"C 	c #714B2D",
"D 	c #734D2F",
"E 	c #7A5436",
"F 	c #785234",
"G 	c #9A7456",
"H 	c #724C2E",
"I 	c #744E30",
"J 	c #7B5537",
"K 	c #795335",
"L 	c #987254",
"M 	c #795039",
"N 	c #7E553E",
"O 	c #815841",
"P 	c #A17861",
"Q 	c #7B5039",
"R 	c #FFEAD5",
"S 	c #976C55",
"T 	c #80553E",
"U 	c #825740",
"V 	c #C39881",
"W 	c #7D523B",
"X 	c #BA907C",
"Y 	c #FFFFF3",
"Z 	c #946952",
"` 	c #FFFFFE",
" .	c #FFEFDA",
"..	c #C89D86",
"+.	c #855A43",
"@.	c #865B44",
"#.	c #E5BAA3",
"$.	c #FFFFFB",
"%.	c #D1A68F",
"&.	c #895E47",
"*.	c #CFA48D",
"=.	c #FFFFFC",
"-.	c #A87D66",
";.	c #8B6049",
">.	c #885D46",
",.	c #9D725B",
"'.	c #FFFFF6",
").	c #7F533B",
"!.	c #BC917C",
"~.	c #FFEDD7",
"{.	c #774F37",
"].	c #764E36",
"^.	c #6D4321",
"    . . . . + . .   . +   . .   @ @ @ @ @ ",
"# $ % & % % & % % # % % # # # # * * * * * ",
"= - = ; > = ; > ; ; = = = = = = = = = = = ",
", ' ) ) ! ' ) ~ { ] ] ] ] ^ / ) ) ) ) ) ) ",
"( ( ( ( ( ( _ : < [ } | 1 2 : _ ( ( ( ( ( ",
"3 3 3 3 3 4 5 6 7 8 8 9 0 a b c 4 3 3 3 3 ",
"d d d d e f g h d d d d i j j k l e d d d ",
"m m m n o p q q m m m m m m m r s t n m m ",
"m m m u v w m m m m m m m m m m x y u m m ",
"z z z ] q A z z z z z z z z z z A B ] z z ",
"C C C ] D E C C C C C C C C C C F G ] C C ",
"H H H ] I J H H H H H H H H H H K L ] H H ",
"M M M ] N O M M M M M M M M M M O P ] M M ",
"Q Q Q R S T Q Q Q Q Q Q Q Q Q Q U V R Q Q ",
"W W W X Y T W W W W W W W W W W Z ` X W W ",
"T T T T  ...+.T T T T T T T T @.#. .T T T ",
"U U U U U $.%.&.U U U U U U @.*.$.U U U U ",
"T T T T T T  .=.-.;.@.;.>.,.'. .T T T T T ",
").).).).).).).!.~.] ] ] ] ~.!.).).).).).).",
"{.{.{.{.{.{.{.{.{.{.{.{.{.{.{.{.].].].].].",
"^.^.^.^.^.^.^.^.^.^.^.^.^.^.^.^.^.^.^.^.^."};
