/* XPM */
static char * stickpr_xpm[] = {
"21 21 148 2",
"  	c #916257",
". 	c #8F6357",
"+ 	c #8E6256",
"@ 	c #956055",
"# 	c #A6817E",
"$ 	c #A7837F",
"% 	c #A5817D",
"& 	c #A4807C",
"* 	c #A3827D",
"= 	c #8D6D5B",
"- 	c #8F6E5D",
"; 	c #8C6C5A",
"> 	c #8D6E5D",
", 	c #875841",
"' 	c #8A5A44",
") 	c #875943",
"! 	c #8B5B45",
"~ 	c #C79885",
"{ 	c #FFF2DD",
"] 	c #FFFFFF",
"^ 	c #FFF3DF",
"/ 	c #C59885",
"( 	c #794E31",
"_ 	c #FFE8CD",
": 	c #FFFFEF",
"< 	c #A17659",
"[ 	c #84593C",
"} 	c #7F5437",
"| 	c #815639",
"1 	c #966B4E",
"2 	c #FFFFE9",
"3 	c #6A4224",
"4 	c #FFFCDF",
"5 	c #B99173",
"6 	c #71492B",
"7 	c #724A2C",
"8 	c #774F31",
"9 	c #785032",
"0 	c #754D2F",
"a 	c #6E4628",
"b 	c #B78F71",
"c 	c #694021",
"d 	c #FFDABD",
"e 	c #B18869",
"f 	c #6E4526",
"g 	c #774E2F",
"h 	c #C9A081",
"i 	c #FFE7C8",
"j 	c #FFF7D8",
"k 	c #FFF3D4",
"l 	c #FFE4C5",
"m 	c #C89F80",
"n 	c #734A2B",
"o 	c #6F4627",
"p 	c #CEA586",
"q 	c #6C4122",
"r 	c #A97F63",
"s 	c #FFF9DA",
"t 	c #6F4425",
"u 	c #764B2C",
"v 	c #FED3B4",
"w 	c #FFFFEC",
"x 	c #FFE0C1",
"y 	c #FFFBDC",
"z 	c #FFFFF6",
"A 	c #FFFFEE",
"B 	c #FFFFFB",
"C 	c #FCD1B2",
"D 	c #754A2B",
"E 	c #835839",
"F 	c #FFFFE5",
"G 	c #FFDBBE",
"H 	c #885D3E",
"I 	c #714627",
"J 	c #CA9F80",
"K 	c #CBA081",
"L 	c #734829",
"M 	c #B4896A",
"N 	c #794E2F",
"O 	c #FFF8D9",
"P 	c #FFE5C6",
"Q 	c #FFFFF4",
"R 	c #FFFFEA",
"S 	c #996E4F",
"T 	c #714B2D",
"U 	c #734D2F",
"V 	c #7A5436",
"W 	c #FFFFFA",
"X 	c #785234",
"Y 	c #977153",
"Z 	c #724C2E",
"` 	c #744E30",
" .	c #7B5537",
"..	c #795335",
"+.	c #987254",
"@.	c #795039",
"#.	c #7E553E",
"$.	c #815841",
"%.	c #FFFFEB",
"&.	c #FFEFD8",
"*.	c #FFFFFC",
"=.	c #A17861",
"-.	c #7B5039",
";.	c #FFEAD5",
">.	c #976C55",
",.	c #80553E",
"'.	c #D9AE97",
").	c #DAAF98",
"!.	c #825740",
"~.	c #C39881",
"{.	c #7D523B",
"].	c #BA907C",
"^.	c #FFFFF3",
"/.	c #875C45",
"(.	c #FFE4CD",
"_.	c #FFF1DA",
":.	c #FFFFF5",
"<.	c #FFE2CB",
"[.	c #865B44",
"}.	c #946952",
"|.	c #FFFFFE",
"1.	c #FFEFDA",
"2.	c #C89D86",
"3.	c #855A43",
"4.	c #8E634C",
"5.	c #E0B59E",
"6.	c #FFFCE5",
"7.	c #FFFFF1",
"8.	c #FFF9E2",
"9.	c #DFB49D",
"0.	c #8A5F48",
"a.	c #E5BAA3",
"b.	c #D1A68F",
"c.	c #895E47",
"d.	c #8F644D",
"e.	c #90654E",
"f.	c #8D624B",
"g.	c #CFA48D",
"h.	c #A87D66",
"i.	c #8B6049",
"j.	c #885D46",
"k.	c #9D725B",
"l.	c #7F533B",
"m.	c #BC917C",
"n.	c #FFEDD7",
"o.	c #774F37",
"p.	c #764E36",
"q.	c #6D4321",
"    . . . . + . .   . +   . .   @ @ @ @ @ ",
"# $ % & % % & % % # % % # # # # * * * * * ",
"= - = ; > = ; > ; ; = = = = = = = = = = = ",
", ' ) ) ! ' ) ~ { ] ] ] ] ^ / ) ) ) ) ) ) ",
"( ( ( ( ( ( _ : < [ } [ | 1 2 _ ( ( ( ( ( ",
"3 3 3 3 3 4 5 6 7 8 9 8 8 0 a b 4 3 3 3 3 ",
"c c c c d e f g h i j k l m n o p d c c c ",
"q q q r s t u v w x y z A B C D E F r q q ",
"q q q G H I J B x : ] ] ] ] ] K L M G q q ",
"I I I ] u N O P Q ] ] ] ] ] ] R N S ] I I ",
"T T T ] U V ] W ] ] ] ] ] ] ] ] X Y ] T T ",
"Z Z Z ] `  .] B ] ] ] ] ] ] ] ] ..+.] Z Z ",
"@.@.@.] #.$.%.&.] ] ] ] ] ] ] *.$.=.] @.@.",
"-.-.-.;.>.,.'.] &.] ] ] ] ] ] ).!.~.;.-.-.",
"{.{.{.].^.,./.(.] _.:.] ] ] <.[.}.|.].{.{.",
",.,.,.,.1.2.3.4.5.6.:.7.8.9.0.[.a.1.,.,.,.",
"!.!.!.!.!.B b.c.0.d.e.d.d.f.[.g.B !.!.!.!.",
",.,.,.,.,.,.1.*.h.i.[.i.j.k.z 1.,.,.,.,.,.",
"l.l.l.l.l.l.l.m.n.] ] ] ] n.m.l.l.l.l.l.l.",
"o.o.o.o.o.o.o.o.o.o.o.o.o.o.o.o.p.p.p.p.p.",
"q.q.q.q.q.q.q.q.q.q.q.q.q.q.q.q.q.q.q.q.q."};
