/* XPM */
static char * closepr_xpm[] = {
"19 19 97 2",
"  	c #004B58",
". 	c #004855",
"+ 	c #004A56",
"@ 	c #004752",
"# 	c #004753",
"$ 	c #004550",
"% 	c #005B68",
"& 	c #004551",
"* 	c #00444E",
"= 	c #005A66",
"- 	c #001A1F",
"; 	c #001B1F",
"> 	c #001C21",
", 	c #001C20",
"' 	c #001D22",
") 	c #001E23",
"! 	c #001E24",
"~ 	c #001F24",
"{ 	c #00434E",
"] 	c #00414C",
"^ 	c #005663",
"/ 	c #001E22",
"( 	c #001F25",
"_ 	c #002026",
": 	c #002126",
"< 	c #002127",
"[ 	c #002128",
"} 	c #003E4A",
"| 	c #005261",
"1 	c #002025",
"2 	c #002227",
"3 	c #002228",
"4 	c #002328",
"5 	c #002329",
"6 	c #00242A",
"7 	c #003E48",
"8 	c #003B47",
"9 	c #004F5D",
"0 	c #FFFFFF",
"a 	c #00232A",
"b 	c #00252B",
"c 	c #00252C",
"d 	c #00262D",
"e 	c #003B46",
"f 	c #003944",
"g 	c #004C5A",
"h 	c #00262C",
"i 	c #00272D",
"j 	c #00272E",
"k 	c #00282F",
"l 	c #00292F",
"m 	c #002930",
"n 	c #003A44",
"o 	c #003540",
"p 	c #004755",
"q 	c #00282E",
"r 	c #002A31",
"s 	c #002A32",
"t 	c #002B32",
"u 	c #002C33",
"v 	c #003741",
"w 	c #00323D",
"x 	c #004351",
"y 	c #002D34",
"z 	c #002D35",
"A 	c #002E35",
"B 	c #002E36",
"C 	c #003139",
"D 	c #00424C",
"E 	c #002F37",
"F 	c #003038",
"G 	c #00313A",
"H 	c #003D47",
"I 	c #002F36",
"J 	c #002F38",
"K 	c #003039",
"L 	c #00323A",
"M 	c #00333B",
"N 	c #00333C",
"O 	c #002931",
"P 	c #003842",
"Q 	c #00343D",
"R 	c #00353D",
"S 	c #00353E",
"T 	c #00363E",
"U 	c #00343C",
"V 	c #00343E",
"W 	c #00363F",
"X 	c #003640",
"Y 	c #00242E",
"Z 	c #00212A",
"` 	c #002E39",
" .	c #002129",
"..	c #001B24",
"+.	c #00151E",
"@.	c #00151B",
"#.	c #001215",
"                                      ",
". . . . . . . . . . . . . . . . . . + ",
"@ @ @ @ @ @ @ @ @ @ @ @ @ @ @ @ @ @ # ",
"$ $ $ % % % % % % % % % % % % % $ $ & ",
"* * * = - ; > , > > ' ) ) ! ~ = * * { ",
"] ] ] ^ / ) ) ! ~ ( ( _ : < [ ^ ] ] ] ",
"} } } | 1 1 : < 2 2 3 4 5 5 6 | } } 7 ",
"8 8 8 9 3 5 5 0 a 6 b 0 c d d 9 8 8 e ",
"f f f g b c h h 0 i 0 j k l m g f f n ",
"o o o p i j q k m 0 r s s t u p o o v ",
"w w w x r r t t 0 u 0 y z A B x w w w ",
"C C C D u y z 0 A B E 0 F F F D C C G ",
"z z z H I J E F K G L L M M N H z z z ",
"O O O P L L L M N N Q R S S T P O O s ",
"d d d Q U Q V S T W X X v v P Q d d Y ",
"Z Z Z ` ` ` ` ` ` ` ` ` ` ` ` ` Z Z  .",
"......................................",
"+.+.+.+.+.+.+.+.+.+.+.+.+.+.+.+.+.+.@.",
"#.#.#.#.#.#.#.#.#.#.#.#.#.#.#.#.#.#.#."};
