/* XPM */
static char * shadefcs_xpm[] = {
"19 19 33 1",
" 	c #004B58",
".	c #004855",
"+	c #004A56",
"@	c #004752",
"#	c #004753",
"$	c #004550",
"%	c #004551",
"&	c #00444E",
"*	c #00434E",
"=	c #00414C",
"-	c #003E4A",
";	c #003E48",
">	c #003B47",
",	c #003B46",
"'	c #003944",
")	c #003A44",
"!	c #003540",
"~	c #FFFFFF",
"{	c #003741",
"]	c #00323D",
"^	c #003139",
"/	c #00313A",
"(	c #002D35",
"_	c #002931",
":	c #002A32",
"<	c #00262D",
"[	c #00242E",
"}	c #00212A",
"|	c #002129",
"1	c #001B24",
"2	c #00151E",
"3	c #00151B",
"4	c #001215",
"                   ",
"..................+",
"@@@@@@@@@@@@@@@@@@#",
"$$$$$$$$$$$$$$$$$$%",
"&&&&&&&&&&&&&&&&&&*",
"===================",
"------------------;",
">>>>>>>>>>>>>>>>>>,",
"'''''''''''''''''')",
"!!!!!!!!~~~!!!!!!!{",
"]]]]]]]]]]]]]]]]]]]",
"^^^^^^^^^^^^^^^^^^/",
"(((((((((((((((((((",
"__________________:",
"<<<<<<<<<<<<<<<<<<[",
"}}}}}}}}}}}}}}}}}}|",
"1111111111111111111",
"2222222222222222223",
"4444444444444444444"};
