/* XPM */
static char * minpr_xpm[] = {
"21 21 131 2",
"  	c #CDD8E4",
". 	c #CDD9E4",
"+ 	c #CCD9E5",
"@ 	c #CDD8E5",
"# 	c #CCD8E5",
"$ 	c #CCD8E4",
"% 	c #CCD9E4",
"& 	c #90A7C2",
"* 	c #8FA8C2",
"= 	c #8FA8C3",
"- 	c #8FA7C3",
"; 	c #8FA7C2",
"> 	c #8BA5C2",
", 	c #8CA5C2",
"' 	c #8BA5C1",
") 	c #8BA6C2",
"! 	c #87A3C1",
"~ 	c #87A4C1",
"{ 	c #88A4C1",
"] 	c #87A3C2",
"^ 	c #87A4C2",
"/ 	c #88A3C1",
"( 	c #84A1C0",
"_ 	c #84A2C0",
": 	c #83A2C1",
"< 	c #83A1C0",
"[ 	c #83A2C0",
"} 	c #84A2C1",
"| 	c #80A0BF",
"1 	c #809FBF",
"2 	c #809FC0",
"3 	c #80A0C0",
"4 	c #819FBF",
"5 	c #7C9DBE",
"6 	c #7C9DBF",
"7 	c #7C9EBE",
"8 	c #7C9EBF",
"9 	c #799BBD",
"0 	c #799CBD",
"a 	c #799CBE",
"b 	c #799BBE",
"c 	c #759ABD",
"d 	c #749ABD",
"e 	c #759BBD",
"f 	c #7599BD",
"g 	c #7198BD",
"h 	c #7198BC",
"i 	c #7199BC",
"j 	c #6E96BD",
"k 	c #6E96BC",
"l 	c #6D96BB",
"m 	c #6D96BC",
"n 	c #6E96BB",
"o 	c #6190B9",
"p 	c #6190BA",
"q 	c #6090B9",
"r 	c #6090BA",
"s 	c #6692B9",
"t 	c #6593BA",
"u 	c #6693BA",
"v 	c #6693B9",
"w 	c #6593B9",
"x 	c #6B96BB",
"y 	c #6A96BB",
"z 	c #6994B8",
"A 	c #668EB2",
"B 	c #638BAE",
"C 	c #638AAD",
"D 	c #638AAE",
"E 	c #638BAD",
"F 	c #658EB1",
"G 	c #6892B6",
"H 	c #6B95BB",
"I 	c #6B96BA",
"J 	c #7199BB",
"K 	c #7099BB",
"L 	c #6E97B8",
"M 	c #6284A3",
"N 	c #4E6981",
"O 	c #425B6F",
"P 	c #42586D",
"Q 	c #42596D",
"R 	c #41596D",
"S 	c #435B6F",
"T 	c #4E6880",
"U 	c #6285A3",
"V 	c #6F96B9",
"W 	c #7198BB",
"X 	c #769BBC",
"Y 	c #7297B6",
"Z 	c #5A7891",
"` 	c #FFFFFF",
" .	c #5A7790",
"..	c #7B9FBD",
"+.	c #7B9EBD",
"@.	c #799CBA",
"#.	c #6B8AA5",
"$.	c #546D82",
"%.	c #495E70",
"&.	c #475C6E",
"*.	c #485C6E",
"=.	c #546C82",
"-.	c #80A1BD",
";.	c #80A1BE",
">.	c #7F9FBA",
",.	c #7A99B5",
"'.	c #7896B1",
").	c #7896B0",
"!.	c #7796B0",
"~.	c #7796B1",
"{.	c #7998B3",
"].	c #7D9DBA",
"^.	c #81A1BD",
"/.	c #86A3BE",
"(.	c #85A3BE",
"_.	c #86A4BE",
":.	c #86A3BD",
"<.	c #85A4BE",
"[.	c #8BA7C0",
"}.	c #8BA7BF",
"|.	c #8BA6BF",
"1.	c #8AA7BF",
"2.	c #8AA6BF",
"3.	c #91AAC0",
"4.	c #90A9C0",
"5.	c #91A9C0",
"6.	c #90AAC0",
"7.	c #91AABF",
"8.	c #91A9BF",
"9.	c #90AABF",
"0.	c #90A9BF",
"  . + @ # @ + $ $ # % % # # @ .   @ + # # ",
"& * = - - - * ; ; - * * - - - * * - * * - ",
"> , > > > > ' ' > , > > > > > > ) > ' > > ",
"! ! ~ { ] ~ ^ ~ ^ ~ / / { ~ ~ ^ ~ ~ ~ ^ ~ ",
"( ( _ : ( _ _ _ _ _ < < [ } } } _ } _ _ _ ",
"| | 1 2 2 | 1 3 4 3 1 1 | 1 2 | 1 | | 3 3 ",
"5 5 6 6 7 6 6 7 6 6 5 7 8 6 7 6 8 6 8 7 8 ",
"9 0 a b b 9 a a 0 a a a a 9 0 a b a a b b ",
"c c c c c d e c c c c c c f c c f e c c c ",
"g g h h g h h g g h h h h h h h h i h i h ",
"j k l m j k n k k k n k k k k k n k m k m ",
"o p o q o r o o q q r q q q q r q p q r q ",
"s t u u v u u v t w u u u u t u u u u u u ",
"x x y x z A B C B B D D C E D F G H x x I ",
"J J K L M N O P Q R Q R P Q S T U V J J W ",
"X X X Y Z ` ` ` ` ` ` ` ` ` ` `  .Y X X X ",
"..+.+.@.#.$.%.&.&.*.&.&.&.&.%.=.#.@.+.+.+.",
"-.-.;.;.>.,.'.).!.).!.!.!.~.).{.].^.;.^.;.",
"/.(._._._././.:./.(.<.<.<._.(./.:.(._._._.",
"[.[.}.|.|.}.}.[.|.|.}.}.1.1.2.}.[.1.}.}.2.",
"3.4.5.4.4.6.3.3.7.5.7.8.6.9.6.9.4.0.9.9.4."};
