/* XPM */
static char * bullet_xpm[] = {
"18 18 5 1",
" 	c None",
".	c #000000",
"+	c #707070",
"@	c #1B1B1B",
"#	c #0D0D0D",
"                  ",
"                  ",
"                  ",
"                  ",
"                  ",
"                  ",
"          .++++   ",
"          ..+++   ",
"          ..@++   ",
"          #...+   ",
"          ...++   ",
"          .#+++   ",
"          .++++   ",
"                  ",
"                  ",
"                  ",
"                  ",
"                  "};
