/* XPM */
static char * closepr_xpm[] = {
"20 20 88 1",
" 	c #E5E5E5",
".	c #E0E0E0",
"+	c #D7D7D7",
"@	c #F3F3F3",
"#	c #CCCCCC",
"$	c #606060",
"%	c #616161",
"&	c #656565",
"*	c #696969",
"=	c #6D6D6D",
"-	c #717171",
";	c #767575",
">	c #C9C9C9",
",	c #616061",
"'	c #656465",
")	c #717271",
"!	c #757576",
"~	c #797979",
"{	c #C8C8C8",
"]	c #757575",
"^	c #7E7D7D",
"/	c #696869",
"(	c #727171",
"_	c #7D7D7D",
":	c #818281",
"<	c #757675",
"[	c #7A7979",
"}	c #7E7E7D",
"|	c #818182",
"1	c #858585",
"2	c #9BB1CC",
"3	c #000000",
"4	c #898989",
"5	c #646565",
"6	c #8598AF",
"7	c #7C8DA3",
"8	c #718195",
"9	c #667587",
"0	c #8E8E8E",
"a	c #CECECE",
"b	c #7A8CA1",
"c	c #708093",
"d	c #667486",
"e	c #5B6878",
"f	c #929191",
"g	c #D0D0D0",
"h	c #8496AD",
"i	c #798A9F",
"j	c #6F7F92",
"k	c #647283",
"l	c #596676",
"m	c #4F5A68",
"n	c #969696",
"o	c #D2D2D2",
"p	c #78899E",
"q	c #6D7C8F",
"r	c #637183",
"s	c #596575",
"t	c #4E5966",
"u	c #434D59",
"v	c #999A99",
"w	c #6C7B8E",
"x	c #616F80",
"y	c #566372",
"z	c #4D5866",
"A	c #424B56",
"B	c #373F49",
"C	c #9E9E9D",
"D	c #7D7E7E",
"E	c #606E7F",
"F	c #566271",
"G	c #4B5562",
"H	c #404955",
"I	c #363E47",
"J	c #2C3239",
"K	c #A2A2A2",
"L	c #A6A6A6",
"M	c #D5D5D5",
"N	c #7E7D7E",
"O	c #868585",
"P	c #898A8A",
"Q	c #8E8E8D",
"R	c #919292",
"S	c #969695",
"T	c #9A999A",
"U	c #9E9E9E",
"V	c #AAAAAA",
"W	c #BEBEBE",
"                    ",
"....................",
"++@@@@@@@@@@@@@@@@++",
"##@$$$$$$$$%&*=-;$##",
">>@$$$$$$$,'*=)!~$>>",
"{{@$$$$$$%&*=-]~^${{",
"{{@$$$$$%&/=(]~_:${{",
">>@$$$$%&*=)<[}|1$>>",
"##@$$$%&222222234$##",
"##@$$,5*266678930$##",
"aa@$,&*=266bcde3f$aa",
"gg@%&*=-2hijklm3n$gg",
"oo@&*=)]2pqrstu3v$oo",
"++@*=-]~2wxyzAB3C$++",
"++@=-;~D2EFGHIJ3K$++",
"++@-;~_|33333333L$++",
"MM@;~N|OPQRSTUKLV$MM",
"MM@$$$$$$$$$$$$$$$MM",
"{{{{{{{{{{{{{{{{{{{{",
"WWWWWWWWWWWWWWWWWWWW"};
