/* XPM */
static char * minufcs_xpm[] = {
"20 20 90 1",
" 	c #C0C0C0",
".	c #B9B9B9",
"+	c #ADADAD",
"@	c #9F9F9F",
"#	c #070707",
"$	c #9D9D9D",
"%	c #555555",
"&	c #595959",
"*	c #5D5D5D",
"=	c #616161",
"-	c #656665",
";	c #69696A",
">	c #6E6D6D",
",	c #717172",
"'	c #767575",
")	c #797A7A",
"!	c #7E7E7D",
"~	c #818281",
"{	c #868686",
"]	c #898A8A",
"^	c #9A9A9A",
"/	c #5D5D5E",
"(	c #616162",
"_	c #656565",
":	c #696A6A",
"<	c #767675",
"[	c #7A7A7A",
"}	c #828282",
"|	c #8E8E8E",
"1	c #999999",
"2	c #626161",
"3	c #666565",
"4	c #6D6E6E",
"5	c #717271",
"6	c #767576",
"7	c #797A79",
"8	c #7D7D7E",
"9	c #828181",
"0	c #929292",
"a	c #6A696A",
"b	c #6D6E6D",
"c	c #757576",
"d	c #7E7D7D",
"e	c #828281",
"f	c #8A8A8A",
"g	c #969696",
"h	c #666566",
"i	c #696A69",
"j	c #6D6D6D",
"k	c #7D7D7D",
"l	c #828182",
"m	c #8E8D8E",
"n	c #696969",
"o	c #7A797A",
"p	c #7D7E7E",
"q	c #868586",
"r	c #9E9E9E",
"s	c #FFFFFF",
"t	c #000000",
"u	c #9E9F9E",
"v	c #A0A0A0",
"w	c #717171",
"x	c #79797A",
"y	c #E2E2E2",
"z	c #DEDEDE",
"A	c #C9CACA",
"B	c #B6B5B5",
"C	c #9B9A9A",
"D	c #A3A3A3",
"E	c #767676",
"F	c #797979",
"G	c #7E7E7E",
"H	c #DDDEDE",
"I	c #C9CAC9",
"J	c #B6B5B6",
"K	c #A2A1A1",
"L	c #A5A5A5",
"M	c #818182",
"N	c #CACACA",
"O	c #B6B6B6",
"P	c #A1A1A1",
"Q	c #8E8D8D",
"R	c #7E7D7E",
"S	c #B5B6B6",
"T	c #A2A2A1",
"U	c #8D8D8D",
"V	c #818282",
"W	c #8A8A89",
"X	c #9A9B9A",
"Y	c #A9A9A9",
"                    ",
"....................",
"++@@@@@@@@@@@@@@@#++",
"$$@%&*=-;>,')!~{]#$$",
"^^@&/(_:>,<[!}{]|#^^",
"11@*23;456789{]|0#11",
"11@(3ab,c)de{f|0g#11",
"^^@hij56[kl{fm0g^#^^",
"$$@nb56op9qf|0g^r#$$",
"$$@45'ssssst0g^u@#$$",
"vv@w<xsyzABtgCu@@#vv",
"DD@EFGsHIJKt^r@@@#DD",
"LL@[!MsNOPQtr@@@@#LL",
"++@R}{sSTUFt@@@@@#++",
"++@V{ftttttt@@@@@#++",
"++@{Wm0gXu@@@@@@@#++",
"YY@]|0g^r@@@@@@@@#YY",
"YY################YY",
"11111111111111111111",
"ffffffffffffffffffff"};
