/* XPM */
static char * stuckufcs_xpm[] = {
"20 20 92 2",
"  	c #C0C0C0",
". 	c #B9B9B9",
"+ 	c #ADADAD",
"@ 	c #9F9F9F",
"# 	c #070707",
"$ 	c #9D9D9D",
"% 	c #555555",
"& 	c #595959",
"* 	c #5D5D5D",
"= 	c #616161",
"- 	c #656665",
"; 	c #69696A",
"> 	c #6E6D6D",
", 	c #717172",
"' 	c #767575",
") 	c #797A7A",
"! 	c #7E7E7D",
"~ 	c #818281",
"{ 	c #868686",
"] 	c #898A8A",
"^ 	c #9A9A9A",
"/ 	c #5D5D5E",
"( 	c #616162",
"_ 	c #656565",
": 	c #696A6A",
"< 	c #767675",
"[ 	c #7A7A7A",
"} 	c #828282",
"| 	c #FF7373",
"1 	c #999999",
"2 	c #626161",
"3 	c #666565",
"4 	c #6D6E6E",
"5 	c #717271",
"6 	c #767576",
"7 	c #797A79",
"8 	c #7D7D7E",
"9 	c #828181",
"0 	c #6A696A",
"a 	c #6D6E6D",
"b 	c #757576",
"c 	c #7E7D7D",
"d 	c #828281",
"e 	c #8A8A8A",
"f 	c #666566",
"g 	c #696A69",
"h 	c #6D6D6D",
"i 	c #7D7D7D",
"j 	c #828182",
"k 	c #F1BFBF",
"l 	c #696969",
"m 	c #7A797A",
"n 	c #7D7E7E",
"o 	c #868586",
"p 	c #9E9E9E",
"q 	c #7E7D7E",
"r 	c #818182",
"s 	c #9E9F9E",
"t 	c #A0A0A0",
"u 	c #717171",
"v 	c #D02223",
"w 	c #D62D2E",
"x 	c #DD3A3A",
"y 	c #858685",
"z 	c #F86867",
"A 	c #A3A3A3",
"B 	c #767676",
"C 	c #CC1C1C",
"D 	c #D22827",
"E 	c #D93333",
"F 	c #E03F3F",
"G 	c #8A898A",
"H 	c #EE5656",
"I 	c #F56161",
"J 	c #FB6C6C",
"K 	c #A5A5A5",
"L 	c #D62D2D",
"M 	c #DD3839",
"N 	c #E34444",
"O 	c #EA504F",
"P 	c #F15B5B",
"Q 	c #D93232",
"R 	c #E03E3E",
"S 	c #E74949",
"T 	c #818282",
"U 	c #8E8E8E",
"V 	c #DC3837",
"W 	c #8A8A89",
"X 	c #8E8D8E",
"Y 	c #929292",
"Z 	c #969696",
"` 	c #A9A9A9",
"                                        ",
". . . . . . . . . . . . . . . . . . . . ",
"+ + @ @ @ @ @ @ @ @ @ @ @ @ @ @ @ # + + ",
"$ $ @ % & * = - ; > , ' ) ! ~ { ] # $ $ ",
"^ ^ @ & / ( _ : > , < [ ! } { ] | # ^ ^ ",
"1 1 @ * 2 3 ; 4 5 6 7 8 9 { ] | | # 1 1 ",
"1 1 @ ( 3 0 a , b ) c d { e | | | # 1 1 ",
"^ ^ @ f g h 5 6 [ i j { e | | | k # ^ ^ ",
"$ $ @ l a 5 6 m n 9 o e | | | k p # $ $ ",
"$ $ @ 4 5 ' [ q r { ] | | | k s @ # $ $ ",
"t t @ u v w x r y e z | | k s @ @ # t t ",
"A A @ B C D E F G H I J k p @ @ @ # A A ",
"K K @ [ k k L M N O P k p @ @ @ @ # K K ",
"+ + @ q } { k Q R S k p @ @ @ @ @ # + + ",
"+ + @ T { e U k V k p @ @ @ @ @ @ # + + ",
"+ + @ { W X Y Z k s @ @ @ @ @ @ @ # + + ",
"` ` @ ] U Y Z ^ p @ @ @ @ @ @ @ @ # ` ` ",
"` ` # # # # # # # # # # # # # # # # ` ` ",
"1 1 1 1 1 1 1 1 1 1 1 1 1 1 1 1 1 1 1 1 ",
"e e e e e e e e e e e e e e e e e e e e "};
