/* XPM */
static char * closefcs_xpm[] = {
"19 19 220 2",
"  	c #ABE0E5",
". 	c #ABE1E5",
"+ 	c #191919",
"@ 	c #15ABB7",
"# 	c #16ABB7",
"$ 	c #16ABB8",
"% 	c #16AAB8",
"& 	c #17ABB9",
"* 	c #16ABB9",
"= 	c #17ABB8",
"- 	c #ABE1E6",
"; 	c #ACE1E6",
"> 	c #194B4F",
", 	c #1FADBA",
"' 	c #1FADBB",
") 	c #1FAEBB",
"! 	c #20AEBB",
"~ 	c #20AEBA",
"{ 	c #21AEBA",
"] 	c #21AEBB",
"^ 	c #21AFBB",
"/ 	c #AFE2E6",
"( 	c #28B1BD",
"_ 	c #29B0BD",
": 	c #28B0BD",
"< 	c #29B1BD",
"[ 	c #2AB1BD",
"} 	c #2AB2BD",
"| 	c #B3E3E7",
"1 	c #32B3BF",
"2 	c #32B4BF",
"3 	c #32B4C0",
"4 	c #37B5C1",
"5 	c #243C3E",
"6 	c #38B6C1",
"7 	c #33B3C0",
"8 	c #33B4C0",
"9 	c #33B4BF",
"0 	c #253C3E",
"a 	c #39B6C1",
"b 	c #34B4C0",
"c 	c #34B4BF",
"d 	c #35B4BF",
"e 	c #B6E4E8",
"f 	c #3CB7C1",
"g 	c #3BB7C2",
"h 	c #3CB6C2",
"i 	c #41B9C3",
"j 	c #475A5B",
"k 	c #A3B6B8",
"l 	c #42B9C4",
"m 	c #3DB7C2",
"n 	c #475A5C",
"o 	c #43B9C4",
"p 	c #3EB8C2",
"q 	c #3EB7C2",
"r 	c #B9E5E9",
"s 	c #45B9C4",
"t 	c #49BCC5",
"u 	c #485A5C",
"v 	c #C4CFD0",
"w 	c #F1F9F9",
"x 	c #C4CFD1",
"y 	c #50BEC8",
"z 	c #F2F9F9",
"A 	c #4CBCC7",
"B 	c #48BAC4",
"C 	c #47BAC5",
"D 	c #47BBC5",
"E 	c #BDE6EA",
"F 	c #4FBCC7",
"G 	c #4EBCC6",
"H 	c #293E3F",
"I 	c #A6B8B9",
"J 	c #F2F9FA",
"K 	c #FCFDFD",
"L 	c #F8FBFB",
"M 	c #C6D0D1",
"N 	c #6B797A",
"O 	c #C5D0D1",
"P 	c #F7FBFB",
"Q 	c #F3F9FA",
"R 	c #A7B8B9",
"S 	c #2B3F40",
"T 	c #51BDC7",
"U 	c #50BDC7",
"V 	c #C0E7EB",
"W 	c #58BFC9",
"X 	c #58C0C9",
"Y 	c #5CC1CA",
"Z 	c #4B5B5D",
"` 	c #C7D1D2",
" .	c #E3E8E9",
"..	c #FAFDFD",
"+.	c #5FC3CA",
"@.	c #5AC0C9",
"#.	c #5BC1C9",
"$.	c #5BC1CA",
"%.	c #C3E8EC",
"&.	c #61C2CB",
"*.	c #61C3CC",
"=.	c #66C4CC",
"-.	c #4E5D5F",
";.	c #C8D2D3",
">.	c #4E5D5E",
",.	c #67C5CD",
"'.	c #64C3CB",
").	c #63C3CC",
"!.	c #64C3CC",
"~.	c #C7E9ED",
"{.	c #6AC5CD",
"].	c #6BC5CE",
"^.	c #6BC6CD",
"/.	c #73C9D0",
"(.	c #6E797B",
"_.	c #E5E9EA",
":.	c #FEFEFE",
"<.	c #707B7C",
"[.	c #75C9D1",
"}.	c #6CC6CF",
"|.	c #6DC6CE",
"1.	c #6DC7CF",
"2.	c #CBEAED",
"3.	c #74C8D0",
"4.	c #75C8D0",
"5.	c #77CAD1",
"6.	c #505D5D",
"7.	c #CAD2D3",
"8.	c #F9FBFC",
"9.	c #FBFDFE",
"0.	c #C9D2D2",
"a.	c #505D5E",
"b.	c #7ACAD2",
"c.	c #76C9D0",
"d.	c #76C9D1",
"e.	c #76CAD1",
"f.	c #77C9D0",
"g.	c #CEECEE",
"h.	c #7DCBD3",
"i.	c #7DCBD2",
"j.	c #81CCD3",
"k.	c #515D5E",
"l.	c #C9D1D2",
"m.	c #FDFDFD",
"n.	c #E6EAEA",
"o.	c #83CDD4",
"p.	c #80CCD3",
"q.	c #D2EDEF",
"r.	c #87CFD5",
"s.	c #87CED4",
"t.	c #344041",
"u.	c #AFBABB",
"v.	c #F6FAFA",
"w.	c #CCD3D4",
"x.	c #737C7C",
"y.	c #CBD2D3",
"z.	c #F9FCFC",
"A.	c #F6FAFB",
"B.	c #B0BBBC",
"C.	c #354142",
"D.	c #8ACFD6",
"E.	c #8ACFD5",
"F.	c #D5EEF0",
"G.	c #91D1D7",
"H.	c #90D2D7",
"I.	c #94D2D9",
"J.	c #545E5F",
"K.	c #CDD3D4",
"L.	c #F7FAFB",
"M.	c #CCD3D3",
"N.	c #565F60",
"O.	c #97D4DA",
"P.	c #95D3D9",
"Q.	c #93D2D7",
"R.	c #93D2D8",
"S.	c #D8EFF1",
"T.	c #9AD4DA",
"U.	c #9BD4D9",
"V.	c #9AD4D9",
"W.	c #9CD6DB",
"X.	c #B3BCBD",
"Y.	c #575F60",
"Z.	c #9ED6DB",
"`.	c #9BD5DA",
" +	c #9DD5DB",
".+	c #9FD6DB",
"++	c #9CD5DA",
"@+	c #9DD5DA",
"#+	c #DCF0F2",
"$+	c #A4D7DC",
"%+	c #A3D7DC",
"&+	c #A4D8DC",
"*+	c #A6D8DD",
"=+	c #394344",
"-+	c #A5D8DC",
";+	c #A7D9DD",
">+	c #3A4344",
",+	c #A7D9DE",
"'+	c #A6D8DC",
")+	c #DFF1F3",
"!+	c #ADDADF",
"~+	c #AEDBDE",
"{+	c #ADDADE",
"]+	c #AEDADF",
"^+	c #AEDBDF",
"/+	c #AEDADE",
"(+	c #AFDBDE",
"_+	c #AFDBDF",
":+	c #AFDADF",
"<+	c #B0DBDF",
"[+	c #E2F2F3",
"}+	c #B6DDE1",
"|+	c #B6DEE1",
"1+	c #B7DDE1",
"2+	c #B7DEE1",
"3+	c #B7DEE0",
"4+	c #B8DDE0",
"5+	c #B7DDE0",
"6+	c #B8DEE0",
"7+	c #E5F3F4",
"    . . .     . . . . . .   . + + + + ",
"@ # $ $ $ % $ & * $ & & & = & - ; > + ",
", , ' ) , ) ! ! ! ~ { { ! ] ] ^ ^ / + ",
"( _ : : < < < [ < [ [ [ } [ [ } } | + ",
"1 2 2 3 4 5 6 7 8 9 6 0 a b b c b d e ",
"f g h i j k j l m i n k n o p q q p r ",
"s s t u v w x u y u v z v u A B C D E ",
"F G H I J K L M N O P K Q R S T U U V ",
"W X Y Z ` L K L  .L K ..` Z +.@.#.$.%.",
"&.&.*.=.-.;.L K K K ..;.>.,.'.).!.).~.",
"{.{.].^./.(._.K :.:._.<.[.}.|.|.|.1.2.",
"3.3.4.5.6.7.8.K :.:.9.0.a.b.c.d.e.f.g.",
"h.i.j.k.l.8.m.9.n.9.m.8.7.k.o.p.p.p.q.",
"r.s.t.u.v.m.9.w.x.y.z.m.A.B.C.D.D.E.F.",
"G.H.I.J.K.L.M.N.O.N.K.L.M.J.P.Q.R.R.S.",
"T.U.V.W.N.X.Y.Z.`. +Y.X.Y..+++++@+++#+",
"$+%+&+&+*+=+*+&+&+-+;+>+,+'+'+'+'+'+)+",
"!+~+~+{+]+{+]+^+/+^+(+_+:+_+_+_+_+<+[+",
"}+|+1+}+1+2+1+1+3+4+4+4+5+3+4+4+6+6+7+"};
