/* XPM */
static char * menuiconufcs_xpm[] = {
"19 19 143 2",
"  	c #191919",
". 	c #F2F0EB",
"+ 	c #5B5955",
"@ 	c #F2F1EC",
"# 	c #DCD8CB",
"$ 	c #DCD7CB",
"% 	c #DDD8CB",
"& 	c #DCD8CA",
"* 	c #DDD8CA",
"= 	c #DDD7CB",
"- 	c #F3F2ED",
"; 	c #DEDACE",
"> 	c #DFDACE",
", 	c #DEDACD",
"' 	c #DFD9CD",
") 	c #DED9CE",
"! 	c #DED9CD",
"~ 	c #F4F2EE",
"{ 	c #E0DCD1",
"] 	c #E1DCD0",
"^ 	c #E0DBD1",
"/ 	c #E0DCD0",
"( 	c #E0DBD0",
"_ 	c #F5F3EF",
": 	c #E2DED4",
"< 	c #E2DED3",
"[ 	c #E1DED3",
"} 	c #E2DDD3",
"| 	c #F5F4F0",
"1 	c #E4E0D6",
"2 	c #E4E1D7",
"3 	c #E3E0D6",
"4 	c #E4E0D5",
"5 	c #F6F5F1",
"6 	c #E6E2D9",
"7 	c #E6E3D9",
"8 	c #E5E2D8",
"9 	c #E5E2D9",
"0 	c #E6E2D8",
"a 	c #F7F5F2",
"b 	c #E8E5DC",
"c 	c #E7E5DB",
"d 	c #E8E4DC",
"e 	c #E8E5DB",
"f 	c #E7E4DC",
"g 	c #A8A49C",
"h 	c #A5A199",
"i 	c #A3A197",
"j 	c #A3A198",
"k 	c #A3A097",
"l 	c #A4A098",
"m 	c #A5A198",
"n 	c #A7A49B",
"o 	c #E7E4DB",
"p 	c #F7F6F3",
"q 	c #E9E6DF",
"r 	c #EAE6DF",
"s 	c #EAE7DF",
"t 	c #E9E6DE",
"u 	c #A6A49B",
"v 	c #DCD8D0",
"w 	c #D9D6CD",
"x 	c #D8D5CE",
"y 	c #D9D5CD",
"z 	c #DBD8D0",
"A 	c #A6A39B",
"B 	c #F8F7F5",
"C 	c #EBE8E1",
"D 	c #EBE8E2",
"E 	c #EBE9E2",
"F 	c #ABA8A1",
"G 	c #A8A59F",
"H 	c #A7A59D",
"I 	c #A7A49D",
"J 	c #A8A59E",
"K 	c #EBE9E1",
"L 	c #F9F8F5",
"M 	c #EDEBE5",
"N 	c #EDEBE4",
"O 	c #EDEAE4",
"P 	c #ECEAE4",
"Q 	c #ECEAE3",
"R 	c #F9F8F6",
"S 	c #EEEDE7",
"T 	c #EFEDE7",
"U 	c #AEADA7",
"V 	c #ABAAA4",
"W 	c #ABA9A3",
"X 	c #ABA8A3",
"Y 	c #ACAAA3",
"Z 	c #AFADA7",
"` 	c #EFECE7",
" .	c #EEECE7",
"..	c #FAF9F7",
"+.	c #F1EFEA",
"@.	c #AEACA7",
"#.	c #E2E1DC",
"$.	c #E0DDD9",
"%.	c #DFDED9",
"&.	c #DFDDD9",
"*.	c #E0DED8",
"=.	c #ADACA7",
"-.	c #F0EFEA",
";.	c #F1EEE9",
">.	c #FBFAF9",
",.	c #F3F1EC",
"'.	c #F2F1ED",
").	c #F3F1ED",
"!.	c #B2B1AD",
"~.	c #AFAEAA",
"{.	c #AFADA9",
"].	c #AEADA9",
"^.	c #AEADA8",
"/.	c #AFADAA",
"(.	c #F3F0EC",
"_.	c #F2F0ED",
":.	c #FBFBFA",
"<.	c #F4F3F0",
"[.	c #F5F3F0",
"}.	c #F4F3EF",
"|.	c #FCFCFB",
"1.	c #F6F6F3",
"2.	c #F7F5F3",
"3.	c #F6F5F3",
"4.	c #F6F5F2",
"5.	c #F6F6F2",
"6.	c #FDFCFB",
"7.	c #F8F8F5",
"8.	c #F8F7F6",
"9.	c #F8F8F6",
"0.	c #F7F7F5",
"a.	c #FDFDFC",
"b.	c #FAFAF8",
"c.	c #FAF9F8",
"d.	c #F9FAF8",
"e.	c #FAFAF9",
"f.	c #F9F9F8",
"g.	c #FEFEFE",
"h.	c #FBFCFB",
"i.	c #FBFBFC",
"j.	c #FCFBFB",
"k.	c #FBFBFB",
"l.	c #FCFBFA",
"        . . . . . . . . . . . . . . . ",
"  + @ @ # # # $ % & & * & & = $ $ $ & ",
"  - ; ; > , > ' , ) , , ) ! , ! ! ! , ",
"  ~ { ] ^ / / / / / / ( / / / / / / ( ",
"_ : < : < < < : [ } < < : < } [ } [ < ",
"| 1 2 1 1 1 3 3 1 1 1 1 1 1 3 1 3 1 4 ",
"5 6 7 6 6 6 6 8 6 6 9 9 6 9 0 0 0 0 6 ",
"a b c d e f g h i j j k l m n e o o f ",
"p q r s t q u v w x x y x z A t r t q ",
"B C D E E D F G H I I I H J F K D C C ",
"L M M N M N N O N O O N P N N O N O Q ",
"R S T S S T U V W W X W X Y Z `  .S ` ",
"..+.+.+.+.+.@.#.$.%.&.*.%.#.=.+.-.;.+.",
">.,.'.'.).'.!.~.{.].{.{.^./.!.'.(._.@ ",
":.| _ _ <.| <.<.[._ <.}.[.}.}._ <.}.<.",
"|.1.2.3.4.4.4.5.4.4.p 3.a 3.3.4.4.4.4.",
"6.7.B L B B 7.B 8.B 7.B 9.8.B 0.0.B B ",
"a.b.c.c.b.c.b.c.d.b.e.c.c.f.b.c.c.c.f.",
"g.h.i.j.h.j.k.|.k.j.k.k.j.:.j.j.j.l.h."};
