/* XPM */
static char * stickfcs_xpm[] = {
"19 19 206 2",
"  	c #191919",
". 	c #ABE1E5",
"+ 	c #ABE0E5",
"@ 	c #184A4E",
"# 	c #16ABB8",
"$ 	c #16AAB8",
"% 	c #17ABB9",
"& 	c #16ABB9",
"* 	c #17ABB8",
"= 	c #18ABB9",
"- 	c #18ACB9",
"; 	c #AEE1E6",
"> 	c #1FADBB",
", 	c #1FAEBB",
"' 	c #1FADBA",
") 	c #20AEBB",
"! 	c #20AEBA",
"~ 	c #21AEBA",
"{ 	c #21AEBB",
"] 	c #21AFBB",
"^ 	c #22AEBB",
"/ 	c #B2E2E7",
"( 	c #28B0BD",
"_ 	c #29B1BD",
": 	c #2AB1BD",
"< 	c #2AB2BD",
"[ 	c #2BB1BD",
"} 	c #B5E4E8",
"| 	c #32B4BF",
"1 	c #32B4C0",
"2 	c #32B3BF",
"3 	c #33B4BF",
"4 	c #33B3C0",
"5 	c #33B4C0",
"6 	c #34B4BF",
"7 	c #34B4C0",
"8 	c #35B4BF",
"9 	c #34B5C0",
"0 	c #B9E5E9",
"a 	c #3BB7C2",
"b 	c #3CB6C2",
"c 	c #3CB7C2",
"d 	c #3CB7C1",
"e 	c #063C45",
"f 	c #22525B",
"g 	c #28565F",
"h 	c #295760",
"i 	c #22515B",
"j 	c #063C46",
"k 	c #3EB7C2",
"l 	c #3EB8C2",
"m 	c #BCE6EA",
"n 	c #45B9C4",
"o 	c #45BAC4",
"p 	c #1B4F58",
"q 	c #B0E1E5",
"r 	c #D8F0F2",
"s 	c #DDF1F3",
"t 	c #DEF2F3",
"u 	c #D9F0F2",
"v 	c #B1E1E5",
"w 	c #1C5059",
"x 	c #48BAC4",
"y 	c #47BAC5",
"z 	c #47BBC5",
"A 	c #C0E7EB",
"B 	c #4EBCC6",
"C 	c #4EBDC6",
"D 	c #4FBDC7",
"E 	c #4FBCC7",
"F 	c #53BEC8",
"G 	c #3E6B72",
"H 	c #D1EDEF",
"I 	c #F7FBFB",
"J 	c #FCFCFD",
"K 	c #F8FBFB",
"L 	c #D2EDEF",
"M 	c #3E6C72",
"N 	c #56BFC9",
"O 	c #51BDC7",
"P 	c #50BDC7",
"Q 	c #C3E8EC",
"R 	c #58C0C9",
"S 	c #58BFC8",
"T 	c #5DC1CA",
"U 	c #3F6E76",
"V 	c #D5EFF1",
"W 	c #F3F9FA",
"X 	c #D4EEF0",
"Y 	c #3F6F76",
"Z 	c #5EC2CA",
"` 	c #5AC1C9",
" .	c #5AC0C9",
"..	c #5BC1C9",
"+.	c #5BC1CA",
"@.	c #C6E9EC",
"#.	c #61C2CB",
"$.	c #61C3CC",
"%.	c #62C3CB",
"&.	c #62C3CC",
"*.	c #61C3CB",
"=.	c #66C3CD",
"-.	c #3F7178",
";.	c #C1E7EB",
">.	c #67C5CC",
",.	c #63C3CC",
"'.	c #64C3CB",
").	c #64C3CC",
"!.	c #C9EAED",
"~.	c #6AC5CD",
"{.	c #6BC5CE",
"].	c #6BC6CD",
"^.	c #6CC6CD",
"/.	c #6BC6CE",
"(.	c #6CC5CE",
"_.	c #6CC6CE",
":.	c #6FC7CF",
"<.	c #1C5A61",
"[.	c #6DC6CE",
"}.	c #6CC6CF",
"|.	c #6DC7CF",
"1.	c #6EC6CE",
"2.	c #CDEBEE",
"3.	c #74C8D0",
"4.	c #75C8D0",
"5.	c #74C9D0",
"6.	c #75C9D0",
"7.	c #76C9D0",
"8.	c #76C9D1",
"9.	c #76CAD1",
"0.	c #77C9D0",
"a.	c #D0ECEF",
"b.	c #7DCBD2",
"c.	c #7ECBD2",
"d.	c #7ECCD3",
"e.	c #065056",
"f.	c #22646A",
"g.	c #28686D",
"h.	c #29686D",
"i.	c #29686E",
"j.	c #22636A",
"k.	c #065057",
"l.	c #80CCD3",
"m.	c #81CCD3",
"n.	c #87CED4",
"o.	c #87CED5",
"p.	c #87CFD5",
"q.	c #88CED5",
"r.	c #226167",
"s.	c #C9E8EB",
"t.	c #D6EDF0",
"u.	c #D6EEF0",
"v.	c #CAEAEC",
"w.	c #246268",
"x.	c #8ACFD6",
"y.	c #8ACFD5",
"z.	c #8AD0D6",
"A.	c #D7EEF1",
"B.	c #90D2D7",
"C.	c #91D1D8",
"D.	c #91D1D7",
"E.	c #18565B",
"F.	c #31696D",
"G.	c #366D72",
"H.	c #386D72",
"I.	c #32696D",
"J.	c #17565C",
"K.	c #93D2D7",
"L.	c #93D2D8",
"M.	c #DBEFF2",
"N.	c #9BD4D9",
"O.	c #9AD4D9",
"P.	c #9AD5DA",
"Q.	c #9BD5D9",
"R.	c #9BD5DA",
"S.	c #9BD4DA",
"T.	c #9CD4DA",
"U.	c #9CD5DA",
"V.	c #9DD5DA",
"W.	c #DEF1F2",
"X.	c #A3D7DC",
"Y.	c #A4D8DC",
"Z.	c #A4D7DC",
"`.	c #A5D8DC",
" +	c #A5D8DD",
".+	c #A6D8DC",
"++	c #A6D9DD",
"@+	c #E1F2F3",
"#+	c #AEDBDE",
"$+	c #ADDADE",
"%+	c #AEDADF",
"&+	c #AEDBDF",
"*+	c #AEDADE",
"=+	c #AFDBDE",
"-+	c #AFDBDF",
";+	c #AFDADF",
">+	c #B0DBDF",
",+	c #E5F3F4",
"'+	c #B6DEE1",
")+	c #B7DDE1",
"!+	c #B6DDE1",
"~+	c #B7DEE1",
"{+	c #B7DEE0",
"]+	c #B8DDE0",
"^+	c #B7DDE0",
"/+	c #B8DEE0",
"        . + + . . . . . . + . + . . . ",
"  @ . . # $ # % & # % % % * % % = - = ",
"  ; > , ' , ) ) ) ! ~ ~ ) { { ] ] { ^ ",
"  / ( ( _ _ _ : _ : : : < : : < < [ [ ",
"} | | 1 2 3 3 4 5 3 5 6 7 7 7 6 7 8 9 ",
"0 a b c d d e f g h h h h i j k k l k ",
"m n o n o o p q r s t t u v w x y z y ",
"A B C D E D F G H I J K L M N O P P O ",
"Q R R R S R R T U V W X Y Z `  ...+. .",
"@.#.$.%.&.*.%.&.=.-.;.-.>.,.'.,.).,.).",
"!.~.{.].^./.(._._.:.<.:.[.}.[.[.[.|.1.",
"2.3.4.5.4.4.6.6.6.6.7.7.8.8.7.8.9.0.7.",
"a.b.c.c.d.d.e.f.g.h.i.i.h.j.k.l.l.l.m.",
"X n.n.o.p.q.r.s.t.u.u.u.u.v.w.x.x.y.z.",
"A.B.C.D.C.C.E.F.G.H.H.H.H.I.J.K.L.L.K.",
"M.N.O.P.O.Q.Q.R.R.S.T.R.U.U.U.U.V.U.V.",
"W.X.Y.Y.Z.Y.Z.Y.Y.`.`.`. +.+.+.+.+.+++",
"@+#+#+$+%+$+%+&+*+&+=+-+;+-+-+-+-+>+-+",
",+'+)+!+)+~+)+)+{+]+]+]+^+{+]+]+/+/+/+"};
