/* XPM */
static char * closepr_xpm[] = {
"21 21 224 2",
"  	c #EFEDE5",
". 	c #F4F2E8",
"+ 	c #ABABAB",
"@ 	c #F9F7EB",
"# 	c #E9E6D8",
"$ 	c #D7D3BD",
"% 	c #E8E4D4",
"& 	c #DDD8C4",
"* 	c #DCD8C4",
"= 	c #DCD8C3",
"- 	c #D7D2BD",
"; 	c #D7D1BC",
"> 	c #E8E4D3",
", 	c #DCD7C3",
"' 	c #D6D1BC",
") 	c #D6D0BA",
"! 	c #E7E3D2",
"~ 	c #DCD7C2",
"{ 	c #E7E4D2",
"] 	c #D5CFB8",
"^ 	c #E7E3D1",
"/ 	c #DBD7C1",
"( 	c #DCD7C1",
"_ 	c #DBD6C1",
": 	c #DCD6C1",
"< 	c #D6CFB9",
"[ 	c #D5CEB7",
"} 	c #DAD5C0",
"| 	c #D9D4BD",
"1 	c #D8D2BB",
"2 	c #D7D1BA",
"3 	c #D9D3BC",
"4 	c #DAD4BF",
"5 	c #E7E2D1",
"6 	c #D5CEB5",
"7 	c #E7E2D0",
"8 	c #DBD6C0",
"9 	c #DBD5C0",
"0 	c #D7D0B9",
"a 	c #D5CFB5",
"b 	c #D3CCB2",
"c 	c #D1CAAF",
"d 	c #D1CBAF",
"e 	c #D2CCB1",
"f 	c #D4CEB3",
"g 	c #D6D0B7",
"h 	c #D9D3BB",
"i 	c #DBD5BF",
"j 	c #D4CCB3",
"k 	c #E7E1CF",
"l 	c #D6CFB5",
"m 	c #D2CBAF",
"n 	c #CFC7A9",
"o 	c #CCC3A4",
"p 	c #CAC1A1",
"q 	c #CAC1A0",
"r 	c #CBC3A3",
"s 	c #CEC6A8",
"t 	c #D1CAAD",
"u 	c #D5CEB4",
"v 	c #D8D2B9",
"w 	c #E6E1CF",
"x 	c #D5CDB3",
"y 	c #D4CCB2",
"z 	c #DAD2BC",
"A 	c #D0CBAD",
"B 	c #FFDF55",
"C 	c #FFDC51",
"D 	c #C3B994",
"E 	c #BFB48C",
"F 	c #BCB28C",
"G 	c #FFD84A",
"H 	c #FFDB4F",
"I 	c #CCC3A2",
"J 	c #D1C9AB",
"K 	c #F9F7EA",
"L 	c #E6E1CE",
"M 	c #D3CBB0",
"N 	c #D7D0B8",
"O 	c #CCC5A4",
"P 	c #FFD646",
"Q 	c #FFCF3D",
"R 	c #AC9E6A",
"S 	c #FFCA35",
"T 	c #FFCE3C",
"U 	c #FFD445",
"V 	c #C3B995",
"W 	c #CAC2A1",
"X 	c #D0C9AC",
"Y 	c #F9F6E9",
"Z 	c #E6E0CD",
"` 	c #D3CBB1",
" .	c #D2CAAE",
"..	c #E5E0CC",
"+.	c #D5CEB3",
"@.	c #D0C8AB",
"#.	c #C8BF9C",
"$.	c #BFB38A",
"%.	c #FFCE3B",
"&.	c #FFC228",
"*.	c #FFB518",
"=.	c #FFB313",
"-.	c #FFBE24",
";.	c #AC9D68",
">.	c #BAAF85",
",.	c #C6BC97",
"'.	c #CEC6A7",
").	c #F8F6E8",
"!.	c #D2CAAF",
"~.	c #CBC3A0",
"{.	c #E2DDC6",
"].	c #D0C8AA",
"^.	c #CAC09C",
"/.	c #C1B68D",
"(.	c #B0A574",
"_.	c #998B4B",
":.	c #FFA812",
"<.	c #FF8C12",
"[.	c #5F4424",
"}.	c #907F38",
"|.	c #AC9F69",
"1.	c #BCB286",
"2.	c #C6BE99",
"3.	c #F8F5E7",
"4.	c #E2DDC5",
"5.	c #CCC2A1",
"6.	c #CEC5A4",
"7.	c #E3DEC7",
"8.	c #D1C9A9",
"9.	c #C9C19D",
"0.	c #C1B58C",
"a.	c #B2A370",
"b.	c #FFBE20",
"c.	c #FF9813",
"d.	c #FF8C13",
"e.	c #897729",
"f.	c #AB9C65",
"g.	c #BDB185",
"h.	c #C8BE99",
"i.	c #D0C7A7",
"j.	c #E4DFC9",
"k.	c #D3CCAD",
"l.	c #CCC5A1",
"m.	c #C3B891",
"n.	c #FFD13E",
"o.	c #FFC229",
"p.	c #FFA813",
"q.	c #2B2A25",
"r.	c #FF9913",
"s.	c #FFBC1F",
"t.	c #AFA46E",
"u.	c #C0B58B",
"v.	c #D2CAAA",
"w.	c #E5E0CA",
"x.	c #D5CEB0",
"y.	c #D0C7A6",
"z.	c #C7BE98",
"A.	c #FFD645",
"B.	c #FFCD35",
"C.	c #98873F",
"D.	c #816825",
"E.	c #786625",
"F.	c #FFB91A",
"G.	c #FFC930",
"H.	c #B7AE7D",
"I.	c #C5BC92",
"J.	c #CDC5A2",
"K.	c #D2C9AA",
"L.	c #D4CBAE",
"M.	c #E6E1CC",
"N.	c #D8D0B6",
"O.	c #D3CAAD",
"P.	c #C5BA94",
"Q.	c #BDB182",
"R.	c #B2A36F",
"S.	c #A99B5E",
"T.	c #A8975D",
"U.	c #AFA169",
"V.	c #B9AE7D",
"W.	c #C3B98F",
"X.	c #CBC19E",
"Y.	c #D1CAAA",
"Z.	c #F8F6E9",
"`.	c #D5CFB0",
" +	c #E7E3CE",
".+	c #DAD4BB",
"++	c #D7D0B3",
"@+	c #D1CBAB",
"#+	c #CCC5A3",
"$+	c #C8BE98",
"%+	c #C2B88E",
"&+	c #BEB485",
"*+	c #BEB286",
"=+	c #C1B68C",
"-+	c #C6BC95",
";+	c #CCC3A0",
">+	c #D2C9A8",
",+	c #D6CFB2",
"'+	c #F9F7E9",
")+	c #E7E2CD",
"!+	c #D8D1B4",
"~+	c #E8E4D0",
"{+	c #F7F5E6",
"]+	c #F7F5E4",
"^+	c #F7F4E2",
"/+	c #F7F3E1",
"(+	c #F7F4E1",
"_+	c #F7F4E3",
":+	c #F7F5E5",
"<+	c #F8F6E7",
"[+	c #E8E4CF",
"}+	c #D8D1B5",
"|+	c #DAD3B7",
"1+	c #E9E5D1",
"2+	c #DCD5BB",
"3+	c #EAE5D3",
"4+	c #EBE6D3",
"5+	c #EAE6D3",
"6+	c #DDD5BC",
"7+	c #DFD7BE",
"8+	c #DED8BE",
"9+	c #DFD8BE",
"0+	c #DFD8BF",
"a+	c #DFD7BF",
"  . + @ # # # # # # # # # # # # # @ + .   ",
"$ % + @ & & * & * * & = & & = = & @ + % - ",
"; > + @ , = , , , , , = , , , , , @ + > ' ",
") ! + @ ~ ~ ~ ~ ~ ~ ~ ~ ~ ~ ~ ~ ~ @ + { ) ",
"] ^ + @ / / ( / _ / _ : : _ _ : / @ + ^ < ",
"[ ^ + @ _ _ _ } | 1 2 2 1 3 4 _ _ @ + 5 [ ",
"6 7 + @ 8 9 | 0 a b c d e f g h i @ + 7 6 ",
"j k + @ i h l m n o p q r s t u v @ + w x ",
"y w + @ z a A B C D E F G H I J f K + L b ",
"M L + @ N m O H P Q R S T U V W X Y + Z ` ",
" ...+ @ +.@.#.$.%.&.*.=.-.;.>.,.'.).+ ..!.",
"~.{.+ K ].^./.(._.:.<.<.[.}.|.1.2.3.+ 4.5.",
"6.7.+ K 8.9.0.a.b.c.d.d.d.e.f.g.h.3.+ 7.6.",
"i.j.+ K k.l.m.n.o.p.q.d.r.s.t.u.^.3.+ j.i.",
"v.w.+ @ x.y.z.A.B.C.D.E.F.G.H.I.J.).+ w.K.",
"L.M.+ @ N.O.J.P.Q.R.S.T.U.V.W.X.Y.Z.+ M.L.",
"`. ++ @ .+++@+#+$+%+&+*+=+-+;+>+,+'++ )+x.",
"!+~++ @ @ K ).{+]+^+/+/+(+_+:+<+Y @ + [+}+",
"|+1++ + + + + + + + + + + + + + + + + 1+|+",
"2+3+4+5+5+3+5+5+5+4+5+5+5+4+5+4+5+5+4+5+6+",
"7+8+7+7+9+9+0+7+8+7+7+9+7+a+7+9+7+9+7+9+7+"};
