/* XPM */
static char * minufcs_xpm[] = {
"21 21 103 2",
"  	c #F9F9F8",
". 	c #F9F8F2",
"+ 	c #ABABAB",
"@ 	c #F9F7EB",
"# 	c #EEECE2",
"$ 	c #EEEBE2",
"% 	c #EEEFEC",
"& 	c #F4F2EC",
"* 	c #E9E7DC",
"= 	c #E9E6DC",
"- 	c #E8E6DC",
"; 	c #E8E6DB",
"> 	c #EEEEEC",
", 	c #EEEDEA",
"' 	c #F3F2EA",
") 	c #E8E6DA",
"! 	c #EDEDEA",
"~ 	c #EDECE8",
"{ 	c #F3F1E9",
"] 	c #E8E5DA",
"^ 	c #F3F2E9",
"/ 	c #ECEBE6",
"( 	c #F2F1E8",
"_ 	c #E7E5D9",
": 	c #E8E5D9",
"< 	c #EDEBE7",
"[ 	c #EBEAE4",
"} 	c #F2F1E7",
"| 	c #E7E5D8",
"1 	c #E7E4D8",
"2 	c #F2F0E8",
"3 	c #EBEAE2",
"4 	c #F2F0E6",
"5 	c #E7E4D7",
"6 	c #EAE8E0",
"7 	c #F2EFE5",
"8 	c #E6E4D6",
"9 	c #E6E3D6",
"0 	c #E7E4D6",
"a 	c #F1EFE5",
"b 	c #EBE9E0",
"c 	c #EAE8DE",
"d 	c #E6E3D5",
"e 	c #F1EFE4",
"f 	c #E9E8DE",
"g 	c #E6E2D4",
"h 	c #E6E3D4",
"i 	c #B8B6AA",
"j 	c #B7B5AA",
"k 	c #F1EEE3",
"l 	c #E9E7DD",
"m 	c #F0EEE2",
"n 	c #E5E2D3",
"o 	c #B7B5A9",
"p 	c #E1DEC8",
"q 	c #EDEADA",
"r 	c #E1DECA",
"s 	c #E2DEC9",
"t 	c #E2DECA",
"u 	c #E1DDCA",
"v 	c #B4B2A2",
"w 	c #B4B1A1",
"x 	c #B4B1A2",
"y 	c #EDEAD9",
"z 	c #E2DDC9",
"A 	c #E4E0CD",
"B 	c #EEEBDC",
"C 	c #E3DFCC",
"D 	c #B6B2A3",
"E 	c #E6E2D0",
"F 	c #EFEDDE",
"G 	c #E4E1CE",
"H 	c #E4E0CE",
"I 	c #B6B4A5",
"J 	c #EFECDE",
"K 	c #E8E5D4",
"L 	c #F0EEE0",
"M 	c #E5E2D0",
"N 	c #E5E1D0",
"O 	c #E8E4D5",
"P 	c #EAE7D9",
"Q 	c #F1EFE2",
"R 	c #E6E3D2",
"S 	c #E7E3D2",
"T 	c #ECEBDC",
"U 	c #F3F1E4",
"V 	c #E8E4D4",
"W 	c #E7E5D4",
"X 	c #E7E4D4",
"Y 	c #F2F0E3",
"Z 	c #ECEADC",
"` 	c #EFEDE1",
" .	c #F4F2E6",
"..	c #F3F2E6",
"+.	c #EFEDE2",
"@.	c #F5F3E8",
"#.	c #F6F4EA",
"$.	c #F4F2EA",
"%.	c #F6F4ED",
"&.	c #F5F5ED",
"*.	c #F6F5ED",
"=.	c #F6F5EE",
"-.	c #F6F4EE",
"  . + @ # # # $ # # # # $ $ # $ # @ + .   ",
"% & + @ * = - = - - = ; = = ; ; = @ + & > ",
", ' + @ ; ; ; ; ; ; ; ) ; ; ; ; ; @ + ' ! ",
"~ { + @ ] ) ) ] ] ] ] ] ] ] ] ] ) @ + ^ ~ ",
"/ ( + @ _ _ : _ _ _ _ : : _ _ : _ @ + ( < ",
"[ } + @ | 1 1 | 1 1 1 1 | | | | | @ + 2 [ ",
"3 4 + @ 5 5 5 5 5 5 5 5 5 5 5 5 5 @ + 4 3 ",
"6 7 + @ 8 8 8 9 9 9 9 0 9 8 8 8 9 @ + a b ",
"c a + @ d d d d d d d d d d d d d @ + e f ",
"* e + @ g g h i g h g g h j h h h @ + k l ",
") m + @ n n n o o n n n o o n n n @ + m ; ",
"p q + @ r s t u v v v w x u r r r @ + y z ",
"A B + @ C C C C C D D D C C C C C @ + B A ",
"E F + @ G G H G H G I G H H G G H @ + J E ",
"K L + @ M M M M M M N M M M M M M @ + L O ",
"P Q + @ R R R R R R R R R R R S S @ + Q P ",
"T U + @ V K W X V V V K V V K V V @ + Y Z ",
"`  .+ @ @ @ @ @ @ @ @ @ @ @ @ @ @ @ + ..+.",
"a @.+ + + + + + + + + + + + + + + + + @.a ",
"^ #.#.#.#.#.#.#.#.#.#.#.#.#.#.#.#.#.#.#.$.",
"%.&.%.%.*.*.=.%.&.%.%.*.%.-.%.*.%.*.%.*.%."};
