/* XPM */
static char * unshadeufcs_xpm[] = {
"21 21 102 2",
"  	c #F9F9F8",
". 	c #F9F8F2",
"+ 	c #ABABAB",
"@ 	c #F9F7EB",
"# 	c #EEECE2",
"$ 	c #EEEBE2",
"% 	c #EEEFEC",
"& 	c #F4F2EC",
"* 	c #E9E7DC",
"= 	c #E9E6DC",
"- 	c #E8E6DC",
"; 	c #E8E6DB",
"> 	c #EEEEEC",
", 	c #EEEDEA",
"' 	c #F3F2EA",
") 	c #E8E6DA",
"! 	c #EDEDEA",
"~ 	c #EDECE8",
"{ 	c #F3F1E9",
"] 	c #E8E5DA",
"^ 	c #F3F2E9",
"/ 	c #ECEBE6",
"( 	c #F2F1E8",
"_ 	c #E7E5D9",
": 	c #E8E5D9",
"< 	c #EDEBE7",
"[ 	c #EBEAE4",
"} 	c #F2F1E7",
"| 	c #E7E5D8",
"1 	c #E7E4D8",
"2 	c #F2F0E8",
"3 	c #EBEAE2",
"4 	c #F2F0E6",
"5 	c #E7E4D7",
"6 	c #EAE8E0",
"7 	c #F2EFE5",
"8 	c #E6E4D6",
"9 	c #E6E3D6",
"0 	c #E7E4D6",
"a 	c #F1EFE5",
"b 	c #EBE9E0",
"c 	c #EAE8DE",
"d 	c #E6E3D5",
"e 	c #F1EFE4",
"f 	c #E9E8DE",
"g 	c #E6E2D4",
"h 	c #E6E3D4",
"i 	c #E5E2D4",
"j 	c #F1EEE3",
"k 	c #E9E7DD",
"l 	c #F0EEE2",
"m 	c #E5E2D3",
"n 	c #B7B5A9",
"o 	c #E1DEC8",
"p 	c #EDEADA",
"q 	c #E1DECA",
"r 	c #E2DEC9",
"s 	c #E2DECA",
"t 	c #E1DDCA",
"u 	c #B4B2A2",
"v 	c #E1DDC9",
"w 	c #B4B1A2",
"x 	c #EDEAD9",
"y 	c #E2DDC9",
"z 	c #E4E0CD",
"A 	c #EEEBDC",
"B 	c #E3DFCC",
"C 	c #B6B2A3",
"D 	c #E6E2D0",
"E 	c #EFEDDE",
"F 	c #E4E1CE",
"G 	c #E4E0CE",
"H 	c #B6B4A5",
"I 	c #EFECDE",
"J 	c #E8E5D4",
"K 	c #F0EEE0",
"L 	c #E5E2D0",
"M 	c #E5E1D0",
"N 	c #E8E4D5",
"O 	c #EAE7D9",
"P 	c #F1EFE2",
"Q 	c #E6E3D2",
"R 	c #E7E3D2",
"S 	c #ECEBDC",
"T 	c #F3F1E4",
"U 	c #E8E4D4",
"V 	c #E7E5D4",
"W 	c #E7E4D4",
"X 	c #F2F0E3",
"Y 	c #ECEADC",
"Z 	c #EFEDE1",
"` 	c #F4F2E6",
" .	c #F3F2E6",
"..	c #EFEDE2",
"+.	c #F5F3E8",
"@.	c #F6F4EA",
"#.	c #F4F2EA",
"$.	c #F6F4ED",
"%.	c #F5F5ED",
"&.	c #F6F5ED",
"*.	c #F6F5EE",
"=.	c #F6F4EE",
"  . + @ # # # $ # # # # $ $ # $ # @ + .   ",
"% & + @ * = - = - - = ; = = ; ; = @ + & > ",
", ' + @ ; ; ; ; ; ; ; ) ; ; ; ; ; @ + ' ! ",
"~ { + @ ] ) ) ] ] ] ] ] ] ] ] ] ) @ + ^ ~ ",
"/ ( + @ _ _ : _ _ _ _ : : _ _ : _ @ + ( < ",
"[ } + @ | 1 1 | 1 1 1 1 | | | | | @ + 2 [ ",
"3 4 + @ 5 5 5 5 5 5 5 5 5 5 5 5 5 @ + 4 3 ",
"6 7 + @ 8 8 8 9 9 9 9 0 9 8 8 8 9 @ + a b ",
"c a + @ d d d d d d d d d d d d d @ + e f ",
"* e + @ g g h h g h g g h i h h h @ + j k ",
") l + @ m m m m m n n n m m m m m @ + l ; ",
"o p + @ q r s t u q q v w t q q q @ + x y ",
"z A + @ B B B B C B B B C B B B B @ + A z ",
"D E + @ F F G F G H H H G G F F G @ + I D ",
"J K + @ L L L L L L M L L L L L L @ + K N ",
"O P + @ Q Q Q Q Q Q Q Q Q Q Q R R @ + P O ",
"S T + @ U J V W U U U J U U J U U @ + X Y ",
"Z ` + @ @ @ @ @ @ @ @ @ @ @ @ @ @ @ +  ...",
"a +.+ + + + + + + + + + + + + + + + + +.a ",
"^ @.@.@.@.@.@.@.@.@.@.@.@.@.@.@.@.@.@.@.#.",
"$.%.$.$.&.&.*.$.%.$.$.&.$.=.$.&.$.&.$.&.$."};
