/* XPM */
static char * maxpr_xpm[] = {
"16 16 23 1",
" 	c #EAEAEA",
".	c #D5D5D5",
"+	c #ADADAD",
"@	c #9E9E9E",
"#	c #9F9F9F",
"$	c #808080",
"%	c #6D6D6D",
"&	c #979797",
"*	c #636363",
"=	c #959595",
"-	c #585858",
";	c #949494",
">	c #4B4B4B",
",	c #929292",
"'	c #424242",
")	c #909090",
"!	c #3C3C3C",
"~	c #8F8F8F",
"{	c #373737",
"]	c #2E2E2E",
"^	c #252525",
"/	c #1F1F1F",
"(	c #1A1A1A",
"                ",
"................",
"++@@@@@@@@@@@@++",
"##@##########@##",
"$$@$$$$$$$$$$@$$",
"%%@%%%%&&%%%%@%%",
"**@****==****@**",
"--@--;;;;;;--@--",
">>@>>,,,,,,>>@>>",
"''@''''))''''@''",
"!!@!!!!~~!!!!@!!",
"{{@{{{{{{{{{{@{{",
"]]@]]]]]]]]]]@]]",
"^^@@@@@@@@@@@@^^",
"////////////////",
"(((((((((((((((("};
