/* XPM */
static char * stickpr_xpm[] = {
"21 21 130 2",
"  	c #FEFDFE",
". 	c #FEFEFD",
"+ 	c #FDFEFE",
"@ 	c #FEFDFD",
"# 	c #FEFEFE",
"$ 	c #FDFDFE",
"% 	c #FCFBFC",
"& 	c #FCFCFC",
"* 	c #FCFDFC",
"= 	c #FAFAFA",
"- 	c #FBFAFB",
"; 	c #FBFAFA",
"> 	c #FAFBFA",
", 	c #FAFAFB",
"' 	c #FAFBFB",
") 	c #C1C1C1",
"! 	c #F9F8F9",
"~ 	c #F8F8F8",
"{ 	c #F8F9F8",
"] 	c #F9F8F8",
"^ 	c #F9F9F8",
"/ 	c #F8F8F9",
"( 	c #F8F9F9",
"_ 	c #F9F9F9",
": 	c #ECECEC",
"< 	c #3E3E3E",
"[ 	c #F7F7F7",
"} 	c #F6F6F6",
"| 	c #F6F7F6",
"1 	c #F7F7F6",
"2 	c #F7F6F7",
"3 	c #F6F7F7",
"4 	c #F6F6F7",
"5 	c #F5F5F4",
"6 	c #F5F5F5",
"7 	c #F5F4F5",
"8 	c #F4F4F5",
"9 	c #3D3D3D",
"0 	c #F2F3F3",
"a 	c #F3F3F3",
"b 	c #F3F2F3",
"c 	c #F3F3F4",
"d 	c #F4F3F4",
"e 	c #F4F4F3",
"f 	c #F1F2F1",
"g 	c #F1F1F1",
"h 	c #F1F1F2",
"i 	c #F1F2F2",
"j 	c #F2F1F1",
"k 	c #F2F1F2",
"l 	c #3C3D3C",
"m 	c #F0EFEF",
"n 	c #EFEFEF",
"o 	c #EFF0EF",
"p 	c #F0F0F0",
"q 	c #EFF0F0",
"r 	c #EFEFF0",
"s 	c #F0EFF0",
"t 	c #3C3C3C",
"u 	c #EEEDED",
"v 	c #EEEEEE",
"w 	c #EDEDEE",
"x 	c #EEEEED",
"y 	c #EDEEEE",
"z 	c #3C3B3B",
"A 	c #ECEBEB",
"B 	c #535353",
"C 	c #3B3B3B",
"D 	c #EAEBEA",
"E 	c #EAEAEA",
"F 	c #EAEAEB",
"G 	c #EBEBEA",
"H 	c #EBEAEB",
"I 	c #EAEBEB",
"J 	c #E8E9E8",
"K 	c #E8E8E8",
"L 	c #E9E8E8",
"M 	c #E8E9E9",
"N 	c #E9E9E8",
"O 	c #E9E9E9",
"P 	c #3A3A3A",
"Q 	c #E6E7E7",
"R 	c #E7E6E6",
"S 	c #E7E6E7",
"T 	c #E7E7E7",
"U 	c #E7E7E6",
"V 	c #E6E7E6",
"W 	c #E6E6E7",
"X 	c #E5E5E5",
"Y 	c #E4E5E5",
"Z 	c #E5E5E4",
"` 	c #E5E4E5",
" .	c #E5E4E4",
"..	c #393939",
"+.	c #E2E3E3",
"@.	c #E3E3E3",
"#.	c #E3E4E3",
"$.	c #E4E3E3",
"%.	c #E3E4E4",
"&.	c #E4E3E4",
"*.	c #E1E1E1",
"=.	c #E1E1E2",
"-.	c #E2E1E1",
";.	c #E1E2E1",
">.	c #E2E2E1",
",.	c #E2E2E2",
"'.	c #383838",
").	c #DFE0E0",
"!.	c #E0E0E0",
"~.	c #DFDFE0",
"{.	c #E0DFDF",
"].	c #E0DFE0",
"^.	c #E0E0DF",
"/.	c #DFDFDF",
"(.	c #DFE0DF",
"_.	c #DEDEDE",
":.	c #DDDEDE",
"<.	c #DDDDDE",
"[.	c #DEDDDD",
"}.	c #DEDEDD",
"|.	c #DEDDDE",
"1.	c #DCDCDC",
"2.	c #DCDDDC",
"3.	c #DCDCDD",
"4.	c #DADADA",
"5.	c #DBDADA",
"6.	c #DADBDA",
"7.	c #DADBDB",
"8.	c #DADADB",
"9.	c #DBDBDB",
"  .   + @ + + + # . # $ + # # # . # # .   ",
"% & & & & & % & & & & & & & & & & & * & % ",
"= = = = = - = = ; = > ; , ; = = = ; ' = ) ",
"! ~ { ~ ] ] { ^ / { ( ! ^ ! ^ ] ( ^ _ : < ",
"[ } [ | 1 2 1 2 3 1 3 4 [ 2 3 [ [ | 1 : < ",
"5 6 7 8 6 7 6 5 6 6 6 6 6 6 6 6 6 6 6 : 9 ",
"0 a a b a a c a a a a d a c a c a e a : 9 ",
"f g g g h f f i i i i g j g j f f i k : l ",
"m n o n p q o m o m r o q s q r p o q : t ",
"u v w w x v v v y y y x v v v v x v v : z ",
"A : : : : : : : : B B B : : : : : : : : C ",
"D E D E E E E F E B B B E E G H D I H : C ",
"J K L K K J M L N B B B O O K N M M O : P ",
"Q R S Q R T U Q Q R V U R W Q R V U T : P ",
"X Y Y X Z X X ` X X X X  .X X X X X X : ..",
"+.@.@.@.@.@.@.@.@.#.@.$.@.%.@.#.@.&.$.: ..",
"*.*.=.=.-.*.=.*.*.;.*.>.-.>.=.-.;.=.,.: '.",
").!.!.~.{.].^.~.].^.!.!.!.^.^./.^.(.{.: '.",
"_._.:._.<.[.<.}.}._.|._._.:._.}.|._._._.: ",
"1.1.1.1.1.1.1.1.1.1.1.1.1.1.2.1.1.2.3.1.1.",
"4.4.4.5.4.4.6.4.6.4.6.4.7.4.7.8.5.4.9.4.4."};
