/* XPM */
static char * stuckfcs_xpm[] = {
"21 21 160 2",
"  	c #FEFDFE",
". 	c #FEFEFD",
"+ 	c #FDFEFE",
"@ 	c #FEFDFD",
"# 	c #FEFEFE",
"$ 	c #FDFDFE",
"% 	c #FCFBFC",
"& 	c #FCFCFC",
"* 	c #FCFDFC",
"= 	c #FAFAFA",
"- 	c #FBFAFB",
"; 	c #FBFAFA",
"> 	c #FAFBFA",
", 	c #FAFAFB",
"' 	c #FAFBFB",
") 	c #C1C1C1",
"! 	c #F9F8F9",
"~ 	c #F8F8F8",
"{ 	c #F8F9F8",
"] 	c #F9F8F8",
"^ 	c #F9F9F8",
"/ 	c #F8F8F9",
"( 	c #F8F9F9",
"_ 	c #F9F9F9",
": 	c #ECECEC",
"< 	c #3E3E3E",
"[ 	c #F7F7F7",
"} 	c #F6F6F6",
"| 	c #F6F7F6",
"1 	c #F7F7F6",
"2 	c #F7F6F7",
"3 	c #F6F6F5",
"4 	c #F6F5F6",
"5 	c #F4F5F5",
"6 	c #F5F5F4",
"7 	c #F4F4F5",
"8 	c #F5F5F5",
"9 	c #F5F6F6",
"0 	c #F5F4F5",
"a 	c #F4F4F4",
"b 	c #F4F3F4",
"c 	c #F3F3F3",
"d 	c #F2F2F1",
"e 	c #F1F1F1",
"f 	c #F2F2F2",
"g 	c #3D3D3D",
"h 	c #F2F3F3",
"i 	c #F3F2F3",
"j 	c #F0F0F0",
"k 	c #EFEFF0",
"l 	c #EDEDED",
"m 	c #EDECED",
"n 	c #EDEDEE",
"o 	c #EFEFEF",
"p 	c #F0F0F1",
"q 	c #F4F4F3",
"r 	c #F1F2F1",
"s 	c #EDEEED",
"t 	c #EBECEB",
"u 	c #C9CACA",
"v 	c #C9C9CA",
"w 	c #CAC9CA",
"x 	c #ECEBEB",
"y 	c #EFF0EF",
"z 	c #F0F1F1",
"A 	c #F2F1F2",
"B 	c #3C3D3C",
"C 	c #F0EFEF",
"D 	c #EEEEEE",
"E 	c #E9EAEA",
"F 	c #C9C9C9",
"G 	c #535353",
"H 	c #E9E9EA",
"I 	c #EEEFEE",
"J 	c #EFF0F0",
"K 	c #3C3C3C",
"L 	c #EEEDED",
"M 	c #ECECED",
"N 	c #EBEBEC",
"O 	c #EAEAE9",
"P 	c #E7E7E7",
"Q 	c #C8C8C9",
"R 	c #3C3B3B",
"S 	c #EBEBEB",
"T 	c #EAEAEA",
"U 	c #E8E8E8",
"V 	c #E6E6E6",
"W 	c #C7C7C8",
"X 	c #3B3B3B",
"Y 	c #EAEBEA",
"Z 	c #E9EAE9",
"` 	c #E4E4E4",
" .	c #C6C6C7",
"..	c #C7C7C7",
"+.	c #E5E4E5",
"@.	c #E6E7E6",
"#.	c #E8E9E9",
"$.	c #EAE9EA",
"%.	c #E8E9E8",
"&.	c #E8E7E7",
"*.	c #E2E3E2",
"=.	c #C6C6C6",
"-.	c #E3E3E2",
";.	c #E4E5E5",
">.	c #E6E7E7",
",.	c #3A3A3A",
"'.	c #E7E6E6",
").	c #E6E5E6",
"!.	c #E3E2E2",
"~.	c #E1E1E1",
"{.	c #C5C5C5",
"].	c #C5C5C6",
"^.	c #E1E0E0",
"/.	c #E5E5E4",
"(.	c #E5E5E5",
"_.	c #E2E2E1",
":.	c #E0E0E0",
"<.	c #C4C4C5",
"[.	c #E2E2E2",
"}.	c #393939",
"|.	c #E2E3E3",
"1.	c #E3E3E3",
"2.	c #DFDFDF",
"3.	c #DEDEDE",
"4.	c #C3C3C4",
"5.	c #C3C4C4",
"6.	c #C4C3C4",
"7.	c #DFE0DF",
"8.	c #E3E2E3",
"9.	c #E4E3E3",
"0.	c #E1E1E2",
"a.	c #DDDDDE",
"b.	c #DCDCDC",
"c.	c #DBDBDB",
"d.	c #DBDCDB",
"e.	c #DCDCDB",
"f.	c #DCDBDB",
"g.	c #DDDDDC",
"h.	c #DFDEDE",
"i.	c #E0E1E0",
"j.	c #383838",
"k.	c #DFE0E0",
"l.	c #DFDFE0",
"m.	c #DFDEDF",
"n.	c #DEDEDD",
"o.	c #DCDCDD",
"p.	c #DFDFDE",
"q.	c #E0DFDF",
"r.	c #DDDEDE",
"s.	c #DEDDDD",
"t.	c #DCDBDC",
"u.	c #DCDDDD",
"v.	c #DDDDDD",
"w.	c #DEDDDE",
"x.	c #DCDDDC",
"y.	c #DADADA",
"z.	c #DBDADA",
"A.	c #DADBDA",
"B.	c #DADBDB",
"C.	c #DADADB",
"  .   + @ + + + # . # $ + # # # . # # .   ",
"% & & & & & % & & & & & & & & & & & * & % ",
"= = = = = - = = ; = > ; , ; = = = ; ' = ) ",
"! ~ { ~ ] ] { ^ / { ( ! ^ ! ^ ] ( ^ _ : < ",
"[ } [ | 1 2 3 4 5 6 5 7 8 4 9 [ [ | 1 : < ",
"6 8 0 7 a b c d e e e e e f c a a 8 8 : g ",
"h c c i f j k l : : : m : n o p f q c : g ",
"r e e j k s t u u u u v w v x s y z A : B ",
"C o y D l E F G G G G G G G F H l I J : K ",
"L D M N O P Q G G G G G G G Q P O : l : R ",
"x : S T U V W G G G G G G G W V U T S : X ",
"Y T Z U V `  .G G G G G G G ..+.@.#.$.: X ",
"%.U &.V ` *. .G G G G G G G =.-.;.>.U : ,.",
">.'.).;.!.~.{.G G G G G G G ].^.*./.V : ,.",
"(.;.;.` _.:.<.G G G G G G G <.:.[.` (.: }.",
"|.1.1.[.~.2.3.4.4.5.4.6.4.5.3.7.~.8.9.: }.",
"~.~.0.0.^.3.a.b.c.d.c.e.f.g.a.h.i.0.[.: j.",
"k.:.:.l.h.m.n.o.b.b.b.b.b.g.n.3.p.7.q.: j.",
"3.3.r.3.a.s.o.g.e.b.t.b.b.u.v.n.w.3.3.3.: ",
"b.b.b.b.b.b.b.b.b.b.b.b.b.b.x.b.b.x.o.b.b.",
"y.y.y.z.y.y.A.y.A.y.A.y.B.y.B.C.z.y.c.y.y."};
