/* XPM */
static char * stickpr_xpm[] = {
"21 21 55 1",
" 	c #D4E5F6",
".	c #D3E5F6",
"+	c #D2E4F6",
"@	c #D1E3F6",
"#	c #D0E3F6",
"$	c #CFE2F5",
"%	c #CEE1F5",
"&	c #CCE0F5",
"*	c #C9DFF4",
"=	c #CBE0F5",
"-	c #C8DEF4",
";	c #C7DDF4",
">	c #C3DCF3",
",	c #C3DBF3",
"'	c #C1DAF3",
")	c #BAD6F1",
"!	c #A8C4DF",
"~	c #627E99",
"{	c #58748F",
"]	c #56728D",
"^	c #65829D",
"/	c #A9C6E3",
"(	c #B9D6F1",
"_	c #A7CBEE",
":	c #507396",
"<	c #656565",
"[	c #8A8A8A",
"}	c #BBBBBB",
"|	c #FDFDFD",
"1	c #4D7093",
"2	c #A5CAED",
"3	c #8BB9E8",
"4	c #3E6190",
"5	c #3A5D8D",
"6	c #6DA7E2",
"7	c #5E95D0",
"8	c #2E508A",
"9	c #26457C",
"0	c #254378",
"a	c #2D4E88",
"b	c #5A92CE",
"c	c #6BA6E2",
"d	c #5497DC",
"e	c #4F8ECF",
"f	c #4984BF",
"g	c #4278AE",
"h	c #4379AF",
"i	c #3B6B9B",
"j	c #3C6D9E",
"k	c #345E88",
"l	c #35608B",
"m	c #2D5176",
"n	c #2E5378",
"o	c #274666",
"p	c #284969",
"                .    ",
"               .+..  ",
"+++++++++++++++++++++",
"+++++++++++++++@#@@++",
"################$$###",
"%%%%%%%%%%%%%%%%&%%%%",
"&&&&&&&&&&&&&&&&*=&&&",
"***************-;--**",
">>>>>>>>>>>>>>>,',,>>",
"))))!~{]]]]]]]]^/(())",
"____:<[}|||||}[<12___",
"33334<[}|||||}[<53333",
"666678900000000abc666",
"ddddddddddddddddddddd",
"eeeeeeeeeeeeeeeeeeeee",
"fffffffffffffffffffff",
"gggggggggggggggghhggg",
"iiiiiiiiiiiiiiiijjiii",
"kkkkkkkkkkkkkkkkllkkk",
"mmmmmmmmmmmmmmmmnnmmm",
"ooooooooooooooooppooo"};
