/* XPM */
static char * selected_xpm[] = {
"16 16 15 1",
" 	c None",
".	c #919DA6",
"+	c #697985",
"@	c #677683",
"#	c #647481",
"$	c #6F7E8A",
"%	c #707F8B",
"&	c #6A7986",
"*	c #7A8893",
"=	c #9BA5AD",
"-	c #7D8A95",
";	c #87949E",
">	c #ABB4BB",
",	c #C7CDD2",
"'	c #768490",
"                ",
"                ",
"                ",
"                ",
"     .++@##     ",
"    .$.$%&%#    ",
"    *#  **@=    ",
"   .-#;>>.+=#   ",
"   ,**%===+ #   ",
"    *-%%;';##   ",
"     **%%%-#    ",
"      -**.#     ",
"                ",
"                ",
"                ",
"                "};
