/* XPM */
static char * stuckufcs_xpm[] = {
"17 17 11 1",
" 	c #F2F2F3",
".	c #C6C6C8",
"+	c #CECECF",
"@	c #D8D8D9",
"#	c #DFDEDF",
"$	c #5E5E5E",
"%	c #E8E7E8",
"&	c #FFFFFF",
"*	c #EBEBEC",
"=	c #DBDBDC",
"-	c #D4D3D4",
"                 ",
".................",
".................",
".................",
"+++++++++++++++++",
"@@@@@@@@@@@@@@@@@",
"########$########",
"%%%%%%%$&$%%%%%%%",
"******$&*&$******",
"******$***$******",
"******&$*$&******",
"%%%%%%%&$&%%%%%%%",
"%%%%%%%%&%%%%%%%%",
"#################",
"#################",
"=================",
"-----------------"};
