/* XPM */
static char * closepr_xpm[] = {
"18 18 107 2",
"  	c #F9F9F9",
". 	c #F7F7F7",
"+ 	c #F8F8F8",
"@ 	c #F6F6F6",
"# 	c #F4F4F4",
"$ 	c #F3F3F3",
"% 	c #F2F2F2",
"& 	c #F1F1F1",
"* 	c #F5F5F5",
"= 	c #EFEFEF",
"- 	c #DDDDDD",
"; 	c #C1C0C1",
"> 	c #AAA9AA",
", 	c #F0F0F0",
"' 	c #E5E5E5",
") 	c #BAB9BA",
"! 	c #958E95",
"~ 	c #90808E",
"{ 	c #A08B9F",
"] 	c #948C94",
"^ 	c #BBBABB",
"/ 	c #E6E6E6",
"( 	c #EEEEEE",
"_ 	c #ECECEC",
": 	c #897E88",
"< 	c #A287A0",
"[ 	c #CDA7CC",
"} 	c #E2B8E1",
"| 	c #C6A2C5",
"1 	c #9C829A",
"2 	c #877C86",
"3 	c #EDEDED",
"4 	c #D9D9D9",
"5 	c #928B92",
"6 	c #A1879F",
"7 	c #DDB4DC",
"8 	c #EDC1ED",
"9 	c #EABDE9",
"0 	c #E1B6E0",
"a 	c #CDA5CC",
"b 	c #977D95",
"c 	c #908990",
"d 	c #EBEBEB",
"e 	c #E9E9E9",
"f 	c #8D7D8C",
"g 	c #C5A1C4",
"h 	c #E9BDE8",
"i 	c #E3B8E2",
"j 	c #DFB4DE",
"k 	c #D8AED7",
"l 	c #D1A8D0",
"m 	c #B18FAF",
"n 	c #877786",
"o 	c #A3A2A3",
"p 	c #9A8498",
"q 	c #D2AAD1",
"r 	c #D5ABD3",
"s 	c #CFA6CE",
"t 	c #C7A0C6",
"u 	c #B793B5",
"v 	c #8C788A",
"w 	c #E7E7E7",
"x 	c #EAEAEA",
"y 	c #B8B7B8",
"z 	c #887887",
"A 	c #B794B5",
"B 	c #CFA7CE",
"C 	c #CDA4CC",
"D 	c #C39DC2",
"E 	c #BD97BB",
"F 	c #A1819F",
"G 	c #847583",
"H 	c #E8E8E8",
"I 	c #D2D2D2",
"J 	c #8C858C",
"K 	c #91788E",
"L 	c #B994B7",
"M 	c #C09ABF",
"N 	c #B691B4",
"O 	c #A885A5",
"P 	c #876F85",
"Q 	c #E4E4E4",
"R 	c #E1E1E1",
"S 	c #B1B0B1",
"T 	c #817680",
"U 	c #8B7389",
"V 	c #A986A6",
"W 	c #987996",
"X 	c #856E83",
"Y 	c #7E737D",
"Z 	c #E0E0E0",
"` 	c #E2E2E2",
" .	c #D7D7D7",
"..	c #AFAEAF",
"+.	c #8A838A",
"@.	c #817280",
"#.	c #847182",
"$.	c #80717F",
"%.	c #E3E3E3",
"&.	c #CDCDCD",
"*.	c #B2B1B2",
"=.	c #9C9B9C",
"-.	c #CECECE",
";.	c #DEDEDE",
">.	c #DFDFDF",
",.	c #DCDCDC",
"'.	c #DBDBDB",
"                                    ",
". . + + + + + + + + + + + + + + + + ",
"@ @ @ @ @ @ @ @ @ @ @ @ @ @ @ @ @ @ ",
"# # # # # # # $ % & % $ # # # # # * ",
"% % % % % % = - ; > ; - , $ $ $ $ $ ",
", , , , , ' ) ! ~ { ~ ] ^ / & & & & ",
"( = = = _ ) : < [ } | 1 2 ) _ = = = ",
"3 3 3 _ 4 5 6 7 8 9 0 a b c 4 _ 3 3 ",
"d d d e ^ f g h i j k l m n ) e _ _ ",
"e e e / o p q j k r s t u v o w x x ",
"w w w ' y z A B C t D E F G y / H H ",
"' / / ' I J K L M E N O P J I ' / / ",
"Q Q Q Q R S T U F V W X Y S Z Q Q Q ",
"` ` ` ` `  ...+.@.#.$.+... .` ` %.%.",
"Z Z Z Z Z Z - &.*.=.*.-.- R R R R R ",
";.;.;.;.;.>.>.;.- ,.- ;.>.>.>.>.>.>.",
"- - - - - - - - - - - - - - - - - - ",
"'.'.'.'.'.'.'.'.'.'.'.'.'.'.'.'.'.'."};
