/* XPM */
static char * menuiconufcs_xpm[] = {
"19 19 57 1",
" 	c #7C7C7C",
".	c #616161",
"+	c #5B5B5B",
"@	c #5A5A5A",
"#	c #4B4B4B",
"$	c #242424",
"%	c #757575",
"&	c #565656",
"*	c #222222",
"=	c #515151",
"-	c #505050",
";	c #4F4F4F",
">	c #4E4E4E",
",	c #BBBBBB",
"'	c #555555",
")	c #4D4D4D",
"!	c #4C4C4C",
"~	c #4B4B4C",
"{	c #535353",
"]	c #212121",
"^	c #4A4A4A",
"/	c #4A4A49",
"(	c #494949",
"_	c #484848",
":	c #BABABA",
"<	c #1F1F1F",
"[	c #454545",
"}	c #444444",
"|	c #434343",
"1	c #434242",
"2	c #424242",
"3	c #B8B8B8",
"4	c #434443",
"5	c #A9A8A8",
"6	c #A8A8A8",
"7	c #414141",
"8	c #1A1A1A",
"9	c #373737",
"0	c #0B0B0B",
"a	c #B3B3B3",
"b	c #3F3F3F",
"c	c #191919",
"d	c #363636",
"e	c #9C9C9C",
"f	c #B2B2B2",
"g	c #1B1B1B",
"h	c #3A3A3A",
"i	c #0C0C0C",
"j	c #B4B4B4",
"k	c #464646",
"l	c #1C1C1C",
"m	c #3C3C3C",
"n	c #B5B5B5",
"o	c #202020",
"p	c #B9B9B9",
"q	c #6F6F6F",
"r	c #525252",
"                   ",
"...................",
"+++++++++++++++++++",
"@@@#$$$$$$$$$$$%@@@",
"&&&*==---;;;>>>,&&&",
"'''*;;>>>)))!!~,'''",
"{{{]!!###^^/((_:{{{",
")))<[[}}|||12223)))",
")))<}4||56622223)))",
"777899999000999a777",
"bbbcddddeeeddddfbbb",
"}}}ghhhhhiiihhhj}}}",
"kkklmmmmmmmmmmmnkkk",
")))<222222222223)))",
";;;o|||||||||||p;;;",
"{{{q:::::::::::q{{{",
"rrrrrrrrrrrrrrrrrrr",
"@@@@@@@@@@@@@@@@@@@",
"..................."};
