/* XPM */
static char * stuckufcs_xpm[] = {
"21 21 55 1",
" 	c #FFFFFF",
".	c #FEFEFE",
"+	c #FDFDFD",
"@	c #FCFCFC",
"#	c #FAFAFA",
"$	c #F9F9F9",
"%	c #F7F7F7",
"&	c #F3F3F4",
"*	c #EFF0F1",
"=	c #EEEFF0",
"-	c #F8F8F8",
";	c #F6F6F6",
">	c #EDEEEE",
",	c #E0E4E7",
"'	c #CFDBE1",
")	c #C8D8DF",
"!	c #F1F2F2",
"~	c #DFE4E7",
"{	c #BED0D9",
"]	c #026697",
"^	c #0B6FA2",
"/	c #F5F5F5",
"(	c #F4F4F4",
"_	c #EBECEE",
":	c #CDD8DF",
"<	c #026698",
"[	c #1479AC",
"}	c #3BA1D8",
"|	c #F3F3F3",
"1	c #E9EBEC",
"2	c #C6D5DC",
"3	c #096DA0",
"4	c #3297CD",
"5	c #4CB5ED",
"6	c #F2F2F2",
"7	c #CBD7DD",
"8	c #F1F1F1",
"9	c #F0F0F0",
"0	c #EBECEC",
"a	c #D9DFE1",
"b	c #B9CBD5",
"c	c #EEEEEE",
"d	c #E6E6E7",
"e	c #D8DDE0",
"f	c #C8D4DA",
"g	c #C2D1D9",
"h	c #EFEFEF",
"i	c #EDEDED",
"j	c #E9E9EA",
"k	c #E6E7E7",
"l	c #E5E6E7",
"m	c #ECECEC",
"n	c #EBEBEB",
"o	c #EAEAEA",
"p	c #B3B3B3",
"                     ",
"                     ",
"                     ",
".....................",
"+++++++++++++++++++++",
"@@@@@@@@@@@@@@@@@@@@@",
"########$$$$$$#######",
"$$$$$$$%&*==*&%$$$$$$",
"------;>,'))',>;-----",
"%%%%%;!~{]^^]{~!;%%%%",
"/////(_:<[}}[<:_(////",
"(((((|1234554321|((((",
"|||||617<[}}[<716||||",
"8888890ab]^^]ba098888",
"999999cdefggfedc99999",
"hhhhhhhijkllkjihhhhhh",
"cccccccciiiiiiccccccc",
"mmmmmmmmmmmmmmmmmmmmm",
"nnnnnnnnnnnnnnnnnnnnn",
"ooooooooooooooooooooo",
"ppppppppppppppppppppp"};
