/* XPM */
static char * maxfcs_xpm[] = {
"21 21 88 1",
" 	c #F4F3F2",
".	c #6B7954",
"+	c #93A774",
"@	c #A4BC7E",
"#	c #96AB73",
"$	c #6F8056",
"%	c #6D7E54",
"&	c #6B7B53",
"*	c #A9BB8C",
"=	c #ACBE8F",
"-	c #ACBD8F",
";	c #ABBD8E",
">	c #ABBC8E",
",	c #AABC8E",
"'	c #AABC8D",
")	c #AABB8D",
"!	c #A9BB8D",
"~	c #A7B88A",
"{	c #B3C793",
"]	c #A9BB8A",
"^	c #98AF75",
"/	c #96AC73",
"(	c #95AB73",
"_	c #95AA72",
":	c #94AA72",
"<	c #96AC74",
"[	c #98AE75",
"}	c #A9BC8A",
"|	c #97AD74",
"1	c #6E7F55",
"2	c #535F40",
"3	c #93A971",
"4	c #6E7E55",
"5	c #A8BB8A",
"6	c #525E40",
"7	c #A8BA8A",
"8	c #515D3F",
"9	c #A9BB8E",
"0	c #91A770",
"a	c #66754F",
"b	c #A3B586",
"c	c #8EA46E",
"d	c #4E5A3C",
"e	c #8B9F6B",
"f	c #92A870",
"g	c #697951",
"h	c #A2B485",
"i	c #8EA46D",
"j	c #8A9F6B",
"k	c #91A670",
"l	c #687850",
"m	c #8EA36D",
"n	c #4E593C",
"o	c #91A56F",
"p	c #8A9E6B",
"q	c #A1B485",
"r	c #8EA26D",
"s	c #A5B58A",
"t	c #90A56F",
"u	c #687851",
"v	c #A1B385",
"w	c #90A46E",
"x	c #8DA16C",
"y	c #8CA06B",
"z	c #8DA26D",
"A	c #6A7A52",
"B	c #6C7B53",
"C	c #9EB082",
"D	c #93A871",
"E	c #92A770",
"F	c #90A570",
"G	c #8FA46F",
"H	c #8FA36E",
"I	c #8FA46E",
"J	c #6C7C53",
"K	c #A4B589",
"L	c #6E7D54",
"M	c #6B7C53",
"N	c #687751",
"O	c #687750",
"P	c #6B7B52",
"Q	c #6D7D54",
"R	c #90A371",
"S	c #A3B28B",
"T	c #A2B18A",
"U	c #A0B089",
"V	c #75855B",
"W	c #5C6848",
"                     ",
".....................",
"+++++++++++++++++++++",
"@@#$%&&&&&&&&&&%$#@@@",
"@@$*=-;;;>>,'')!~${@@",
"@@%]^//##(((__:<[${@@",
"@@&}|||||||||||:^1{@@",
"@@&]||22222222|3^4{@@",
"@@&5<<66666666<3[4{@@",
"@@&7::89999998:0|4{@@",
"@@abccdccccccdcefg{@@",
"@@ahiidiiiiiidijkl{@@",
"@@ahmmnmmmmmmnmjol{@@",
"@@ahmmnnnnnnnnmpol{@@",
"@@aqrrssssssssretl{@@",
"@@uvwxyyyyyeeeyztA{@@",
"@@BCDEFttttGGHcImJ{@@",
"@@KLMuuuuuuNNOOPQK@@@",
"++RSTUUUUUUUUUUTSR+++",
"VVVVVVVVVVVVVVVVVVVVV",
"WWWWWWWWWWWWWWWWWWWWW"};
