/* XPM */
static char * shadepr_xpm[] = {
"21 21 8 1",
" 	c #F4F3F2",
".	c #6B7954",
"+	c #93A774",
"@	c #A4BC7E",
"#	c #525E3F",
"$	c #B6C998",
"%	c #75855B",
"&	c #5C6848",
"                     ",
".....................",
"+++++++++++++++++++++",
"@@@@@@@@@@@@@@@@@@@@@",
"@@@@@@@@@@@@@@@@@@@@@",
"@@@@@@@@@@@@@@@@@@@@@",
"@@@@@@@@@@@@@@@@@@@@@",
"@@@@@@@@@@@@@@@@@@@@@",
"@@@@@@@@@@@@@@@@@@@@@",
"@@@@@@@@@@@@@@@@@@@@@",
"@@@@@@@@@@@@@@@@@@@@@",
"@@@@@@@@@@#@@@@@@@@@@",
"@@@@@@@@@###@@@@@@@@@",
"@@@@@@@@@###@@@@@@@@@",
"@@@@@@@@@$$$@@@@@@@@@",
"@@@@@@@@@@@@@@@@@@@@@",
"@@@@@@@@@@@@@@@@@@@@@",
"@@@@@@@@@@@@@@@@@@@@@",
"+++++++++++++++++++++",
"%%%%%%%%%%%%%%%%%%%%%",
"&&&&&&&&&&&&&&&&&&&&&"};
