/* XPM */
static char * closeufcs_xpm[] = {
"15 15 4 1",
" 	c #7A8CA6",
".	c #3E5578",
"+	c #42526A",
"@	c #9EAABB",
"               ",
"..............+",
"..............+",
"..............+",
"..............+",
".....@@.@@....+",
".....@@@@@....+",
"......@@@.....+",
".....@@@@@....+",
".....@@.@@....+",
"..............+",
"..............+",
"..............+",
"..............+",
"+++++++++++++++"};
