/* XPM */
static char * stickpr_xpm[] = {
"25 25 90 1",
" 	c #333333",
".	c #323232",
"+	c #313131",
"@	c #3F3F3B",
"#	c #45443F",
"$	c #303030",
"%	c #3E3E3A",
"&	c #ACACAC",
"*	c #D5D5D5",
"=	c #D6D6D6",
"-	c #43423D",
";	c #2F2F2F",
">	c #2C2C2C",
",	c #3B3A36",
"'	c #7E7F7E",
")	c #7F7F7F",
"!	c #808080",
"~	c #818181",
"{	c #828383",
"]	c #838383",
"^	c #848484",
"/	c #858685",
"(	c #878686",
"_	c #878787",
":	c #868686",
"<	c #858585",
"[	c #828282",
"}	c #818081",
"|	c #807F7F",
"1	c #403F3A",
"2	c #2B2B2B",
"3	c #3A3935",
"4	c #7E7E7E",
"5	c #3F3F39",
"6	c #818182",
"7	c #858586",
"8	c #838282",
"9	c #7F7F7E",
"0	c #7D7D7D",
"a	c #828281",
"b	c #848585",
"c	c #868685",
"d	c #848383",
"e	c #808081",
"f	c #7D7E7E",
"g	c #7C7D7D",
"h	c #7B7B7C",
"i	c #838484",
"j	c #7F8080",
"k	c #7C7C7C",
"l	c #7B7A7B",
"m	c #858584",
"n	c #878687",
"o	c #878786",
"p	c #848584",
"q	c #818282",
"r	c #7E7D7D",
"s	c #7B7B7B",
"t	c #7A7A7A",
"u	c #797A7A",
"v	c #7D7D7E",
"w	c #797979",
"x	c #787878",
"y	c #777777",
"z	c #2E2E2E",
"A	c #3D3C38",
"B	c #42413C",
"C	c #7F7E7E",
"D	c #7C7B7C",
"E	c #787877",
"F	c #767676",
"G	c #44433E",
"H	c #838384",
"I	c #828182",
"J	c #808181",
"K	c #7E7E7D",
"L	c #7D7C7D",
"M	c #7C7B7B",
"N	c #787879",
"O	c #757575",
"P	c #828382",
"Q	c #828181",
"R	c #797A79",
"S	c #777677",
"T	c #80807F",
"U	c #7B7C7B",
"V	c #787979",
"W	c #787777",
"X	c #777776",
"Y	c #292929",
"                         ",
".........................",
"++@@@@@@@@@@@@@@@@@@@@#++",
"$$%&****====**===***=&-;$",
">>,*')!~{]^/(_:<^][}|*1>>",
"223*)!~[]^<::<^][~!)4*522",
"223*!6[]^7::<^8[~!940*522",
"223*a[]bc_:bd[[e|4fgh*522",
">>,*]^<:_:<i][~j)40kl*1>>",
">>,*m:no:p]]q}!)rgstu*1>>",
">>,*:_(<^][~!)9vkstwx*1>>",
">>,*_:<^][~!)40kstwxy*1>>",
"zzA*_:<^][~!)4gkstxxy*Bzz",
"$$%=_:<^][~)C40DttwEF=G$$",
"$$%=7^H]IJ)4KLMttNyFO=G$$",
"$$%=^]P~!)40kstwxyFOO=G$$",
"++@=^]Q!)9fkssRxyFFOO=#++",
"++@=[~!)40kstwxyFOOOO=#++",
"++@=~!)40kstwxSFOOOOO=#++",
"++@=T)40UstVWXFOOOOOO=#++",
"$$%&=================&G$$",
"$$%GGGGGGGGGGGGGGGGGGGG$$",
"$$$$$$$$$$$$$$$$$$$$$$$$$",
">>>>>>>>>>>>>>>>>>>>>>>>>",
"YYYYYYYYYYYYYYYYYYYYYYYYY"};
