/* XPM */
static char * stickpr_xpm[] = {
"21 21 25 1",
" 	c #373738",
".	c #1F2022",
"+	c #1E2021",
"@	c #202022",
"#	c #222124",
"$	c #262627",
"%	c #2A2A2B",
"&	c #2D2E2F",
"*	c #C0C1C1",
"=	c #303133",
"-	c #C1C2C2",
";	c #323335",
">	c #C2C2C3",
",	c #343537",
"'	c #C2C3C3",
")	c #363739",
"!	c #C3C3C4",
"~	c #37393B",
"{	c #C3C4C5",
"]	c #383B3E",
"^	c #3A3E41",
"/	c #3D4144",
"(	c #414447",
"_	c #45484A",
":	c #46494B",
"                     ",
".....................",
".....................",
"+++++++++++++++++++++",
"+++++++++++++++++++++",
"@@@@@@@@@@@@@@@@@@@@@",
"#####################",
"$$$$$$$$$$$$$$$$$$$$$",
"%%%%%%%%%%%%%%%%%%%%%",
"&&&&&&&******&&&&&&&&",
"=======-====-========",
";;;;;;;>;;;;>;;;;;;;;",
",,,,,,,',,,,',,,,,,,,",
")))))))!))))!))))))))",
"~~~~~~~{{{{{{~~~~~~~~",
"]]]]]]]]]]]]]]]]]]]]]",
"^^^^^^^^^^^^^^^^^^^^^",
"/////////////////////",
"(((((((((((((((((((((",
"_____________________",
":::::::::::::::::::::"};
