/* XPM */
static char * closeufcs_xpm[] = {
"21 21 2 1",
" 	c #D2D2D2",
".	c #000000",
"                     ",
"                     ",
"                     ",
"                     ",
"                     ",
"                     ",
"                     ",
"                     ",
"        ......       ",
"        .    .       ",
"        .    .       ",
"        .    .       ",
"        .    .       ",
"        ......       ",
"                     ",
"                     ",
"                     ",
"                     ",
"                     ",
"                     ",
"                     "};
