/* XPM */
static char * menuiconufcs_xpm[] = {
"21 21 22 1",
" 	c #A7A7A7",
".	c #7B7B7B",
"+	c #373737",
"@	c #C6C6C6",
"#	c #BEBEBE",
"$	c #B1B1B1",
"%	c #7C7C7C",
"&	c #737373",
"*	c #727272",
"=	c #7D7D7D",
"-	c #898989",
";	c #E8E8E8",
">	c #E7E7E7",
",	c #868686",
"'	c #A2A2A2",
")	c #4A4A4A",
"!	c #3D3D3D",
"~	c #3C3C3C",
"{	c #4B4B4B",
"]	c #A3A3A3",
"^	c #BABABA",
"/	c #8F8F8F",
"                     ",
".....................",
"+++++++++++++++++++++",
"@@@@@@@@@@@@@@@@@@@@@",
"#####################",
"#####################",
"#####################",
"#####################",
"########$%&*=$#######",
"########-;>>;,#######",
"########')!~{]#######",
"########,;>>;,#######",
"########$%&*=$#######",
"#####################",
"#####################",
"#####################",
"#####################",
"^^^^^^^^^^^^^^^^^^^^^",
"+++++++++++++++++++++",
"                     ",
"/////////////////////"};
