/* XPM */
static char * closefcs_xpm[] = {
"13 13 108 2",
"  	c #606162",
". 	c #919191",
"+ 	c #C8C8C8",
"@ 	c #3A3A3B",
"# 	c #5E5E5E",
"$ 	c #5D5D5E",
"% 	c #5D5D5D",
"& 	c #5F5F5F",
"* 	c #616161",
"= 	c #646464",
"- 	c #666666",
"; 	c #696969",
"> 	c #6B6B6B",
", 	c #6D6D6D",
"' 	c #858180",
") 	c #3C3D3E",
"! 	c #5F6060",
"~ 	c #626262",
"{ 	c #676666",
"] 	c #6D6E6D",
"^ 	c #707070",
"/ 	c #727372",
"( 	c #898786",
"_ 	c #3F4040",
": 	c #636262",
"< 	c #676767",
"[ 	c #6A6969",
"} 	c #6C6C6C",
"| 	c #6E6E6E",
"1 	c #737373",
"2 	c #757575",
"3 	c #777777",
"4 	c #8E8D8C",
"5 	c #414142",
"6 	c #656566",
"7 	c #686868",
"8 	c #6A6A6A",
"9 	c #6F6F6F",
"0 	c #717071",
"a 	c #727273",
"b 	c #767576",
"c 	c #787878",
"d 	c #7A7A7A",
"e 	c #7C7D7C",
"f 	c #949390",
"g 	c #444445",
"h 	c #6C6C6D",
"i 	c #717171",
"j 	c #FFFFFF",
"k 	c #787879",
"l 	c #7D7D7D",
"m 	c #807F7F",
"n 	c #828181",
"o 	c #9A9896",
"p 	c #464747",
"q 	c #706F70",
"r 	c #727272",
"s 	c #747474",
"t 	c #767676",
"u 	c #797979",
"v 	c #80807F",
"w 	c #818282",
"x 	c #848484",
"y 	c #878787",
"z 	c #A09E9C",
"A 	c #49494A",
"B 	c #7B7B7B",
"C 	c #7E7E7E",
"D 	c #858585",
"E 	c #898A8A",
"F 	c #8C8C8C",
"G 	c #A5A2A1",
"H 	c #4B4B4D",
"I 	c #797A79",
"J 	c #7C7C7C",
"K 	c #818180",
"L 	c #8F8F8F",
"M 	c #AAA8A5",
"N 	c #4D4E4E",
"O 	c #7F7F7F",
"P 	c #818181",
"Q 	c #838383",
"R 	c #868686",
"S 	c #888888",
"T 	c #8A8A8A",
"U 	c #8D8D8D",
"V 	c #949493",
"W 	c #969696",
"X 	c #B0AEAD",
"Y 	c #505051",
"Z 	c #8B8B8B",
"` 	c #929192",
" .	c #949494",
"..	c #989998",
"+.	c #9B9B9B",
"@.	c #B6B3B1",
"#.	c #515353",
"$.	c #898989",
"%.	c #909090",
"&.	c #939393",
"*.	c #979797",
"=.	c #999999",
"-.	c #9C9C9C",
";.	c #9E9E9E",
">.	c #A0A0A0",
",.	c #BAB9B7",
"'.	c #404142",
").	c #949290",
"  . . . . . . . . . . . + ",
"@ # $ # % & * = - ; > , ' ",
") & & ! ~ = { ; > ] ^ / ( ",
"_ * : = < [ } | ^ 1 2 3 4 ",
"5 6 7 8 } 9 0 a b c d e f ",
"g 8 h 9 i j j k j l m n o ",
"p q r s t u j j v w x y z ",
"A s 3 u B C j j D y E F G ",
"H I J C K j D j j F L . M ",
"N O P Q R S T U L . V W X ",
"Y x R S Z U L `  .W ..+.@.",
"#.$.Z U %.&. .*.=.-.;.>.,.",
"'.* * * * * * * * * * * )."};
