/* XPM */
static char * closepr_xpm[] = {
"19 19 172 2",
"  	c #9E9AAA",
". 	c #9D99A9",
"+ 	c #9C98A8",
"@ 	c #9C99A7",
"# 	c #9B97A7",
"$ 	c #9A97A7",
"% 	c #9B99A7",
"& 	c #9E9BAA",
"* 	c #9D9AAA",
"= 	c #9F9CAC",
"- 	c #A09CAC",
"; 	c #9E9BAB",
"> 	c #9A97A5",
", 	c #918E9C",
"' 	c #8D8B98",
") 	c #8D8A97",
"! 	c #8C8996",
"~ 	c #8B8996",
"{ 	c #8B8896",
"] 	c #8C8896",
"^ 	c #8D8A98",
"/ 	c #908E9C",
"( 	c #A09DAC",
"_ 	c #A3A0AF",
": 	c #A29FAD",
"< 	c #9B98A6",
"[ 	c #8F8D9A",
"} 	c #83818C",
"| 	c #7F7C87",
"1 	c #7E7C86",
"2 	c #7E7B87",
"3 	c #7E7C87",
"4 	c #83818D",
"5 	c #908D9A",
"6 	c #A39FAE",
"7 	c #A6A3B1",
"8 	c #A09CAA",
"9 	c #928F9B",
"0 	c #A7A3B1",
"a 	c #A7A4B2",
"b 	c #A6A4B2",
"c 	c #A6A3B2",
"d 	c #A7A4B1",
"e 	c #93909C",
"f 	c #A5A2B0",
"g 	c #9A97A4",
"h 	c #898592",
"i 	c #AAA7B5",
"j 	c #AAA6B5",
"k 	c #CAC9CD",
"l 	c #CBC9CD",
"m 	c #CAC9CE",
"n 	c #CAC9CC",
"o 	c #898692",
"p 	c #9A96A4",
"q 	c #A7A3B2",
"r 	c #AAA7B4",
"s 	c #9996A2",
"t 	c #868490",
"u 	c #ADAAB8",
"v 	c #EEEDEF",
"w 	c #EEEEEF",
"x 	c #EEEDEE",
"y 	c #86858F",
"z 	c #ADAAB7",
"A 	c #9B98A3",
"B 	c #888690",
"C 	c #B0ADBB",
"D 	c #F4F3F4",
"E 	c #F3F3F4",
"F 	c #ABABAB",
"G 	c #B0ADBA",
"H 	c #9B98A4",
"I 	c #ADAAB6",
"J 	c #AFAEBA",
"K 	c #9D9AA6",
"L 	c #8A8893",
"M 	c #B3B0BD",
"N 	c #F9F9FA",
"O 	c #AFAFAF",
"P 	c #FBFBFB",
"Q 	c #B3B0BE",
"R 	c #8B8893",
"S 	c #9D9AA5",
"T 	c #AFADBA",
"U 	c #B2B0BD",
"V 	c #A09DA9",
"W 	c #8D8B94",
"X 	c #B7B4C1",
"Y 	c #F4F4F5",
"Z 	c #F5F4F5",
"` 	c #ABABAC",
" .	c #F8F7F8",
"..	c #F7F7F8",
"+.	c #ACABAC",
"@.	c #B7B3C1",
"#.	c #8D8A95",
"$.	c #A09DA8",
"%.	c #B3AFBC",
"&.	c #B5B3BF",
"*.	c #A2A0AB",
"=.	c #8F8D97",
"-.	c #B9B7C3",
";.	c #EFEFF0",
">.	c #A8A8A8",
",.	c #F4F4F4",
"'.	c #B9B7C4",
").	c #A29FAB",
"!.	c #A3A0AB",
"~.	c #D1D2D6",
"{.	c #D2D2D6",
"].	c #949396",
"^.	c #DFDFE2",
"/.	c #E0DFE2",
"(.	c #939396",
"_.	c #D1D1D6",
":.	c #D3D1D6",
"<.	c #B3B0BC",
"[.	c #A19EAA",
"}.	c #A9A8AC",
"|.	c #777679",
"1.	c #C3C2C5",
"2.	c #C3C2C4",
"3.	c #A9A8AD",
"4.	c #A9A8AB",
"5.	c #B7B4C0",
"6.	c #8D8B95",
"7.	c #A19DAA",
"8.	c #9E9BA7",
"9.	c #8C8993",
"0.	c #B4B0BD",
"a.	c #807F82",
"b.	c #807F83",
"c.	c #5A595C",
"d.	c #5A595B",
"e.	c #5B595B",
"f.	c #8B8994",
"g.	c #AFACB9",
"h.	c #9F9DA9",
"i.	c #8D8B96",
"j.	c #57565A",
"k.	c #9F9DA8",
"l.	c #ACA9B7",
"m.	c #A6A3B0",
"n.	c #9895A2",
"o.	c #ADABB8",
"p.	c #A6A3AF",
"q.	c #A9A6B4",
"r.	c #A29EAC",
"s.	c #95939F",
"t.	c #84828D",
"u.	c #83818B",
"v.	c #83808B",
"w.	c #888592",
"x.	c #95939E",
"y.	c #A9A5B3",
"z.	c #A9A6B5",
"A.	c #A6A2B0",
"B.	c #9F9DAA",
"C.	c #9794A0",
"D.	c #938F9B",
"E.	c #918F9B",
"F.	c #918F9C",
"G.	c #928F9C",
"H.	c #92909C",
"I.	c #A3A0AE",
"J.	c #A19EAC",
"K.	c #A09DAB",
"L.	c #A09CAB",
"M.	c #9F9DAB",
"N.	c #9F9DAC",
"O.	c #9F9CAB",
"      . + @ @ # # # $ $ @ % + . & & * ",
"= - ; > , ' ) ! ~ ! { ] ) ^ / > ; ( - ",
"_ : < [ } | 1 1 1 2 1 3 1 | 4 5 < : 6 ",
"7 8 9 0 a 0 b c c 7 c d c a a 0 e 8 f ",
"d g h i j k k l m k k n l k i j o p q ",
"r s t u v v w v w w w v x v x u y s r ",
"z A B C D E F F F E F F F E E G B H I ",
"J K L M N N O P P O P P O N N Q R S T ",
"U V W X Y Z `  ...+. . .` Y Z @.#.$.%.",
"&.*.=.-.;.;.;.>.>.,.>.>.;.;.;.'.=.).&.",
"&.!.=.-.~.{.].^./.]./.^.(._.:.-.=.*.&.",
"<.[.#.@.}.}.|.1.1.|.2.1.|.3.4.5.6.7.<.",
"G 8.9.0.a.b.c.d.e.b.d.d.c.a.b.Q f.8.g.",
"z h.i.C C j.j.j.j.j.j.j.j.j.G G i.k.u ",
"l.m.n.u o.u u u u u u u u u u u n.p.l.",
"r q.r.s.h t.} } u.u.v.u.v.t.w.x.r.y.z.",
"c 7 A.B.C.e D.E.E.9 F.9 G.H.C.B.f 7 7 ",
"I.I.6 : J.K.K.K.L.K.K.K.M.K.J.: I.6 6 ",
"( - - N.- N.( = = - = O.L.- - - L.O.= "};
