/* XPM */
static char * maxufcs_xpm[] = {
"19 19 170 2",
"  	c #888494",
". 	c #878393",
"+ 	c #868292",
"@ 	c #868392",
"# 	c #858191",
"$ 	c #848191",
"% 	c #858392",
"& 	c #888594",
"* 	c #878494",
"= 	c #898696",
"- 	c #8A8696",
"; 	c #888595",
"> 	c #858290",
", 	c #7D7A88",
"' 	c #7A7784",
") 	c #797784",
"! 	c #797683",
"~ 	c #787683",
"{ 	c #787583",
"] 	c #797583",
"^ 	c #7A7684",
"/ 	c #7C7A88",
"( 	c #8A8796",
"_ 	c #8D8A9A",
": 	c #8C8998",
"< 	c #868492",
"[ 	c #7C7987",
"} 	c #47464D",
"| 	c #44434B",
"1 	c #44434A",
"2 	c #47464E",
"3 	c #7D7987",
"4 	c #8D8999",
"5 	c #908D9C",
"6 	c #8B8796",
"7 	c #7E7C89",
"8 	c #5B5862",
"9 	c #918E9D",
"0 	c #918D9C",
"a 	c #908E9D",
"b 	c #908D9D",
"c 	c #918E9C",
"d 	c #7F7D8A",
"e 	c #8F8C9B",
"f 	c #928F9D",
"g 	c #868391",
"h 	c #4B4951",
"i 	c #9491A0",
"j 	c #9490A0",
"k 	c #A5A4A8",
"l 	c #A6A4A8",
"m 	c #868291",
"n 	c #928E9D",
"o 	c #9591A0",
"p 	c #858390",
"q 	c #494850",
"r 	c #9794A3",
"s 	c #BAB8BD",
"t 	c #B9B9BD",
"u 	c #B9B8BD",
"v 	c #BAB9BD",
"w 	c #9894A3",
"x 	c #494950",
"y 	c #9895A4",
"z 	c #888692",
"A 	c #4B4950",
"B 	c #9B98A7",
"C 	c #D0CED2",
"D 	c #CFCED2",
"E 	c #CFCFD2",
"F 	c #CFCED3",
"G 	c #9B98A6",
"H 	c #888593",
"I 	c #9B99A7",
"J 	c #8B8895",
"K 	c #4D4B52",
"L 	c #9E9BA9",
"M 	c #E4E3E7",
"N 	c #E4E3E6",
"O 	c #E3E3E7",
"P 	c #E4E2E7",
"Q 	c #9E9BAA",
"R 	c #8A8894",
"S 	c #9E9CAA",
"T 	c #8E8A97",
"U 	c #4E4D53",
"V 	c #A29FAD",
"W 	c #D2D2D6",
"X 	c #D3D2D6",
"Y 	c #D3D1D5",
"Z 	c #D3D2D5",
"` 	c #D3D1D6",
" .	c #D2D1D6",
"..	c #A29EAD",
"+.	c #4E4D54",
"@.	c #8E8B96",
"#.	c #9F9BA9",
"$.	c #908E9A",
"%.	c #504E56",
"&.	c #A5A2B0",
"*.	c #BFBEC2",
"=.	c #C0BEC3",
"-.	c #C0BEC2",
";.	c #A5A2B1",
">.	c #504E55",
",.	c #908D9A",
"'.	c #918E9A",
").	c #ABABAF",
"!.	c #ACABAF",
"~.	c #ABAAAF",
"{.	c #ACAAAF",
"].	c #9F9CA9",
"^.	c #8E8C98",
"/.	c #969699",
"(.	c #969599",
"_.	c #96969A",
":.	c #96959A",
"<.	c #A29FAC",
"[.	c #8E8B98",
"}.	c #9C98A7",
"|.	c #8B8995",
"1.	c #818084",
"2.	c #818185",
"3.	c #828184",
"4.	c #828084",
"5.	c #828185",
"6.	c #818184",
"7.	c #4D4B53",
"8.	c #9B97A6",
"9.	c #9995A3",
"0.	c #8C8997",
"a.	c #6C6B6F",
"b.	c #6C6C6F",
"c.	c #6C6B70",
"d.	c #4E4C53",
"e.	c #8C8996",
"f.	c #9995A4",
"g.	c #9693A2",
"h.	c #908E9C",
"i.	c #85828F",
"j.	c #5F5D66",
"k.	c #9895A3",
"l.	c #908E9B",
"m.	c #94919F",
"n.	c #93909F",
"o.	c #8D8998",
"p.	c #827F8D",
"q.	c #48474E",
"r.	c #48464E",
"s.	c #48464D",
"t.	c #4A4951",
"u.	c #827F8C",
"v.	c #938F9E",
"w.	c #9390A0",
"x.	c #908C9B",
"y.	c #83808D",
"z.	c #807C8A",
"A.	c #7F7C89",
"B.	c #7E7B88",
"C.	c #7F7B88",
"D.	c #7E7B89",
"E.	c #7E7C8A",
"F.	c #7F7C8A",
"G.	c #8D8A99",
"H.	c #8B8897",
"I.	c #8B8797",
"J.	c #8A8897",
"K.	c #898796",
"L.	c #898695",
"M.	c #8A8695",
"      . + @ @ # # # $ $ @ % + . & & * ",
"= - ; > , ' ) ! ~ ! { ] ) ^ / > ; ( - ",
"_ : < [ } | 1 1 1 | 1 | 1 | 2 3 < : 4 ",
"5 6 7 8 9 0 a b b 5 b c b 9 9 8 d 6 e ",
"f g h i j k k l k k k k l k i j h m n ",
"o p q r s s t u v v v s s s s w x p i ",
"y z A B C D E D D D D D D E F G h H w ",
"I J K L M N M M O M M M O O P Q K R B ",
"S T U V W X W Y Y X Z ` Y  .Y ..+.@.#.",
"V $.%.&.*.*.*.=.*.-.=.*.*.*.*.;.>.,.V ",
"V '.>.&.).).!.).!.!.!.~.~.~.{.&.>.$.V ",
"].^.+.../.(./._././.(.(./.:.(.<.+.[.].",
"}.|.K #.1.2.2.3.4.5.6.3.2.3.5.Q 7.|.8.",
"9.0.U B B a.a.a.a.b.a.a.c.b.8.G d.e.f.",
"g.h.i.j.k.r r w r r r r w r r j.i.l.g.",
"m.n.o.p.h q.r.r.s.s.s.s.s.q.t.u.o.v.w.",
"b 5 x.( y.z.A.B.B.C.D.C.E.F.y.( e 5 5 ",
"G.G.4 : H.I.H.( - ( ( ( J.I.H.: G.4 4 ",
"( - - K.- K.( = = - = L.M.- - - M.L.= "};
