/* XPM */
static char * closepr_xpm[] = {
"19 19 234 2",
"  	c #EBEBBA",
". 	c #EBEBBB",
"+ 	c #191919",
"@ 	c #CBC946",
"# 	c #CBCA45",
"$ 	c #CAC946",
"% 	c #CBCA46",
"& 	c #CBC945",
"* 	c #CAC945",
"= 	c #ECECBC",
"- 	c #555428",
"; 	c #CDCD4E",
"> 	c #CECC4E",
", 	c #CDCC4E",
"' 	c #CECC4F",
") 	c #CECD50",
"! 	c #CDCC4F",
"~ 	c #CECD4E",
"{ 	c #CECC4D",
"] 	c #CECD4F",
"^ 	c #CDCC4D",
"/ 	c #CECC4C",
"( 	c #EDEDBE",
"_ 	c #D0CF56",
": 	c #D1CF56",
"< 	c #D1D055",
"[ 	c #D2D158",
"} 	c #D4D361",
"| 	c #D6D56B",
"1 	c #D4D261",
"2 	c #D1D059",
"3 	c #D0CF55",
"4 	c #D1D058",
"5 	c #D3D261",
"6 	c #D7D56A",
"7 	c #D0CF54",
"8 	c #D1CF54",
"9 	c #EEEEC2",
"0 	c #D4D25E",
"a 	c #D3D35E",
"b 	c #D5D361",
"c 	c #D7D76B",
"d 	c #DFDD84",
"e 	c #7C7C6D",
"f 	c #DFDE85",
"g 	c #D7D66C",
"h 	c #D6D563",
"i 	c #D8D66C",
"j 	c #DFDD85",
"k 	c #DEDD83",
"l 	c #D7D66B",
"m 	c #D4D360",
"n 	c #D3D25D",
"o 	c #D3D25C",
"p 	c #EFEFC4",
"q 	c #D7D565",
"r 	c #D7D667",
"s 	c #DAD973",
"t 	c #E0E08B",
"u 	c #939387",
"v 	c #BDBDB2",
"w 	c #939287",
"x 	c #E1E08C",
"y 	c #DDDD7E",
"z 	c #E1E18C",
"A 	c #DAD972",
"B 	c #D6D564",
"C 	c #D6D464",
"D 	c #F0F0C7",
"E 	c #DAD96F",
"F 	c #DCDC79",
"G 	c #E3E292",
"H 	c #939388",
"I 	c #D3D3CB",
"J 	c #FBFBF5",
"K 	c #E7E6A3",
"L 	c #D4D3CB",
"M 	c #E3E290",
"N 	c #DCDB77",
"O 	c #D9D86D",
"P 	c #D9D86C",
"Q 	c #F1F1CA",
"R 	c #DDDD77",
"S 	c #E0DF86",
"T 	c #7D7D70",
"U 	c #BEBEB3",
"V 	c #FBFBF6",
"W 	c #FDFDFC",
"X 	c #FCFCF9",
"Y 	c #D4D4CC",
"Z 	c #A5A59C",
"` 	c #BFBEB4",
" .	c #7E7E71",
"..	c #E0E085",
"+.	c #DDDC76",
"@.	c #DCDB74",
"#.	c #F2F2CD",
"$.	c #DFDF7E",
"%.	c #E2E188",
"&.	c #E7E79D",
"*.	c #939389",
"=.	c #D5D5CE",
"-.	c #FDFDFD",
";.	c #EAEAE6",
">.	c #FEFEFB",
",.	c #D5D5CD",
"'.	c #E1E186",
").	c #DFDE7C",
"!.	c #F3F3CF",
"~.	c #E3E285",
"{.	c #E2E187",
"].	c #E5E590",
"^.	c #EAEAA4",
"/.	c #95958B",
"(.	c #D6D6CE",
"_.	c #FCFCFA",
":.	c #EAE9A4",
"<.	c #E5E58F",
"[.	c #E2E186",
"}.	c #E2E284",
"|.	c #E2E184",
"1.	c #F5F5D2",
"2.	c #E5E58D",
"3.	c #E6E58D",
"4.	c #E6E690",
"5.	c #E9E99E",
"6.	c #EFEFB7",
"7.	c #A5A59E",
"8.	c #EBEBE7",
"9.	c #FEFEFE",
"0.	c #A6A69F",
"a.	c #EFEFB6",
"b.	c #E8E89E",
"c.	c #E4E48C",
"d.	c #E5E48B",
"e.	c #F6F6D6",
"f.	c #E8E895",
"g.	c #E9E897",
"h.	c #EAEA9E",
"i.	c #EEEDB0",
"j.	c #94948B",
"k.	c #D6D6D0",
"l.	c #FEFEFC",
"m.	c #D5D5CF",
"n.	c #EDEDAF",
"o.	c #EAE99E",
"p.	c #E7E796",
"q.	c #E8E893",
"r.	c #E8E794",
"s.	c #F6F6D8",
"t.	c #EBEB9E",
"u.	c #ECECA4",
"v.	c #F0F0B5",
"w.	c #94948D",
"x.	c #EBEBE8",
"y.	c #EFF0B5",
"z.	c #ECECA2",
"A.	c #EBEB9D",
"B.	c #EBEB9C",
"C.	c #F8F7DB",
"D.	c #EFEEA6",
"E.	c #F0F0B0",
"F.	c #7F7F76",
"G.	c #C0C0B8",
"H.	c #FCFCF8",
"I.	c #FFFEFC",
"J.	c #D7D7D1",
"K.	c #A8A8A1",
"L.	c #FDFDFA",
"M.	c #C1C1B9",
"N.	c #818077",
"O.	c #EFEFAF",
"P.	c #EEEDA5",
"Q.	c #EEEEA3",
"R.	c #F9F9DE",
"S.	c #F1F1AE",
"T.	c #F2F2B2",
"U.	c #F4F4C1",
"V.	c #95958E",
"W.	c #D7D7D2",
"X.	c #D6D6D1",
"Y.	c #969690",
"Z.	c #F6F6CB",
"`.	c #F3F4C0",
" +	c #F2F1B1",
".+	c #F1F1AD",
"++	c #F0F1AC",
"@+	c #FAFAE0",
"#+	c #F4F4B4",
"$+	c #F4F4B5",
"%+	c #F5F5BA",
"&+	c #F7F7C6",
"*+	c #979790",
"=+	c #C2C2BB",
"-+	c #F7F7C8",
";+	c #F5F6C0",
">+	c #F7F7C7",
",+	c #F7F6C6",
"'+	c #F5F4BA",
")+	c #F3F4B3",
"!+	c #FBFBE4",
"~+	c #F7F8BC",
"{+	c #F7F7BC",
"]+	c #F7F7BD",
"^+	c #F8F8C2",
"/+	c #F9F9CC",
"(+	c #818179",
"_+	c #F7F8C1",
":+	c #F9F9CB",
"<+	c #F8F8C1",
"[+	c #F7F7BB",
"}+	c #F6F6BB",
"|+	c #FCFCE6",
"1+	c #FAFAC4",
"2+	c #FAFBC4",
"3+	c #FAFBC5",
"4+	c #FAFAC8",
"5+	c #FBFBCA",
"6+	c #FAFAC5",
"7+	c #F9FAC4",
"8+	c #FAFAC7",
"9+	c #FAFBCA",
"0+	c #FAFAC3",
"a+	c #F9FAC2",
"b+	c #FAFAC2",
"c+	c #F9F9C2",
"d+	c #FDFDE9",
"e+	c #FDFECC",
"f+	c #FDFDCC",
"g+	c #FDFDCB",
"h+	c #FDFECD",
"i+	c #FCFDCB",
"j+	c #FDFDCA",
"k+	c #FEFEEC",
"      .   . . .       .     . + + + + ",
"@ @ @ # $ % @ $ @ @ & * * * & = = - + ",
"; > , > ' ) ! , ~ { , ] , ^ ^ { / ( + ",
"_ : < [ } | 1 2 3 4 5 6 1 4 7 8 3 9 + ",
"0 a b c d e f g h i j e k l m n o n p ",
"q r s t u v w x y z w v u t A r B C D ",
"E F G H I J I H K H L J L H M N O P Q ",
"R S T U V W X Y Z Y X W V `  ...+.@.#.",
"$.%.&.*.=.X -.X ;.X -.>.,.*.&.'.).).!.",
"~.{.].^./.(._.-.-.-.>.(./.:.<.[.}.|.1.",
"2.3.4.5.6.7.8.-.9.9.8.0.a.b.4.c.d.d.e.",
"f.g.h.i.j.k._.-.9.9.l.m.j.n.o.p.q.r.s.",
"t.u.v.w.m._.-.l.x.l.-._.k.w.y.z.A.B.C.",
"D.E.F.G.H.-.I.J.K.k.L.-.X M.N.O.P.Q.R.",
"S.T.U.V.W.X X.Y.Z.Y.J.X X.V.`. +.+++@+",
"#+$+%+&+*+=+*+-+;+>+*+=+*+,+'+#+)+)+!+",
"~+{+]+^+/+(+/+_+]+^+:+(+:+<+{+[+}+[+|+",
"1+2+1+3+4+5+4+6+7+7+8+9+8+1+0+a+b+c+d+",
"e+f+f+e+g+h+f+f+i+i+i+f+i+i+i+g+g+j+k+"};
