/* XPM */
static char * shadefcs_xpm[] = {
"19 19 161 2",
"  	c #EBEBBA",
". 	c #EBEBBB",
"+ 	c #CBC946",
"@ 	c #CBCA45",
"# 	c #CAC946",
"$ 	c #CBCA46",
"% 	c #CBC945",
"& 	c #CAC945",
"* 	c #CDCD4E",
"= 	c #CECC4E",
"- 	c #CDCC4E",
"; 	c #CECD4E",
"> 	c #CECC4D",
", 	c #CDCC4D",
"' 	c #CECC4C",
") 	c #D0CF56",
"! 	c #D1CF56",
"~ 	c #D1D055",
"{ 	c #D1CF55",
"] 	c #D0CF55",
"^ 	c #D0CF54",
"/ 	c #D1CF54",
"( 	c #D4D25E",
"_ 	c #D3D35E",
": 	c #D3D35D",
"< 	c #D4D25D",
"[ 	c #D3D25D",
"} 	c #D4D35D",
"| 	c #D3D25C",
"1 	c #D7D565",
"2 	c #D6D565",
"3 	c #D7D566",
"4 	c #D7D665",
"5 	c #D6D665",
"6 	c #D6D564",
"7 	c #D6D464",
"8 	c #DAD96E",
"9 	c #D9D96E",
"0 	c #DAD86E",
"a 	c #D9D96D",
"b 	c #D9D86D",
"c 	c #DAD86D",
"d 	c #DAD96C",
"e 	c #DAD96D",
"f 	c #D9D86C",
"g 	c #DCDC75",
"h 	c #DCDB75",
"i 	c #DDDC75",
"j 	c #DCDB74",
"k 	c #DCDC74",
"l 	c #DFDF7D",
"m 	c #E0DF7E",
"n 	c #DFDE7D",
"o 	c #E0DE7D",
"p 	c #DFDE7C",
"q 	c #DFDF7C",
"r 	c #DFDE7B",
"s 	c #DEDE7B",
"t 	c #E3E285",
"u 	c #E2E185",
"v 	c #E2E285",
"w 	c #E3E287",
"x 	c #737220",
"y 	c #E3E288",
"z 	c #E2E284",
"A 	c #E2E184",
"B 	c #E2E283",
"C 	c #E5E58D",
"D 	c #E6E58D",
"E 	c #E5E58C",
"F 	c #E6E68F",
"G 	c #8B8A48",
"H 	c #F5F4D2",
"I 	c #8B8B48",
"J 	c #E6E58F",
"K 	c #E4E48B",
"L 	c #E4E48C",
"M 	c #E5E48B",
"N 	c #E8E895",
"O 	c #E9E895",
"P 	c #E8E894",
"Q 	c #E9E795",
"R 	c #E9E997",
"S 	c #8D8D4E",
"T 	c #F9F9E4",
"U 	c #FCFCF6",
"V 	c #E8E997",
"W 	c #E8E794",
"X 	c #E7E794",
"Y 	c #E8E893",
"Z 	c #E7E793",
"` 	c #EBEB9D",
" .	c #ECEB9C",
"..	c #EBEB9C",
"+.	c #EBEB9F",
"@.	c #8E8E53",
"#.	c #FAFAE6",
"$.	c #FCFCF7",
"%.	c #FBFBF2",
"&.	c #ECEB9F",
"*.	c #EAEB9C",
"=.	c #EBEA9B",
"-.	c #EFEEA5",
";.	c #EEEEA5",
">.	c #EEEEA4",
",.	c #7D7D3B",
"'.	c #F7F7DA",
").	c #FCFCF5",
"!.	c #F9F9E6",
"~.	c #A5A476",
"{.	c #F8F8DB",
"].	c #7E7E3B",
"^.	c #EEEDA4",
"/.	c #EDEDA4",
"(.	c #EEEEA3",
"_.	c #EDEDA3",
":.	c #F1F1AD",
"<.	c #F1F1AC",
"[.	c #F1F1AE",
"}.	c #93925F",
"|.	c #F8F8DD",
"1.	c #93935F",
"2.	c #F2F2B1",
"3.	c #92935E",
"4.	c #92925E",
"5.	c #F0F1AE",
"6.	c #F0F1AB",
"7.	c #F1F0AB",
"8.	c #F0F1AC",
"9.	c #F1F1AA",
"0.	c #F4F4B4",
"a.	c #F4F4B6",
"b.	c #828249",
"c.	c #F3F4B6",
"d.	c #828148",
"e.	c #F4F4B5",
"f.	c #F4F3B3",
"g.	c #F4F3B4",
"h.	c #F4F4B3",
"i.	c #F3F4B3",
"j.	c #F3F3B3",
"k.	c #F7F8BC",
"l.	c #F7F7BC",
"m.	c #F6F7BC",
"n.	c #F6F7BB",
"o.	c #F7F7BB",
"p.	c #F6F6BB",
"q.	c #F6F6BA",
"r.	c #FAFAC4",
"s.	c #FAFBC4",
"t.	c #FAFAC3",
"u.	c #F9FAC4",
"v.	c #F9FAC3",
"w.	c #F9FAC2",
"x.	c #FAFAC2",
"y.	c #F9F9C2",
"z.	c #FDFECC",
"A.	c #FDFDCC",
"B.	c #FDFDCB",
"C.	c #FCFDCB",
"D.	c #FDFDCA",
"      .   . . .       .     .   . .   ",
"+ + + @ # $ + # + + % & & & % & & & % ",
"* = - = = - - - ; > , , , , , > ' ' , ",
") ! ~ ~ ~ ) { ) ] ] ] { { ] ^ / ] ] ^ ",
"( _ ( : < [ } [ } < < [ | [ [ [ | [ | ",
"1 2 3 2 4 5 1 2 5 5 2 2 5 2 2 2 6 7 6 ",
"8 9 0 a b b a a b b c d e f f f f f f ",
"g h h i h h h h j k j j k j j k j j j ",
"l m l n l n n n l n o p l n p q r p s ",
"t u v t v u v v w x y z A A z A z A B ",
"C D E E C C E F G H I J E K E L M M E ",
"N O P O P Q R S T U T S V P W X Y W Z ",
"` ` `  ...+.@.#.$.%.$.#.@.&.*.=.....=.",
"-.;.>.>.>.,.'.).!.~.!.).{.].^./.^.(._.",
":.<.<.:.<.[.}.|.1.2.3.|.4.5.6.7.<.8.9.",
"0.0.0.0.0.0.a.b.c.0.a.d.e.f.g.h.i.i.j.",
"k.l.l.l.l.m.l.n.o.l.o.o.o.o.o.o.p.o.q.",
"r.s.r.s.r.t.r.r.u.v.t.v.t.t.t.w.x.y.x.",
"z.A.A.z.B.z.A.A.C.C.C.B.C.C.C.B.B.D.C."};
