/* XPM */
static char * unshadefcs_xpm[] = {
"19 19 159 2",
"  	c #EBEBBA",
". 	c #EBEBBB",
"+ 	c #CBC946",
"@ 	c #CBCA45",
"# 	c #CAC946",
"$ 	c #CBCA46",
"% 	c #CBC945",
"& 	c #CAC945",
"* 	c #CDCD4E",
"= 	c #CECC4E",
"- 	c #CDCC4E",
"; 	c #CECD4E",
"> 	c #CECC4D",
", 	c #CDCC4D",
"' 	c #CECC4C",
") 	c #D0CF56",
"! 	c #D1CF56",
"~ 	c #D1D055",
"{ 	c #D1CF55",
"] 	c #D0CF55",
"^ 	c #D0CF54",
"/ 	c #D1CF54",
"( 	c #D4D25E",
"_ 	c #D3D35E",
": 	c #D3D35D",
"< 	c #D4D25D",
"[ 	c #D3D25D",
"} 	c #D4D35D",
"| 	c #D3D25C",
"1 	c #D7D565",
"2 	c #D6D565",
"3 	c #D7D566",
"4 	c #D7D665",
"5 	c #D6D665",
"6 	c #D6D564",
"7 	c #D6D464",
"8 	c #DAD96E",
"9 	c #D9D96E",
"0 	c #DAD86E",
"a 	c #D9D96D",
"b 	c #D9D86D",
"c 	c #DAD86D",
"d 	c #DAD96C",
"e 	c #DAD96D",
"f 	c #D9D86C",
"g 	c #DCDC75",
"h 	c #DCDB75",
"i 	c #DDDC75",
"j 	c #DCDB74",
"k 	c #DCDC74",
"l 	c #DFDF7D",
"m 	c #E0DF7E",
"n 	c #DFDE7D",
"o 	c #E0DE7D",
"p 	c #DFDE7C",
"q 	c #DFDF7C",
"r 	c #DFDE7B",
"s 	c #DEDE7B",
"t 	c #E3E285",
"u 	c #E2E185",
"v 	c #E2E285",
"w 	c #E3E388",
"x 	c #72721F",
"y 	c #E3E287",
"z 	c #E3E288",
"A 	c #72721E",
"B 	c #E2E184",
"C 	c #E2E284",
"D 	c #E2E283",
"E 	c #E5E58D",
"F 	c #E6E58D",
"G 	c #E5E58C",
"H 	c #E6E690",
"I 	c #8A8A47",
"J 	c #F4F4D1",
"K 	c #8A8947",
"L 	c #E6E592",
"M 	c #F4F3D1",
"N 	c #E5E58E",
"O 	c #E4E48C",
"P 	c #E5E48B",
"Q 	c #E8E895",
"R 	c #E9E895",
"S 	c #E8E894",
"T 	c #78772E",
"U 	c #F5F5D4",
"V 	c #FBFBF4",
"W 	c #F8F8E2",
"X 	c #A1A06D",
"Y 	c #F6F6D5",
"Z 	c #79792E",
"` 	c #E8E794",
" .	c #E7E794",
"..	c #E8E893",
"+.	c #E7E793",
"@.	c #EBEB9D",
"#.	c #ECEB9C",
"$.	c #EBEB9C",
"%.	c #EBEB9F",
"&.	c #8E8E53",
"*.	c #FAFAE6",
"=.	c #FCFCF7",
"-.	c #FBFBF2",
";.	c #ECEB9F",
">.	c #EAEB9C",
",.	c #EBEA9B",
"'.	c #EFEEA5",
").	c #EEEEA5",
"!.	c #EEEEA4",
"~.	c #EEEDA6",
"{.	c #92925A",
"].	c #FBFBE8",
"^.	c #919259",
"/.	c #EEEEA6",
"(.	c #EEEEA3",
"_.	c #EEEDA4",
":.	c #EDEDA4",
"<.	c #EDEDA3",
"[.	c #F1F1AD",
"}.	c #F1F1AC",
"|.	c #F1F0AC",
"1.	c #F1F1AE",
"2.	c #949460",
"3.	c #FAFADE",
"4.	c #93945F",
"5.	c #F0F0AB",
"6.	c #F0F1AC",
"7.	c #F0F1AB",
"8.	c #F1F0AB",
"9.	c #F1F1AA",
"0.	c #F4F4B4",
"a.	c #F3F4B6",
"b.	c #83834A",
"c.	c #F4F4B6",
"d.	c #F4F3B3",
"e.	c #F4F4B3",
"f.	c #F4F3B4",
"g.	c #F3F4B3",
"h.	c #F3F3B3",
"i.	c #F7F8BC",
"j.	c #F7F7BC",
"k.	c #F6F7BC",
"l.	c #F6F7BB",
"m.	c #F7F7BB",
"n.	c #F6F6BB",
"o.	c #F6F6BA",
"p.	c #FAFAC4",
"q.	c #FAFBC4",
"r.	c #FAFAC3",
"s.	c #F9FAC4",
"t.	c #F9FAC3",
"u.	c #F9FAC2",
"v.	c #FAFAC2",
"w.	c #F9F9C2",
"x.	c #FDFECC",
"y.	c #FDFDCC",
"z.	c #FDFDCB",
"A.	c #FCFDCB",
"B.	c #FDFDCA",
"      .   . . .       .     .   . .   ",
"+ + + @ # $ + # + + % & & & % & & & % ",
"* = - = = - - - ; > , , , , , > ' ' , ",
") ! ~ ~ ~ ) { ) ] ] ] { { ] ^ / ] ] ^ ",
"( _ ( : < [ } [ } < < [ | [ [ [ | [ | ",
"1 2 3 2 4 5 1 2 5 5 2 2 5 2 2 2 6 7 6 ",
"8 9 0 a b b a a b b c d e f f f f f f ",
"g h h i h h h h j k j j k j j k j j j ",
"l m l n l n n n l n o p l n p q r p s ",
"t u v t v u w x y u z A y B C B C B D ",
"E F G G E H I J K L I M I N G O P P G ",
"Q R S R S T U V W X W V Y Z `  ...` +.",
"@.@.@.#.$.%.&.*.=.-.=.*.&.;.>.,.$.$.,.",
"'.).!.!.!.!.~.{.].=.].^./.(._.:._.(.<.",
"[.}.}.[.}.}.|.1.2.3.4.1.5.6.7.8.}.6.9.",
"0.0.0.0.0.0.0.0.a.b.c.d.e.d.f.e.g.g.h.",
"i.j.j.j.j.k.j.l.m.j.m.m.m.m.m.m.n.m.o.",
"p.q.p.q.p.r.p.p.s.t.r.t.r.r.r.u.v.w.v.",
"x.y.y.x.z.x.y.y.A.A.A.z.A.A.A.z.z.B.A."};
