/* XPM */
static char * maxpr_xpm[] = {
"25 25 52 1",
" 	c #3D3D3D",
".	c #666666",
"+	c #888888",
"@	c #AAAAAA",
"#	c #B8B8B8",
"$	c #B7B7B7",
"%	c #E3E3E3",
"&	c #C3C3C3",
"*	c #C4C4C4",
"=	c #C5C5C5",
"-	c #C2C2C2",
";	c #C1C1C1",
">	c #C0C0C0",
",	c #BFBFBF",
"'	c #BEBEBE",
")	c #BDBDBD",
"!	c #BCBCBC",
"~	c #D7D7D7",
"{	c #D5D5D5",
"]	c #BABABA",
"^	c #B9B9B9",
"/	c #D3D3D3",
"(	c #D4D4D4",
"_	c #BBBBBB",
":	c #D2D2D2",
"<	c #B6B6B6",
"[	c #D1D1D1",
"}	c #B5B5B5",
"|	c #B4B4B4",
"1	c #CFCFCF",
"2	c #D0D0D0",
"3	c #B3B3B3",
"4	c #CDCDCD",
"5	c #CECECE",
"6	c #B2B2B2",
"7	c #B0B0B0",
"8	c #AFAFAF",
"9	c #AEAEAE",
"0	c #ADADAD",
"a	c #ABABAB",
"b	c #A8A8A8",
"c	c #A4A4A4",
"d	c #A5A5A5",
"e	c #A6A6A6",
"f	c #A3A3A3",
"g	c #9F9F9F",
"h	c #9E9E9E",
"i	c #949494",
"j	c #939393",
"k	c #8D8D8D",
"l	c #3C3C3C",
"m	c #3E3E3E",
" ........................",
" +++++++++++++++++++++@#.",
" +++++++++++++++++++++$%.",
" ++&&*==***&&&&-----;;%%.",
" ++--&**&&--;>;;;>>>>>%%.",
" ++,,,>>,,''))')))!!!!%%.",
" ++>;>;>>,>'~',,''''''%%.",
" ++>>>>>>>>>~>>>>>,,,,%%.",
" ++!!!!!!!!{{{)))!!!!!%%.",
" ++]]]##^^]/((___]]]^^%%.",
" ++^^^$##^:///(___]]]]%%.",
" ++#$$<<<<[[[[:^^^^]]]%%.",
" ++}<|}|}12121[2#$##^#%%.",
" ++}<}$<$2[2[2[[#$^#^#%%.",
" ++$$$##[[[[[[[[[#####%%.",
" ++<<<<<221111222<<}}}%%.",
" ++|||3444444454443666%%.",
" ++7777777788899999999%%.",
" ++8887777888800000000%%.",
" ++@@@aaaaaa@@bbbbbbbb%%.",
" ++cddeeddddddffffffff%%.",
" ++gggggggggghhhhhhhhh%%.",
" ij%%%%%%%%%%%%%%%%%%%%%.",
" k%%%%%%%%%%%%%%%%%%%%%%.",
" l    mmmmm           lll"};
