/* XPM */
static char * maxufcs_xpm[] = {
"25 25 50 1",
" 	c #666666",
".	c #3D3D3D",
"+	c #E3E3E3",
"@	c #AAAAAA",
"#	c #B7B7B7",
"$	c #BDBDBD",
"%	c #C3C3C3",
"&	c #C4C4C4",
"*	c #C5C5C5",
"=	c #C2C2C2",
"-	c #C1C1C1",
";	c #888888",
">	c #C0C0C0",
",	c #BFBFBF",
"'	c #BEBEBE",
")	c #BCBCBC",
"!	c #EFEFEF",
"~	c #EEEEEE",
"{	c #BABABA",
"]	c #B8B8B8",
"^	c #B9B9B9",
"/	c #ECECEC",
"(	c #EDEDED",
"_	c #BBBBBB",
":	c #B6B6B6",
"<	c #EBEBEB",
"[	c #B5B5B5",
"}	c #B4B4B4",
"|	c #EAEAEA",
"1	c #B3B3B3",
"2	c #E8E8E8",
"3	c #E9E9E9",
"4	c #B2B2B2",
"5	c #B0B0B0",
"6	c #AFAFAF",
"7	c #AEAEAE",
"8	c #ADADAD",
"9	c #ABABAB",
"0	c #A8A8A8",
"a	c #A4A4A4",
"b	c #A5A5A5",
"c	c #A6A6A6",
"d	c #A3A3A3",
"e	c #9F9F9F",
"f	c #9E9E9E",
"g	c #939393",
"h	c #8F8F8F",
"i	c #8D8D8D",
"j	c #3C3C3C",
"k	c #3E3E3E",
"                        .",
" ++++++++++++++++++++++@.",
" +++++++++++++++++++++#$.",
" ++%%&**&&&%%%%=====--;;.",
" ++==%&&%%==->--->>>>>;;.",
" ++,,,>>,,''$$'$$$))));;.",
" ++>->->>,>'!',,'''''';;.",
" ++>>>>>>>>>!>>>>>,,,,;;.",
" ++))))))))~~~$$$)))));;.",
" ++{{{]]^^{/((___{{{^^;;.",
" ++^^^#]]^////(___{{{{;;.",
" ++]##::::<<<</^^^^{{{;;.",
" ++[:}[}[|||||<|]#]]^];;.",
" ++[:[#:#|<|<|<<]#^]^];;.",
" ++###]]<<<<<<<<<]]]]];;.",
" ++:::::|||||||||::[[[;;.",
" ++}}}1222222232221444;;.",
" ++5555555566677777777;;.",
" ++6665555666688888888;;.",
" ++@@@999999@@00000000;;.",
" ++abbccbbbbbbdddddddd;;.",
" ++eeeeeeeeeefffffffff;;.",
" +g;;;;;;;;;;;;;;;;;;;;;.",
" hi;;;;;;;;;;;;;;;;;;;;;.",
"jj....kkkkk...........jj."};
