/* XPM */
static char * menuiconfcs_xpm[] = {
"25 25 47 1",
" 	c #666666",
".	c #3D3D3D",
"+	c #E3E3E3",
"@	c #AAAAAA",
"#	c #B7B7B7",
"$	c #BDBDBD",
"%	c #C3C3C3",
"&	c #C4C4C4",
"*	c #C5C5C5",
"=	c #C2C2C2",
"-	c #C1C1C1",
";	c #888888",
">	c #C0C0C0",
",	c #BFBFBF",
"'	c #BEBEBE",
")	c #BCBCBC",
"!	c #EBEBEB",
"~	c #BABABA",
"{	c #B8B8B8",
"]	c #B9B9B9",
"^	c #BBBBBB",
"/	c #B6B6B6",
"(	c #E9E9E9",
"_	c #EAEAEA",
":	c #B5B5B5",
"<	c #B4B4B4",
"[	c #B3B3B3",
"}	c #B2B2B2",
"|	c #B0B0B0",
"1	c #E7E7E7",
"2	c #E6E6E6",
"3	c #AEAEAE",
"4	c #AFAFAF",
"5	c #ADADAD",
"6	c #ABABAB",
"7	c #A8A8A8",
"8	c #A4A4A4",
"9	c #A5A5A5",
"0	c #A6A6A6",
"a	c #A3A3A3",
"b	c #9F9F9F",
"c	c #9E9E9E",
"d	c #939393",
"e	c #8F8F8F",
"f	c #8D8D8D",
"g	c #3C3C3C",
"h	c #3E3E3E",
"                        .",
" ++++++++++++++++++++++@.",
" +++++++++++++++++++++#$.",
" ++%%&**&&&%%%%=====--;;.",
" ++==%&&%%==->--->>>>>;;.",
" ++,,,>>,,''$$'$$$))));;.",
" ++>->->>,>',',,'''''';;.",
" ++>>>>>>>>>>>>>>>,,,,;;.",
" ++))))!!!!!!!!!!!))));;.",
" ++~~~{{]]~~^^^^^~~~]];;.",
" ++]]]#{{]]~~~^^^^~~~~;;.",
" ++{##/(((((((____]~~~;;.",
" ++:/<:<::/:/:#/{#{{]{;;.",
" ++:/:#/#/#/#/##{#]{]{;;.",
" ++###{((((((((((({{{{;;.",
" ++///////:::://///:::;;.",
" ++<<<[[}}}}}}<[[[[}}};;.",
" ++||||111111122223333;;.",
" ++444||||444455555555;;.",
" ++@@@666666@@77777777;;.",
" ++89900999999aaaaaaaa;;.",
" ++bbbbbbbbbbccccccccc;;.",
" +d;;;;;;;;;;;;;;;;;;;;;.",
" ef;;;;;;;;;;;;;;;;;;;;;.",
"gg....hhhhh...........gg."};
