/* XPM */
static char * closefcs_xpm[] = {
"19 19 248 2",
"  	c #8D8D8D",
". 	c #8D8D8B",
"+ 	c #8B8D8D",
"@ 	c #8D8B8D",
"# 	c #8D8B8B",
"$ 	c #8B8B8B",
"% 	c #8B8D8B",
"& 	c #8B8B89",
"* 	c #898986",
"= 	c #838386",
"- 	c #787575",
"; 	c #727275",
"> 	c #717171",
", 	c #717174",
"' 	c #71716F",
") 	c #757373",
"! 	c #838381",
"~ 	c #868484",
"{ 	c #7F7F7F",
"] 	c #686868",
"^ 	c #3A383A",
"/ 	c #2E3030",
"( 	c #2D2D2D",
"_ 	c #2B2D2D",
": 	c #363638",
"< 	c #666664",
"[ 	c #7D7F7D",
"} 	c #6D6D6F",
"| 	c #353535",
"1 	c #9F9F9F",
"2 	c #A8A7A7",
"3 	c #A7A7A7",
"4 	c #A7A7A6",
"5 	c #A6A7A6",
"6 	c #A7A6A6",
"7 	c #A6A7A7",
"8 	c #9E9E9E",
"9 	c #343534",
"0 	c #6C6C6C",
"a 	c #666966",
"b 	c #29292A",
"c 	c #A5A5A5",
"d 	c #9D9D9D",
"e 	c #9B9D9B",
"f 	c #999B9C",
"g 	c #9A9A98",
"h 	c #999799",
"i 	c #959698",
"j 	c #959797",
"k 	c #939693",
"l 	c #929292",
"m 	c #919391",
"n 	c #A4A5A4",
"o 	c #282828",
"p 	c #656665",
"q 	c #636363",
"r 	c #272727",
"s 	c #A3A3A2",
"t 	c #989898",
"u 	c #939797",
"v 	c #969693",
"w 	c #919191",
"x 	c #949094",
"y 	c #8F8F93",
"z 	c #91918E",
"A 	c #8D8C8D",
"B 	c #8B8B8C",
"C 	c #8E8B8A",
"D 	c #8A8D8D",
"E 	c #89898D",
"F 	c #88888C",
"G 	c #A2A2A2",
"H 	c #272627",
"I 	c #606060",
"J 	c #5E5E5E",
"K 	c #252525",
"L 	c #A09FA0",
"M 	c #8C8989",
"N 	c #8B8989",
"O 	c #878A8A",
"P 	c #868987",
"Q 	c #858587",
"R 	c #878587",
"S 	c #878487",
"T 	c #838385",
"U 	c #828284",
"V 	c #818183",
"W 	c #808280",
"X 	c #7F817F",
"Y 	c #5C5C5C",
"Z 	c #5A5A59",
"` 	c #242324",
" .	c #858584",
"..	c #818181",
"+.	c #808082",
"@.	c #817F7F",
"#.	c #80807E",
"$.	c #7F7C7F",
"%.	c #7C7E7C",
"&.	c #7B7B7B",
"*.	c #7A7A7A",
"=.	c #797979",
"-.	c #787878",
";.	c #232323",
">.	c #595959",
",.	c #575557",
"'.	c #222222",
").	c #9B9B9C",
"!.	c #7D7B7E",
"~.	c #7C7A7A",
"{.	c #79797B",
"].	c #7A7878",
"^.	c #767677",
"/.	c #767676",
"(.	c #757575",
"_.	c #747477",
":.	c #727474",
"<.	c #747473",
"[.	c #737373",
"}.	c #6F7272",
"|.	c #716F6E",
"1.	c #9B9B9B",
"2.	c #222221",
"3.	c #545555",
"4.	c #545254",
"5.	c #212121",
"6.	c #999999",
"7.	c #737273",
"8.	c #727272",
"9.	c #707070",
"0.	c #6F6F70",
"a.	c #6F6C6F",
"b.	c #6E6E6E",
"c.	c #6D6D6D",
"d.	c #6A6A6C",
"e.	c #69696B",
"f.	c #686B6B",
"g.	c #6A6A6A",
"h.	c #999899",
"i.	c #212120",
"j.	c #505050",
"k.	c #4B4A4A",
"l.	c #1E1D1D",
"m.	c #959494",
"n.	c #5F5F5F",
"o.	c #5E5E61",
"p.	c #5B5B5A",
"q.	c #5B5959",
"r.	c #5A5A5A",
"s.	c #595A5A",
"t.	c #595957",
"u.	c #595759",
"v.	c #575759",
"w.	c #949393",
"x.	c #1D1D1D",
"y.	c #4A4848",
"z.	c #464646",
"A.	c #1C1C1C",
"B.	c #5A5A5B",
"C.	c #5A5D5D",
"D.	c #5D5B5D",
"E.	c #5E5E5B",
"F.	c #5C5C5F",
"G.	c #5F5D5F",
"H.	c #5F5E60",
"I.	c #62625F",
"J.	c #636060",
"K.	c #1C1B1B",
"L.	c #444644",
"M.	c #444444",
"N.	c #1B1B1B",
"O.	c #636063",
"P.	c #636163",
"Q.	c #646464",
"R.	c #646262",
"S.	c #636366",
"T.	c #666467",
"U.	c #646468",
"V.	c #686866",
"W.	c #666666",
"X.	c #666766",
"Y.	c #676767",
"Z.	c #686767",
"`.	c #909090",
" +	c #1A1A1A",
".+	c #424242",
"++	c #40403F",
"@+	c #19191A",
"#+	c #8E8E8E",
"$+	c #686668",
"%+	c #676969",
"&+	c #686B68",
"*+	c #696A6A",
"=+	c #696C69",
"-+	c #6A696B",
";+	c #6B6A6A",
">+	c #6D6E6A",
",+	c #6B6B6B",
"'+	c #6E6C6C",
")+	c #6D6C6D",
"!+	c #6D6E6D",
"~+	c #191919",
"{+	c #3F3F3F",
"]+	c #3E3E3C",
"^+	c #191818",
"/+	c #8D8C8C",
"(+	c #6F6D71",
"_+	c #6F7171",
":+	c #726F72",
"<+	c #727072",
"[+	c #707171",
"}+	c #727471",
"|+	c #747274",
"1+	c #8C8C8C",
"2+	c #181817",
"3+	c #3A3C3C",
"4+	c #3D3B3B",
"5+	c #868786",
"6+	c #8B898B",
"7+	c #868686",
"8+	c #1D1D1C",
"9+	c #3B3B39",
"0+	c #403E3E",
"a+	c #323432",
"b+	c #161616",
"c+	c #151615",
"d+	c #151515",
"e+	c #323230",
"f+	c #3E3E3E",
"g+	c #3C3C3C",
"h+	c #3B3B3B",
"i+	c #343434",
"j+	c #323132",
"k+	c #323232",
"l+	c #303032",
"m+	c #303232",
"n+	c #323032",
"o+	c #343232",
"p+	c #3A3A3A",
"q+	c #3C3C3A",
"r+	c #383838",
"s+	c #383738",
"t+	c #383837",
"u+	c #383737",
"v+	c #373838",
"w+	c #373737",
"x+	c #373738",
"y+	c #373837",
"  . + . @   # $ % $ + $ % % $ $ & $ $ ",
"* = - ; > > > , > > > > > > > ' ) ! ~ ",
"{ ] ^ / ( ( ( ( ( ( ( ( _ ( ( _ : < [ ",
"} | 1 2 3 3 3 4 3 3 3 4 5 4 6 7 8 9 0 ",
"a b c d d d d e f g h i j k l m n o p ",
"q r s t u v w x y z A B C D E F G H I ",
"J K L   M N O P Q R S T U V W X 1 K Y ",
"Z ` 8  ...V +.@.#.$.%.&.*.=.-.-.d ;.>.",
",.'.).!.~.{.].^./.(._.:.<.[.}.|.1.2.3.",
"4.5.6.7.8.> 9.9.0.a.b.c.d.e.f.g.h.i.j.",
"k.l.m.n.o.J Y p.q.p.r.s.t.u.v.>.w.x.y.",
"z.A.l r.B.Y Y C.D.E.F.G.H.n.I.J.w K.L.",
"M.N.w n.O.P.Q.R.S.T.U.V.W.X.Y.Z.`. +.+",
"++@+#+$+%+&+*+=+-+;+>+,+'+)+c.!+#+~+{+",
"]+^+/+9.(+_+:+<+> [+}+> 8.[.|+(.1+2+3+",
"4+x.5+$ $ $ $ $ $ $ $ $ $ & 6+$ 7+8+9+",
"0+a+N.b+c+d+d+d+d+d+d+d+d+d+d+d+ +e+f+",
"g+h+i+j+k+k+k+k+l+m+m+l+e+n+n+m+o+p+q+",
"r+s+r+r+t+u+r+s+r+v+s+w+t+x+y+w+y+w+w+"};
