/* XPM */
static char * closeufcs_xpm[] = {
"19 19 89 1",
" 	c #404040",
".	c #414141",
"+	c #101010",
"@	c #111111",
"#	c #0F0F0F",
"$	c #121212",
"%	c #181818",
"&	c #161616",
"*	c #232323",
"=	c #141414",
"-	c #151515",
";	c #1B1B1B",
">	c #313131",
",	c #171717",
"'	c #1F1F1F",
")	c #3A3A3A",
"!	c #1E1E1E",
"~	c #262626",
"{	c #464646",
"]	c #202020",
"^	c #252525",
"/	c #242424",
"(	c #2D2D2D",
"_	c #525252",
":	c #818181",
"<	c #2E2E2E",
"[	c #808080",
"}	c #7F7F7F",
"|	c #272727",
"1	c #2A2A2A",
"2	c #2C2C2C",
"3	c #323232",
"4	c #5A5A5A",
"5	c #2B2B2B",
"6	c #848484",
"7	c #838383",
"8	c #7C7C7C",
"9	c #131313",
"0	c #292929",
"a	c #383838",
"b	c #646464",
"c	c #303030",
"d	c #888888",
"e	c #858585",
"f	c #7E7E7E",
"g	c #363636",
"h	c #3E3E3E",
"i	c #6D6D6D",
"j	c #353535",
"k	c #8B8B8B",
"l	c #8A8A8A",
"m	c #868686",
"n	c #3D3D3D",
"o	c #424242",
"p	c #747474",
"q	c #393939",
"r	c #434343",
"s	c #8D8D8D",
"t	c #3B3B3B",
"u	c #474747",
"v	c #797979",
"w	c #3C3C3C",
"x	c #8F8F8F",
"y	c #1A1A1A",
"z	c #8E8E8E",
"A	c #8C8C8C",
"B	c #454545",
"C	c #4B4B4B",
"D	c #4C4C4C",
"E	c #4A4A4A",
"F	c #1D1D1D",
"G	c #3F3F3F",
"H	c #494949",
"I	c #515151",
"J	c #505050",
"K	c #575757",
"L	c #4E4E4E",
"M	c #565656",
"N	c #484848",
"O	c #4F4F4F",
"P	c #555555",
"Q	c #5B5B5B",
"R	c #6F6F6F",
"S	c #5C5C5C",
"T	c #595959",
"U	c #626262",
"V	c #686868",
"W	c #606060",
"X	c #4D4D4D",
" .                 ",
"+@#++++++##+#++####",
"$%@$$$@$@@$$@$$@$@$",
"&*=----------------",
";>,;;;;;;;;;;;;;;;;",
"');'''''''!''''''''",
"~{]~^^^^^~^^^^/^^^^",
"(_~((((::((<[}|1222",
"345333366637:890>33",
"abcaaaaadddef+@(gaa",
"hijhhhhhhklm,95anhh",
"opqoooorskddmjt.ooo",
"uvwu{{{xk6ydzAw.B{{",
"C[ DCCExm&,wzmFGHCD",
"Ie{___Ju'yqHB]FrJII",
"K8LKMKMIN{OPJu{JMMK",
"QRKQQSQ4TT4SQTT4QSQ",
"UVWUUUUUUUUUUUUUUUU",
"XLXXXXXXXXXXXXXXXXX"};
