/* XPM */
static char * maxfcs_xpm[] = {
"19 19 90 1",
" 	c #515151",
".	c #525252",
"+	c #262626",
"@	c #292929",
"#	c #242424",
"$	c #252525",
"%	c #282828",
"&	c #333333",
"*	c #272727",
"=	c #2B2B2B",
"-	c #434343",
";	c #2A2A2A",
">	c #2F2F2F",
",	c #343434",
"'	c #5C5C5C",
")	c #2C2C2C",
"!	c #3A3A3A",
"~	c #676767",
"{	c #313131",
"]	c #393939",
"^	c #383838",
"/	c #404040",
"(	c #707070",
"_	c #363636",
":	c #B2B2B2",
"<	c #B1B1B1",
"[	c #3C3C3C",
"}	c #3F3F3F",
"|	c #454545",
"1	c #777777",
"2	c #3B3B3B",
"3	c #444444",
"4	c #B3B3B3",
"5	c #AFAFAF",
"6	c #AEAEAE",
"7	c #121212",
"8	c #4A4A4A",
"9	c #7F7F7F",
"0	c #484848",
"a	c #101010",
"b	c #0F0F0F",
"c	c #111111",
"d	c #131313",
"e	c #ACACAC",
"f	c #474747",
"g	c #4F4F4F",
"h	c #868686",
"i	c #4C4C4C",
"j	c #3D3D3D",
"k	c #3E3E3E",
"l	c #8B8B8B",
"m	c #4D4D4D",
"n	c #575757",
"o	c #909090",
"p	c #555555",
"q	c #B5B5B5",
"r	c #171717",
"s	c #535353",
"t	c #505050",
"u	c #424242",
"v	c #545454",
"w	c #5B5B5B",
"x	c #969696",
"y	c #4E4E4E",
"z	c #595959",
"A	c #B9B9B9",
"B	c #B4B4B4",
"C	c #464646",
"D	c #585858",
"E	c #606060",
"F	c #979797",
"G	c #616161",
"H	c #5F5F5F",
"I	c #1A1A1A",
"J	c #161616",
"K	c #151515",
"L	c #141414",
"M	c #5E5E5E",
"N	c #656565",
"O	c #8D8D8D",
"P	c #646464",
"Q	c #696969",
"R	c #7E7E7E",
"S	c #6A6A6A",
"T	c #686868",
"U	c #666666",
"V	c #6F6F6F",
"W	c #757575",
"X	c #6D6D6D",
"Y	c #5D5D5D",
" .                 ",
"+@#++++++$$+$++$$$$",
"%&+%%%*%**%%*%%*%*%",
"=-*;;;;;;;;;;;;;;;;",
"> @>>>>>>>>>>>>>>>>",
",'),,,,,,,&,,,,,,,,",
"!~{!]]]]]!]]]]^]]]]",
"/(_////::::::<^[}}}",
"|12|||345666567]-||",
"89}8880<abacdea]f88",
"gh-gggi<a>!jk5c[igg",
".lf...g47jigm:7}g..",
"no8nnnpqr| st4duvnn",
"wxy'wwzA44BqB57CDw'",
"EFsGGGHvIJKKKLKgMEE",
"NOwNPNPMsmmmii 'PPN",
"QRNQQSQTUUNUUUUTQSQ",
"VWXVVVVVVVVVVVVVVVV",
"YMYYYYYYYYYYYYYYYYY"};
