/* XPM */
static char * stickpr_xpm[] = {
"23 23 71 1",
" 	c #F1F6EF",
".	c #F6F9F5",
"+	c #A6A6A6",
"@	c #CFDDCB",
"#	c #D0DECC",
"$	c #CEDDCA",
"%	c #E3EBE1",
"&	c #9A9B9B",
"*	c #D1DECD",
"=	c #CDDBC9",
"-	c #9A9A9A",
";	c #CDDBC8",
">	c #E2EAE0",
",	c #9A999A",
"'	c #CBDAC6",
")	c #CCDAC7",
"!	c #CAD9C5",
"~	c #C9D8C4",
"{	c #E1E9DE",
"]	c #989898",
"^	c #E1E9DF",
"/	c #C8D8C3",
"(	c #969696",
"_	c #C6D6C2",
":	c #C7D6C3",
"<	c #C6D5C1",
"[	c #E0E8DD",
"}	c #C5D4C0",
"|	c #DFE7DD",
"1	c #C4D4BF",
"2	c #DFE7DC",
"3	c #959595",
"4	c #C2D3BE",
"5	c #C2D2BD",
"6	c #DDE6DB",
"7	c #DEE6DB",
"8	c #969796",
"9	c #949494",
"0	c #C1D1BC",
"a	c #C0D1BB",
"b	c #DCE5D9",
"c	c #BDCEB8",
"d	c #BECFB9",
"e	c #BCCDB8",
"f	c #DAE3D8",
"g	c #929292",
"h	c #BCCDB6",
"i	c #919191",
"j	c #B8C9B3",
"k	c #B9CAB3",
"l	c #BACBB4",
"m	c #B7C8B2",
"n	c #D8E1D5",
"o	c #8D8D8D",
"p	c #B3C5AE",
"q	c #B5C6AF",
"r	c #B5C7B0",
"s	c #B2C4AD",
"t	c #D6DFD3",
"u	c #8A8A8A",
"v	c #AFC1A9",
"w	c #ADC0A8",
"x	c #D2DCCF",
"y	c #868685",
"z	c #A5B8A0",
"A	c #A6B9A1",
"B	c #CED8CB",
"C	c #808080",
"D	c #8B9D84",
"E	c #C1CABE",
"F	c #6B6B6B",
"                     .+",
"@@##########@@@@@$$$$%&",
"$@@@#**###@@@@$$$$$==%-",
"=$$$@##@@$$=;===;;;;;>,",
"'))));;))''!!'!!!~~~~{]",
");;=;=;;);')'))''''''^-",
");;;;;;;;;;;;;;;;))))>]",
"//~~~~~~~~!!!!!!~~~~~{(",
"_::::<<__:://///:::__[(",
"::___}<<__:::////::::|(",
"<<<}}1111}}<<_____:::23",
"1}41545441414}1<}<<_<63",
"}}414}1}1}1}1}}<}_<_<78",
"<}}}}<<<<<<<<<<<<<<<<2(",
"11111111144441111144469",
"0555500aaaaaa50000aaab9",
"cdddddddddccceeeeeeeefg",
"cccccddddcccchhhhhhhhfi",
"jkkkkllllllkkmmmmmmmmno",
"pppqqrrqqqqqqsssssssstu",
"vvvvvvvvvvvvwwwwwwwwwxy",
"zAAAAAAAzzzzzzzzzzzzzBC",
"DDDDDDDDDDDDDDDDDDDDDEF"};
