/* XPM */
static char * minufcs_xpm[] = {
"19 19 115 2",
"  	c #919191",
". 	c #6A6A6A",
"+ 	c #616161",
"@ 	c #747474",
"# 	c #838383",
"$ 	c #828282",
"% 	c #808080",
"& 	c #7F7F7F",
"* 	c #8C8C8C",
"= 	c #878787",
"- 	c #757575",
"; 	c #6E6E6E",
"> 	c #6B6B6B",
", 	c #909090",
"' 	c #8F8F8F",
") 	c #898989",
"! 	c #797979",
"~ 	c #BDBDBD",
"{ 	c #DBDBDB",
"] 	c #D9D9D9",
"^ 	c #C6C6C6",
"/ 	c #A5A4A4",
"( 	c #7B7B7B",
"_ 	c #929292",
": 	c #8D8D8D",
"< 	c #7A7A7A",
"[ 	c #A5A6A5",
"} 	c #E6E6E6",
"| 	c #AEAEAE",
"1 	c #6D6D6E",
"2 	c #585858",
"3 	c #727172",
"4 	c #969596",
"5 	c #B0B0B0",
"6 	c #949494",
"7 	c #868686",
"8 	c #E4E4E4",
"9 	c #8B8B8B",
"0 	c #434345",
"a 	c #3E3E3E",
"b 	c #4E4E4E",
"c 	c #626262",
"d 	c #717171",
"e 	c #949594",
"f 	c #969696",
"g 	c #939393",
"h 	c #7D7D7D",
"i 	c #C5C5C5",
"j 	c #A5A5A6",
"k 	c #4F4F4F",
"l 	c #454547",
"m 	c #595959",
"n 	c #6D6B6B",
"o 	c #7C7B7C",
"p 	c #888788",
"q 	c #707070",
"r 	c #9A9A9A",
"s 	c #D3D2D2",
"t 	c #7D7C7C",
"u 	c #5C5C5C",
"v 	c #6A6969",
"w 	c #8A8888",
"x 	c #959494",
"y 	c #9C9C9B",
"z 	c #979798",
"A 	c #797A79",
"B 	c #6D6C6D",
"C 	c #9D9D9D",
"D 	c #999999",
"E 	c #7E7E7E",
"F 	c #949595",
"G 	c #A1A1A1",
"H 	c #A4A5A5",
"I 	c #5D5D5D",
"J 	c #9F9F9F",
"K 	c #9C9C9C",
"L 	c #A4A4A5",
"M 	c #959595",
"N 	c #A2A3A3",
"O 	c #A5A5A5",
"P 	c #ABABAC",
"Q 	c #AFAFB0",
"R 	c #989696",
"S 	c #565556",
"T 	c #4D4E4E",
"U 	c #A2A2A2",
"V 	c #A0A0A0",
"W 	c #858585",
"X 	c #9FA0A0",
"Y 	c #919190",
"Z 	c #A09F9F",
"` 	c #ACACAC",
" .	c #ABAAAB",
"..	c #929393",
"+.	c #545454",
"@.	c #444443",
"#.	c #606060",
"$.	c #A4A4A4",
"%.	c #818181",
"&.	c #6C6C6C",
"*.	c #6C6D6E",
"=.	c #787878",
"-.	c #5C5D5D",
";.	c #464645",
">.	c #3C3C3C",
",.	c #515151",
"'.	c #A6A6A6",
").	c #646464",
"!.	c #565656",
"~.	c #4B4B4B",
"{.	c #434342",
"].	c #454545",
"^.	c #676767",
"/.	c #888888",
"(.	c #A3A3A3",
"                                      ",
". . . . . . . . . . . . . . . . . . . ",
"+ + + + + + + + + + + + + + + + + + + ",
"@ @ @ @ @ @ @ @ @ @ @ @ @ @ @ @ @ @ @ ",
"# # # # # # $ % & & & % $ # # # # # # ",
"* * * * * = & - ; > ; - & = * * * * * ",
", , , ' ) ! # ~ { ] ^ / ( ! ) ' , , , ",
"_ _ _ : < [ } | 1 2 3 4 5 % < : _ _ _ ",
"6 6 _ 7 6 8 9 0 a b c d % e d 7 _ 6 6 ",
"f f g h i j k l m n o p 7 ! q h g f f ",
"r r f ( s t u v < w x y z A B ( f r r ",
"C C D E ^ 7 ! = F C G H G @ I E D C C ",
"J J K 7 L M * y N O P Q R S T 7 K J J ",
"U U V 6 W X $ Y Z `  ...+.@.#.6 V U U ",
"$.$.$.J * E %.&.*.=.-.;.>.,.* J $.$.$.",
"'.'.'.O J ' =.).!.~.{.].^.' J O '.'.'.",
"'.'.'.'.'.G D ' /.W /.' D G '.'.'.'.'.",
"'.'.'.'.'.'.O (.U U U (.O '.'.'.'.'.'.",
"'.'.'.'.'.'.'.'.'.'.'.'.'.'.'.'.'.'.'."};
