/* XPM */
static char * shadepr_xpm[] = {
"19 19 38 1",
" 	c #919191",
".	c #6A6A6A",
"+	c #616161",
"@	c #747474",
"#	c #838383",
"$	c #8C8C8C",
"%	c #909090",
"&	c #929292",
"*	c #949494",
"=	c #9B9A98",
"-	c #9A9998",
";	c #A2A09D",
">	c #A19F9D",
",	c #A7A5A1",
"'	c #000000",
")	c #A7A4A1",
"!	c #A6A4A1",
"~	c #ADA9A4",
"{	c #ACA9A4",
"]	c #ACA8A4",
"^	c #B3AEA9",
"/	c #B3AFA9",
"(	c #B2AEA9",
"_	c #B8B3AC",
":	c #B7B2AC",
"<	c #BDB7AF",
"[	c #BCB7AF",
"}	c #C1BAB1",
"|	c #C0BAB1",
"1	c #C0B9B1",
"2	c #C0B9B0",
"3	c #C4BCB2",
"4	c #C3BCB2",
"5	c #C3BBB2",
"6	c #CCC3B8",
"7	c #CBC3B8",
"8	c #CBC2B8",
"9	c #CAC2B8",
"                   ",
"...................",
"+++++++++++++++++++",
"@@@@@@@@@@@@@@@@@@@",
"###################",
"$$$$$$$$$$$$$$$$$$$",
"%%%%%%%%%%%%%%%%%%%",
"&&&&&&&&&&&&&&&&&&&",
"*******************",
"========-----------",
";>>>>>>>>>>>>>>>>>>",
",,,,,,,,,')))))!!!!",
"~~{{{{{{''']]]]]]]]",
"^/^^^^^'((('(((((((",
"______:_:::::::::::",
"<<<<<<<<<<<<<<<<<<[",
"}}}}||1111111222222",
"3344444444444444555",
"6677787888888898999"};
