/* XPM */
static char * minpr_xpm[] = {
"19 19 157 2",
"  	c #E8E8E8",
". 	c #000000",
"+ 	c #22243D",
"@ 	c #0B0C15",
"# 	c #A5A6AE",
"$ 	c #42445D",
"% 	c #21233C",
"& 	c #0C0D17",
"* 	c #9D9EA7",
"= 	c #3E4059",
"- 	c #20223B",
"; 	c #0E0E19",
"> 	c #94959F",
", 	c #393B53",
"' 	c #383A53",
") 	c #383952",
"! 	c #373851",
"~ 	c #35374F",
"{ 	c #35374E",
"] 	c #36374F",
"^ 	c #373952",
"/ 	c #20213A",
"( 	c #0F0F1B",
"_ 	c #8C8D98",
": 	c #34354E",
"< 	c #33344D",
"[ 	c #32334C",
"} 	c #32324A",
"| 	c #313149",
"1 	c #313148",
"2 	c #303148",
"3 	c #313249",
"4 	c #31334A",
"5 	c #1F2039",
"6 	c #10111D",
"7 	c #838490",
"8 	c #303249",
"9 	c #2F3148",
"0 	c #2E3047",
"a 	c #2D2E45",
"b 	c #2C2E45",
"c 	c #2C2D44",
"d 	c #2C2E44",
"e 	c #2C2D45",
"f 	c #2D2F46",
"g 	c #2E2F47",
"h 	c #10101D",
"i 	c #1F2139",
"j 	c #1E1F38",
"k 	c #10111E",
"l 	c #7A7B88",
"m 	c #2B2B44",
"n 	c #2A2A43",
"o 	c #292A41",
"p 	c #282A40",
"q 	c #282940",
"r 	c #282941",
"s 	c #1D1E37",
"t 	c #111220",
"u 	c #717180",
"v 	c #26273F",
"w 	c #25263E",
"x 	c #25263D",
"y 	c #24263E",
"z 	c #25263F",
"A 	c #26273E",
"B 	c #252740",
"C 	c #101220",
"D 	c #1C1E36",
"E 	c #121321",
"F 	c #676978",
"G 	c #21233A",
"H 	c #212239",
"I 	c #22243B",
"J 	c #22243C",
"K 	c #23253D",
"L 	c #212339",
"M 	c #1B1D36",
"N 	c #131323",
"O 	c #5F6071",
"P 	c #1D1E38",
"Q 	c #1D1F36",
"R 	c #1D1E36",
"S 	c #1F2037",
"T 	c #1E2139",
"U 	c #21213B",
"V 	c #20223A",
"W 	c #1E2038",
"X 	c #1D1F37",
"Y 	c #1A1C35",
"Z 	c #121425",
"` 	c #555668",
" .	c #191B33",
"..	c #191A32",
"+.	c #191B34",
"@.	c #1B1D37",
"#.	c #1C1E38",
"$.	c #1B1D38",
"%.	c #1A1C34",
"&.	c #131426",
"*.	c #4C4E60",
"=.	c #16162E",
"-.	c #14162D",
";.	c #15172F",
">.	c #A1A2AC",
",.	c #A2A3AD",
"'.	c #A2A3AE",
").	c #A2A3AC",
"!.	c #080912",
"~.	c #16172E",
"{.	c #15172E",
"].	c #141528",
"^.	c #434558",
"/.	c #12132A",
"(.	c #121329",
"_.	c #A0A1AA",
":.	c #A1A1AB",
"<.	c #191A33",
"[.	c #181A33",
"}.	c #14162A",
"|.	c #3A3C50",
"1.	c #111326",
"2.	c #111225",
"3.	c #101225",
"4.	c #07080F",
"5.	c #070810",
"6.	c #07070F",
"7.	c #181A32",
"8.	c #14162B",
"9.	c #313347",
"0.	c #111223",
"a.	c #101222",
"b.	c #111324",
"c.	c #101223",
"d.	c #171831",
"e.	c #14152C",
"f.	c #28293F",
"g.	c #0F1022",
"h.	c #0F1021",
"i.	c #0F1020",
"j.	c #0F0F20",
"k.	c #101122",
"l.	c #171830",
"m.	c #13152D",
"n.	c #12132B",
"o.	c #1B1D33",
"p.	c #0D0F1F",
"q.	c #0C0E1E",
"r.	c #0C0E1D",
"s.	c #11132B",
"t.	c #13152C",
"u.	c #0D0F20",
"v.	c #0D0E1F",
"w.	c #0C0E1F",
"x.	c #13142D",
"y.	c #12142C",
"z.	c #12142B",
"  .                               .   ",
"+ @ # $ $ $ $ $ $ $ $ $ $ $ $ $ # @ + ",
"% & * = = = = = = = = = = = = = * & % ",
"- ; > , ' ) ! ~ ~ { ] ~ ! ^ ' , > ; - ",
"/ ( _ : < [ } | 1 2 2 3 4 [ < : _ ( / ",
"5 6 7 8 9 0 a b c c d e f g 9 8 7 h i ",
"j k l m n o p q q q q q r o n m l k j ",
"s t u v w x y w z v z w w w A B u C s ",
"D E F G G H G I J K J I G L G G F E D ",
"M N O P Q R S T - U V i W X Q j O N M ",
"Y Z `  ... .+.M @.#.$.M %. . . .` Z Y ",
"+.&.*.=.-.;.>.,.,.'.,.,.).!.~.{.*.&.+.",
" .].^./.(./._.:.:.:.:.:._./.(./.^.].<.",
"[.}.|.1.2.3.4.5.5.5.5.5.4.6.2.1.|.}.[.",
"7.8.9.0.a.a.a.0.b.b.b.0.c.a.c.b.9.8.7.",
"d.e.f.g.h.i.j.h.h.h.h.h.i.h.h.k.f.e.l.",
"m.n.o.p.q.q.q.r.r.q.r.r.q.q.q.p.o.s.m.",
"m.m.t.u.v.q.w.r.r.r.r.r.q.q.v.u.t.x.t.",
"m.m.y.u.u.v.w.q.q.q.q.q.w.w.p.u.z.m.m."};
