/* XPM */
static char * stickpr_xpm[] = {
"19 19 161 2",
"  	c #E8E8E8",
". 	c #000000",
"+ 	c #22243D",
"@ 	c #0B0C15",
"# 	c #A5A6AE",
"$ 	c #42445D",
"% 	c #21233C",
"& 	c #0C0D17",
"* 	c #9D9EA7",
"= 	c #3E4059",
"- 	c #20223B",
"; 	c #0E0E19",
"> 	c #94959F",
", 	c #393B53",
"' 	c #383A53",
") 	c #383952",
"! 	c #373851",
"~ 	c #35374F",
"{ 	c #35374E",
"] 	c #36374F",
"^ 	c #373952",
"/ 	c #20213A",
"( 	c #0F0F1B",
"_ 	c #8C8D98",
": 	c #34354E",
"< 	c #33344D",
"[ 	c #32334C",
"} 	c #32324A",
"| 	c #313149",
"1 	c #313148",
"2 	c #303148",
"3 	c #313249",
"4 	c #31334A",
"5 	c #1F2039",
"6 	c #10111D",
"7 	c #838490",
"8 	c #303249",
"9 	c #2F3148",
"0 	c #2E3047",
"a 	c #2D2E45",
"b 	c #2C2E45",
"c 	c #2C2D44",
"d 	c #2C2E44",
"e 	c #2C2D45",
"f 	c #2D2F46",
"g 	c #2E2F47",
"h 	c #10101D",
"i 	c #1F2139",
"j 	c #1E1F38",
"k 	c #10111E",
"l 	c #7A7B88",
"m 	c #2B2B44",
"n 	c #2A2A43",
"o 	c #292A41",
"p 	c #282A40",
"q 	c #282940",
"r 	c #282941",
"s 	c #1D1E37",
"t 	c #111220",
"u 	c #717180",
"v 	c #26273F",
"w 	c #25263E",
"x 	c #25263D",
"y 	c #24263E",
"z 	c #25263F",
"A 	c #0F1019",
"B 	c #0F0F19",
"C 	c #26273E",
"D 	c #252740",
"E 	c #101220",
"F 	c #1C1E36",
"G 	c #121321",
"H 	c #676978",
"I 	c #21233A",
"J 	c #212239",
"K 	c #A7A7B1",
"L 	c #A7A8B1",
"M 	c #212339",
"N 	c #1B1D36",
"O 	c #131323",
"P 	c #5F6071",
"Q 	c #1D1E38",
"R 	c #1D1F36",
"S 	c #1D1E36",
"T 	c #1F2037",
"U 	c #A5A6B0",
"V 	c #0D0E18",
"W 	c #0D0D18",
"X 	c #20223A",
"Y 	c #0C0D16",
"Z 	c #0C0C16",
"` 	c #1A1C35",
" .	c #121425",
"..	c #555668",
"+.	c #191B33",
"@.	c #191A32",
"#.	c #191B34",
"$.	c #A4A5AF",
"%.	c #1B1D37",
"&.	c #1C1E38",
"*.	c #1B1D38",
"=.	c #1A1C34",
"-.	c #131426",
";.	c #4C4E60",
">.	c #16162E",
",.	c #14162D",
"'.	c #15172F",
").	c #A2A3AD",
"!.	c #090A14",
"~.	c #171934",
"{.	c #171932",
"].	c #090A13",
"^.	c #14162E",
"/.	c #16172E",
"(.	c #15172E",
"_.	c #141528",
":.	c #434558",
"<.	c #12132A",
"[.	c #121329",
"}.	c #12132B",
"|.	c #A1A1AB",
"1.	c #191A33",
"2.	c #181A33",
"3.	c #14162A",
"4.	c #3A3C50",
"5.	c #111326",
"6.	c #111225",
"7.	c #101225",
"8.	c #111327",
"9.	c #121428",
"0.	c #070810",
"a.	c #07080F",
"b.	c #181A32",
"c.	c #14162B",
"d.	c #313347",
"e.	c #111223",
"f.	c #101222",
"g.	c #111324",
"h.	c #101223",
"i.	c #171831",
"j.	c #14152C",
"k.	c #28293F",
"l.	c #0F1022",
"m.	c #0F1021",
"n.	c #0F1020",
"o.	c #0F0F20",
"p.	c #101122",
"q.	c #171830",
"r.	c #13152D",
"s.	c #1B1D33",
"t.	c #0D0F1F",
"u.	c #0C0E1E",
"v.	c #0C0E1D",
"w.	c #11132B",
"x.	c #13152C",
"y.	c #0D0F20",
"z.	c #0D0E1F",
"A.	c #0C0E1F",
"B.	c #13142D",
"C.	c #12142C",
"D.	c #12142B",
"  .                               .   ",
"+ @ # $ $ $ $ $ $ $ $ $ $ $ $ $ # @ + ",
"% & * = = = = = = = = = = = = = * & % ",
"- ; > , ' ) ! ~ ~ { ] ~ ! ^ ' , > ; - ",
"/ ( _ : < [ } | 1 2 2 3 4 [ < : _ ( / ",
"5 6 7 8 9 0 a b c c d e f g 9 8 7 h i ",
"j k l m n o p q q q q q r o n m l k j ",
"s t u v w x y w z A B B B B C D u E s ",
"F G H I I J I K K L K K I M I I H G F ",
"N O P Q R S T U V W X U Y Z R j P O N ",
"`  ...+.@.+.#.$.%.&.*.$.=.+.+.+... .` ",
"#.-.;.>.,.'.'.).!.~.{.).].^./.(.;.-.#.",
"+._.:.<.[.<.}.|.|.|.|.|.}.<.[.<.:._.1.",
"2.3.4.5.6.7.5.8.9.0.0.0.a.6.6.5.4.3.2.",
"b.c.d.e.f.f.f.e.g.g.g.e.h.f.h.g.d.c.b.",
"i.j.k.l.m.n.o.m.m.m.m.m.n.m.m.p.k.j.q.",
"r.}.s.t.u.u.u.v.v.u.v.v.u.u.u.t.s.w.r.",
"r.r.x.y.z.u.A.v.v.v.v.v.u.u.z.y.x.B.x.",
"r.r.C.y.y.z.A.u.u.u.u.u.A.A.t.y.D.r.r."};
