/* XPM */
static char * menuiconfcs_xpm[] = {
"21 21 143 2",
"  	c #FFFFFF",
". 	c #FEFEFE",
"+ 	c #FDFDFD",
"@ 	c #FCFCFC",
"# 	c #FBFBFB",
"$ 	c #F9F9F9",
"% 	c #F8F8F8",
"& 	c #F7F7F7",
"* 	c #FAFAFA",
"= 	c #F6F6F6",
"- 	c #F3F3F3",
"; 	c #F2F2F2",
"> 	c #F1F1F1",
", 	c #F0F0F0",
"' 	c #F4F4F4",
") 	c #C7C7C7",
"! 	c #A1A1A1",
"~ 	c #898989",
"{ 	c #818181",
"] 	c #808080",
"^ 	c #A0A0A0",
"/ 	c #E2E2E2",
"( 	c #A7A7A7",
"_ 	c #8E8E8E",
": 	c #5D5D5D",
"< 	c #333333",
"[ 	c #1B1B1B",
"} 	c #121212",
"| 	c #323232",
"1 	c #5B5B5B",
"2 	c #8D8D8D",
"3 	c #A5A5A5",
"4 	c #E7E7E7",
"5 	c #A8A8A8",
"6 	c #848484",
"7 	c #303030",
"8 	c #131313",
"9 	c #141414",
"0 	c #313131",
"a 	c #828282",
"b 	c #A6A6A6",
"c 	c #E6E6E6",
"d 	c #C0C0C0",
"e 	c #929292",
"f 	c #252525",
"g 	c #191919",
"h 	c #1A1A1A",
"i 	c #272727",
"j 	c #BEBEBE",
"k 	c #E4E4E4",
"l 	c #424242",
"m 	c #202020",
"n 	c #212121",
"o 	c #222222",
"p 	c #434343",
"q 	c #BDBDBD",
"r 	c #DCDCDC",
"s 	c #282828",
"t 	c #292929",
"u 	c #DBDBDB",
"v 	c #D9D9D9",
"w 	c #2E2E2E",
"x 	c #D2D2D2",
"y 	c #CFCFCF",
"z 	c #CCCCCC",
"A 	c #C8C8C8",
"B 	c #C5C5C5",
"C 	c #2F2F2F",
"D 	c #5E5E5E",
"E 	c #D5D5D5",
"F 	c #EFEFEF",
"G 	c #353535",
"H 	c #363636",
"I 	c #373737",
"J 	c #454545",
"K 	c #E0E0E0",
"L 	c #3E3E3E",
"M 	c #3C3C3C",
"N 	c #CBCBCB",
"O 	c #C2C2C2",
"P 	c #3D3D3D",
"Q 	c #404040",
"R 	c #EEEEEE",
"S 	c #E9E9E9",
"T 	c #EAEAEA",
"U 	c #515151",
"V 	c #444444",
"W 	c #545454",
"X 	c #EBEBEB",
"Y 	c #7C7C7C",
"Z 	c #4A4A4A",
"` 	c #C1C1C1",
" .	c #4B4B4B",
"..	c #4C4C4C",
"+.	c #7E7E7E",
"@.	c #E5E5E5",
"#.	c #BBBBBB",
"$.	c #505050",
"%.	c #525252",
"&.	c #535353",
"*.	c #BCBCBC",
"=.	c #EDEDED",
"-.	c #7B7B7B",
";.	c #585858",
">.	c #595959",
",.	c #7D7D7D",
"'.	c #DFDFE0",
").	c #E0E0E1",
"!.	c #E2E2E3",
"~.	c #DFDFDF",
"{.	c #6C6C6C",
"].	c #5F5F5F",
"^.	c #606060",
"/.	c #6D6D6D",
"(.	c #DDDDDD",
"_.	c #878787",
":.	c #666666",
"<.	c #676767",
"[.	c #888888",
"}.	c #D8D8D8",
"|.	c #DADADA",
"1.	c #969696",
"2.	c #797979",
"3.	c #6F6F6F",
"4.	c #D7D7D9",
"5.	c #D8D8DA",
"6.	c #D9D9DB",
"7.	c #DADADC",
"8.	c #DBDBDD",
"9.	c #E8E8E9",
"0.	c #CBCBCD",
"a.	c #CCCCCE",
"b.	c #CDCDCF",
"c.	c #CECED0",
"d.	c #CFCFD1",
"e.	c #D0D0D2",
"f.	c #D1D1D3",
"g.	c #D2D2D3",
"h.	c #9B9B9B",
"i.	c #9C9C9C",
"j.	c #9D9D9D",
"k.	c #9E9E9E",
"l.	c #9F9F9F",
"      . + @ # $ % & & & % $ * # + .       ",
"    + @ # % = - ; > , > ; - = % # @ +     ",
"  . + * & ' ) ! ~ { ] ] ~ ^ ) ' & * + .   ",
". + # & / ( _ : < [ } [ | 1 2 3 / & # + . ",
". @ $ 4 5 6 7 8 8 8 8 8 9 9 0 a b c $ @ . ",
"+ # % d e f g h h h h h h [ [ i e j % # + ",
"+ # k d l m m n n n n n n o o o p q / # + ",
"+ # r _ i i i i s s s s s s t t t 2 u # + ",
"- ; v : w w w w x y z A B C 7 7 7 D E > - ",
", F / p G G G G G H H H H H I I I J K F , ",
", , ; L M M M M y N A B O P P L L Q R , , ",
"S T $ U p p p p p p V V V V V J J W = S S ",
"S X # Y Z Z Z Z z A B ` j  . . ...+.# X S ",
"@.4 = #.$.U U U U U U %.%.%.%.%.&.*.= 4 @.",
"K / =.# -.;.;.;.;.;.;.>.>.>.>.>.,.# =./ K ",
"'.).!.= ~.{.].].].].].].^.^.^./.~.= !.).'.",
"(.(.~.c $ K _.:.:.:.:.:.<.<.[.K $ c ~.(.(.",
"}.v |.u / ' * B 1.2.3.2.1.B * ' / u |.v }.",
"4.4.5.6.7.8.9.; % * * * % ; 9.8.7.6.5.4.4.",
"0.0.a.a.b.c.d.e.f.f.g.f.f.e.d.c.b.a.a.0.0.",
"h.h.h.i.j.k.l.^ ^ ! ! ! ^ ^ l.k.j.i.h.h.h."};
