/* XPM */
static char * unshadepr_xpm[] = {
"21 21 150 2",
"  	c #FFFFFF",
". 	c #FEFEFE",
"+ 	c #FDFDFD",
"@ 	c #FCFCFC",
"# 	c #FBFBFB",
"$ 	c #F9F9F9",
"% 	c #F8F8F8",
"& 	c #F7F7F7",
"* 	c #FAFAFA",
"= 	c #F6F6F6",
"- 	c #F3F3F3",
"; 	c #F2F2F2",
"> 	c #F1F1F1",
", 	c #F0F0F0",
"' 	c #F4F4F4",
") 	c #C7C7C7",
"! 	c #A1A1A1",
"~ 	c #898989",
"{ 	c #818181",
"] 	c #808080",
"^ 	c #A0A0A0",
"/ 	c #E2E2E2",
"( 	c #A7A7A7",
"_ 	c #8E8E8E",
": 	c #5D5D5D",
"< 	c #333333",
"[ 	c #1B1B1B",
"} 	c #121212",
"| 	c #323232",
"1 	c #5B5B5B",
"2 	c #8D8D8D",
"3 	c #A5A5A5",
"4 	c #E7E7E7",
"5 	c #A8A8A8",
"6 	c #848484",
"7 	c #303030",
"8 	c #131313",
"9 	c #141414",
"0 	c #313131",
"a 	c #828282",
"b 	c #A6A6A6",
"c 	c #E6E6E6",
"d 	c #C0C0C0",
"e 	c #929292",
"f 	c #252525",
"g 	c #191919",
"h 	c #1A1A1A",
"i 	c #272727",
"j 	c #BEBEBE",
"k 	c #E4E4E4",
"l 	c #424242",
"m 	c #202020",
"n 	c #212121",
"o 	c #B4B4B4",
"p 	c #222222",
"q 	c #434343",
"r 	c #BDBDBD",
"s 	c #DCDCDC",
"t 	c #282828",
"u 	c #B2B2B2",
"v 	c #B6B6B6",
"w 	c #BBBBBB",
"x 	c #292929",
"y 	c #DBDBDB",
"z 	c #D9D9D9",
"A 	c #2E2E2E",
"B 	c #AFAFAF",
"C 	c #B9B9B9",
"D 	c #C3C3C3",
"E 	c #2F2F2F",
"F 	c #5E5E5E",
"G 	c #D5D5D5",
"H 	c #EFEFEF",
"I 	c #353535",
"J 	c #363636",
"K 	c #373737",
"L 	c #454545",
"M 	c #E0E0E0",
"N 	c #3E3E3E",
"O 	c #3C3C3C",
"P 	c #3D3D3D",
"Q 	c #404040",
"R 	c #EEEEEE",
"S 	c #E9E9E9",
"T 	c #EAEAEA",
"U 	c #515151",
"V 	c #444444",
"W 	c #545454",
"X 	c #EBEBEB",
"Y 	c #7C7C7C",
"Z 	c #4A4A4A",
"` 	c #2C8EAA",
" .	c #2E92AF",
"..	c #2F95B3",
"+.	c #309AB8",
"@.	c #319EBC",
"#.	c #4B4B4B",
"$.	c #4C4C4C",
"%.	c #7E7E7E",
"&.	c #E5E5E5",
"*.	c #505050",
"=.	c #2E93B0",
"-.	c #3098B6",
";.	c #319CBA",
">.	c #525252",
",.	c #535353",
"'.	c #BCBCBC",
").	c #EDEDED",
"!.	c #7B7B7B",
"~.	c #585858",
"{.	c #595959",
"].	c #7D7D7D",
"^.	c #DFDFE0",
"/.	c #E0E0E1",
"(.	c #E2E2E3",
"_.	c #DFDFDF",
":.	c #6C6C6C",
"<.	c #5F5F5F",
"[.	c #606060",
"}.	c #6D6D6D",
"|.	c #DDDDDD",
"1.	c #878787",
"2.	c #666666",
"3.	c #676767",
"4.	c #888888",
"5.	c #D8D8D8",
"6.	c #DADADA",
"7.	c #C5C5C5",
"8.	c #969696",
"9.	c #797979",
"0.	c #6F6F6F",
"a.	c #D7D7D9",
"b.	c #D8D8DA",
"c.	c #D9D9DB",
"d.	c #DADADC",
"e.	c #DBDBDD",
"f.	c #E8E8E9",
"g.	c #CBCBCD",
"h.	c #CCCCCE",
"i.	c #CDCDCF",
"j.	c #CECED0",
"k.	c #CFCFD1",
"l.	c #D0D0D2",
"m.	c #D1D1D3",
"n.	c #D2D2D3",
"o.	c #9B9B9B",
"p.	c #9C9C9C",
"q.	c #9D9D9D",
"r.	c #9E9E9E",
"s.	c #9F9F9F",
"      . + @ # $ % & & & % $ * # + .       ",
"    + @ # % = - ; > , > ; - = % # @ +     ",
"  . + * & ' ) ! ~ { ] ] ~ ^ ) ' & * + .   ",
". + # & / ( _ : < [ } [ | 1 2 3 / & # + . ",
". @ $ 4 5 6 7 8 8 8 8 8 9 9 0 a b c $ @ . ",
"+ # % d e f g h h h h h h [ [ i e j % # + ",
"+ # k d l m m n n n o n n p p p q r / # + ",
"+ # s _ i i i i t u v w t t x x x 2 y # + ",
"- ; z : A A A A B o C j D E 7 7 7 F G > - ",
", H / q I I I I I J J J J J K K K L M H , ",
", , ; N O O O O O P P P P P P N N Q R , , ",
"S T $ U q q q q q q V V V V V L L W = S S ",
"S X # Y Z Z Z Z `  ...+.@.#.#.#.$.%.# X S ",
"&.4 = w *.U U U U =.-.;.>.>.>.>.,.'.= 4 &.",
"M / ).# !.~.~.~.~.~.+.{.{.{.{.{.].# )./ M ",
"^./.(.= _.:.<.<.<.<.<.<.[.[.[.}._.= (./.^.",
"|.|._.c $ M 1.2.2.2.2.2.3.3.4.M $ c _.|.|.",
"5.z 6.y / ' * 7.8.9.0.9.8.7.* ' / y 6.z 5.",
"a.a.b.c.d.e.f.; % * * * % ; f.e.d.c.b.a.a.",
"g.g.h.h.i.j.k.l.m.m.n.m.m.l.k.j.i.h.h.g.g.",
"o.o.o.p.q.r.s.^ ^ ! ! ! ^ ^ s.r.q.p.o.o.o."};
