/* XPM */
static char * tbarfcs_xpm[] = {
"19 19 92 2",
"  	c #848895",
". 	c #565B69",
"+ 	c #575C67",
"@ 	c #565B67",
"# 	c #575B67",
"$ 	c #575B69",
"% 	c #565C69",
"& 	c #525865",
"* 	c #545865",
"= 	c #545864",
"- 	c #525864",
"; 	c #505461",
"> 	c #505460",
", 	c #505560",
"' 	c #4F5460",
") 	c #4C505C",
"! 	c #4B525C",
"~ 	c #4B505C",
"{ 	c #4C505B",
"] 	c #4C525B",
"^ 	c #4C525C",
"/ 	c #494D59",
"( 	c #494E59",
"_ 	c #494D57",
": 	c #454A54",
"< 	c #454954",
"[ 	c #464A54",
"} 	c #464954",
"| 	c #454A55",
"1 	c #454955",
"2 	c #424750",
"3 	c #434650",
"4 	c #424650",
"5 	c #3F424B",
"6 	c #3E424C",
"7 	c #3F434C",
"8 	c #3F434B",
"9 	c #3F424C",
"0 	c #3C3E47",
"a 	c #3C4047",
"b 	c #3C3E48",
"c 	c #3A4048",
"d 	c #3C4048",
"e 	c #3A3E47",
"f 	c #383B45",
"g 	c #383B44",
"h 	c #383C45",
"i 	c #383C44",
"j 	c #393B45",
"k 	c #393B44",
"l 	c #393C45",
"m 	c #393C44",
"n 	c #343840",
"o 	c #343740",
"p 	c #363840",
"q 	c #363740",
"r 	c #34383F",
"s 	c #32353C",
"t 	c #31333B",
"u 	c #31353C",
"v 	c #31353B",
"w 	c #32353B",
"x 	c #31333C",
"y 	c #2E3037",
"z 	c #2D3137",
"A 	c #2E3138",
"B 	c #2E3137",
"C 	c #2D3038",
"D 	c #2D3037",
"E 	c #2D3138",
"F 	c #2B2C33",
"G 	c #2B2D33",
"H 	c #2A2C33",
"I 	c #272A30",
"J 	c #272930",
"K 	c #282930",
"L 	c #282A30",
"M 	c #272A2E",
"N 	c #27292E",
"O 	c #282A2E",
"P 	c #24262B",
"Q 	c #24262C",
"R 	c #25262B",
"S 	c #25262C",
"T 	c #202327",
"U 	c #212327",
"V 	c #202127",
"W 	c #212127",
"X 	c #1E1F23",
"Y 	c #1C1F23",
"Z 	c #1E1F22",
"` 	c #1E1E23",
"                                      ",
". . . + @ @ . . . # @ @ $ . . . # . % ",
"& * = - - * & - = * - * = & & & * * * ",
"; > , > ' ' > > ' , > > ; > > > ' > ' ",
") ! ~ ~ ) ) { ) ) ) ~ ] ) ) ~ ^ ) ) ) ",
"/ ( / _ _ / / _ ( _ / / / / / ( _ / / ",
": : < [ } < [ | [ 1 | < : 1 < < < } 1 ",
"2 3 3 4 3 3 2 4 3 3 4 3 4 2 2 4 3 2 4 ",
"5 6 7 6 8 9 5 5 9 5 5 9 9 7 9 9 6 9 9 ",
"0 a b a a a c a a d 0 e d d a a d a 0 ",
"f f g g h g i i j g g k i i g g i l m ",
"n o o o p q o p o o n n n p o n n r p ",
"s s t u v w x v w v s x s s w v s t u ",
"y z y A z y B y C B B D B A B E B A B ",
"F G F F G G G G F F G H F G G G G G F ",
"I I J I K I L M I I J I I I M I N O N ",
"P P Q R R Q R P Q P Q P Q P S Q R S P ",
"T T U U U T T U U U V U U U W T U U U ",
"X Y X X Y X X X Y X X Y Z X ` X X Y X "};
