/* XPM */
static char * unshadepr_xpm[] = {
"19 19 91 1",
" 	c #848895",
".	c #565B69",
"+	c #575C67",
"@	c #565B67",
"#	c #575B67",
"$	c #575B69",
"%	c #565C69",
"&	c #525865",
"*	c #545865",
"=	c #545864",
"-	c #525864",
";	c #505461",
">	c #505460",
",	c #505560",
"'	c #4F5460",
")	c #4C505C",
"!	c #4B525C",
"~	c #4B505C",
"{	c #4C505B",
"]	c #4C525B",
"^	c #4C525C",
"/	c #494D59",
"(	c #494E59",
"_	c #494D57",
":	c #454A54",
"<	c #454954",
"[	c #464A54",
"}	c #464954",
"|	c #454A55",
"1	c #454955",
"2	c #424750",
"3	c #434650",
"4	c #424650",
"5	c #D4D3CE",
"6	c #3F424B",
"7	c #3E424C",
"8	c #3F434C",
"9	c #3F434B",
"0	c #3F424C",
"a	c #3C3E47",
"b	c #3C4047",
"c	c #3C3E48",
"d	c #3A4048",
"e	c #3C4048",
"f	c #3A3E47",
"g	c #383B45",
"h	c #383B44",
"i	c #383C45",
"j	c #383C44",
"k	c #393C45",
"l	c #393C44",
"m	c #343840",
"n	c #343740",
"o	c #363840",
"p	c #363740",
"q	c #34383F",
"r	c #32353C",
"s	c #31333B",
"t	c #31353C",
"u	c #31353B",
"v	c #32353B",
"w	c #31333C",
"x	c #2E3037",
"y	c #2D3137",
"z	c #2E3138",
"A	c #2E3137",
"B	c #2D3038",
"C	c #2D3037",
"D	c #2D3138",
"E	c #2B2C33",
"F	c #2B2D33",
"G	c #2A2C33",
"H	c #272A30",
"I	c #272930",
"J	c #282930",
"K	c #282A30",
"L	c #272A2E",
"M	c #27292E",
"N	c #282A2E",
"O	c #24262B",
"P	c #24262C",
"Q	c #25262B",
"R	c #25262C",
"S	c #202327",
"T	c #212327",
"U	c #202127",
"V	c #212127",
"W	c #1E1F23",
"X	c #1C1F23",
"Y	c #1E1F22",
"Z	c #1E1E23",
"                   ",
"...+@@...#@@$...#.%",
"&*=--*&-=*-*=&&&***",
";>,>''>>',>>;>>>'>'",
")!~~)){)))~]))~^)))",
"/(/__//_(_/////(_//",
"::<[}<[|[1|<:1<<<}1",
"2334332435534224324",
"6787906655550800700",
"abcbbbdbbeafeebbeba",
"gghhihjj5555jjhhjkl",
"mnnnopnon55mmonmmqo",
"rrstuvwuvurwrrvurst",
"xyxzyxAxBAACAzADAzA",
"EFEEFFFFEEFGEFFFFFE",
"HHIHJHKLHHIHHHLHMNM",
"OOPQQPQOPOPOPORPQRO",
"SSTTTSSTTTUTTTVSTTT",
"WXWWXWWWXWWXYWZWWXW"};
