/* XPM */
static char * minufcs_xpm[] = {
"14 14 28 1",
" 	c #4F5969",
".	c #4B5464",
"+	c #495262",
"@	c #485060",
"#	c #454E5D",
"$	c #444C5C",
"%	c #424A59",
"&	c #303744",
"*	c #313846",
"=	c #323947",
"-	c #353C4A",
";	c #343B49",
">	c #999DA4",
",	c #9A9DA4",
"'	c #9A9EA5",
")	c #363D4B",
"!	c #39404F",
"~	c #383F4E",
"{	c #9B9FA6",
"]	c #8A8C91",
"^	c #151923",
"/	c #3B4351",
"(	c #3C4352",
"_	c #171C25",
":	c #3C4453",
"<	c #3F4756",
"[	c #3E4655",
"}	c #414958",
"              ",
"..............",
"++++++++++++++",
"@@@@@@@@@@@@@@",
"##############",
"$$$$$$$$$$$$$$",
"%%%%%%%%%%%%%%",
"&&&&&&&&&&&&&&",
"*==**=========",
"-;->,,,'',')))",
"!~!{]]]]]]]^!!",
"/(((________(:",
"<[<<[[<<<<<<<<",
"}}}}}}}}}}}}}}"};
