/* XPM */
static char * unshadeufcs_xpm[] = {
"14 14 23 1",
" 	c #4F5969",
".	c #4B5464",
"+	c #495262",
"@	c #485060",
"#	c #454E5D",
"$	c #444C5C",
"%	c #424A59",
"&	c #303744",
"*	c #969A9D",
"=	c #313846",
"-	c #323947",
";	c #121621",
">	c #353C4A",
",	c #343B49",
"'	c #363D4B",
")	c #39404F",
"!	c #383F4E",
"~	c #3B4351",
"{	c #3C4352",
"]	c #3C4453",
"^	c #3F4756",
"/	c #3E4655",
"(	c #414958",
"              ",
"..............",
"++++++++++++++",
"@@@@@@@@@@@@@@",
"##############",
"$$$$$$$$$$$$$$",
"%%%%%%%%%%%%%%",
"&&&&&****&&&&&",
"=--==-;;;;----",
">,>,>>>''>''''",
")!)!!!)))!)!))",
"~{{{{{{{{{{{{]",
"^/^^//^^^^^^^^",
"(((((((((((((("};
