/* XPM */
static char * closepr_xpm[] = {
"17 17 16 1",
" 	c #616161",
".	c #2A2A2A",
"+	c #888888",
"@	c #464646",
"#	c #6E6E6E",
"$	c #6C6C6C",
"%	c #3E3E3E",
"&	c #6A6A6A",
"*	c #434343",
"=	c #3D3D3D",
"-	c #676767",
";	c #393939",
">	c #696969",
",	c #5B5B5B",
"'	c #525252",
")	c #515151",
"               .+",
"@@@@@@@@@@@@@@@.#",
"@@@@@@@@@@@@@@@.#",
"@@@@@@@@@@@@@@@.#",
"@@@@@@@@@@@@@@@.#",
"@@@@@@@@@@@@@@@.#",
"@@@@@@@@@@@@@@@.#",
"@@@@@@@@@@@@@@@.#",
"@@@@@@@@@@@@@@@.$",
"@@@@@@@@@@@@@@@%&",
"@@@@@@@@@@@@@@*=-",
"@@@@@@@@@@@@@*;>,",
".............=> '",
"###########$&-,')",
")))))))))))))))))",
")))))))))))))))))",
")))))))))))))))))"};
