/* XPM */
static char * closeufcs_xpm[] = {
"21 21 142 2",
"  	c #F7F7F7",
". 	c #F3F3F3",
"+ 	c #F0F0F0",
"@ 	c #ACACAC",
"# 	c #A2A2A2",
"$ 	c #A5A5A5",
"% 	c #ABABAB",
"& 	c #A3A3A3",
"* 	c #A7A7A7",
"= 	c #A4A4A4",
"- 	c #A0A0A0",
"; 	c #D5D5D5",
"> 	c #737373",
", 	c #6D6D6D",
"' 	c #6F6F6F",
") 	c #747474",
"! 	c #727272",
"~ 	c #707070",
"{ 	c #6B6B6B",
"] 	c #DEDEDE",
"^ 	c #E2E2E2",
"/ 	c #EDEDED",
"( 	c #C7C7C7",
"_ 	c #C3C3C3",
": 	c #CACACA",
"< 	c #C6C6C6",
"[ 	c #C4C4C4",
"} 	c #D0D0D0",
"| 	c #DFDFDF",
"1 	c #6C6C6C",
"2 	c #969696",
"3 	c #9A9A9A",
"4 	c #9C9C9C",
"5 	c #A1A1A1",
"6 	c #B0B0B0",
"7 	c #BABABA",
"8 	c #C0C0C0",
"9 	c #838383",
"0 	c #D9D9D9",
"a 	c #9F9F9F",
"b 	c #989898",
"c 	c #A8A8A8",
"d 	c #AFAFAF",
"e 	c #B6B6B6",
"f 	c #BEBEBE",
"g 	c #848484",
"h 	c #6A6A6A",
"i 	c #DCDCDC",
"j 	c #D6D6D6",
"k 	c #C5C5C5",
"l 	c #9B9B9B",
"m 	c #606062",
"n 	c #616163",
"o 	c #626264",
"p 	c #646466",
"q 	c #656567",
"r 	c #CBCBCB",
"s 	c #696969",
"t 	c #DDDDDD",
"u 	c #D4D4D4",
"v 	c #9E9E9E",
"w 	c #B1B1B1",
"x 	c #B7B7B7",
"y 	c #676768",
"z 	c #CECECE",
"A 	c #D2D2D2",
"B 	c #818181",
"C 	c #9F9FA1",
"D 	c #69696B",
"E 	c #C4C4C5",
"F 	c #A2A2A4",
"G 	c #ABABAD",
"H 	c #B8B8B8",
"I 	c #BDBDBD",
"J 	c #686869",
"K 	c #D3D3D3",
"L 	c #DADADA",
"M 	c #808080",
"N 	c #A8A8AA",
"O 	c #B1B1B4",
"P 	c #636366",
"Q 	c #CCCCCC",
"R 	c #7E7E7E",
"S 	c #9E9DA1",
"T 	c #6A696D",
"U 	c #C5C5CA",
"V 	c #AEADB1",
"W 	c #BAB9BD",
"X 	c #68686A",
"Y 	c #6B6B6C",
"Z 	c #E0E0E0",
"` 	c #E7E7E7",
" .	c #69696D",
"..	c #C6C4CA",
"+.	c #B1B0B5",
"@.	c #C0BEC4",
"#.	c #CACACC",
"$.	c #D8D8D8",
"%.	c #E5E5E5",
"&.	c #EAEAEA",
"*.	c #DBDBDB",
"=.	c #A1A1A2",
"-.	c #636364",
";.	c #C5C5C7",
">.	c #BABABC",
",.	c #C0C0C2",
"'.	c #CECECF",
").	c #D2D2D4",
"!.	c #D6D6D8",
"~.	c #DDDDDE",
"{.	c #E3E3E4",
"].	c #E9E9EA",
"^.	c #7C7C7C",
"/.	c #5F5F61",
"(.	c #DEDEE0",
"_.	c #C8C8C8",
":.	c #A0A0A1",
"<.	c #6A6A6C",
"[.	c #ACACAE",
"}.	c #848485",
"|.	c #7E7E80",
"1.	c #7F7F81",
"2.	c #808082",
"3.	c #88888B",
"4.	c #6C6C6D",
"5.	c #DADADC",
"6.	c #9C9C9D",
"7.	c #6C6C6E",
"8.	c #666668",
"9.	c #DBDBDC",
"0.	c #A9A9A9",
"a.	c #DEDEDF",
"b.	c #D7D7D9",
"c.	c #D9D9DA",
"d.	c #D5D5D7",
"e.	c #D7D7D8",
"f.	c #D9D9DB",
"g.	c #D8D8D9",
"h.	c #DBDBDD",
"i.	c #D4D4D5",
"j.	c #B2B2B2",
"k.	c #949494",
"                                          ",
". . . . . . . . . . . . . . . . . . . . . ",
"+ + + + + + + + + + + + + + + + + + + + + ",
". . . . @ # $ % & * & = - = * # & * ; . . ",
"+ + + + - > , ' ) ' ! ~ ~ > , , ) { ] + + ",
"^ ^ ^ ^ & { / ( _ : ( ( ( < [ } * ' ^ ^ ^ ",
"| | | | - 1 ( 2 3 4 5 = % 6 7 8 9 1 ] | | ",
"0 0 0 0 a { < b 4 a $ c d e f [ g h i 0 0 ",
"j j j j a h k l 5 m n o p q ( r 9 s t j j ",
"u u u u a h k v $ n w x f y z A B s t u u ",
"u u u u C D E F G o H I k J K L M s t u u ",
"u u u u C D E N O P f k Q D L | R s ] u u ",
"u u u u S T U V W q y X D Y Z ` R s ] u u ",
"A A A A S  ...+.@.[ #.A $.] %.&.R s *.A A ",
"Q Q Q Q =.-.;.>.,.'.).!.~.{.].~.^./.(.Q Q ",
"_._._._.:.<.[.}.^.|.1.|.2.1.}.3.~ 4.5._._.",
"[ [ [ [ 6.m o J 7.q y q y p n X 7.8.9.[ [ ",
"f f f f 0.a.b.c.d.e.f.g.5.h.e.e.c.g.i.f f ",
"j.j.j.j.j.j.j.j.j.j.j.j.j.j.j.j.j.j.j.j.j.",
"= = = = = = = = = = = = = = = = = = = = = ",
"k.k.k.k.k.k.k.k.k.k.k.k.k.k.k.k.k.k.k.k.k."};
