/* XPM */
static char * maxpr_xpm[] = {
"21 21 132 2",
"  	c #F7F7F7",
". 	c #F3F3F3",
"+ 	c #F0F0F0",
"@ 	c #ACACAC",
"# 	c #A2A2A2",
"$ 	c #A5A5A5",
"% 	c #ABABAB",
"& 	c #A3A3A3",
"* 	c #A7A7A7",
"= 	c #A4A4A4",
"- 	c #A0A0A0",
"; 	c #CECECE",
"> 	c #D5D5D5",
", 	c #8C8C8C",
"' 	c #8E8E8E",
") 	c #929292",
"! 	c #9A9A9A",
"~ 	c #909090",
"{ 	c #949494",
"] 	c #8F8F8F",
"^ 	c #919191",
"/ 	c #959595",
"( 	c #99999B",
"_ 	c #D9D9D9",
": 	c #DEDEDE",
"< 	c #E2E2E2",
"[ 	c #C1C1C1",
"} 	c #BBBBBB",
"| 	c #C4C4C4",
"1 	c #979798",
"2 	c #969697",
"3 	c #969696",
"4 	c #949495",
"5 	c #9D9D9E",
"6 	c #6C6C6F",
"7 	c #DFDFDF",
"8 	c #848484",
"9 	c #898989",
"0 	c #7C7C7D",
"a 	c #9E9E9E",
"b 	c #B1B1B1",
"c 	c #B8B8B8",
"d 	c #6D6D6D",
"e 	c #9F9F9F",
"f 	c #888888",
"g 	c #8D8D8D",
"h 	c #989898",
"i 	c #808080",
"j 	c #ADADAD",
"k 	c #BFBFBF",
"l 	c #6F6F6F",
"m 	c #DDDDDD",
"n 	c #DCDCDC",
"o 	c #D6D6D6",
"p 	c #858586",
"q 	c #C3C3C3",
"r 	c #C8C8C8",
"s 	c #D4D4D4",
"t 	c #A8A8A8",
"u 	c #8C8C8D",
"v 	c #929293",
"w 	c #9E9E9F",
"x 	c #626264",
"y 	c #9F9FA1",
"z 	c #929294",
"A 	c #C0C0C1",
"B 	c #969698",
"C 	c #A1A1A4",
"D 	c #A5A5A6",
"E 	c #D3D3D3",
"F 	c #DBDBDB",
"G 	c #6C6C6C",
"H 	c #9D9DA0",
"I 	c #A9A9AC",
"J 	c #AEAEB1",
"K 	c #B9B9B9",
"L 	c #CACACA",
"M 	c #D2D2D2",
"N 	c #696969",
"O 	c #E1E1E1",
"P 	c #9E9DA1",
"Q 	c #919095",
"R 	c #C1C1C7",
"S 	c #A5A4A9",
"T 	c #B4B3B8",
"U 	c #B8B8BB",
"V 	c #CBCBCB",
"W 	c #DADADA",
"X 	c #E3E3E3",
"Y 	c #ECECEC",
"Z 	c #C3C1C8",
"` 	c #A9A8AE",
" .	c #BBB9C0",
"..	c #C8C8CB",
"+.	c #EAEAEA",
"@.	c #CCCCCC",
"#.	c #A1A1A2",
"$.	c #C3C3C6",
"%.	c #B5B5B8",
"&.	c #BDBDC0",
"*.	c #CECED0",
"=.	c #D3D3D6",
"-.	c #D9D9DB",
";.	c #E1E1E3",
">.	c #E8E8EA",
",.	c #F0F0F1",
"'.	c #E3E3E5",
").	c #DEDEE0",
"!.	c #A0A0A1",
"~.	c #A5A5A8",
"{.	c #737375",
"].	c #6D6D70",
"^.	c #6F6F71",
"/.	c #79797C",
"(.	c #5A5A5B",
"_.	c #DFDFE1",
":.	c #DADADC",
"<.	c #DDDDDF",
"[.	c #E6E6E7",
"}.	c #DBDBDD",
"|.	c #DDDDDE",
"1.	c #E0E0E2",
"2.	c #E2E2E4",
"3.	c #BEBEBE",
"4.	c #DEDEDF",
"5.	c #D7D7D9",
"6.	c #D9D9DA",
"7.	c #D5D5D7",
"8.	c #D7D7D8",
"9.	c #D8D8D9",
"0.	c #D4D4D5",
"a.	c #B2B2B2",
"                                          ",
". . . . . . . . . . . . . . . . . . . . . ",
"+ + + + + + + + + + + + + + + + + + + + + ",
". . . . . @ # $ % & * & = - = * # & ; > . ",
"+ + + + + - , ' ) ! ~ { ] ^ , ^ / ( _ : + ",
"< < < < < & { + [ } | [ 1 2 3 4 5 6 < < < ",
"7 7 7 7 7 - ^ [ 8 9 , ) 0 a $ b c d : : 7 ",
"_ _ _ _ _ e ^ [ f g ^ h i $ j c k l m n _ ",
"o o o o o e ^ [ , { h - p b c q r l 7 m o ",
"s s s s s e ) [ ^ ! a t u v 1 w # x 7 m s ",
"s s s s s y z A B C D b c [ r E F G 7 m s ",
"s s s s s y z A H I J K [ L M F < N O : s ",
"s s s s s P Q R S T U [ V M W X Y N O : s ",
"M M M M M P Q Z `  .A ..M _ O +.+ N m F M ",
"@.@.@.@.@.#.B $.%.&.*.=.-.;.>.,.;.6 '.).@.",
"r r r r r !.B ~.{.6 6 ].6 ^.].{./.(._.:.r ",
"| | | | | <.[.<._.}.|.1.).;.2.|.|._.1.-.| ",
"3.3.3.3.3.<.4.5.6.7.8.-.9.:.}.8.8.6.-.0.3.",
"a.a.a.a.a.a.a.a.a.a.a.a.a.a.a.a.a.a.a.a.a.",
"= = = = = = = = = = = = = = = = = = = = = ",
"{ { { { { { { { { { { { { { { { { { { { { "};
