/* XPM */
static char * minfcs_xpm[] = {
"21 21 160 2",
"  	c #F7F7F7",
". 	c #D6D6E3",
"+ 	c #F3F3F3",
"@ 	c #6B6B85",
"# 	c #F0F0F0",
"$ 	c #484857",
"% 	c #ACACAC",
"& 	c #A2A2A2",
"* 	c #A5A5A5",
"= 	c #ABABAB",
"- 	c #A3A3A3",
"; 	c #A7A7A7",
"> 	c #A4A4A4",
", 	c #A0A0A0",
"' 	c #D5D5D5",
") 	c #414150",
"! 	c #737373",
"~ 	c #6D6D6D",
"{ 	c #6F6F6F",
"] 	c #747474",
"^ 	c #727272",
"/ 	c #707070",
"( 	c #6B6B6B",
"_ 	c #DEDEDE",
": 	c #444453",
"< 	c #E2E2E2",
"[ 	c #EDEDED",
"} 	c #C7C7C7",
"| 	c #C3C3C3",
"1 	c #CACACA",
"2 	c #C6C6C6",
"3 	c #C4C4C4",
"4 	c #D0D0D0",
"5 	c #474757",
"6 	c #DFDFDF",
"7 	c #6C6C6C",
"8 	c #969696",
"9 	c #9A9A9A",
"0 	c #9C9C9C",
"a 	c #A1A1A1",
"b 	c #B0B0B0",
"c 	c #BABABA",
"d 	c #C0C0C0",
"e 	c #838383",
"f 	c #4A4A5B",
"g 	c #D9D9D9",
"h 	c #9F9F9F",
"i 	c #989898",
"j 	c #A8A8A8",
"k 	c #AFAFAF",
"l 	c #B6B6B6",
"m 	c #BEBEBE",
"n 	c #848484",
"o 	c #6A6A6A",
"p 	c #DCDCDC",
"q 	c #4D4D60",
"r 	c #D6D6D6",
"s 	c #C5C5C5",
"t 	c #9B9B9B",
"u 	c #B8B8B8",
"v 	c #CBCBCB",
"w 	c #696969",
"x 	c #DDDDDD",
"y 	c #4D4D5F",
"z 	c #D4D4D4",
"A 	c #9E9E9E",
"B 	c #A9A9A9",
"C 	c #B1B1B1",
"D 	c #B7B7B7",
"E 	c #CECECE",
"F 	c #D2D2D2",
"G 	c #818181",
"H 	c #505064",
"I 	c #9F9FA1",
"J 	c #69696B",
"K 	c #C4C4C5",
"L 	c #A2A2A4",
"M 	c #ABABAD",
"N 	c #AEAEAF",
"O 	c #BDBDBD",
"P 	c #D3D3D3",
"Q 	c #DADADA",
"R 	c #808080",
"S 	c #545468",
"T 	c #666668",
"U 	c #616163",
"V 	c #636365",
"W 	c #636366",
"X 	c #656567",
"Y 	c #CCCCCC",
"Z 	c #7E7E7E",
"` 	c #57576C",
" .	c #9E9DA1",
"..	c #6A696D",
"+.	c #C5C5CA",
"@.	c #AEADB1",
"#.	c #BAB9BD",
"$.	c #BDBDC0",
"%.	c #676768",
"&.	c #CDCDCD",
"*.	c #E0E0E0",
"=.	c #E7E7E7",
"-.	c #5A5A71",
";.	c #69696D",
">.	c #C6C4CA",
",.	c #B1B0B5",
"'.	c #C0BEC4",
").	c #68686A",
"!.	c #D8D8D8",
"~.	c #E5E5E5",
"{.	c #EAEAEA",
"].	c #DBDBDB",
"^.	c #5D5D74",
"/.	c #A1A1A2",
"(.	c #636364",
"_.	c #C5C5C7",
":.	c #BABABC",
"<.	c #C0C0C2",
"[.	c #CECECF",
"}.	c #D6D6D8",
"|.	c #DDDDDE",
"1.	c #E3E3E4",
"2.	c #E9E9EA",
"3.	c #7C7C7C",
"4.	c #5F5F61",
"5.	c #DEDEE0",
"6.	c #606079",
"7.	c #C8C8C8",
"8.	c #A0A0A1",
"9.	c #6A6A6C",
"0.	c #ACACAE",
"a.	c #848485",
"b.	c #7E7E80",
"c.	c #59595B",
"d.	c #808082",
"e.	c #7F7F81",
"f.	c #88888B",
"g.	c #6C6C6D",
"h.	c #DADADC",
"i.	c #5C5C74",
"j.	c #9C9C9D",
"k.	c #606062",
"l.	c #626264",
"m.	c #686869",
"n.	c #6C6C6E",
"o.	c #646466",
"p.	c #DBDBDC",
"q.	c #4B4B5D",
"r.	c #DEDEDF",
"s.	c #D7D7D9",
"t.	c #D9D9DA",
"u.	c #D5D5D7",
"v.	c #D7D7D8",
"w.	c #D9D9DB",
"x.	c #D8D8D9",
"y.	c #DBDBDD",
"z.	c #D4D4D5",
"A.	c #98989F",
"B.	c #B2B2B2",
"C.	c #949494",
"                                          ",
". + + + + + + + + + + + + + + + + + + + + ",
"@ # # # # # # # # # # # # # # # # # # # # ",
"$ + + + + % & * = - ; - > , > ; & - ; ' + ",
") # # # # , ! ~ { ] { ^ / / ! ~ ~ ] ( _ # ",
": < < < < - ( [ } | 1 } } } 2 3 4 ; { < < ",
"5 6 6 6 6 , 7 } 8 9 0 a > = b c d e 7 _ 6 ",
"f g g g g h ( 2 i 0 h * j k l m 3 n o p g ",
"q r r r r h o s t a > = k u m } v e w x r ",
"y z z z z h o s A * B C D m s E F G w x z ",
"H z z z z I J K L M N u O s 1 P Q R w x z ",
"S z z z z I J T U V W X s Y F Q 6 Z w _ z ",
"` z z z z  ...+.@.#.$.%.&.F g *.=.Z w _ z ",
"-.F F F F  .;.>.,.'.3 ).F !._ ~.{.Z w ].F ",
"^.Y Y Y Y /.(._.:.<.[.J }.|.1.2.|.3.4.5.Y ",
"6.7.7.7.7.8.9.0.a.3.b.c.b.d.e.a.f./ g.h.7.",
"i.3 3 3 3 j.k.l.m.n.X %.X %.o.U ).n.T p.3 ",
"q.m m m m B r.s.t.u.v.w.x.h.y.v.v.t.x.z.m ",
"A.B.B.B.B.B.B.B.B.B.B.B.B.B.B.B.B.B.B.B.B.",
"> > > > > > > > > > > > > > > > > > > > > ",
"C.C.C.C.C.C.C.C.C.C.C.C.C.C.C.C.C.C.C.C.C."};
