/* XPM */
static char * stuckufcs_xpm[] = {
"21 21 141 2",
"  	c #F7F7F7",
". 	c #F3F3F3",
"+ 	c #F0F0F0",
"@ 	c #ACACAC",
"# 	c #A2A2A2",
"$ 	c #A5A5A5",
"% 	c #ABABAB",
"& 	c #A3A3A3",
"* 	c #A7A7A7",
"= 	c #A4A4A4",
"- 	c #A0A0A0",
"; 	c #CECECE",
"> 	c #D5D5D5",
", 	c #8C8C8C",
"' 	c #8E8E8E",
") 	c #929292",
"! 	c #9A9A9A",
"~ 	c #909090",
"{ 	c #949494",
"] 	c #8F8F8F",
"^ 	c #919191",
"/ 	c #959595",
"( 	c #6C6C6F",
"_ 	c #D9D9D9",
": 	c #DEDEDE",
"< 	c #E2E2E2",
"[ 	c #C1C1C1",
"} 	c #BBBBBB",
"| 	c #C4C4C4",
"1 	c #C0C0C0",
"2 	c #BFBFBF",
"3 	c #BDBDBD",
"4 	c #CBCBCB",
"5 	c #DFDFDF",
"6 	c #6F67AE",
"7 	c #756CB3",
"8 	c #786FB6",
"9 	c #7E75BB",
"0 	c #827ABF",
"a 	c #8A82C6",
"b 	c #928ACC",
"c 	c #A098D5",
"d 	c #B8B8B8",
"e 	c #6D6D6D",
"f 	c #9F9F9F",
"g 	c #736BB2",
"h 	c #7970B7",
"i 	c #7D75BB",
"j 	c #847CC1",
"k 	c #8880C4",
"l 	c #9B93D2",
"m 	c #A7A0DA",
"n 	c #6F6F6F",
"o 	c #DDDDDD",
"p 	c #DCDCDC",
"q 	c #D6D6D6",
"r 	c #8078BD",
"s 	c #8D84C8",
"t 	c #B4AEE2",
"u 	c #C8C8C8",
"v 	c #D4D4D4",
"w 	c #867EC2",
"x 	c #968ECE",
"y 	c #9E97D4",
"z 	c #A8A2DA",
"A 	c #B2ACE0",
"B 	c #BEBAE7",
"C 	c #D2D2D2",
"D 	c #9F9FA1",
"E 	c #929294",
"F 	c #C0C0C1",
"G 	c #827AC1",
"H 	c #8D86CB",
"I 	c #BAB4E4",
"J 	c #C7C2EB",
"K 	c #DBDBDB",
"L 	c #6C6C6C",
"M 	c #8981C8",
"N 	c #968FD1",
"O 	c #9C95D5",
"P 	c #BDB7E6",
"Q 	c #C6C1EB",
"R 	c #D1CCF0",
"S 	c #696969",
"T 	c #E1E1E1",
"U 	c #9E9DA1",
"V 	c #919095",
"W 	c #C1C1C7",
"X 	c #9289CF",
"Y 	c #A39ADA",
"Z 	c #A7A0DC",
"` 	c #BDB8E6",
" .	c #D0CBEF",
"..	c #DBD7F4",
"+.	c #ECECEC",
"@.	c #C3C1C8",
"#.	c #968ED3",
"$.	c #ABA2E0",
"%.	c #B0AAE0",
"&.	c #BAB4E6",
"*.	c #CFCBEE",
"=.	c #D8D5F3",
"-.	c #E4E1F7",
";.	c #CCCCCC",
">.	c #A1A1A2",
",.	c #969698",
"'.	c #C3C3C6",
").	c #B5B5B8",
"!.	c #BDBDC0",
"~.	c #CECED0",
"{.	c #D3D3D6",
"].	c #D9D9DB",
"^.	c #E1E1E3",
"/.	c #E8E8EA",
"(.	c #F0F0F1",
"_.	c #E3E3E5",
":.	c #DEDEE0",
"<.	c #A0A0A1",
"[.	c #A5A5A8",
"}.	c #737375",
"|.	c #6D6D70",
"1.	c #6F6F71",
"2.	c #79797C",
"3.	c #5A5A5B",
"4.	c #DFDFE1",
"5.	c #DADADC",
"6.	c #DDDDDF",
"7.	c #E6E6E7",
"8.	c #DBDBDD",
"9.	c #DDDDDE",
"0.	c #E0E0E2",
"a.	c #E2E2E4",
"b.	c #BEBEBE",
"c.	c #DEDEDF",
"d.	c #D7D7D9",
"e.	c #D9D9DA",
"f.	c #D5D5D7",
"g.	c #D7D7D8",
"h.	c #D8D8D9",
"i.	c #D4D4D5",
"j.	c #B2B2B2",
"                                          ",
". . . . . . . . . . . . . . . . . . . . . ",
"+ + + + + + + + + + + + + + + + + + + + + ",
". . . . @ # $ % & * & = - = * # & ; > . . ",
"+ + + + - , ' ) ! ~ { ] ^ , ^ / ( _ : + + ",
"< < < < & { + [ } | [ [ 1 2 3 4 ( < < < < ",
"5 5 5 5 - ^ [ 6 7 8 9 0 a b c d e : : 5 5 ",
"_ _ _ _ f ^ [ g h i j k b l m 2 n o p _ _ ",
"q q q q f ^ [ 8 r j s b c m t u n 5 o q q ",
"v v v v f ) [ i w a x y z A B C e 5 o v v ",
"v v v v D E F G H b c m A I J K L 5 o v v ",
"v v v v D E F M N O z A P Q R < S T : v v ",
"v v v v U V W X Y Z A ` Q  ...+.S T : v v ",
"C C C C U V @.#.$.%.&.Q *.=.-.+ S o K C C ",
";.;.;.;.>.,.'.).!.~.{.].^./.(.^.( _.:.;.;.",
"u u u u <.,.[.}.( ( |.( 1.|.}.2.3.4.5.u u ",
"| | | | 6.7.6.4.8.9.0.:.^.a.9.9.4.0.].| | ",
"b.b.b.b.6.c.d.e.f.g.].h.5.8.g.g.e.].i.b.b.",
"j.j.j.j.j.j.j.j.j.j.j.j.j.j.j.j.j.j.j.j.j.",
"= = = = = = = = = = = = = = = = = = = = = ",
"{ { { { { { { { { { { { { { { { { { { { { "};
