/* XPM */
static char * shadepr_xpm[] = {
"21 21 8 1",
" 	c #A6ACAC",
".	c #676C75",
"+	c #26272B",
"@	c #70757F",
"#	c #5F636B",
"$	c #EFF0F0",
"%	c #565A62",
"&	c #828893",
"                     ",
".....................",
"+++++++++++++++++++++",
"@@@@@@@@@@@@@@@@@@@@@",
"#####################",
"#####################",
"#####################",
"#####################",
"#####################",
"#####################",
"#####################",
"##########$$#########",
"##########$$#########",
"#####################",
"#####################",
"#####################",
"#####################",
"%%%%%%%%%%%%%%%%%%%%%",
"+++++++++++++++++++++",
"                     ",
"&&&&&&&&&&&&&&&&&&&&&"};
