/* XPM */
static char * minpr_xpm[] = {
"25 25 2 1",
" 	c #E8E4DB",
".	c #B9A277",
"                         ",
"                         ",
"                         ",
"                         ",
"                         ",
"                         ",
"                         ",
"                         ",
"                         ",
"                         ",
"                         ",
"       ...........       ",
"        .........        ",
"         .......         ",
"          .....          ",
"           ...           ",
"            .            ",
"                         ",
"                         ",
"                         ",
"                         ",
"                         ",
"                         ",
"                         ",
"                         "};
