/* XPM */
static char * minpr_xpm[] = {
"21 21 104 2",
"  	c #ECECEB",
". 	c #C1C1C1",
"+ 	c #ECECEA",
"@ 	c #E7E7E6",
"# 	c #C4C4C3",
"$ 	c #D0D0CF",
"% 	c #CDCDCD",
"& 	c #C4C3C3",
"* 	c #E0D1C7",
"= 	c #DFD0C6",
"- 	c #DACBC2",
"; 	c #D9CAC1",
"> 	c #EDEDEB",
", 	c #EDECEB",
"' 	c #E0D2C8",
") 	c #DBCBC3",
"! 	c #C2B5AD",
"~ 	c #BBAFA7",
"{ 	c #BCAFA7",
"] 	c #C2B4AD",
"^ 	c #E1D1C8",
"/ 	c #EEEEEC",
"( 	c #EEEEED",
"_ 	c #EFEEED",
": 	c #C5C5C4",
"< 	c #CECDCD",
"[ 	c #E1D2C8",
"} 	c #DBCBC2",
"| 	c #B4A8A1",
"1 	c #B4A8A0",
"2 	c #BCAFA8",
"3 	c #DACBC1",
"4 	c #EFEFED",
"5 	c #EFEEEC",
"6 	c #F1F1F0",
"7 	c #C6C6C5",
"8 	c #CECECE",
"9 	c #E3D4CA",
"0 	c #DDCEC4",
"a 	c #C4B7AE",
"b 	c #BEB1A9",
"c 	c #BDB0A8",
"d 	c #BFB2AA",
"e 	c #DBCDC3",
"f 	c #F4F4F3",
"g 	c #F5F4F3",
"h 	c #C7C7C7",
"i 	c #CFCFCF",
"j 	c #E4D5CC",
"k 	c #E1D2CA",
"l 	c #D8C9C1",
"m 	c #D5C7BE",
"n 	c #D7C8BF",
"o 	c #D6C7BE",
"p 	c #C4B7AF",
"q 	c #DECEC6",
"r 	c #E5D6CC",
"s 	c #F4F4F4",
"t 	c #F4F5F3",
"u 	c #F6F6F6",
"v 	c #F6F6F5",
"w 	c #C8C8C8",
"x 	c #E5D6CD",
"y 	c #DFD0C7",
"z 	c #C6B9B1",
"A 	c #BFB3AB",
"B 	c #BEB2AA",
"C 	c #C5B8B0",
"D 	c #D7C9C0",
"E 	c #C6B9B2",
"F 	c #DECFC7",
"G 	c #F8F8F7",
"H 	c #F9F8F7",
"I 	c #F9F8F8",
"J 	c #C9C9C8",
"K 	c #D0D0D0",
"L 	c #E6D7CE",
"M 	c #E0D1C8",
"N 	c #C0B4AC",
"O 	c #D9CBC3",
"P 	c #CCBFB7",
"Q 	c #F8F9F7",
"R 	c #F8F8F8",
"S 	c #F8F8F6",
"T 	c #C9C8C8",
"U 	c #DECFC6",
"V 	c #E3D4CC",
"W 	c #E1D2C9",
"X 	c #E6D7CD",
"Y 	c #F9F9F8",
"Z 	c #F8F7F6",
"` 	c #EBEBEB",
" .	c #D4D4D4",
"..	c #D4D4D3",
"+.	c #ECEBEB",
"@.	c #F7F8F6",
"#.	c #F7F8F7",
"$.	c #F7F7F6",
"%.	c #F7F7F5",
"&.	c #F7F6F5",
"*.	c #F7F6F6",
"=.	c #F6F7F5",
"-.	c #F6F6F4",
";.	c #F7F6F4",
"                                          ",
"                                          ",
"      . . . . . . . . . . . . . . .       ",
"+ + . .               + + + +     . . +   ",
"+ + . + @ # # # # # # # # # # # @ + . + + ",
"+ + . + # $ % % % % % % % % % % & + . + + ",
"+ + . + # % * * * * * * * * * * # + . + + ",
"+ + . + # % * = - ; ; ; ; - = * # + . + + ",
"> , . , # % ' ) ! ~ { { { ] ) ^ # > . , > ",
"/ ( . _ : < [ } { | 1 | | 2 3 [ : 4 . 4 5 ",
"6 6 . 6 7 8 9 0 a b c c { d e 9 7 6 . 6 6 ",
"f g . g h i j k l m m n o p q r h s . f t ",
"u v . u w i x y z A B C D E F x w v . u u ",
"G H . I J K L M E N N E O P M L J H . Q R ",
"S S . G T K L x M U U * V W x X J S . G G ",
"I Y . H J K L L L L L L L L L L J I . I H ",
"G Z . G `  . . ... . . . ... ...+.G . S G ",
"@.#.. . S Z S G G $.$.S S S #.S $.. . #.Z ",
"$.$.$.. . . . . . . . . . . . . . . %.Z $.",
"&.%.&.&.&.%.&.*.&.&.&.%.&.$.&.%.%.=.&.%.%.",
"-.-.&.-.;.-.-.;.;.;.-.;.v ;.v v v v &.v v "};
