/* XPM */
static char * unshadeufcs_xpm[] = {
"21 21 26 1",
" 	c #FEFEFE",
".	c #FDFDFD",
"+	c #FCFCFC",
"@	c #FBFBFB",
"#	c #FAFAFA",
"$	c #F9F9F9",
"%	c #F8F8F8",
"&	c #F6F6F6",
"*	c #EEEEEE",
"=	c #ECECEC",
"-	c #EDEDED",
";	c #E8E8E8",
">	c #FFFFFF",
",	c #E7E7E7",
"'	c #F7F7F7",
")	c #D1D1D1",
"!	c #D0D0D0",
"~	c #D7D7D7",
"{	c #D6D6D6",
"]	c #F0F0F0",
"^	c #D8D8D8",
"/	c #D2D2D2",
"(	c #EFEFEF",
"_	c #F5F5F5",
":	c #F4F4F4",
"<	c #F3F3F3",
"                     ",
".....................",
".....................",
"+++++++++++++++++++++",
"@@@@@@+++++++++++++++",
"@@@@@@@@@@@@@@@@@@@@@",
"###############@@@@@@",
"#####################",
"$$$$$$$$$$$$$$$$$$$$$",
"$$$$$$$$$$$$$$$$$$$$$",
"%%%%%%%%&*=-&%%%%%%%%",
"%%%%%%%%;>>>,%%%%%%%%",
"'''''''')>>>!''''''''",
"''''''''~>>>{''''''''",
"&&&&&&&&]^/~(&&&&&&&&",
"&&&&&&&&&&&&&&&&&&&&&",
"_____________________",
"_____________________",
":::::::::::::::::::::",
":::::::::::::::::::::",
"<<<<<<<<<<<<<<<<<<<<<"};
