/* XPM */
static char * stuckfcs_xpm[] = {
"17 17 44 1",
" 	c #A6AB29",
".	c #777A1E",
"+	c #797C1E",
"@	c #7F8220",
"#	c #555721",
"$	c #848721",
"%	c #585921",
"&	c #A5A75D",
"*	c #B5B77A",
"=	c #888C22",
"-	c #5A5C22",
";	c #B8BA7A",
">	c #8D9123",
",	c #5D5F23",
"'	c #BBBD7B",
")	c #909424",
"!	c #5E6123",
"~	c #BCBF7C",
"{	c #939725",
"]	c #606224",
"^	c #BEC17C",
"/	c #E9EAD3",
"(	c #969A26",
"_	c #626424",
":	c #C0C27D",
"<	c #80871E",
"[	c #E6E7D2",
"}	c #989C26",
"|	c #636524",
"1	c #C1C47D",
"2	c #81891E",
"3	c #9B9F27",
"4	c #646725",
"5	c #C3C57D",
"6	c #848C1F",
"7	c #9DA127",
"8	c #666825",
"9	c #C4C77D",
"0	c #868D1F",
"a	c #A1A529",
"b	c #686A26",
"c	c #BABD63",
"d	c #C7C97F",
"e	c #6A6D26",
"                 ",
".................",
"+++++++++++++++++",
"@@#############@@",
"$%&***********&%$",
"=-;===========;-=",
">,'>>>>>>>>>>>',>",
")!~)))))))))))~!)",
"{]^{{{{/{/{{{{^]{",
"(_:<<<<<[<<<<<:_(",
"}|12222[[[22221|}",
"34566666666666543",
"78900000000000987",
"abcdddddddddddcba",
"  eeeeeeeeeeeee  ",
"                 ",
"                 "};
