/* XPM */
static char * closepr_xpm[] = {
"19 19 38 1",
" 	c #919191",
".	c #2A2A2A",
"+	c #A1A1A1",
"@	c #5E5E5E",
"#	c #777777",
"$	c #5F5F5F",
"%	c #606060",
"&	c #616161",
"*	c #636363",
"=	c #656565",
"-	c #626262",
";	c #666666",
">	c #6A6A6A",
",	c #6E6E6E",
"'	c #707070",
")	c #6B6B6B",
"!	c #6C6C6C",
"~	c #747474",
"{	c #7B7B7B",
"]	c #7D7D7D",
"^	c #757575",
"/	c #676767",
"(	c #717171",
"_	c #7C7C7C",
":	c #848484",
"<	c #878787",
"[	c #686868",
"}	c #7E7E7E",
"|	c #787878",
"1	c #2F2F2F",
"2	c #797979",
"3	c #555555",
"4	c #4D4D4D",
"5	c #7F7F7F",
"6	c #2E2E2E",
"7	c #868686",
"8	c #727272",
"9	c #767676",
"                 .+",
"@@@@@@@@@@@@@@@@@.#",
"@@@@$$%%%$$@@@@@@.#",
"@@$$&*===*&$$@@@@.#",
"@@$-;>,',);-$@@@@.#",
"@$&=!~{]{^!=&$@@@.#",
"@$-/(_:<:_([-$@@@.#",
"@$-[(_:<:_([-$@@@.#",
"@$&=!^{}{^!=&$@@@.#",
"@@$-;>,',);-$@@@@.#",
"@@$$&*===*&$$@@@@.|",
"@@@@$$%%%$$@@@@@@12",
"@@@@@@@@@@@@@@@@312",
"@@@@@@@@@@@@@@@3445",
"..............614{7",
"(((((((((((((8~957<",
"<<<<<<<<<<<<<<<<<<<",
"<<<<<<<<<<<<<<<<<<<",
"<<<<<<<<<<<<<<<<<<<"};
