/* XPM */
static char * menuiconufcs_xpm[] = {
"19 19 3 1",
" 	c #BABABA",
".	c #6A6A6A",
"+	c #979797",
"                   ",
"...................",
"...................",
"...................",
"...................",
"...................",
"...................",
"...................",
".......+++++.......",
".......+++++.......",
"...................",
".......+++++.......",
"...................",
"...................",
"...................",
"...................",
"...................",
"...................",
"..................."};
