/* XPM */
static char * menuiconfcs_xpm[] = {
"21 21 58 1",
" 	c #F7F1F9",
".	c #F4EBF7",
"+	c #F1E6F4",
"@	c #F0E5F3",
"#	c #EDDDF1",
"$	c #E7D8EB",
"%	c #E9D8EE",
"&	c #D8C9DD",
"*	c #D9C9DE",
"=	c #E6D1EB",
"-	c #646464",
";	c #E0C9E7",
">	c #B1A0B7",
",	c #BDAAC3",
"'	c #DCC2E4",
")	c #BCA6C2",
"!	c #C0AAC7",
"~	c #D8BBE1",
"{	c #A28EA8",
"]	c #BCA3C3",
"^	c #C9AFD2",
"/	c #D1B0DC",
"(	c #CCACD7",
"_	c #9C86A4",
":	c #A58DAE",
"<	c #AF95B8",
"[	c #B196BA",
"}	c #D0AFDB",
"|	c #AD80C0",
"1	c #926EA2",
"2	c #946FA4",
"3	c #9871A8",
"4	c #AF82C2",
"5	c #856792",
"6	c #9872A8",
"7	c #A379B4",
"8	c #AE81C1",
"9	c #B58AC6",
"0	c #AD84BD",
"a	c #B187C1",
"b	c #B990CA",
"c	c #8D7198",
"d	c #9475A1",
"e	c #AC86BC",
"f	c #AD87BC",
"g	c #C099CF",
"h	c #C6A1D3",
"i	c #9E82A8",
"j	c #A889B2",
"k	c #CEADD9",
"l	c #B094B9",
"m	c #B498BD",
"n	c #D6B9DF",
"o	c #C7ACCF",
"p	c #C8ADD0",
"q	c #DCC3E5",
"r	c #D7BEE0",
"s	c #E5D0EA",
"                     ",
".....................",
"++++++@@@@@@@@@++++++",
"######$$$$$$$$$######",
"%%%%%%&&&&&****%%%%%%",
"======---------======",
";;;;;;>>>>>,,,,;;;;;;",
"''''''-----)))!''''''",
"~~~~~~{{{{{]]]^~~~~~~",
"//////--------(//////",
"//////____:<<[}//////",
"||||||----1223|||||||",
"444444555566678844444",
"999999-------0aa99999",
"bbbbbbccccdddeffbbbbb",
"gggggg----------ggggg",
"hhhhhhiiiiiiijjjhhhhh",
"kkkkkklllllllmmmkkkkk",
"nnnnnnooooooopppnnnnn",
"qqqqqqrrrrrrrrrrqqqqq",
"======ssssssssss====="};
