/* XPM */
static char * closefcs_xpm[] = {
"19 19 179 2",
"  	c #FEC9C3",
". 	c #191919",
"+ 	c #FD6F60",
"@ 	c #FD6E5F",
"# 	c #FD6E60",
"$ 	c #FC6E5F",
"% 	c #FC6E60",
"& 	c #FECBC5",
"* 	c #663630",
"= 	c #FC7466",
"- 	c #FD7465",
"; 	c #FC7465",
"> 	c #FD7366",
", 	c #FC7365",
"' 	c #FD7364",
") 	c #FECCC7",
"! 	c #FC796B",
"~ 	c #FC7A6C",
"{ 	c #FC796C",
"] 	c #FD7A6B",
"^ 	c #FD796B",
"/ 	c #FECFC9",
"( 	c #FC7F71",
"_ 	c #FC8071",
": 	c #FC8274",
"< 	c #521B1B",
"[ 	c #FC7E72",
"} 	c #FC8174",
"| 	c #FC8175",
"1 	c #FC7E71",
"2 	c #FED1CC",
"3 	c #FC8578",
"4 	c #FC877A",
"5 	c #6C3F3E",
"6 	c #C1AFAD",
"7 	c #FC887B",
"8 	c #FC8478",
"9 	c #6C403E",
"0 	c #FC8477",
"a 	c #FED3CE",
"b 	c #FB8A7E",
"c 	c #FC8A7E",
"d 	c #FB8E81",
"e 	c #6C423E",
"f 	c #D6CBC9",
"g 	c #FDF6F5",
"h 	c #FC9084",
"i 	c #FC8D82",
"j 	c #FB8A7D",
"k 	c #FC8A7D",
"l 	c #FED4D0",
"m 	c #FB9084",
"n 	c #52221D",
"o 	c #C1B1AE",
"p 	c #FDFDFD",
"q 	c #FDFAF9",
"r 	c #D7CCCB",
"s 	c #876662",
"t 	c #D6CBCA",
"u 	c #FDF9F9",
"v 	c #FDF7F6",
"w 	c #C2B1AF",
"x 	c #53231E",
"y 	c #FB8F84",
"z 	c #FC9083",
"A 	c #FED7D3",
"B 	c #FB968A",
"C 	c #FC968A",
"D 	c #FB988D",
"E 	c #6C4642",
"F 	c #D8CDCC",
"G 	c #EBE6E6",
"H 	c #FFFCFB",
"I 	c #D7CDCB",
"J 	c #FC988C",
"K 	c #FB958A",
"L 	c #FC9589",
"M 	c #FED9D5",
"N 	c #FB9C91",
"O 	c #FB9C90",
"P 	c #FB9B90",
"Q 	c #FB9D93",
"R 	c #6E4A45",
"S 	c #D7CECD",
"T 	c #FDFAFA",
"U 	c #FFFCFC",
"V 	c #FB9E93",
"W 	c #FB9B8F",
"X 	c #FB9A90",
"Y 	c #FEDBD7",
"Z 	c #FBA196",
"` 	c #FBA197",
" .	c #FBA69B",
"..	c #876B68",
"+.	c #ECE8E7",
"@.	c #FEFEFE",
"#.	c #886C69",
"$.	c #FBA59C",
"%.	c #FBA096",
"&.	c #FBA195",
"*.	c #FAA096",
"=.	c #FEDDD9",
"-.	c #FBA69C",
";.	c #FBA79C",
">.	c #FAA99E",
",.	c #6C4C48",
"'.	c #D7CFCE",
").	c #FBA89E",
"!.	c #FAA69B",
"~.	c #FEDFDB",
"{.	c #FBACA2",
"].	c #FAAEA4",
"^.	c #6C4E4B",
"/.	c #D6CECD",
"(.	c #ECE8E8",
"_.	c #FAABA2",
":.	c #FBABA2",
"<.	c #FDE1DD",
"[.	c #FBB2A8",
"}.	c #FAB2A9",
"|.	c #52312D",
"1.	c #C1B6B4",
"2.	c #FDF8F8",
"3.	c #FFFDFC",
"4.	c #D7D0CF",
"5.	c #88716F",
"6.	c #FDFBFA",
"7.	c #FDF9F8",
"8.	c #C2B6B5",
"9.	c #52322E",
"0.	c #FAB1A8",
"a.	c #FBB1A8",
"b.	c #FDE3E0",
"c.	c #FAB7AF",
"d.	c #FAB8AE",
"e.	c #FABAB1",
"f.	c #6C5350",
"g.	c #D7D1D0",
"h.	c #6D5450",
"i.	c #FABBB2",
"j.	c #6C534F",
"k.	c #FAB9B0",
"l.	c #FAB7AE",
"m.	c #FDE5E2",
"n.	c #FABDB5",
"o.	c #FABCB4",
"p.	c #F9BDB4",
"q.	c #FABFB7",
"r.	c #6D5653",
"s.	c #C2B8B7",
"t.	c #F9BFB6",
"u.	c #FABCB5",
"v.	c #FABFB6",
"w.	c #C2B9B7",
"x.	c #FABEB6",
"y.	c #F9BCB4",
"z.	c #FDE7E4",
"A.	c #F9C2BB",
"B.	c #FAC2BA",
"C.	c #F9C2BA",
"D.	c #F9C3BD",
"E.	c #523936",
"F.	c #F9C4BC",
"G.	c #FAC2BB",
"H.	c #F9C3BC",
"I.	c #FDE9E6",
"J.	c #FAC8C1",
"K.	c #F9C8C0",
"L.	c #F9C8C1",
"M.	c #F9C7C0",
"N.	c #FAC8C0",
"O.	c #FAC7C0",
"P.	c #FDEBE8",
"Q.	c #F9CEC6",
"R.	c #F9CDC7",
"S.	c #F9CEC7",
"T.	c #F9CDC6",
"U.	c #FACDC6",
"V.	c #FDEDEA",
"                              . . . . ",
"+ @ # $ @ @ % @ @ @ $ $ @ @ @ & & * . ",
"= - ; - = ; = ; > ; - ; - ; , ' - ) . ",
"! ~ { ] { ^ ] { ^ { ^ ^ ! ! ! ! ^ / . ",
"( _ ( _ : < : ( [ ( } < | ( ( ( ( 1 2 ",
"3 3 3 4 5 6 5 7 8 4 9 6 5 7 0 0 0 0 a ",
"b c d e f g f e h e f g f e i j k c l ",
"m m n o g p q r s t u p v w x m y z A ",
"B C D E F q p q G q p H I E J K K L M ",
"N O P Q R S T p p p U S R V P P W X Y ",
"Z ` Z Z  ...+.p @.@.+.#.$.%.&.%.%.*.=.",
"-.;.-.>.,.'.T p @.@.U S ,.).!.!.-.-.~.",
"{.{.].^./.T p U (.U p T '.^.]._.:._.<.",
"[.}.|.1.2.p 3.4.5.'.6.p 7.8.9.0.0.a.b.",
"c.d.e.f.g.7.4.h.i.h.g.7.4.j.k.l.l.l.m.",
"n.o.p.q.r.s.r.t.u.v.r.w.r.x.y.o.o.o.z.",
"A.B.B.C.D.E.F.G.B.C.D.E.H.B.C.C.C.C.I.",
"J.J.K.K.L.L.J.L.M.N.L.K.L.M.L.L.K.O.P.",
"Q.R.S.R.T.R.S.T.Q.Q.R.Q.T.T.R.U.R.T.V."};
