/* XPM */
static char * minfcs_xpm[] = {
"19 19 142 2",
"  	c #FEC9C3",
". 	c #FD6F60",
"+ 	c #FD6E5F",
"@ 	c #FD6E60",
"# 	c #FC6E5F",
"$ 	c #FC6E60",
"% 	c #FD6E5E",
"& 	c #FC6E5E",
"* 	c #FD6D5F",
"= 	c #FC7466",
"- 	c #FD7465",
"; 	c #FC7465",
"> 	c #FD7366",
", 	c #FC7365",
"' 	c #FD7364",
") 	c #FD7365",
"! 	c #FC7364",
"~ 	c #FC796B",
"{ 	c #FC7A6C",
"] 	c #FC796C",
"^ 	c #FD7A6B",
"/ 	c #FD796B",
"( 	c #FC796A",
"_ 	c #FC7F71",
": 	c #FC8071",
"< 	c #FC7F72",
"[ 	c #FC7E72",
"} 	c #FC7E71",
"| 	c #FC8578",
"1 	c #FC8477",
"2 	c #FB8478",
"3 	c #FC8577",
"4 	c #FC8478",
"5 	c #FB8578",
"6 	c #FB8A7E",
"7 	c #FC8A7E",
"8 	c #FB8B7E",
"9 	c #FC8A7D",
"0 	c #FB8A7D",
"a 	c #FC897E",
"b 	c #FC897D",
"c 	c #FB9084",
"d 	c #FC9084",
"e 	c #FC9083",
"f 	c #FB9083",
"g 	c #FB8F84",
"h 	c #FB8F83",
"i 	c #FC8F84",
"j 	c #FB968A",
"k 	c #FC968A",
"l 	c #FB958A",
"m 	c #FC958A",
"n 	c #FB9689",
"o 	c #FB9589",
"p 	c #FC9589",
"q 	c #FB9C91",
"r 	c #FB9C90",
"s 	c #FB9B90",
"t 	c #FB9B8F",
"u 	c #FB9A90",
"v 	c #FBA196",
"w 	c #FBA197",
"x 	c #FBA096",
"y 	c #FBA195",
"z 	c #FAA196",
"A 	c #FAA096",
"B 	c #FBA095",
"C 	c #FBA69C",
"D 	c #FBA79C",
"E 	c #FAA79C",
"F 	c #7D2B21",
"G 	c #8D433A",
"H 	c #8E483F",
"I 	c #904940",
"J 	c #90493F",
"K 	c #8F4940",
"L 	c #8F493F",
"M 	c #8B4339",
"N 	c #7E2B21",
"O 	c #FBA69B",
"P 	c #FBACA2",
"Q 	c #FAACA2",
"R 	c #8C483F",
"S 	c #FCE4E1",
"T 	c #FDEFED",
"U 	c #FCEFEE",
"V 	c #FDEFEE",
"W 	c #FCEFED",
"X 	c #8D4840",
"Y 	c #FAABA2",
"Z 	c #FBB2A8",
"` 	c #FAB2A9",
" .	c #FBB1A8",
"..	c #8F534A",
"+.	c #FCF0EE",
"@.	c #FDFCFC",
"#.	c #FDFDFD",
"$.	c #FCF0EF",
"%.	c #90534B",
"&.	c #FAB1A8",
"*.	c #FAB7AF",
"=.	c #FAB8AE",
"-.	c #FAB8AF",
";.	c #8F5750",
">.	c #FCF1F0",
",.	c #FEFEFE",
"'.	c #FDF2F1",
").	c #905850",
"!.	c #FAB7AE",
"~.	c #FABDB5",
"{.	c #FABCB4",
"].	c #F9BDB4",
"^.	c #8C574F",
"/.	c #FDEAE8",
"(.	c #FEF4F2",
"_.	c #FDF3F2",
":.	c #FDEBE8",
"<.	c #8C5750",
"[.	c #FABDB3",
"}.	c #F9C2BB",
"|.	c #FAC2BA",
"1.	c #F9C2BA",
"2.	c #7C4640",
"3.	c #8C5B54",
"4.	c #8E615A",
"5.	c #90615B",
"6.	c #90615A",
"7.	c #8F615A",
"8.	c #8F615B",
"9.	c #8B5C55",
"0.	c #7D473F",
"a.	c #FAC8C1",
"b.	c #F9C8C0",
"c.	c #F9C8C1",
"d.	c #F9C7C0",
"e.	c #FAC8C0",
"f.	c #FAC7C0",
"g.	c #F9CEC6",
"h.	c #F9CDC7",
"i.	c #F9CEC7",
"j.	c #F9CDC6",
"k.	c #FACDC6",
"                                      ",
". + @ # + + $ + + + # # + + + % + & * ",
"= - ; - = ; = ; > ; - ; - ; , ' - ) ! ",
"~ { ] ^ ] / ^ ] / ] / / ~ ~ ~ ~ / ( ~ ",
"_ : _ : _ < _ _ [ _ } _ [ _ _ _ _ } _ ",
"| | | 1 2 3 4 3 4 1 5 4 1 3 1 1 1 1 1 ",
"6 7 8 6 9 6 0 7 9 7 7 9 9 a 7 0 9 7 b ",
"c c d e f f g f e c h i e g h c g e g ",
"j k j l m n l l j l l l o k p l l p m ",
"q r s s s s s s s t s s s s s s t u s ",
"v w v v v v x y v z v x x x y x x A B ",
"C D C E F G H I I J J K I J L M N C O ",
"P P Q P R S T U U V U V V V W S X Y Q ",
"Z `  .` ..+.@.#.#.#.#.#.#.#.#.$.%. .&.",
"*.=.-.*.;.>.#.,.,.,.,.,.,.,.,.'.).!.!.",
"~.{.].~.^./.(._._._._._._._._.:.<.{.[.",
"}.|.|.1.2.3.4.5.6.7.8.7.7.6.7.9.0.1.|.",
"a.a.b.b.c.c.a.c.d.e.c.b.c.d.c.c.b.f.f.",
"g.h.i.h.j.h.i.j.g.g.h.g.j.j.h.k.h.j.j."};
