/* XPM */
static char * minpr_xpm[] = {
"19 19 163 2",
"  	c #FEC9C3",
". 	c #FD6F60",
"+ 	c #FD6E5F",
"@ 	c #FD6E60",
"# 	c #FC6E5F",
"$ 	c #FC6E60",
"% 	c #FD6E5E",
"& 	c #FC6E5E",
"* 	c #FD6D5F",
"= 	c #FC7466",
"- 	c #FD7465",
"; 	c #FC7465",
"> 	c #FD7366",
", 	c #FC7365",
"' 	c #FD7364",
") 	c #FD7365",
"! 	c #FC7364",
"~ 	c #FC796B",
"{ 	c #FC7A6C",
"] 	c #FC796C",
"^ 	c #FD7A6B",
"/ 	c #FD796B",
"( 	c #FC796A",
"_ 	c #FC7F71",
": 	c #FC8071",
"< 	c #FC7F72",
"[ 	c #FC7E72",
"} 	c #FC7E71",
"| 	c #FC8578",
"1 	c #FC8477",
"2 	c #FB8478",
"3 	c #FC8577",
"4 	c #FC8478",
"5 	c #FB8578",
"6 	c #FB8A7E",
"7 	c #FC8A7E",
"8 	c #FB8B7E",
"9 	c #FC8A7D",
"0 	c #FB8A7D",
"a 	c #FC897E",
"b 	c #FC897D",
"c 	c #FB9084",
"d 	c #FC9084",
"e 	c #FC9083",
"f 	c #FB9083",
"g 	c #FB8F84",
"h 	c #FB8F83",
"i 	c #FC8F84",
"j 	c #FB968A",
"k 	c #FC968A",
"l 	c #FB958A",
"m 	c #FC958A",
"n 	c #FB9689",
"o 	c #FB9589",
"p 	c #FC9589",
"q 	c #FB9C91",
"r 	c #FB9C90",
"s 	c #FB9B90",
"t 	c #FB9D93",
"u 	c #FB9E93",
"v 	c #FB9F94",
"w 	c #FB9F93",
"x 	c #FB9D92",
"y 	c #FB9B91",
"z 	c #FBA196",
"A 	c #FBA197",
"B 	c #FBA297",
"C 	c #FBA89E",
"D 	c #FCB3AA",
"E 	c #FCB7AF",
"F 	c #FCB7AE",
"G 	c #FBB7AF",
"H 	c #FCB6AF",
"I 	c #FCB2AA",
"J 	c #FAA79E",
"K 	c #FBA69C",
"L 	c #FBA79C",
"M 	c #FBA89F",
"N 	c #FBB8AF",
"O 	c #B68883",
"P 	c #C49F9A",
"Q 	c #C09994",
"R 	c #C09894",
"S 	c #C09993",
"T 	c #C09893",
"U 	c #BF9894",
"V 	c #C09A95",
"W 	c #C39E99",
"X 	c #B68782",
"Y 	c #FBACA2",
"Z 	c #FAAFA5",
"` 	c #FCC0B8",
" .	c #C4A19D",
"..	c #FDEEEC",
"+.	c #FDF3F1",
"@.	c #FDF3F2",
"#.	c #C5A29E",
"$.	c #FBBFB8",
"%.	c #FBB2A8",
"&.	c #FAB2A9",
"*.	c #FBB4AB",
"=.	c #FBC4BE",
"-.	c #C2A09C",
";.	c #FDFCFC",
">.	c #FDFDFD",
",.	c #FDF4F3",
"'.	c #C2A19C",
").	c #FCC4BD",
"!.	c #FAB4AB",
"~.	c #FAB7AF",
"{.	c #FAB8AE",
"].	c #FABBB2",
"^.	c #FBC8C2",
"/.	c #C1A29F",
"(.	c #FEFEFE",
"_.	c #FDF5F4",
":.	c #C2A39F",
"<.	c #FBC8C1",
"[.	c #FABAB1",
"}.	c #FABDB5",
"|.	c #FABCB4",
"1.	c #F9BFB7",
"2.	c #FBCDC6",
"3.	c #C4A9A6",
"4.	c #FEF3F1",
"5.	c #FEF7F6",
"6.	c #FDF6F5",
"7.	c #C4AAA6",
"8.	c #FBCCC6",
"9.	c #FABFB6",
"0.	c #F9C2BB",
"a.	c #FAC2BA",
"b.	c #FAC4BC",
"c.	c #FACDC7",
"d.	c #B69794",
"e.	c #C4ABA7",
"f.	c #C1A8A3",
"g.	c #C0A6A3",
"h.	c #C1A7A4",
"i.	c #C3ABA8",
"j.	c #B69894",
"k.	c #FAC8C1",
"l.	c #F9C8C0",
"m.	c #F9CCC5",
"n.	c #FAD2CD",
"o.	c #FAD5D0",
"p.	c #FBD5D0",
"q.	c #FAD4CF",
"r.	c #FBD5CF",
"s.	c #FAD5CF",
"t.	c #FAD2CC",
"u.	c #FACBC5",
"v.	c #FAC7C0",
"w.	c #F9CEC6",
"x.	c #F9CDC7",
"y.	c #F9CEC7",
"z.	c #F9CFC9",
"A.	c #F9D0C9",
"B.	c #F9CFC8",
"C.	c #F9D0C8",
"D.	c #FACFC8",
"E.	c #F9CEC8",
"F.	c #F9CDC6",
"                                      ",
". + @ # + + $ + + + # # + + + % + & * ",
"= - ; - = ; = ; > ; - ; - ; , ' - ) ! ",
"~ { ] ^ ] / ^ ] / ] / / ~ ~ ~ ~ / ( ~ ",
"_ : _ : _ < _ _ [ _ } _ [ _ _ _ _ } _ ",
"| | | 1 2 3 4 3 4 1 5 4 1 3 1 1 1 1 1 ",
"6 7 8 6 9 6 0 7 9 7 7 9 9 a 7 0 9 7 b ",
"c c d e f f g f e c h i e g h c g e g ",
"j k j l m n l l j l l l o k p l l p m ",
"q r s q t u v v v w v v v v v u x y s ",
"z A B C D E E F E G E E E E F H I J z ",
"K L M N O P Q R R S T U R T V W X E C ",
"Y Y Z `  ...+.+.@.+.+.+.+.+.@...#.$.Z ",
"%.&.*.=.-.@.;.>.>.>.>.>.>.>.>.,.'.).!.",
"~.{.].^./.,.>.(.(.(.(.(.(.(.(._.:.<.[.",
"}.|.1.2.3.4.5.6.6.6.6.6.6.6.6.4.7.8.9.",
"0.a.b.c.d.e.f.g.g.g.g.g.g.g.h.i.j.c.b.",
"k.k.l.m.n.o.p.o.q.r.o.s.o.q.o.o.t.u.v.",
"w.x.y.x.y.z.A.B.C.C.z.C.B.B.z.D.E.F.F."};
