/* XPM */
static char * tbarfcs_xpm[] = {
"19 19 114 2",
"  	c #FEC9C3",
". 	c #FD6F60",
"+ 	c #FD6E5F",
"@ 	c #FD6E60",
"# 	c #FC6E5F",
"$ 	c #FC6E60",
"% 	c #FD6E5E",
"& 	c #FC6E5E",
"* 	c #FD6D5F",
"= 	c #FC7466",
"- 	c #FD7465",
"; 	c #FC7465",
"> 	c #FD7366",
", 	c #FC7365",
"' 	c #FD7364",
") 	c #FD7365",
"! 	c #FC7364",
"~ 	c #FC796B",
"{ 	c #FC7A6C",
"] 	c #FC796C",
"^ 	c #FD7A6B",
"/ 	c #FD796B",
"( 	c #FC796A",
"_ 	c #FC7F71",
": 	c #FC8071",
"< 	c #FC7F72",
"[ 	c #FC7E72",
"} 	c #FC7E71",
"| 	c #FC8578",
"1 	c #FC8477",
"2 	c #FB8478",
"3 	c #FC8577",
"4 	c #FC8478",
"5 	c #FB8578",
"6 	c #FB8A7E",
"7 	c #FC8A7E",
"8 	c #FB8B7E",
"9 	c #FC8A7D",
"0 	c #FB8A7D",
"a 	c #FC897E",
"b 	c #FC897D",
"c 	c #FB9084",
"d 	c #FC9084",
"e 	c #FC9083",
"f 	c #FB9083",
"g 	c #FB8F84",
"h 	c #FB8F83",
"i 	c #FC8F84",
"j 	c #FB968A",
"k 	c #FC968A",
"l 	c #FB958A",
"m 	c #FC958A",
"n 	c #FB9689",
"o 	c #FB9589",
"p 	c #FC9589",
"q 	c #FB9C91",
"r 	c #FB9C90",
"s 	c #FB9B90",
"t 	c #FB9B8F",
"u 	c #FB9A90",
"v 	c #FBA196",
"w 	c #FBA197",
"x 	c #FBA096",
"y 	c #FBA195",
"z 	c #FAA196",
"A 	c #FAA096",
"B 	c #FBA095",
"C 	c #FBA69C",
"D 	c #FBA79C",
"E 	c #FAA79C",
"F 	c #FAA69C",
"G 	c #FBA79B",
"H 	c #FBA69B",
"I 	c #FAA69B",
"J 	c #FBACA2",
"K 	c #FAACA2",
"L 	c #FAABA2",
"M 	c #FAACA3",
"N 	c #FBABA2",
"O 	c #FAACA1",
"P 	c #FBB2A8",
"Q 	c #FAB2A9",
"R 	c #FBB1A8",
"S 	c #FAB2A8",
"T 	c #FAB1A8",
"U 	c #FBB2A9",
"V 	c #FAB7AF",
"W 	c #FAB8AE",
"X 	c #FAB8AF",
"Y 	c #FAB7AE",
"Z 	c #FABDB5",
"` 	c #FABCB4",
" .	c #F9BDB4",
"..	c #FABDB4",
"+.	c #F9BDB5",
"@.	c #FABCB5",
"#.	c #F9BCB4",
"$.	c #FABDB3",
"%.	c #F9C2BB",
"&.	c #FAC2BA",
"*.	c #F9C2BA",
"=.	c #F9C3BA",
"-.	c #FAC2BB",
";.	c #FAC8C1",
">.	c #F9C8C0",
",.	c #F9C8C1",
"'.	c #F9C7C0",
").	c #FAC8C0",
"!.	c #FAC7C0",
"~.	c #F9CEC6",
"{.	c #F9CDC7",
"].	c #F9CEC7",
"^.	c #F9CDC6",
"/.	c #FACDC6",
"                                      ",
". + @ # + + $ + + + # # + + + % + & * ",
"= - ; - = ; = ; > ; - ; - ; , ' - ) ! ",
"~ { ] ^ ] / ^ ] / ] / / ~ ~ ~ ~ / ( ~ ",
"_ : _ : _ < _ _ [ _ } _ [ _ _ _ _ } _ ",
"| | | 1 2 3 4 3 4 1 5 4 1 3 1 1 1 1 1 ",
"6 7 8 6 9 6 0 7 9 7 7 9 9 a 7 0 9 7 b ",
"c c d e f f g f e c h i e g h c g e g ",
"j k j l m n l l j l l l o k p l l p m ",
"q r s s s s s s s t s s s s s s t u s ",
"v w v v v v x y v z v x x x y x x A B ",
"C D C E F C F C C G H F C H I I C C H ",
"J J K J K K J L M J K N J N O L N L K ",
"P Q R Q S T Q S U T T T S T T T T R T ",
"V W X V V Y V Y Y Y Y V Y Y Y Y Y Y Y ",
"Z `  .Z ..` +. .@...@. .Z ` #.` ` ` $.",
"%.&.&.*.%.&.=.-.&.*.%.*.*.&.*.*.*.*.&.",
";.;.>.>.,.,.;.,.'.).,.>.,.'.,.,.>.!.!.",
"~.{.].{.^.{.].^.~.~.{.~.^.^.{./.{.^.^."};
