/* XPM */
static char * minfcs_xpm[] = {
"19 19 82 1",
" 	c #DADADA",
".	c #EAEAEA",
"+	c #E5E5E5",
"@	c #DFDFDF",
"#	c #D5D5D5",
"$	c #C7C7C7",
"%	c #C0C0C0",
"&	c #CECECE",
"*	c #ACACAC",
"=	c #989898",
"-	c #8E8E8E",
";	c #DEDEDE",
">	c #D2D2D2",
",	c #A3A3A3",
"'	c #909090",
")	c #B1B1B1",
"!	c #B2B2B2",
"~	c #9A9A9A",
"{	c #949494",
"]	c #A6A6A6",
"^	c #BDBDBD",
"/	c #9D9D9D",
"(	c #56835A",
"_	c #105B17",
":	c #14601B",
"<	c #5C8E61",
"[	c #AEAEAE",
"}	c #A2A2A2",
"|	c #BFBFBF",
"1	c #B0B0B0",
"2	c #ADADAD",
"3	c #5C8D62",
"4	c #0C6318",
"5	c #12691F",
"6	c #1A7028",
"7	c #22772F",
"8	c #71A27A",
"9	c #B4B4B4",
"0	c #C6C6C6",
"a	c #2B7B39",
"b	c #277A35",
"c	c #2F803E",
"d	c #3A8848",
"e	c #448E51",
"f	c #589B64",
"g	c #C9C9C9",
"h	c #B7B7B7",
"i	c #C3C3C3",
"j	c #4A9158",
"k	c #4A9157",
"l	c #549961",
"m	c #60A06C",
"n	c #6BA875",
"o	c #7FB287",
"p	c #D1D1D1",
"q	c #CACACA",
"r	c #D6D6D6",
"s	c #CFCFCF",
"t	c #BCBCBC",
"u	c #97BB9D",
"v	c #70AB7B",
"w	c #7BB186",
"x	c #88B991",
"y	c #93C09B",
"z	c #BAD0BD",
"A	c #C2C2C2",
"B	c #D3D3D3",
"C	c #D7D7D7",
"D	c #C8C8C8",
"E	c #B6CEBA",
"F	c #A8CCB1",
"G	c #B4D3BB",
"H	c #CBDBCF",
"I	c #CBCBCB",
"J	c #D9D9D9",
"K	c #E0E0E0",
"L	c #DCDCDC",
"M	c #E3E3E3",
"N	c #D0D0D0",
"O	c #E9E9E9",
"P	c #F0F0F0",
"Q	c #F1F1F1",
"                   ",
"...................",
"+++++++++++++++++++",
"@@@@@@@@@@@@@@@@@@@",
"@@@@@@#$%%$#@@@@@@@",
"@@@@@&*=--=*&@@@@@@",
";;;;>,'=)!~{]>;;;;;",
"@@@@^/*(_:<[}|@@@@@",
"@@@@12345678)9@@@@@",
";;;;!0abcdefgh;;;;;",
";;;;i&jklmnopq;;;;;",
"rrrrstuvwxyzABrrrrr",
">>>>CpDEFGHI#J>>>>>",
"ppppp;KCLLJMKpppppp",
"NNNNNNLOPQ.LNNNNNNN",
"&&&&&&&&&&&&&&&&&&&",
"IIIIIIIIIIIIIIIIIII",
"IIIIIIIIIIIIIIIIIII",
"IIIIIIIIIIIIIIIIIII"};
