/* XPM */
static char * maxfcs_xpm[] = {
"19 19 122 2",
"  	c #83AFD5",
". 	c #709DC3",
"+ 	c #6F9CC2",
"@ 	c #6A97BF",
"# 	c #6997BE",
"$ 	c #6A98BF",
"% 	c #6794BC",
"& 	c #5785B0",
"* 	c #5481AE",
"= 	c #5B88B3",
"- 	c #1F3A5B",
"; 	c #203A5B",
"> 	c #203A5C",
", 	c #719EC3",
"' 	c #97C2DE",
") 	c #99C2DF",
"! 	c #99C3DF",
"~ 	c #9AC4DF",
"{ 	c #99C4DF",
"] 	c #98C3DF",
"^ 	c #97C1DE",
"/ 	c #719EC2",
"( 	c #6996BE",
"_ 	c #94C0DC",
": 	c #759FC1",
"< 	c #78A2C3",
"[ 	c #79A4C4",
"} 	c #79A4C5",
"| 	c #78A4C4",
"1 	c #78A2C4",
"2 	c #94BFDC",
"3 	c #94BEDB",
"4 	c #76A0C1",
"5 	c #7AA4C4",
"6 	c #3E5363",
"7 	c #7AA3C4",
"8 	c #759FC0",
"9 	c #91BCD9",
"0 	c #759FBF",
"a 	c #3D5261",
"b 	c #FFFFFF",
"c 	c #759EBF",
"d 	c #92BCD8",
"e 	c #739CBF",
"f 	c #6C96BA",
"g 	c #5680A9",
"h 	c #90BAD6",
"i 	c #739CBC",
"j 	c #3B5060",
"k 	c #3C5060",
"l 	c #729CBC",
"m 	c #91BAD6",
"n 	c #6C95B8",
"o 	c #658EB2",
"p 	c #5079A0",
"q 	c #8EB8D4",
"r 	c #7099B9",
"s 	c #3B4E5E",
"t 	c #3B4F5F",
"u 	c #3C4F5F",
"v 	c #3B505F",
"w 	c #8DB7D4",
"x 	c #618CB1",
"y 	c #5B85AB",
"z 	c #456F98",
"A 	c #8CB5D1",
"B 	c #648CAD",
"C 	c #344958",
"D 	c #35495A",
"E 	c #354A5A",
"F 	c #344A59",
"G 	c #638CAC",
"H 	c #8CB4D1",
"I 	c #5F84A4",
"J 	c #597D9E",
"K 	c #446789",
"L 	c #89B2CF",
"M 	c #608AA9",
"N 	c #334757",
"O 	c #6089A8",
"P 	c #5A81A2",
"Q 	c #547A9C",
"R 	c #3F6487",
"S 	c #86B0CD",
"T 	c #5C86A5",
"U 	c #618AA8",
"V 	c #314655",
"W 	c #314555",
"X 	c #324555",
"Y 	c #314654",
"Z 	c #6288A8",
"` 	c #5D84A4",
" .	c #86B0CC",
"..	c #82ACC9",
"+.	c #577F9F",
"@.	c #5A82A0",
"#.	c #5C83A1",
"$.	c #5B83A2",
"%.	c #5C83A2",
"&.	c #5B83A1",
"*.	c #5B82A1",
"=.	c #577F9E",
"-.	c #557B9C",
";.	c #42678A",
">.	c #1F395B",
",.	c #5C84A3",
"'.	c #81AAC7",
").	c #80ABC7",
"!.	c #81ACC7",
"~.	c #81ABC8",
"{.	c #81ABC7",
"].	c #80ABC8",
"^.	c #7FA9C6",
"/.	c #5C83A4",
"(.	c #547B9C",
"_.	c #5980A1",
":.	c #517899",
"<.	c #466B8E",
"[.	c #517799",
"}.	c #43678A",
"|.	c #557B9D",
"1.	c #627483",
"                                      ",
". . . + @ # # # # # # # # # $ + . . . ",
". . + % & * * * * * * * * * & % + . . ",
". + % = - - ; > > > > > ; - - = % + . ",
". @ & - , ' ) ! ~ ~ { { ] ^ / - & $ . ",
". ( * ; _ : < [ } } | [ 1 : 2 ; * ( . ",
". # * ; 3 4 5 6 6 6 6 6 7 8 3 ; * # . ",
". # * > 9 0 a b b b b b a c d > * # . ",
"e f g > h i j b b b b b k l m > g f e ",
"n o p ; q r s b t u v b s r w ; p o n ",
"x y z ; A B C b D E F b C G H ; z y x ",
"I J K ; L M N b b b b b N O L ; K J I ",
"P Q R ; S T U V W X Y X Z `  .; R Q P ",
"P Q R - ..+.@.#.$.$.%.&.*.=...- R Q P ",
"P -.;.>.,.'.).!.~.~.{.{.].^./.>.;.(.P ",
"P _.:.<.>.- ; ; ; ; ; ; ; - >.<.[._.P ",
"P P _.:.}.R R R R R R R R R }.:._.P P ",
"P P P _.-.Q Q Q Q Q Q Q Q Q |._.P P P ",
"1.1.1.1.1.1.1.1.1.1.1.1.1.1.1.1.1.1.1."};
