/* XPM */
static char * stickufcs_xpm[] = {
"19 19 7 1",
" 	c #FFFEFD",
".	c #FDF8F1",
"+	c #FBF7F0",
"@	c #F9F3E9",
"#	c #F3EDE2",
"$	c #ECE6DB",
"%	c #D0CCC7",
"                   ",
"...................",
"...................",
"...................",
"...................",
"...................",
"...................",
"...................",
"+++++++++++++++++++",
"@@@@@@@@@@@@@@@@@@@",
"###################",
"$$$$$$$$$$$$$$$$$$$",
"$$$$$$$$$$$$$$$$$$$",
"$$$$$$$$$$$$$$$$$$$",
"$$$$$$$$$$$$$$$$$$$",
"$$$$$$$$$$$$$$$$$$$",
"$$$$$$$$$$$$$$$$$$$",
"$$$$$$$$$$$$$$$$$$$",
"%%%%%%%%%%%%%%%%%%%"};
