/* XPM */
static char * shadefcs_xpm[] = {
"17 17 8 1",
" 	c #82826E",
".	c #6A6A5D",
"+	c #636357",
"@	c #E0E0DD",
"#	c #58584C",
"$	c #DEDEDB",
"%	c #53534D",
"&	c #3F3F36",
"                 ",
".................",
".................",
".................",
".................",
".................",
".................",
".................",
"++++++++@@+++++++",
"########$$#######",
"%%%%%%%%%%%%%%%%%",
"%%%%%%%%%%%%%%%%%",
"%%%%%%%%%%%%%%%%%",
"%%%%%%%%%%%%%%%%%",
"%%%%%%%%%%%%%%%%%",
"%%%%%%%%%%%%%%%%%",
"&&&&&&&&&&&&&&&&&"};
