/* XPM */
static char * shadeufcs_xpm[] = {
"21 21 24 1",
" 	c #87C2F2",
".	c #8AC0F5",
"+	c #83BBF3",
"@	c #80B7F1",
"#	c #7AB1EA",
"$	c #73ACE6",
"%	c #6DA6E2",
"&	c #68A1DF",
"*	c #609AD8",
"=	c #5C96D5",
"-	c #5A95D5",
";	c #528CCC",
">	c #4B86C6",
",	c #3A74B5",
"'	c #FFFFFF",
")	c #3772B3",
"!	c #3870B4",
"~	c #0C317F",
"{	c #3872B4",
"]	c #0C337F",
"^	c #3972B7",
"/	c #3573B1",
"(	c #3E73B2",
"_	c #3A75B6",
"                     ",
".....................",
"+++++++++++++++++++++",
"@@@@@@@@@@@@@@@@@@@@@",
"#####################",
"$$$$$$$$$$$$$$$$$$$$$",
"%%%%%%%%%%%%%%%%%%%%%",
"&&&&&&&&&&&&&&&&&&&&&",
"*********************",
"=====================",
"---------------------",
";;;;;;;;;;;;;;;;;;;;;",
">>>>>>>>>>>>>>>>>>>>>",
",,,,,,,,,',,,,,,,,,,,",
")))))))))''''))))))))",
"!!!!!!!!!~~~'!!!!!!!!",
"{{{{{{{{{{{{]{{{{{{{{",
"^^^^^^^^^^^^^^^^^^^^^",
"/////////////////////",
"(((((((((((((((((((((",
"_____________________"};
