/* XPM */
static char * menuiconpr_xpm[] = {
"21 21 161 2",
"  	c #919191",
". 	c #686868",
"+ 	c #696969",
"@ 	c #676767",
"# 	c #6A6A6A",
"$ 	c #666665",
"% 	c #666666",
"& 	c #797979",
"* 	c #2A2A2B",
"= 	c #2D2D2C",
"- 	c #2D2E2D",
"; 	c #2E2E2E",
"> 	c #2E2D2D",
", 	c #2E2E2D",
"' 	c #2D2D2E",
") 	c #2D2E2E",
"! 	c #2D2D2D",
"~ 	c #2A2A2A",
"{ 	c #797878",
"] 	c #656666",
"^ 	c #656464",
"/ 	c #767676",
"( 	c #282828",
"_ 	c #7D5F5F",
": 	c #6F4C4D",
"< 	c #734F50",
"[ 	c #755150",
"} 	c #755151",
"| 	c #765152",
"1 	c #765151",
"2 	c #765050",
"3 	c #744F4F",
"4 	c #704D4C",
"5 	c #282829",
"6 	c #646464",
"7 	c #636363",
"8 	c #7D6060",
"9 	c #714E4E",
"0 	c #765252",
"a 	c #785454",
"b 	c #795453",
"c 	c #795454",
"d 	c #606161",
"e 	c #757575",
"f 	c #272626",
"g 	c #7B5E5E",
"h 	c #704C4C",
"i 	c #745050",
"j 	c #795152",
"k 	c #775151",
"l 	c #775252",
"m 	c #795252",
"n 	c #795251",
"o 	c #7A5153",
"p 	c #75514F",
"q 	c #6E4C4C",
"r 	c #7C5E5E",
"s 	c #262727",
"t 	c #616161",
"u 	c #5F5F5F",
"v 	c #737373",
"w 	c #252526",
"x 	c #795C5C",
"y 	c #6D4A4A",
"z 	c #734E4E",
"A 	c #755050",
"B 	c #704D4D",
"C 	c #583C3C",
"D 	c #523939",
"E 	c #734F4F",
"F 	c #252525",
"G 	c #5F605F",
"H 	c #5E5E5E",
"I 	c #727272",
"J 	c #765B5B",
"K 	c #694848",
"L 	c #6F4D4D",
"M 	c #724F4F",
"N 	c #5A3F3F",
"O 	c #FFFFFF",
"P 	c #5A3E3E",
"Q 	c #6A4949",
"R 	c #765A5B",
"S 	c #5C5C5C",
"T 	c #707070",
"U 	c #232323",
"V 	c #745959",
"W 	c #664545",
"X 	c #6C4A4A",
"Y 	c #6E4B4B",
"Z 	c #644444",
"` 	c #3A2828",
" .	c #322222",
"..	c #5B5B5B",
"+.	c #6F6F6F",
"@.	c #222222",
"#.	c #715858",
"$.	c #644343",
"%.	c #6A4648",
"&.	c #6C494A",
"*.	c #56393B",
"=.	c #553939",
"-.	c #6C4A49",
";.	c #6A4747",
">.	c #725757",
",.	c #5B5A5A",
"'.	c #545454",
").	c #1D1D1D",
"!.	c #6A5252",
"~.	c #5B3D3D",
"{.	c #604141",
"].	c #624344",
"^.	c #593C3C",
"/.	c #342323",
"(.	c #2D1E1E",
"_.	c #624343",
":.	c #6B5252",
"<.	c #4D4D4D",
"[.	c #181818",
"}.	c #634D4D",
"|.	c #523636",
"1.	c #573A3A",
"2.	c #593B3B",
"3.	c #472F2F",
"4.	c #462E2E",
"5.	c #624D4D",
"6.	c #513636",
"7.	c #563939",
"8.	c #583B3B",
"9.	c #533838",
"0.	c #422C2C",
"a.	c #3D2929",
"b.	c #563A3A",
"c.	c #614B4B",
"d.	c #503434",
"e.	c #553838",
"f.	c #573939",
"g.	c #583B3A",
"h.	c #553A3A",
"i.	c #624B4B",
"j.	c #5F4B4B",
"k.	c #4D3333",
"l.	c #626262",
"m.	c #5D4A4A",
"n.	c #483131",
"o.	c #4C3333",
"p.	c #4D3434",
"q.	c #4D3535",
"r.	c #4D3335",
"s.	c #4D3433",
"t.	c #4B3333",
"u.	c #483030",
"v.	c #5D4A49",
"w.	c #171717",
"x.	c #402B2A",
"y.	c #5B4848",
"z.	c #5C4949",
"A.	c #5D4949",
"B.	c #5D494A",
"C.	c #5B4849",
"D.	c #402A2B",
"                                          ",
". . . . . + + + + + + + + + + + . . . . . ",
"@ @ @ . + # # # # # # # # # # # + . @ @ @ ",
"$ % & * = - ; > , , , ; ' ) ; ; ! ~ { $ ] ",
"^ / ( _ : < [ } } } } } | 1 2 3 4 _ 5 / 6 ",
"7 / ( 8 9 0 a b c c c c c c c 0 9 8 ( / 7 ",
"d e f g h i j k l m m n l o l p q r s e t ",
"u v w x y z A B C D D D C B A E y x F v G ",
"H I F J K L M N O O O O O P M B Q R F I H ",
"S T U V W X Y Z `  . . .` Z Y y W V U T S ",
"..+.@.#.$.%.&.*.O O O O O =.-.;.$.>.@.+.,.",
"'.+ ).!.~.{.].^./.(.(.(./.^._.{.~.:.).+ '.",
"<.7 [.}.|.1.2.3.O O O O O 4.2.1.|.}.[.7 <.",
"<.7 [.5.6.7.8.9.0.a.a.a.0.9.8.b.6.5.[.7 <.",
"<.7 [.c.d.e.f.g.1.1.h.h.1.b.7.e.d.i.[.7 <.",
"<.7 [.j.k.6.9.9.9.9.9.9.9.9.9.6.k.j.[.7 <.",
"<.l.[.m.n.o.k.p.o.k.q.q.r.s.p.t.u.v.[.l.<.",
"<.l.w.x.y.z.A.B.v.A.B.A.A.m.A.z.C.D.w.l.<.",
"<.<.l.w.[.[.[.[.[.[.[.[.[.[.[.[.[.w.l.<.<.",
"<.<.<.l.l.7 7 7 7 7 7 7 7 7 7 7 l.l.<.<.<.",
"<.<.<.<.<.<.<.<.<.<.<.<.<.<.<.<.<.<.<.<.<."};
