/* XPM */
static char * tbarufcs_xpm[] = {
"21 21 35 1",
" 	c #898989",
".	c #595959",
"+	c #585858",
"@	c #575756",
"#	c #575757",
"$	c #565657",
"%	c #565756",
"&	c #575656",
"*	c #565757",
"=	c #565656",
"-	c #565555",
";	c #555555",
">	c #555556",
",	c #555655",
"'	c #565556",
")	c #565655",
"!	c #545454",
"~	c #535454",
"{	c #545453",
"]	c #525353",
"^	c #535353",
"/	c #535252",
"(	c #535253",
"_	c #525252",
":	c #535352",
"<	c #515151",
"[	c #515152",
"}	c #525152",
"|	c #525151",
"1	c #515251",
"2	c #505050",
"3	c #4E4E4E",
"4	c #4D4D4D",
"5	c #474747",
"6	c #424242",
"                     ",
".....................",
"+++++++++++++++++++++",
"@##$@%#&@@@#$*###=&@*",
"-;;;>>,;;;;;'---);>;;",
"!!!!!!~{!!!!!!!!!!!!!",
"]^/^^](_^^^:^(]:]^]^^",
"<<[}<<|<|<<||<<<<[<<1",
"222222222222222222222",
"333333333333333333333",
"444444444444444444444",
"555555555555555555555",
"666666666666666666666",
"666666666666666666666",
"666666666666666666666",
"666666666666666666666",
"666666666666666666666",
"666666666666666666666",
"666666666666666666666",
"666666666666666666666",
"666666666666666666666"};
