/* XPM */
static char * menuiconfcs_xpm[] = {
"21 21 11 1",
" 	c #DCDCDC",
".	c #DDDDDD",
"+	c #D8D8D8",
"@	c #D3D3D3",
"#	c #CFCFCF",
"$	c #CACACA",
"%	c #C7C7C7",
"&	c #000000",
"*	c #C4C4C4",
"=	c #C2C2C2",
"-	c #C1C1C1",
"                     ",
"                     ",
".....................",
".....................",
"                     ",
"+++++++++++++++++++++",
"@@@@@@@@@@@@@@@@@@@@@",
"#####################",
"$$$$$$$$$$$$$$$$$$$$$",
"%%%%%%%&&&&&&&%%%%%%%",
"*********************",
"=======&&&&&&&=======",
"---------------------",
"-------&&&&&&&-------",
"---------------------",
"---------------------",
"=====================",
"---------------------",
"---------------------",
"=====================",
"====================="};
