/* XPM */
static char * maxufcs_xpm[] = {
"17 17 131 2",
"  	c #5F5F5F",
". 	c #878787",
"+ 	c #1B1B1B",
"@ 	c #E0DDDD",
"# 	c #DDDDDD",
"$ 	c #DDDBDD",
"% 	c #DBDDDB",
"& 	c #DBDBDB",
"* 	c #D9D9D9",
"= 	c #D9D9D7",
"- 	c #D7D7D7",
"; 	c #D5D5D7",
"> 	c #777777",
", 	c #999999",
"' 	c #222222",
") 	c #E8E8E8",
"! 	c #E8E7E8",
"~ 	c #E7E7E8",
"{ 	c #E7E7E7",
"] 	c #E6E7E7",
"^ 	c #E7E7E6",
"/ 	c #6C6C6C",
"( 	c #909090",
"_ 	c #1F1F1F",
": 	c #CDCDCD",
"< 	c #CBCDCD",
"[ 	c #CDCBCB",
"} 	c #CBCBCB",
"| 	c #CBCACA",
"1 	c #CACBCB",
"2 	c #CACACA",
"3 	c #C8CAC8",
"4 	c #C8C8C8",
"5 	c #C8C5C5",
"6 	c #606060",
"7 	c #888888",
"8 	c #AEAEAF",
"9 	c #AEAEAE",
"0 	c #ADAEAD",
"a 	c #ADADAD",
"b 	c #ABADAD",
"c 	c #ABABAB",
"d 	c #ABABAA",
"e 	c #ABAAAB",
"f 	c #AAAAAA",
"g 	c #595959",
"h 	c #828282",
"i 	c #191919",
"j 	c #979797",
"k 	c #969797",
"l 	c #969696",
"m 	c #969393",
"n 	c #939693",
"o 	c #939393",
"p 	c #919393",
"q 	c #939191",
"r 	c #505050",
"s 	c #7B7B7B",
"t 	c #161616",
"u 	c #818181",
"v 	c #808181",
"w 	c #808080",
"x 	c #807E80",
"y 	c #7E807E",
"z 	c #7E7E7E",
"A 	c #818080",
"B 	c #474747",
"C 	c #757575",
"D 	c #131313",
"E 	c #7C7C7D",
"F 	c #7D7D7D",
"G 	c #7D7E7E",
"H 	c #7E7E7F",
"I 	c #7E7F7F",
"J 	c #7F7F7F",
"K 	c #7F7F81",
"L 	c #3F3F3F",
"M 	c #6E6E6E",
"N 	c #111111",
"O 	c #7C7C7C",
"P 	c #7C7E7E",
"Q 	c #7C7E7C",
"R 	c #808082",
"S 	c #828280",
"T 	c #383838",
"U 	c #696969",
"V 	c #0F0F0F",
"W 	c #838181",
"X 	c #838383",
"Y 	c #838385",
"Z 	c #858585",
"` 	c #333333",
" .	c #666666",
"..	c #0D0D0D",
"+.	c #898789",
"@.	c #898989",
"#.	c #89898B",
"$.	c #8B8B89",
"%.	c #8B8B8B",
"&.	c #8D8B8D",
"*.	c #8D8D8D",
"=.	c #303030",
"-.	c #646464",
";.	c #0C0C0C",
">.	c #929292",
",.	c #949292",
"'.	c #949294",
").	c #949494",
"!.	c #959494",
"~.	c #949595",
"{.	c #959595",
"].	c #959795",
"^.	c #2B2B2B",
"/.	c #5A5A5A",
"(.	c #0A0A0A",
"_.	c #9A9A9A",
":.	c #9A9D9A",
"<.	c #9A9D9D",
"[.	c #9D9D9D",
"}.	c #9F9F9D",
"|.	c #9F9F9F",
"1.	c #272727",
"2.	c #404040",
"3.	c #232323",
"4.	c #252525",
"5.	c #4F4F4F",
"6.	c #4E4E4E",
"7.	c #4D4D4D",
"8.	c #2F2F2F",
"9.	c #2E2E2E",
"0.	c #2D2D2D",
"  . + @ # $ % & & * * = - ; + .   ",
"> , ' ) ) ) ! ~ { { { { ] ^ ' , > ",
"/ ( _ : < [ } | 1 2 2 3 4 5 _ ( / ",
"6 7 + 8 9 9 0 a b b c d e f + 7 6 ",
"g h i j j j j k l m n o p q i h g ",
"r s t u u v w x y y z y w A t s r ",
"B C D E F F G z H I I J K u D C B ",
"L M N O P Q z x w R S S h h N M L ",
"T U V u u W X Y Z Z Z Z Z Z V U T ",
"`  ...+.@.@.#.$.%.%.%.%.&.*... .` ",
"=.-.;.>.,.'.).!.~.{.].j j j ;.-.=.",
"^./.(._._._._._.:.<.[.}.|.|.(./.^.",
"1.2.(.(.(.(.(.(.(.(.(.(.(.(.(.2.1.",
"3.4.5.6.7.6.6.6.6.6.6.6.7.6.5.4.3.",
"8.8.9.0.0.0.0.0.0.0.0.0.0.0.9.8.8.",
"7.7.7.7.7.7.7.7.7.7.7.7.7.7.7.7.7.",
"` ` ` ` ` ` ` ` ` ` ` ` ` ` ` ` ` "};
