/* XPM */
static char * maxpr_xpm[] = {
"14 14 78 1",
" 	c #A5B489",
".	c #728F3F",
"+	c #728F3D",
"@	c #718F3D",
"#	c #718F3F",
"$	c #7A9748",
"%	c #7A9746",
"&	c #FFFFFF",
"*	c #779645",
"=	c #779545",
"-	c #769543",
";	c #819F52",
">	c #819E52",
",	c #7F9C4F",
"'	c #7E9C4D",
")	c #8BA55C",
"!	c #8AA55C",
"~	c #87A359",
"{	c #87A259",
"]	c #92AD66",
"^	c #93AD66",
"/	c #92AD65",
"(	c #92AC65",
"_	c #92AC64",
":	c #91AC64",
"<	c #91AB64",
"[	c #90AB64",
"}	c #90AA62",
"|	c #9CB46F",
"1	c #9AB46F",
"2	c #9AB36F",
"3	c #99B36F",
"4	c #99B36E",
"5	c #99B26F",
"6	c #99B26E",
"7	c #98B26E",
"8	c #99B26C",
"9	c #98B16C",
"0	c #A2BC7B",
"a	c #A2BC79",
"b	c #A2BB79",
"c	c #A2BB78",
"d	c #A1BB79",
"e	c #A2BA78",
"f	c #A1BB78",
"g	c #A1BA78",
"h	c #A0BA78",
"i	c #A0BA76",
"j	c #ACC383",
"k	c #AAC283",
"l	c #AAC182",
"m	c #A9C181",
"n	c #A9C182",
"o	c #A8C181",
"p	c #A8C081",
"q	c #B4CB8E",
"r	c #B3CB8E",
"s	c #B0C78B",
"t	c #B2C78B",
"u	c #BCD298",
"v	c #BCD198",
"w	c #BBD197",
"x	c #BBD198",
"y	c #BAD097",
"z	c #BAD095",
"A	c #B9D095",
"B	c #B9CF95",
"C	c #C4D9A2",
"D	c #C4D9A1",
"E	c #C3D9A1",
"F	c #C3D7A1",
"G	c #C2D7A1",
"H	c #C3D7A0",
"I	c #C2D7A0",
"J	c #C1D6A0",
"K	c #C1D79E",
"L	c #C2D6A0",
"M	c #C1D59E",
"              ",
"              ",
"              ",
"..++@.#.+@.@##",
"$$%&&&&&&&&*=-",
";>>&&&&&&&&,,'",
")!!&&&&&&&&~~{",
"]^/&((_::<&<[}",
"|12&234567&879",
"0ab&cdefgg&hhi",
"jkj&kkllmn&opp",
"qrq&&&&&&&&sst",
"uvwxwwyzzzzABB",
"CDEEEFGHIIJKLM"};
